%FSLAX45Y45*%
G04 Gerber Fmt 4.5, Leading zero omitted, Abs format (unit mm)*
G04 Created by KiCad (PCBNEW 4.0.2-stable) date 9/5/2017 3:04:58 PM*
%MOMM*%
G01*
G04 APERTURE LIST*
%ADD10C,0.127000*%
%ADD11C,0.150000*%
%ADD12C,0.200000*%
%ADD13C,0.300000*%
G04 APERTURE END LIST*
D10*
D11*
X15000000Y-12200000D02*
X13000000Y-12200000D01*
X13000000Y-12200000D02*
X11000000Y-12200000D01*
X11000000Y-12200000D02*
X9000000Y-12200000D01*
X9000000Y-12200000D02*
X7000000Y-12200000D01*
X7000000Y-12200000D02*
X5000000Y-12200000D01*
X15000000Y-9800000D02*
X13000000Y-9800000D01*
X13000000Y-9800000D02*
X11000000Y-9800000D01*
X11000000Y-9800000D02*
X9000000Y-9800000D01*
X9000000Y-9800000D02*
X7000000Y-9800000D01*
X7000000Y-9800000D02*
X5000000Y-9800000D01*
X15000000Y-7400000D02*
X13000000Y-7400000D01*
X13000000Y-7400000D02*
X11000000Y-7400000D01*
X11000000Y-7400000D02*
X9000000Y-7400000D01*
X9000000Y-7400000D02*
X7000000Y-7400000D01*
X7000000Y-7400000D02*
X5000000Y-7400000D01*
X15000000Y-5000000D02*
X13000000Y-5000000D01*
X13000000Y-5000000D02*
X11000000Y-5000000D01*
X11000000Y-5000000D02*
X9000000Y-5000000D01*
X9000000Y-5000000D02*
X7000000Y-5000000D01*
X13000000Y-12200000D02*
X13000000Y-14600000D01*
X11000000Y-12200000D02*
X11000000Y-14600000D01*
X9000000Y-12200000D02*
X9000000Y-14600000D01*
X7000000Y-12200000D02*
X7000000Y-14600000D01*
X5000000Y-12200000D02*
X5000000Y-14600000D01*
X13000000Y-9800000D02*
X13000000Y-12200000D01*
X11000000Y-9800000D02*
X11000000Y-12200000D01*
X9000000Y-9800000D02*
X9000000Y-12200000D01*
X7000000Y-9800000D02*
X7000000Y-12200000D01*
X5000000Y-9800000D02*
X5000000Y-12200000D01*
X13000000Y-7400000D02*
X13000000Y-9800000D01*
X11000000Y-7400000D02*
X11000000Y-9800000D01*
X9000000Y-7400000D02*
X9000000Y-9800000D01*
X7000000Y-7400000D02*
X7000000Y-9800000D01*
X5000000Y-7400000D02*
X5000000Y-9800000D01*
X13000000Y-5000000D02*
X13000000Y-7400000D01*
X11000000Y-5000000D02*
X11000000Y-7400000D01*
X9000000Y-5000000D02*
X9000000Y-7400000D01*
X7000000Y-5000000D02*
X7000000Y-7400000D01*
X15000000Y-14600000D02*
X15000000Y-12200000D01*
X13000000Y-14600000D02*
X13000000Y-12200000D01*
X11000000Y-14600000D02*
X11000000Y-12200000D01*
X9000000Y-14600000D02*
X9000000Y-12200000D01*
X7000000Y-14600000D02*
X7000000Y-12200000D01*
X15000000Y-12200000D02*
X15000000Y-9800000D01*
X13000000Y-12200000D02*
X13000000Y-9800000D01*
X11000000Y-12200000D02*
X11000000Y-9800000D01*
X9000000Y-12200000D02*
X9000000Y-9800000D01*
X7000000Y-12200000D02*
X7000000Y-9800000D01*
X15000000Y-9800000D02*
X15000000Y-7400000D01*
X13000000Y-9800000D02*
X13000000Y-7400000D01*
X11000000Y-9800000D02*
X11000000Y-7400000D01*
X9000000Y-9800000D02*
X9000000Y-7400000D01*
X7000000Y-9800000D02*
X7000000Y-7400000D01*
X15000000Y-7400000D02*
X15000000Y-5000000D01*
X13000000Y-7400000D02*
X13000000Y-5000000D01*
X11000000Y-7400000D02*
X11000000Y-5000000D01*
X9000000Y-7400000D02*
X9000000Y-5000000D01*
X13000000Y-14600000D02*
X15000000Y-14600000D01*
X11000000Y-14600000D02*
X13000000Y-14600000D01*
X9000000Y-14600000D02*
X11000000Y-14600000D01*
X7000000Y-14600000D02*
X9000000Y-14600000D01*
X5000000Y-14600000D02*
X7000000Y-14600000D01*
X13000000Y-12200000D02*
X15000000Y-12200000D01*
X11000000Y-12200000D02*
X13000000Y-12200000D01*
X9000000Y-12200000D02*
X11000000Y-12200000D01*
X7000000Y-12200000D02*
X9000000Y-12200000D01*
X5000000Y-12200000D02*
X7000000Y-12200000D01*
X13000000Y-9800000D02*
X15000000Y-9800000D01*
X11000000Y-9800000D02*
X13000000Y-9800000D01*
X9000000Y-9800000D02*
X11000000Y-9800000D01*
X7000000Y-9800000D02*
X9000000Y-9800000D01*
X5000000Y-9800000D02*
X7000000Y-9800000D01*
X13000000Y-7400000D02*
X15000000Y-7400000D01*
X11000000Y-7400000D02*
X13000000Y-7400000D01*
X9000000Y-7400000D02*
X11000000Y-7400000D01*
X7000000Y-7400000D02*
X9000000Y-7400000D01*
X7000000Y-5000000D02*
X5000000Y-5000000D01*
X7000000Y-7400000D02*
X7000000Y-5000000D01*
X5000000Y-7400000D02*
X7000000Y-7400000D01*
X5000000Y-5000000D02*
X5000000Y-7400000D01*
D12*
X5159050Y-5323000D02*
X5199050Y-5363000D01*
X5199050Y-5323000D02*
X5159050Y-5363000D01*
X5159050Y-7723000D02*
X5199050Y-7763000D01*
X5199050Y-7723000D02*
X5159050Y-7763000D01*
X5159050Y-10123000D02*
X5199050Y-10163000D01*
X5199050Y-10123000D02*
X5159050Y-10163000D01*
X5159050Y-12523000D02*
X5199050Y-12563000D01*
X5199050Y-12523000D02*
X5159050Y-12563000D01*
X5320340Y-6717340D02*
X5360340Y-6757340D01*
X5360340Y-6717340D02*
X5320340Y-6757340D01*
X5320340Y-9117340D02*
X5360340Y-9157340D01*
X5360340Y-9117340D02*
X5320340Y-9157340D01*
X5320340Y-11517340D02*
X5360340Y-11557340D01*
X5360340Y-11517340D02*
X5320340Y-11557340D01*
X5320340Y-13917340D02*
X5360340Y-13957340D01*
X5360340Y-13917340D02*
X5320340Y-13957340D01*
X5388920Y-6717340D02*
X5428920Y-6757340D01*
X5428920Y-6717340D02*
X5388920Y-6757340D01*
X5388920Y-9117340D02*
X5428920Y-9157340D01*
X5428920Y-9117340D02*
X5388920Y-9157340D01*
X5388920Y-11517340D02*
X5428920Y-11557340D01*
X5428920Y-11517340D02*
X5388920Y-11557340D01*
X5388920Y-13917340D02*
X5428920Y-13957340D01*
X5428920Y-13917340D02*
X5388920Y-13957340D01*
X5457500Y-6717340D02*
X5497500Y-6757340D01*
X5497500Y-6717340D02*
X5457500Y-6757340D01*
X5457500Y-9117340D02*
X5497500Y-9157340D01*
X5497500Y-9117340D02*
X5457500Y-9157340D01*
X5457500Y-11517340D02*
X5497500Y-11557340D01*
X5497500Y-11517340D02*
X5457500Y-11557340D01*
X5457500Y-13917340D02*
X5497500Y-13957340D01*
X5497500Y-13917340D02*
X5457500Y-13957340D01*
X5526080Y-6717340D02*
X5566080Y-6757340D01*
X5566080Y-6717340D02*
X5526080Y-6757340D01*
X5526080Y-9117340D02*
X5566080Y-9157340D01*
X5566080Y-9117340D02*
X5526080Y-9157340D01*
X5526080Y-11517340D02*
X5566080Y-11557340D01*
X5566080Y-11517340D02*
X5526080Y-11557340D01*
X5526080Y-13917340D02*
X5566080Y-13957340D01*
X5566080Y-13917340D02*
X5526080Y-13957340D01*
X5594660Y-6717340D02*
X5634660Y-6757340D01*
X5634660Y-6717340D02*
X5594660Y-6757340D01*
X5594660Y-9117340D02*
X5634660Y-9157340D01*
X5634660Y-9117340D02*
X5594660Y-9157340D01*
X5594660Y-11517340D02*
X5634660Y-11557340D01*
X5634660Y-11517340D02*
X5594660Y-11557340D01*
X5594660Y-13917340D02*
X5634660Y-13957340D01*
X5634660Y-13917340D02*
X5594660Y-13957340D01*
X5597200Y-6044240D02*
X5637200Y-6084240D01*
X5637200Y-6044240D02*
X5597200Y-6084240D01*
X5597200Y-8444240D02*
X5637200Y-8484240D01*
X5637200Y-8444240D02*
X5597200Y-8484240D01*
X5597200Y-10844240D02*
X5637200Y-10884240D01*
X5637200Y-10844240D02*
X5597200Y-10884240D01*
X5597200Y-13244240D02*
X5637200Y-13284240D01*
X5637200Y-13244240D02*
X5597200Y-13284240D01*
X5642920Y-6089960D02*
X5682920Y-6129960D01*
X5682920Y-6089960D02*
X5642920Y-6129960D01*
X5642920Y-8489960D02*
X5682920Y-8529960D01*
X5682920Y-8489960D02*
X5642920Y-8529960D01*
X5642920Y-10889960D02*
X5682920Y-10929960D01*
X5682920Y-10889960D02*
X5642920Y-10929960D01*
X5642920Y-13289960D02*
X5682920Y-13329960D01*
X5682920Y-13289960D02*
X5642920Y-13329960D01*
X5863900Y-6747820D02*
X5903900Y-6787820D01*
X5903900Y-6747820D02*
X5863900Y-6787820D01*
X5863900Y-9147820D02*
X5903900Y-9187820D01*
X5903900Y-9147820D02*
X5863900Y-9187820D01*
X5863900Y-11547820D02*
X5903900Y-11587820D01*
X5903900Y-11547820D02*
X5863900Y-11587820D01*
X5863900Y-13947820D02*
X5903900Y-13987820D01*
X5903900Y-13947820D02*
X5863900Y-13987820D01*
X5912160Y-6796080D02*
X5952160Y-6836080D01*
X5952160Y-6796080D02*
X5912160Y-6836080D01*
X5912160Y-9196080D02*
X5952160Y-9236080D01*
X5952160Y-9196080D02*
X5912160Y-9236080D01*
X5912160Y-11596080D02*
X5952160Y-11636080D01*
X5952160Y-11596080D02*
X5912160Y-11636080D01*
X5912160Y-13996080D02*
X5952160Y-14036080D01*
X5952160Y-13996080D02*
X5912160Y-14036080D01*
X5975660Y-6105200D02*
X6015660Y-6145200D01*
X6015660Y-6105200D02*
X5975660Y-6145200D01*
X5975660Y-6168700D02*
X6015660Y-6208700D01*
X6015660Y-6168700D02*
X5975660Y-6208700D01*
X5975660Y-8505200D02*
X6015660Y-8545200D01*
X6015660Y-8505200D02*
X5975660Y-8545200D01*
X5975660Y-8568700D02*
X6015660Y-8608700D01*
X6015660Y-8568700D02*
X5975660Y-8608700D01*
X5975660Y-10905200D02*
X6015660Y-10945200D01*
X6015660Y-10905200D02*
X5975660Y-10945200D01*
X5975660Y-10968700D02*
X6015660Y-11008700D01*
X6015660Y-10968700D02*
X5975660Y-11008700D01*
X5975660Y-13305200D02*
X6015660Y-13345200D01*
X6015660Y-13305200D02*
X5975660Y-13345200D01*
X5975660Y-13368700D02*
X6015660Y-13408700D01*
X6015660Y-13368700D02*
X5975660Y-13408700D01*
X6328720Y-6723690D02*
X6368720Y-6763690D01*
X6368720Y-6723690D02*
X6328720Y-6763690D01*
X6328720Y-9123690D02*
X6368720Y-9163690D01*
X6368720Y-9123690D02*
X6328720Y-9163690D01*
X6328720Y-11523690D02*
X6368720Y-11563690D01*
X6368720Y-11523690D02*
X6328720Y-11563690D01*
X6328720Y-13923690D02*
X6368720Y-13963690D01*
X6368720Y-13923690D02*
X6328720Y-13963690D01*
X6397300Y-6723690D02*
X6437300Y-6763690D01*
X6437300Y-6723690D02*
X6397300Y-6763690D01*
X6397300Y-9123690D02*
X6437300Y-9163690D01*
X6437300Y-9123690D02*
X6397300Y-9163690D01*
X6397300Y-11523690D02*
X6437300Y-11563690D01*
X6437300Y-11523690D02*
X6397300Y-11563690D01*
X6397300Y-13923690D02*
X6437300Y-13963690D01*
X6437300Y-13923690D02*
X6397300Y-13963690D01*
X6465880Y-6723690D02*
X6505880Y-6763690D01*
X6505880Y-6723690D02*
X6465880Y-6763690D01*
X6465880Y-9123690D02*
X6505880Y-9163690D01*
X6505880Y-9123690D02*
X6465880Y-9163690D01*
X6465880Y-11523690D02*
X6505880Y-11563690D01*
X6505880Y-11523690D02*
X6465880Y-11563690D01*
X6465880Y-13923690D02*
X6505880Y-13963690D01*
X6505880Y-13923690D02*
X6465880Y-13963690D01*
X6468420Y-5323000D02*
X6508420Y-5363000D01*
X6508420Y-5323000D02*
X6468420Y-5363000D01*
X6468420Y-7723000D02*
X6508420Y-7763000D01*
X6508420Y-7723000D02*
X6468420Y-7763000D01*
X6468420Y-10123000D02*
X6508420Y-10163000D01*
X6508420Y-10123000D02*
X6468420Y-10163000D01*
X6468420Y-12523000D02*
X6508420Y-12563000D01*
X6508420Y-12523000D02*
X6468420Y-12563000D01*
X6534460Y-6723690D02*
X6574460Y-6763690D01*
X6574460Y-6723690D02*
X6534460Y-6763690D01*
X6534460Y-9123690D02*
X6574460Y-9163690D01*
X6574460Y-9123690D02*
X6534460Y-9163690D01*
X6534460Y-11523690D02*
X6574460Y-11563690D01*
X6574460Y-11523690D02*
X6534460Y-11563690D01*
X6534460Y-13923690D02*
X6574460Y-13963690D01*
X6574460Y-13923690D02*
X6534460Y-13963690D01*
X6595420Y-6049320D02*
X6635420Y-6089320D01*
X6635420Y-6049320D02*
X6595420Y-6089320D01*
X6595420Y-8449320D02*
X6635420Y-8489320D01*
X6635420Y-8449320D02*
X6595420Y-8489320D01*
X6595420Y-10849320D02*
X6635420Y-10889320D01*
X6635420Y-10849320D02*
X6595420Y-10889320D01*
X6595420Y-13249320D02*
X6635420Y-13289320D01*
X6635420Y-13249320D02*
X6595420Y-13289320D01*
X6603040Y-6723690D02*
X6643040Y-6763690D01*
X6643040Y-6723690D02*
X6603040Y-6763690D01*
X6603040Y-9123690D02*
X6643040Y-9163690D01*
X6643040Y-9123690D02*
X6603040Y-9163690D01*
X6603040Y-11523690D02*
X6643040Y-11563690D01*
X6643040Y-11523690D02*
X6603040Y-11563690D01*
X6603040Y-13923690D02*
X6643040Y-13963690D01*
X6643040Y-13923690D02*
X6603040Y-13963690D01*
X6641140Y-6095040D02*
X6681140Y-6135040D01*
X6681140Y-6095040D02*
X6641140Y-6135040D01*
X6641140Y-8495040D02*
X6681140Y-8535040D01*
X6681140Y-8495040D02*
X6641140Y-8535040D01*
X6641140Y-10895040D02*
X6681140Y-10935040D01*
X6681140Y-10895040D02*
X6641140Y-10935040D01*
X6641140Y-13295040D02*
X6681140Y-13335040D01*
X6681140Y-13295040D02*
X6641140Y-13335040D01*
X6839260Y-6653840D02*
X6879260Y-6693840D01*
X6879260Y-6653840D02*
X6839260Y-6693840D01*
X6839260Y-6719880D02*
X6879260Y-6759880D01*
X6879260Y-6719880D02*
X6839260Y-6759880D01*
X6839260Y-9053840D02*
X6879260Y-9093840D01*
X6879260Y-9053840D02*
X6839260Y-9093840D01*
X6839260Y-9119880D02*
X6879260Y-9159880D01*
X6879260Y-9119880D02*
X6839260Y-9159880D01*
X6839260Y-11453840D02*
X6879260Y-11493840D01*
X6879260Y-11453840D02*
X6839260Y-11493840D01*
X6839260Y-11519880D02*
X6879260Y-11559880D01*
X6879260Y-11519880D02*
X6839260Y-11559880D01*
X6839260Y-13853840D02*
X6879260Y-13893840D01*
X6879260Y-13853840D02*
X6839260Y-13893840D01*
X6839260Y-13919880D02*
X6879260Y-13959880D01*
X6879260Y-13919880D02*
X6839260Y-13959880D01*
X7159050Y-5323000D02*
X7199050Y-5363000D01*
X7199050Y-5323000D02*
X7159050Y-5363000D01*
X7159050Y-7723000D02*
X7199050Y-7763000D01*
X7199050Y-7723000D02*
X7159050Y-7763000D01*
X7159050Y-10123000D02*
X7199050Y-10163000D01*
X7199050Y-10123000D02*
X7159050Y-10163000D01*
X7159050Y-12523000D02*
X7199050Y-12563000D01*
X7199050Y-12523000D02*
X7159050Y-12563000D01*
X7320340Y-6717340D02*
X7360340Y-6757340D01*
X7360340Y-6717340D02*
X7320340Y-6757340D01*
X7320340Y-9117340D02*
X7360340Y-9157340D01*
X7360340Y-9117340D02*
X7320340Y-9157340D01*
X7320340Y-11517340D02*
X7360340Y-11557340D01*
X7360340Y-11517340D02*
X7320340Y-11557340D01*
X7320340Y-13917340D02*
X7360340Y-13957340D01*
X7360340Y-13917340D02*
X7320340Y-13957340D01*
X7388920Y-6717340D02*
X7428920Y-6757340D01*
X7428920Y-6717340D02*
X7388920Y-6757340D01*
X7388920Y-9117340D02*
X7428920Y-9157340D01*
X7428920Y-9117340D02*
X7388920Y-9157340D01*
X7388920Y-11517340D02*
X7428920Y-11557340D01*
X7428920Y-11517340D02*
X7388920Y-11557340D01*
X7388920Y-13917340D02*
X7428920Y-13957340D01*
X7428920Y-13917340D02*
X7388920Y-13957340D01*
X7457500Y-6717340D02*
X7497500Y-6757340D01*
X7497500Y-6717340D02*
X7457500Y-6757340D01*
X7457500Y-9117340D02*
X7497500Y-9157340D01*
X7497500Y-9117340D02*
X7457500Y-9157340D01*
X7457500Y-11517340D02*
X7497500Y-11557340D01*
X7497500Y-11517340D02*
X7457500Y-11557340D01*
X7457500Y-13917340D02*
X7497500Y-13957340D01*
X7497500Y-13917340D02*
X7457500Y-13957340D01*
X7526080Y-6717340D02*
X7566080Y-6757340D01*
X7566080Y-6717340D02*
X7526080Y-6757340D01*
X7526080Y-9117340D02*
X7566080Y-9157340D01*
X7566080Y-9117340D02*
X7526080Y-9157340D01*
X7526080Y-11517340D02*
X7566080Y-11557340D01*
X7566080Y-11517340D02*
X7526080Y-11557340D01*
X7526080Y-13917340D02*
X7566080Y-13957340D01*
X7566080Y-13917340D02*
X7526080Y-13957340D01*
X7594660Y-6717340D02*
X7634660Y-6757340D01*
X7634660Y-6717340D02*
X7594660Y-6757340D01*
X7594660Y-9117340D02*
X7634660Y-9157340D01*
X7634660Y-9117340D02*
X7594660Y-9157340D01*
X7594660Y-11517340D02*
X7634660Y-11557340D01*
X7634660Y-11517340D02*
X7594660Y-11557340D01*
X7594660Y-13917340D02*
X7634660Y-13957340D01*
X7634660Y-13917340D02*
X7594660Y-13957340D01*
X7597200Y-6044240D02*
X7637200Y-6084240D01*
X7637200Y-6044240D02*
X7597200Y-6084240D01*
X7597200Y-8444240D02*
X7637200Y-8484240D01*
X7637200Y-8444240D02*
X7597200Y-8484240D01*
X7597200Y-10844240D02*
X7637200Y-10884240D01*
X7637200Y-10844240D02*
X7597200Y-10884240D01*
X7597200Y-13244240D02*
X7637200Y-13284240D01*
X7637200Y-13244240D02*
X7597200Y-13284240D01*
X7642920Y-6089960D02*
X7682920Y-6129960D01*
X7682920Y-6089960D02*
X7642920Y-6129960D01*
X7642920Y-8489960D02*
X7682920Y-8529960D01*
X7682920Y-8489960D02*
X7642920Y-8529960D01*
X7642920Y-10889960D02*
X7682920Y-10929960D01*
X7682920Y-10889960D02*
X7642920Y-10929960D01*
X7642920Y-13289960D02*
X7682920Y-13329960D01*
X7682920Y-13289960D02*
X7642920Y-13329960D01*
X7863900Y-6747820D02*
X7903900Y-6787820D01*
X7903900Y-6747820D02*
X7863900Y-6787820D01*
X7863900Y-9147820D02*
X7903900Y-9187820D01*
X7903900Y-9147820D02*
X7863900Y-9187820D01*
X7863900Y-11547820D02*
X7903900Y-11587820D01*
X7903900Y-11547820D02*
X7863900Y-11587820D01*
X7863900Y-13947820D02*
X7903900Y-13987820D01*
X7903900Y-13947820D02*
X7863900Y-13987820D01*
X7912160Y-6796080D02*
X7952160Y-6836080D01*
X7952160Y-6796080D02*
X7912160Y-6836080D01*
X7912160Y-9196080D02*
X7952160Y-9236080D01*
X7952160Y-9196080D02*
X7912160Y-9236080D01*
X7912160Y-11596080D02*
X7952160Y-11636080D01*
X7952160Y-11596080D02*
X7912160Y-11636080D01*
X7912160Y-13996080D02*
X7952160Y-14036080D01*
X7952160Y-13996080D02*
X7912160Y-14036080D01*
X7975660Y-6105200D02*
X8015660Y-6145200D01*
X8015660Y-6105200D02*
X7975660Y-6145200D01*
X7975660Y-6168700D02*
X8015660Y-6208700D01*
X8015660Y-6168700D02*
X7975660Y-6208700D01*
X7975660Y-8505200D02*
X8015660Y-8545200D01*
X8015660Y-8505200D02*
X7975660Y-8545200D01*
X7975660Y-8568700D02*
X8015660Y-8608700D01*
X8015660Y-8568700D02*
X7975660Y-8608700D01*
X7975660Y-10905200D02*
X8015660Y-10945200D01*
X8015660Y-10905200D02*
X7975660Y-10945200D01*
X7975660Y-10968700D02*
X8015660Y-11008700D01*
X8015660Y-10968700D02*
X7975660Y-11008700D01*
X7975660Y-13305200D02*
X8015660Y-13345200D01*
X8015660Y-13305200D02*
X7975660Y-13345200D01*
X7975660Y-13368700D02*
X8015660Y-13408700D01*
X8015660Y-13368700D02*
X7975660Y-13408700D01*
X8328720Y-6723690D02*
X8368720Y-6763690D01*
X8368720Y-6723690D02*
X8328720Y-6763690D01*
X8328720Y-9123690D02*
X8368720Y-9163690D01*
X8368720Y-9123690D02*
X8328720Y-9163690D01*
X8328720Y-11523690D02*
X8368720Y-11563690D01*
X8368720Y-11523690D02*
X8328720Y-11563690D01*
X8328720Y-13923690D02*
X8368720Y-13963690D01*
X8368720Y-13923690D02*
X8328720Y-13963690D01*
X8397300Y-6723690D02*
X8437300Y-6763690D01*
X8437300Y-6723690D02*
X8397300Y-6763690D01*
X8397300Y-9123690D02*
X8437300Y-9163690D01*
X8437300Y-9123690D02*
X8397300Y-9163690D01*
X8397300Y-11523690D02*
X8437300Y-11563690D01*
X8437300Y-11523690D02*
X8397300Y-11563690D01*
X8397300Y-13923690D02*
X8437300Y-13963690D01*
X8437300Y-13923690D02*
X8397300Y-13963690D01*
X8465880Y-6723690D02*
X8505880Y-6763690D01*
X8505880Y-6723690D02*
X8465880Y-6763690D01*
X8465880Y-9123690D02*
X8505880Y-9163690D01*
X8505880Y-9123690D02*
X8465880Y-9163690D01*
X8465880Y-11523690D02*
X8505880Y-11563690D01*
X8505880Y-11523690D02*
X8465880Y-11563690D01*
X8465880Y-13923690D02*
X8505880Y-13963690D01*
X8505880Y-13923690D02*
X8465880Y-13963690D01*
X8468420Y-5323000D02*
X8508420Y-5363000D01*
X8508420Y-5323000D02*
X8468420Y-5363000D01*
X8468420Y-7723000D02*
X8508420Y-7763000D01*
X8508420Y-7723000D02*
X8468420Y-7763000D01*
X8468420Y-10123000D02*
X8508420Y-10163000D01*
X8508420Y-10123000D02*
X8468420Y-10163000D01*
X8468420Y-12523000D02*
X8508420Y-12563000D01*
X8508420Y-12523000D02*
X8468420Y-12563000D01*
X8534460Y-6723690D02*
X8574460Y-6763690D01*
X8574460Y-6723690D02*
X8534460Y-6763690D01*
X8534460Y-9123690D02*
X8574460Y-9163690D01*
X8574460Y-9123690D02*
X8534460Y-9163690D01*
X8534460Y-11523690D02*
X8574460Y-11563690D01*
X8574460Y-11523690D02*
X8534460Y-11563690D01*
X8534460Y-13923690D02*
X8574460Y-13963690D01*
X8574460Y-13923690D02*
X8534460Y-13963690D01*
X8595420Y-6049320D02*
X8635420Y-6089320D01*
X8635420Y-6049320D02*
X8595420Y-6089320D01*
X8595420Y-8449320D02*
X8635420Y-8489320D01*
X8635420Y-8449320D02*
X8595420Y-8489320D01*
X8595420Y-10849320D02*
X8635420Y-10889320D01*
X8635420Y-10849320D02*
X8595420Y-10889320D01*
X8595420Y-13249320D02*
X8635420Y-13289320D01*
X8635420Y-13249320D02*
X8595420Y-13289320D01*
X8603040Y-6723690D02*
X8643040Y-6763690D01*
X8643040Y-6723690D02*
X8603040Y-6763690D01*
X8603040Y-9123690D02*
X8643040Y-9163690D01*
X8643040Y-9123690D02*
X8603040Y-9163690D01*
X8603040Y-11523690D02*
X8643040Y-11563690D01*
X8643040Y-11523690D02*
X8603040Y-11563690D01*
X8603040Y-13923690D02*
X8643040Y-13963690D01*
X8643040Y-13923690D02*
X8603040Y-13963690D01*
X8641140Y-6095040D02*
X8681140Y-6135040D01*
X8681140Y-6095040D02*
X8641140Y-6135040D01*
X8641140Y-8495040D02*
X8681140Y-8535040D01*
X8681140Y-8495040D02*
X8641140Y-8535040D01*
X8641140Y-10895040D02*
X8681140Y-10935040D01*
X8681140Y-10895040D02*
X8641140Y-10935040D01*
X8641140Y-13295040D02*
X8681140Y-13335040D01*
X8681140Y-13295040D02*
X8641140Y-13335040D01*
X8839260Y-6653840D02*
X8879260Y-6693840D01*
X8879260Y-6653840D02*
X8839260Y-6693840D01*
X8839260Y-6719880D02*
X8879260Y-6759880D01*
X8879260Y-6719880D02*
X8839260Y-6759880D01*
X8839260Y-9053840D02*
X8879260Y-9093840D01*
X8879260Y-9053840D02*
X8839260Y-9093840D01*
X8839260Y-9119880D02*
X8879260Y-9159880D01*
X8879260Y-9119880D02*
X8839260Y-9159880D01*
X8839260Y-11453840D02*
X8879260Y-11493840D01*
X8879260Y-11453840D02*
X8839260Y-11493840D01*
X8839260Y-11519880D02*
X8879260Y-11559880D01*
X8879260Y-11519880D02*
X8839260Y-11559880D01*
X8839260Y-13853840D02*
X8879260Y-13893840D01*
X8879260Y-13853840D02*
X8839260Y-13893840D01*
X8839260Y-13919880D02*
X8879260Y-13959880D01*
X8879260Y-13919880D02*
X8839260Y-13959880D01*
X9159050Y-5323000D02*
X9199050Y-5363000D01*
X9199050Y-5323000D02*
X9159050Y-5363000D01*
X9159050Y-7723000D02*
X9199050Y-7763000D01*
X9199050Y-7723000D02*
X9159050Y-7763000D01*
X9159050Y-10123000D02*
X9199050Y-10163000D01*
X9199050Y-10123000D02*
X9159050Y-10163000D01*
X9159050Y-12523000D02*
X9199050Y-12563000D01*
X9199050Y-12523000D02*
X9159050Y-12563000D01*
X9320340Y-6717340D02*
X9360340Y-6757340D01*
X9360340Y-6717340D02*
X9320340Y-6757340D01*
X9320340Y-9117340D02*
X9360340Y-9157340D01*
X9360340Y-9117340D02*
X9320340Y-9157340D01*
X9320340Y-11517340D02*
X9360340Y-11557340D01*
X9360340Y-11517340D02*
X9320340Y-11557340D01*
X9320340Y-13917340D02*
X9360340Y-13957340D01*
X9360340Y-13917340D02*
X9320340Y-13957340D01*
X9388920Y-6717340D02*
X9428920Y-6757340D01*
X9428920Y-6717340D02*
X9388920Y-6757340D01*
X9388920Y-9117340D02*
X9428920Y-9157340D01*
X9428920Y-9117340D02*
X9388920Y-9157340D01*
X9388920Y-11517340D02*
X9428920Y-11557340D01*
X9428920Y-11517340D02*
X9388920Y-11557340D01*
X9388920Y-13917340D02*
X9428920Y-13957340D01*
X9428920Y-13917340D02*
X9388920Y-13957340D01*
X9457500Y-6717340D02*
X9497500Y-6757340D01*
X9497500Y-6717340D02*
X9457500Y-6757340D01*
X9457500Y-9117340D02*
X9497500Y-9157340D01*
X9497500Y-9117340D02*
X9457500Y-9157340D01*
X9457500Y-11517340D02*
X9497500Y-11557340D01*
X9497500Y-11517340D02*
X9457500Y-11557340D01*
X9457500Y-13917340D02*
X9497500Y-13957340D01*
X9497500Y-13917340D02*
X9457500Y-13957340D01*
X9526080Y-6717340D02*
X9566080Y-6757340D01*
X9566080Y-6717340D02*
X9526080Y-6757340D01*
X9526080Y-9117340D02*
X9566080Y-9157340D01*
X9566080Y-9117340D02*
X9526080Y-9157340D01*
X9526080Y-11517340D02*
X9566080Y-11557340D01*
X9566080Y-11517340D02*
X9526080Y-11557340D01*
X9526080Y-13917340D02*
X9566080Y-13957340D01*
X9566080Y-13917340D02*
X9526080Y-13957340D01*
X9594660Y-6717340D02*
X9634660Y-6757340D01*
X9634660Y-6717340D02*
X9594660Y-6757340D01*
X9594660Y-9117340D02*
X9634660Y-9157340D01*
X9634660Y-9117340D02*
X9594660Y-9157340D01*
X9594660Y-11517340D02*
X9634660Y-11557340D01*
X9634660Y-11517340D02*
X9594660Y-11557340D01*
X9594660Y-13917340D02*
X9634660Y-13957340D01*
X9634660Y-13917340D02*
X9594660Y-13957340D01*
X9597200Y-6044240D02*
X9637200Y-6084240D01*
X9637200Y-6044240D02*
X9597200Y-6084240D01*
X9597200Y-8444240D02*
X9637200Y-8484240D01*
X9637200Y-8444240D02*
X9597200Y-8484240D01*
X9597200Y-10844240D02*
X9637200Y-10884240D01*
X9637200Y-10844240D02*
X9597200Y-10884240D01*
X9597200Y-13244240D02*
X9637200Y-13284240D01*
X9637200Y-13244240D02*
X9597200Y-13284240D01*
X9642920Y-6089960D02*
X9682920Y-6129960D01*
X9682920Y-6089960D02*
X9642920Y-6129960D01*
X9642920Y-8489960D02*
X9682920Y-8529960D01*
X9682920Y-8489960D02*
X9642920Y-8529960D01*
X9642920Y-10889960D02*
X9682920Y-10929960D01*
X9682920Y-10889960D02*
X9642920Y-10929960D01*
X9642920Y-13289960D02*
X9682920Y-13329960D01*
X9682920Y-13289960D02*
X9642920Y-13329960D01*
X9863900Y-6747820D02*
X9903900Y-6787820D01*
X9903900Y-6747820D02*
X9863900Y-6787820D01*
X9863900Y-9147820D02*
X9903900Y-9187820D01*
X9903900Y-9147820D02*
X9863900Y-9187820D01*
X9863900Y-11547820D02*
X9903900Y-11587820D01*
X9903900Y-11547820D02*
X9863900Y-11587820D01*
X9863900Y-13947820D02*
X9903900Y-13987820D01*
X9903900Y-13947820D02*
X9863900Y-13987820D01*
X9912160Y-6796080D02*
X9952160Y-6836080D01*
X9952160Y-6796080D02*
X9912160Y-6836080D01*
X9912160Y-9196080D02*
X9952160Y-9236080D01*
X9952160Y-9196080D02*
X9912160Y-9236080D01*
X9912160Y-11596080D02*
X9952160Y-11636080D01*
X9952160Y-11596080D02*
X9912160Y-11636080D01*
X9912160Y-13996080D02*
X9952160Y-14036080D01*
X9952160Y-13996080D02*
X9912160Y-14036080D01*
X9975660Y-6105200D02*
X10015660Y-6145200D01*
X10015660Y-6105200D02*
X9975660Y-6145200D01*
X9975660Y-6168700D02*
X10015660Y-6208700D01*
X10015660Y-6168700D02*
X9975660Y-6208700D01*
X9975660Y-8505200D02*
X10015660Y-8545200D01*
X10015660Y-8505200D02*
X9975660Y-8545200D01*
X9975660Y-8568700D02*
X10015660Y-8608700D01*
X10015660Y-8568700D02*
X9975660Y-8608700D01*
X9975660Y-10905200D02*
X10015660Y-10945200D01*
X10015660Y-10905200D02*
X9975660Y-10945200D01*
X9975660Y-10968700D02*
X10015660Y-11008700D01*
X10015660Y-10968700D02*
X9975660Y-11008700D01*
X9975660Y-13305200D02*
X10015660Y-13345200D01*
X10015660Y-13305200D02*
X9975660Y-13345200D01*
X9975660Y-13368700D02*
X10015660Y-13408700D01*
X10015660Y-13368700D02*
X9975660Y-13408700D01*
X10328720Y-6723690D02*
X10368720Y-6763690D01*
X10368720Y-6723690D02*
X10328720Y-6763690D01*
X10328720Y-9123690D02*
X10368720Y-9163690D01*
X10368720Y-9123690D02*
X10328720Y-9163690D01*
X10328720Y-11523690D02*
X10368720Y-11563690D01*
X10368720Y-11523690D02*
X10328720Y-11563690D01*
X10328720Y-13923690D02*
X10368720Y-13963690D01*
X10368720Y-13923690D02*
X10328720Y-13963690D01*
X10397300Y-6723690D02*
X10437300Y-6763690D01*
X10437300Y-6723690D02*
X10397300Y-6763690D01*
X10397300Y-9123690D02*
X10437300Y-9163690D01*
X10437300Y-9123690D02*
X10397300Y-9163690D01*
X10397300Y-11523690D02*
X10437300Y-11563690D01*
X10437300Y-11523690D02*
X10397300Y-11563690D01*
X10397300Y-13923690D02*
X10437300Y-13963690D01*
X10437300Y-13923690D02*
X10397300Y-13963690D01*
X10465880Y-6723690D02*
X10505880Y-6763690D01*
X10505880Y-6723690D02*
X10465880Y-6763690D01*
X10465880Y-9123690D02*
X10505880Y-9163690D01*
X10505880Y-9123690D02*
X10465880Y-9163690D01*
X10465880Y-11523690D02*
X10505880Y-11563690D01*
X10505880Y-11523690D02*
X10465880Y-11563690D01*
X10465880Y-13923690D02*
X10505880Y-13963690D01*
X10505880Y-13923690D02*
X10465880Y-13963690D01*
X10468420Y-5323000D02*
X10508420Y-5363000D01*
X10508420Y-5323000D02*
X10468420Y-5363000D01*
X10468420Y-7723000D02*
X10508420Y-7763000D01*
X10508420Y-7723000D02*
X10468420Y-7763000D01*
X10468420Y-10123000D02*
X10508420Y-10163000D01*
X10508420Y-10123000D02*
X10468420Y-10163000D01*
X10468420Y-12523000D02*
X10508420Y-12563000D01*
X10508420Y-12523000D02*
X10468420Y-12563000D01*
X10534460Y-6723690D02*
X10574460Y-6763690D01*
X10574460Y-6723690D02*
X10534460Y-6763690D01*
X10534460Y-9123690D02*
X10574460Y-9163690D01*
X10574460Y-9123690D02*
X10534460Y-9163690D01*
X10534460Y-11523690D02*
X10574460Y-11563690D01*
X10574460Y-11523690D02*
X10534460Y-11563690D01*
X10534460Y-13923690D02*
X10574460Y-13963690D01*
X10574460Y-13923690D02*
X10534460Y-13963690D01*
X10595420Y-6049320D02*
X10635420Y-6089320D01*
X10635420Y-6049320D02*
X10595420Y-6089320D01*
X10595420Y-8449320D02*
X10635420Y-8489320D01*
X10635420Y-8449320D02*
X10595420Y-8489320D01*
X10595420Y-10849320D02*
X10635420Y-10889320D01*
X10635420Y-10849320D02*
X10595420Y-10889320D01*
X10595420Y-13249320D02*
X10635420Y-13289320D01*
X10635420Y-13249320D02*
X10595420Y-13289320D01*
X10603040Y-6723690D02*
X10643040Y-6763690D01*
X10643040Y-6723690D02*
X10603040Y-6763690D01*
X10603040Y-9123690D02*
X10643040Y-9163690D01*
X10643040Y-9123690D02*
X10603040Y-9163690D01*
X10603040Y-11523690D02*
X10643040Y-11563690D01*
X10643040Y-11523690D02*
X10603040Y-11563690D01*
X10603040Y-13923690D02*
X10643040Y-13963690D01*
X10643040Y-13923690D02*
X10603040Y-13963690D01*
X10641140Y-6095040D02*
X10681140Y-6135040D01*
X10681140Y-6095040D02*
X10641140Y-6135040D01*
X10641140Y-8495040D02*
X10681140Y-8535040D01*
X10681140Y-8495040D02*
X10641140Y-8535040D01*
X10641140Y-10895040D02*
X10681140Y-10935040D01*
X10681140Y-10895040D02*
X10641140Y-10935040D01*
X10641140Y-13295040D02*
X10681140Y-13335040D01*
X10681140Y-13295040D02*
X10641140Y-13335040D01*
X10839260Y-6653840D02*
X10879260Y-6693840D01*
X10879260Y-6653840D02*
X10839260Y-6693840D01*
X10839260Y-6719880D02*
X10879260Y-6759880D01*
X10879260Y-6719880D02*
X10839260Y-6759880D01*
X10839260Y-9053840D02*
X10879260Y-9093840D01*
X10879260Y-9053840D02*
X10839260Y-9093840D01*
X10839260Y-9119880D02*
X10879260Y-9159880D01*
X10879260Y-9119880D02*
X10839260Y-9159880D01*
X10839260Y-11453840D02*
X10879260Y-11493840D01*
X10879260Y-11453840D02*
X10839260Y-11493840D01*
X10839260Y-11519880D02*
X10879260Y-11559880D01*
X10879260Y-11519880D02*
X10839260Y-11559880D01*
X10839260Y-13853840D02*
X10879260Y-13893840D01*
X10879260Y-13853840D02*
X10839260Y-13893840D01*
X10839260Y-13919880D02*
X10879260Y-13959880D01*
X10879260Y-13919880D02*
X10839260Y-13959880D01*
X11159050Y-5323000D02*
X11199050Y-5363000D01*
X11199050Y-5323000D02*
X11159050Y-5363000D01*
X11159050Y-7723000D02*
X11199050Y-7763000D01*
X11199050Y-7723000D02*
X11159050Y-7763000D01*
X11159050Y-10123000D02*
X11199050Y-10163000D01*
X11199050Y-10123000D02*
X11159050Y-10163000D01*
X11159050Y-12523000D02*
X11199050Y-12563000D01*
X11199050Y-12523000D02*
X11159050Y-12563000D01*
X11320340Y-6717340D02*
X11360340Y-6757340D01*
X11360340Y-6717340D02*
X11320340Y-6757340D01*
X11320340Y-9117340D02*
X11360340Y-9157340D01*
X11360340Y-9117340D02*
X11320340Y-9157340D01*
X11320340Y-11517340D02*
X11360340Y-11557340D01*
X11360340Y-11517340D02*
X11320340Y-11557340D01*
X11320340Y-13917340D02*
X11360340Y-13957340D01*
X11360340Y-13917340D02*
X11320340Y-13957340D01*
X11388920Y-6717340D02*
X11428920Y-6757340D01*
X11428920Y-6717340D02*
X11388920Y-6757340D01*
X11388920Y-9117340D02*
X11428920Y-9157340D01*
X11428920Y-9117340D02*
X11388920Y-9157340D01*
X11388920Y-11517340D02*
X11428920Y-11557340D01*
X11428920Y-11517340D02*
X11388920Y-11557340D01*
X11388920Y-13917340D02*
X11428920Y-13957340D01*
X11428920Y-13917340D02*
X11388920Y-13957340D01*
X11457500Y-6717340D02*
X11497500Y-6757340D01*
X11497500Y-6717340D02*
X11457500Y-6757340D01*
X11457500Y-9117340D02*
X11497500Y-9157340D01*
X11497500Y-9117340D02*
X11457500Y-9157340D01*
X11457500Y-11517340D02*
X11497500Y-11557340D01*
X11497500Y-11517340D02*
X11457500Y-11557340D01*
X11457500Y-13917340D02*
X11497500Y-13957340D01*
X11497500Y-13917340D02*
X11457500Y-13957340D01*
X11526080Y-6717340D02*
X11566080Y-6757340D01*
X11566080Y-6717340D02*
X11526080Y-6757340D01*
X11526080Y-9117340D02*
X11566080Y-9157340D01*
X11566080Y-9117340D02*
X11526080Y-9157340D01*
X11526080Y-11517340D02*
X11566080Y-11557340D01*
X11566080Y-11517340D02*
X11526080Y-11557340D01*
X11526080Y-13917340D02*
X11566080Y-13957340D01*
X11566080Y-13917340D02*
X11526080Y-13957340D01*
X11594660Y-6717340D02*
X11634660Y-6757340D01*
X11634660Y-6717340D02*
X11594660Y-6757340D01*
X11594660Y-9117340D02*
X11634660Y-9157340D01*
X11634660Y-9117340D02*
X11594660Y-9157340D01*
X11594660Y-11517340D02*
X11634660Y-11557340D01*
X11634660Y-11517340D02*
X11594660Y-11557340D01*
X11594660Y-13917340D02*
X11634660Y-13957340D01*
X11634660Y-13917340D02*
X11594660Y-13957340D01*
X11597200Y-6044240D02*
X11637200Y-6084240D01*
X11637200Y-6044240D02*
X11597200Y-6084240D01*
X11597200Y-8444240D02*
X11637200Y-8484240D01*
X11637200Y-8444240D02*
X11597200Y-8484240D01*
X11597200Y-10844240D02*
X11637200Y-10884240D01*
X11637200Y-10844240D02*
X11597200Y-10884240D01*
X11597200Y-13244240D02*
X11637200Y-13284240D01*
X11637200Y-13244240D02*
X11597200Y-13284240D01*
X11642920Y-6089960D02*
X11682920Y-6129960D01*
X11682920Y-6089960D02*
X11642920Y-6129960D01*
X11642920Y-8489960D02*
X11682920Y-8529960D01*
X11682920Y-8489960D02*
X11642920Y-8529960D01*
X11642920Y-10889960D02*
X11682920Y-10929960D01*
X11682920Y-10889960D02*
X11642920Y-10929960D01*
X11642920Y-13289960D02*
X11682920Y-13329960D01*
X11682920Y-13289960D02*
X11642920Y-13329960D01*
X11863900Y-6747820D02*
X11903900Y-6787820D01*
X11903900Y-6747820D02*
X11863900Y-6787820D01*
X11863900Y-9147820D02*
X11903900Y-9187820D01*
X11903900Y-9147820D02*
X11863900Y-9187820D01*
X11863900Y-11547820D02*
X11903900Y-11587820D01*
X11903900Y-11547820D02*
X11863900Y-11587820D01*
X11863900Y-13947820D02*
X11903900Y-13987820D01*
X11903900Y-13947820D02*
X11863900Y-13987820D01*
X11912160Y-6796080D02*
X11952160Y-6836080D01*
X11952160Y-6796080D02*
X11912160Y-6836080D01*
X11912160Y-9196080D02*
X11952160Y-9236080D01*
X11952160Y-9196080D02*
X11912160Y-9236080D01*
X11912160Y-11596080D02*
X11952160Y-11636080D01*
X11952160Y-11596080D02*
X11912160Y-11636080D01*
X11912160Y-13996080D02*
X11952160Y-14036080D01*
X11952160Y-13996080D02*
X11912160Y-14036080D01*
X11975660Y-6105200D02*
X12015660Y-6145200D01*
X12015660Y-6105200D02*
X11975660Y-6145200D01*
X11975660Y-6168700D02*
X12015660Y-6208700D01*
X12015660Y-6168700D02*
X11975660Y-6208700D01*
X11975660Y-8505200D02*
X12015660Y-8545200D01*
X12015660Y-8505200D02*
X11975660Y-8545200D01*
X11975660Y-8568700D02*
X12015660Y-8608700D01*
X12015660Y-8568700D02*
X11975660Y-8608700D01*
X11975660Y-10905200D02*
X12015660Y-10945200D01*
X12015660Y-10905200D02*
X11975660Y-10945200D01*
X11975660Y-10968700D02*
X12015660Y-11008700D01*
X12015660Y-10968700D02*
X11975660Y-11008700D01*
X11975660Y-13305200D02*
X12015660Y-13345200D01*
X12015660Y-13305200D02*
X11975660Y-13345200D01*
X11975660Y-13368700D02*
X12015660Y-13408700D01*
X12015660Y-13368700D02*
X11975660Y-13408700D01*
X12328720Y-6723690D02*
X12368720Y-6763690D01*
X12368720Y-6723690D02*
X12328720Y-6763690D01*
X12328720Y-9123690D02*
X12368720Y-9163690D01*
X12368720Y-9123690D02*
X12328720Y-9163690D01*
X12328720Y-11523690D02*
X12368720Y-11563690D01*
X12368720Y-11523690D02*
X12328720Y-11563690D01*
X12328720Y-13923690D02*
X12368720Y-13963690D01*
X12368720Y-13923690D02*
X12328720Y-13963690D01*
X12397300Y-6723690D02*
X12437300Y-6763690D01*
X12437300Y-6723690D02*
X12397300Y-6763690D01*
X12397300Y-9123690D02*
X12437300Y-9163690D01*
X12437300Y-9123690D02*
X12397300Y-9163690D01*
X12397300Y-11523690D02*
X12437300Y-11563690D01*
X12437300Y-11523690D02*
X12397300Y-11563690D01*
X12397300Y-13923690D02*
X12437300Y-13963690D01*
X12437300Y-13923690D02*
X12397300Y-13963690D01*
X12465880Y-6723690D02*
X12505880Y-6763690D01*
X12505880Y-6723690D02*
X12465880Y-6763690D01*
X12465880Y-9123690D02*
X12505880Y-9163690D01*
X12505880Y-9123690D02*
X12465880Y-9163690D01*
X12465880Y-11523690D02*
X12505880Y-11563690D01*
X12505880Y-11523690D02*
X12465880Y-11563690D01*
X12465880Y-13923690D02*
X12505880Y-13963690D01*
X12505880Y-13923690D02*
X12465880Y-13963690D01*
X12468420Y-5323000D02*
X12508420Y-5363000D01*
X12508420Y-5323000D02*
X12468420Y-5363000D01*
X12468420Y-7723000D02*
X12508420Y-7763000D01*
X12508420Y-7723000D02*
X12468420Y-7763000D01*
X12468420Y-10123000D02*
X12508420Y-10163000D01*
X12508420Y-10123000D02*
X12468420Y-10163000D01*
X12468420Y-12523000D02*
X12508420Y-12563000D01*
X12508420Y-12523000D02*
X12468420Y-12563000D01*
X12534460Y-6723690D02*
X12574460Y-6763690D01*
X12574460Y-6723690D02*
X12534460Y-6763690D01*
X12534460Y-9123690D02*
X12574460Y-9163690D01*
X12574460Y-9123690D02*
X12534460Y-9163690D01*
X12534460Y-11523690D02*
X12574460Y-11563690D01*
X12574460Y-11523690D02*
X12534460Y-11563690D01*
X12534460Y-13923690D02*
X12574460Y-13963690D01*
X12574460Y-13923690D02*
X12534460Y-13963690D01*
X12595420Y-6049320D02*
X12635420Y-6089320D01*
X12635420Y-6049320D02*
X12595420Y-6089320D01*
X12595420Y-8449320D02*
X12635420Y-8489320D01*
X12635420Y-8449320D02*
X12595420Y-8489320D01*
X12595420Y-10849320D02*
X12635420Y-10889320D01*
X12635420Y-10849320D02*
X12595420Y-10889320D01*
X12595420Y-13249320D02*
X12635420Y-13289320D01*
X12635420Y-13249320D02*
X12595420Y-13289320D01*
X12603040Y-6723690D02*
X12643040Y-6763690D01*
X12643040Y-6723690D02*
X12603040Y-6763690D01*
X12603040Y-9123690D02*
X12643040Y-9163690D01*
X12643040Y-9123690D02*
X12603040Y-9163690D01*
X12603040Y-11523690D02*
X12643040Y-11563690D01*
X12643040Y-11523690D02*
X12603040Y-11563690D01*
X12603040Y-13923690D02*
X12643040Y-13963690D01*
X12643040Y-13923690D02*
X12603040Y-13963690D01*
X12641140Y-6095040D02*
X12681140Y-6135040D01*
X12681140Y-6095040D02*
X12641140Y-6135040D01*
X12641140Y-8495040D02*
X12681140Y-8535040D01*
X12681140Y-8495040D02*
X12641140Y-8535040D01*
X12641140Y-10895040D02*
X12681140Y-10935040D01*
X12681140Y-10895040D02*
X12641140Y-10935040D01*
X12641140Y-13295040D02*
X12681140Y-13335040D01*
X12681140Y-13295040D02*
X12641140Y-13335040D01*
X12839260Y-6653840D02*
X12879260Y-6693840D01*
X12879260Y-6653840D02*
X12839260Y-6693840D01*
X12839260Y-6719880D02*
X12879260Y-6759880D01*
X12879260Y-6719880D02*
X12839260Y-6759880D01*
X12839260Y-9053840D02*
X12879260Y-9093840D01*
X12879260Y-9053840D02*
X12839260Y-9093840D01*
X12839260Y-9119880D02*
X12879260Y-9159880D01*
X12879260Y-9119880D02*
X12839260Y-9159880D01*
X12839260Y-11453840D02*
X12879260Y-11493840D01*
X12879260Y-11453840D02*
X12839260Y-11493840D01*
X12839260Y-11519880D02*
X12879260Y-11559880D01*
X12879260Y-11519880D02*
X12839260Y-11559880D01*
X12839260Y-13853840D02*
X12879260Y-13893840D01*
X12879260Y-13853840D02*
X12839260Y-13893840D01*
X12839260Y-13919880D02*
X12879260Y-13959880D01*
X12879260Y-13919880D02*
X12839260Y-13959880D01*
X13159050Y-5323000D02*
X13199050Y-5363000D01*
X13199050Y-5323000D02*
X13159050Y-5363000D01*
X13159050Y-7723000D02*
X13199050Y-7763000D01*
X13199050Y-7723000D02*
X13159050Y-7763000D01*
X13159050Y-10123000D02*
X13199050Y-10163000D01*
X13199050Y-10123000D02*
X13159050Y-10163000D01*
X13159050Y-12523000D02*
X13199050Y-12563000D01*
X13199050Y-12523000D02*
X13159050Y-12563000D01*
X13320340Y-6717340D02*
X13360340Y-6757340D01*
X13360340Y-6717340D02*
X13320340Y-6757340D01*
X13320340Y-9117340D02*
X13360340Y-9157340D01*
X13360340Y-9117340D02*
X13320340Y-9157340D01*
X13320340Y-11517340D02*
X13360340Y-11557340D01*
X13360340Y-11517340D02*
X13320340Y-11557340D01*
X13320340Y-13917340D02*
X13360340Y-13957340D01*
X13360340Y-13917340D02*
X13320340Y-13957340D01*
X13388920Y-6717340D02*
X13428920Y-6757340D01*
X13428920Y-6717340D02*
X13388920Y-6757340D01*
X13388920Y-9117340D02*
X13428920Y-9157340D01*
X13428920Y-9117340D02*
X13388920Y-9157340D01*
X13388920Y-11517340D02*
X13428920Y-11557340D01*
X13428920Y-11517340D02*
X13388920Y-11557340D01*
X13388920Y-13917340D02*
X13428920Y-13957340D01*
X13428920Y-13917340D02*
X13388920Y-13957340D01*
X13457500Y-6717340D02*
X13497500Y-6757340D01*
X13497500Y-6717340D02*
X13457500Y-6757340D01*
X13457500Y-9117340D02*
X13497500Y-9157340D01*
X13497500Y-9117340D02*
X13457500Y-9157340D01*
X13457500Y-11517340D02*
X13497500Y-11557340D01*
X13497500Y-11517340D02*
X13457500Y-11557340D01*
X13457500Y-13917340D02*
X13497500Y-13957340D01*
X13497500Y-13917340D02*
X13457500Y-13957340D01*
X13526080Y-6717340D02*
X13566080Y-6757340D01*
X13566080Y-6717340D02*
X13526080Y-6757340D01*
X13526080Y-9117340D02*
X13566080Y-9157340D01*
X13566080Y-9117340D02*
X13526080Y-9157340D01*
X13526080Y-11517340D02*
X13566080Y-11557340D01*
X13566080Y-11517340D02*
X13526080Y-11557340D01*
X13526080Y-13917340D02*
X13566080Y-13957340D01*
X13566080Y-13917340D02*
X13526080Y-13957340D01*
X13594660Y-6717340D02*
X13634660Y-6757340D01*
X13634660Y-6717340D02*
X13594660Y-6757340D01*
X13594660Y-9117340D02*
X13634660Y-9157340D01*
X13634660Y-9117340D02*
X13594660Y-9157340D01*
X13594660Y-11517340D02*
X13634660Y-11557340D01*
X13634660Y-11517340D02*
X13594660Y-11557340D01*
X13594660Y-13917340D02*
X13634660Y-13957340D01*
X13634660Y-13917340D02*
X13594660Y-13957340D01*
X13597200Y-6044240D02*
X13637200Y-6084240D01*
X13637200Y-6044240D02*
X13597200Y-6084240D01*
X13597200Y-8444240D02*
X13637200Y-8484240D01*
X13637200Y-8444240D02*
X13597200Y-8484240D01*
X13597200Y-10844240D02*
X13637200Y-10884240D01*
X13637200Y-10844240D02*
X13597200Y-10884240D01*
X13597200Y-13244240D02*
X13637200Y-13284240D01*
X13637200Y-13244240D02*
X13597200Y-13284240D01*
X13642920Y-6089960D02*
X13682920Y-6129960D01*
X13682920Y-6089960D02*
X13642920Y-6129960D01*
X13642920Y-8489960D02*
X13682920Y-8529960D01*
X13682920Y-8489960D02*
X13642920Y-8529960D01*
X13642920Y-10889960D02*
X13682920Y-10929960D01*
X13682920Y-10889960D02*
X13642920Y-10929960D01*
X13642920Y-13289960D02*
X13682920Y-13329960D01*
X13682920Y-13289960D02*
X13642920Y-13329960D01*
X13863900Y-6747820D02*
X13903900Y-6787820D01*
X13903900Y-6747820D02*
X13863900Y-6787820D01*
X13863900Y-9147820D02*
X13903900Y-9187820D01*
X13903900Y-9147820D02*
X13863900Y-9187820D01*
X13863900Y-11547820D02*
X13903900Y-11587820D01*
X13903900Y-11547820D02*
X13863900Y-11587820D01*
X13863900Y-13947820D02*
X13903900Y-13987820D01*
X13903900Y-13947820D02*
X13863900Y-13987820D01*
X13912160Y-6796080D02*
X13952160Y-6836080D01*
X13952160Y-6796080D02*
X13912160Y-6836080D01*
X13912160Y-9196080D02*
X13952160Y-9236080D01*
X13952160Y-9196080D02*
X13912160Y-9236080D01*
X13912160Y-11596080D02*
X13952160Y-11636080D01*
X13952160Y-11596080D02*
X13912160Y-11636080D01*
X13912160Y-13996080D02*
X13952160Y-14036080D01*
X13952160Y-13996080D02*
X13912160Y-14036080D01*
X13975660Y-6105200D02*
X14015660Y-6145200D01*
X14015660Y-6105200D02*
X13975660Y-6145200D01*
X13975660Y-6168700D02*
X14015660Y-6208700D01*
X14015660Y-6168700D02*
X13975660Y-6208700D01*
X13975660Y-8505200D02*
X14015660Y-8545200D01*
X14015660Y-8505200D02*
X13975660Y-8545200D01*
X13975660Y-8568700D02*
X14015660Y-8608700D01*
X14015660Y-8568700D02*
X13975660Y-8608700D01*
X13975660Y-10905200D02*
X14015660Y-10945200D01*
X14015660Y-10905200D02*
X13975660Y-10945200D01*
X13975660Y-10968700D02*
X14015660Y-11008700D01*
X14015660Y-10968700D02*
X13975660Y-11008700D01*
X13975660Y-13305200D02*
X14015660Y-13345200D01*
X14015660Y-13305200D02*
X13975660Y-13345200D01*
X13975660Y-13368700D02*
X14015660Y-13408700D01*
X14015660Y-13368700D02*
X13975660Y-13408700D01*
X14328720Y-6723690D02*
X14368720Y-6763690D01*
X14368720Y-6723690D02*
X14328720Y-6763690D01*
X14328720Y-9123690D02*
X14368720Y-9163690D01*
X14368720Y-9123690D02*
X14328720Y-9163690D01*
X14328720Y-11523690D02*
X14368720Y-11563690D01*
X14368720Y-11523690D02*
X14328720Y-11563690D01*
X14328720Y-13923690D02*
X14368720Y-13963690D01*
X14368720Y-13923690D02*
X14328720Y-13963690D01*
X14397300Y-6723690D02*
X14437300Y-6763690D01*
X14437300Y-6723690D02*
X14397300Y-6763690D01*
X14397300Y-9123690D02*
X14437300Y-9163690D01*
X14437300Y-9123690D02*
X14397300Y-9163690D01*
X14397300Y-11523690D02*
X14437300Y-11563690D01*
X14437300Y-11523690D02*
X14397300Y-11563690D01*
X14397300Y-13923690D02*
X14437300Y-13963690D01*
X14437300Y-13923690D02*
X14397300Y-13963690D01*
X14465880Y-6723690D02*
X14505880Y-6763690D01*
X14505880Y-6723690D02*
X14465880Y-6763690D01*
X14465880Y-9123690D02*
X14505880Y-9163690D01*
X14505880Y-9123690D02*
X14465880Y-9163690D01*
X14465880Y-11523690D02*
X14505880Y-11563690D01*
X14505880Y-11523690D02*
X14465880Y-11563690D01*
X14465880Y-13923690D02*
X14505880Y-13963690D01*
X14505880Y-13923690D02*
X14465880Y-13963690D01*
X14468420Y-5323000D02*
X14508420Y-5363000D01*
X14508420Y-5323000D02*
X14468420Y-5363000D01*
X14468420Y-7723000D02*
X14508420Y-7763000D01*
X14508420Y-7723000D02*
X14468420Y-7763000D01*
X14468420Y-10123000D02*
X14508420Y-10163000D01*
X14508420Y-10123000D02*
X14468420Y-10163000D01*
X14468420Y-12523000D02*
X14508420Y-12563000D01*
X14508420Y-12523000D02*
X14468420Y-12563000D01*
X14534460Y-6723690D02*
X14574460Y-6763690D01*
X14574460Y-6723690D02*
X14534460Y-6763690D01*
X14534460Y-9123690D02*
X14574460Y-9163690D01*
X14574460Y-9123690D02*
X14534460Y-9163690D01*
X14534460Y-11523690D02*
X14574460Y-11563690D01*
X14574460Y-11523690D02*
X14534460Y-11563690D01*
X14534460Y-13923690D02*
X14574460Y-13963690D01*
X14574460Y-13923690D02*
X14534460Y-13963690D01*
X14595420Y-6049320D02*
X14635420Y-6089320D01*
X14635420Y-6049320D02*
X14595420Y-6089320D01*
X14595420Y-8449320D02*
X14635420Y-8489320D01*
X14635420Y-8449320D02*
X14595420Y-8489320D01*
X14595420Y-10849320D02*
X14635420Y-10889320D01*
X14635420Y-10849320D02*
X14595420Y-10889320D01*
X14595420Y-13249320D02*
X14635420Y-13289320D01*
X14635420Y-13249320D02*
X14595420Y-13289320D01*
X14603040Y-6723690D02*
X14643040Y-6763690D01*
X14643040Y-6723690D02*
X14603040Y-6763690D01*
X14603040Y-9123690D02*
X14643040Y-9163690D01*
X14643040Y-9123690D02*
X14603040Y-9163690D01*
X14603040Y-11523690D02*
X14643040Y-11563690D01*
X14643040Y-11523690D02*
X14603040Y-11563690D01*
X14603040Y-13923690D02*
X14643040Y-13963690D01*
X14643040Y-13923690D02*
X14603040Y-13963690D01*
X14641140Y-6095040D02*
X14681140Y-6135040D01*
X14681140Y-6095040D02*
X14641140Y-6135040D01*
X14641140Y-8495040D02*
X14681140Y-8535040D01*
X14681140Y-8495040D02*
X14641140Y-8535040D01*
X14641140Y-10895040D02*
X14681140Y-10935040D01*
X14681140Y-10895040D02*
X14641140Y-10935040D01*
X14641140Y-13295040D02*
X14681140Y-13335040D01*
X14681140Y-13295040D02*
X14641140Y-13335040D01*
X14839260Y-6653840D02*
X14879260Y-6693840D01*
X14879260Y-6653840D02*
X14839260Y-6693840D01*
X14839260Y-6719880D02*
X14879260Y-6759880D01*
X14879260Y-6719880D02*
X14839260Y-6759880D01*
X14839260Y-9053840D02*
X14879260Y-9093840D01*
X14879260Y-9053840D02*
X14839260Y-9093840D01*
X14839260Y-9119880D02*
X14879260Y-9159880D01*
X14879260Y-9119880D02*
X14839260Y-9159880D01*
X14839260Y-11453840D02*
X14879260Y-11493840D01*
X14879260Y-11453840D02*
X14839260Y-11493840D01*
X14839260Y-11519880D02*
X14879260Y-11559880D01*
X14879260Y-11519880D02*
X14839260Y-11559880D01*
X14839260Y-13853840D02*
X14879260Y-13893840D01*
X14879260Y-13853840D02*
X14839260Y-13893840D01*
X14839260Y-13919880D02*
X14879260Y-13959880D01*
X14879260Y-13919880D02*
X14839260Y-13959880D01*
X5260800Y-7192000D02*
G75*
G03X5260800Y-7192000I-50000J0D01*
G01*
X5260800Y-9592000D02*
G75*
G03X5260800Y-9592000I-50000J0D01*
G01*
X5260800Y-11992000D02*
G75*
G03X5260800Y-11992000I-50000J0D01*
G01*
X5260800Y-14392000D02*
G75*
G03X5260800Y-14392000I-50000J0D01*
G01*
X5514800Y-7192000D02*
G75*
G03X5514800Y-7192000I-50000J0D01*
G01*
X5514800Y-9592000D02*
G75*
G03X5514800Y-9592000I-50000J0D01*
G01*
X5514800Y-11992000D02*
G75*
G03X5514800Y-11992000I-50000J0D01*
G01*
X5514800Y-14392000D02*
G75*
G03X5514800Y-14392000I-50000J0D01*
G01*
X5641800Y-5198100D02*
G75*
G03X5641800Y-5198100I-50000J0D01*
G01*
X5641800Y-7598100D02*
G75*
G03X5641800Y-7598100I-50000J0D01*
G01*
X5641800Y-9998100D02*
G75*
G03X5641800Y-9998100I-50000J0D01*
G01*
X5641800Y-12398100D02*
G75*
G03X5641800Y-12398100I-50000J0D01*
G01*
X5768800Y-7192000D02*
G75*
G03X5768800Y-7192000I-50000J0D01*
G01*
X5768800Y-9592000D02*
G75*
G03X5768800Y-9592000I-50000J0D01*
G01*
X5768800Y-11992000D02*
G75*
G03X5768800Y-11992000I-50000J0D01*
G01*
X5768800Y-14392000D02*
G75*
G03X5768800Y-14392000I-50000J0D01*
G01*
X5895800Y-5198100D02*
G75*
G03X5895800Y-5198100I-50000J0D01*
G01*
X5895800Y-7598100D02*
G75*
G03X5895800Y-7598100I-50000J0D01*
G01*
X5895800Y-9998100D02*
G75*
G03X5895800Y-9998100I-50000J0D01*
G01*
X5895800Y-12398100D02*
G75*
G03X5895800Y-12398100I-50000J0D01*
G01*
X6149800Y-5198100D02*
G75*
G03X6149800Y-5198100I-50000J0D01*
G01*
X6149800Y-7598100D02*
G75*
G03X6149800Y-7598100I-50000J0D01*
G01*
X6149800Y-9998100D02*
G75*
G03X6149800Y-9998100I-50000J0D01*
G01*
X6149800Y-12398100D02*
G75*
G03X6149800Y-12398100I-50000J0D01*
G01*
X6403800Y-5198100D02*
G75*
G03X6403800Y-5198100I-50000J0D01*
G01*
X6403800Y-7598100D02*
G75*
G03X6403800Y-7598100I-50000J0D01*
G01*
X6403800Y-9998100D02*
G75*
G03X6403800Y-9998100I-50000J0D01*
G01*
X6403800Y-12398100D02*
G75*
G03X6403800Y-12398100I-50000J0D01*
G01*
X6556200Y-7192000D02*
G75*
G03X6556200Y-7192000I-50000J0D01*
G01*
X6556200Y-9592000D02*
G75*
G03X6556200Y-9592000I-50000J0D01*
G01*
X6556200Y-11992000D02*
G75*
G03X6556200Y-11992000I-50000J0D01*
G01*
X6556200Y-14392000D02*
G75*
G03X6556200Y-14392000I-50000J0D01*
G01*
X6810200Y-7192000D02*
G75*
G03X6810200Y-7192000I-50000J0D01*
G01*
X6810200Y-9592000D02*
G75*
G03X6810200Y-9592000I-50000J0D01*
G01*
X6810200Y-11992000D02*
G75*
G03X6810200Y-11992000I-50000J0D01*
G01*
X6810200Y-14392000D02*
G75*
G03X6810200Y-14392000I-50000J0D01*
G01*
X7260800Y-7192000D02*
G75*
G03X7260800Y-7192000I-50000J0D01*
G01*
X7260800Y-9592000D02*
G75*
G03X7260800Y-9592000I-50000J0D01*
G01*
X7260800Y-11992000D02*
G75*
G03X7260800Y-11992000I-50000J0D01*
G01*
X7260800Y-14392000D02*
G75*
G03X7260800Y-14392000I-50000J0D01*
G01*
X7514800Y-7192000D02*
G75*
G03X7514800Y-7192000I-50000J0D01*
G01*
X7514800Y-9592000D02*
G75*
G03X7514800Y-9592000I-50000J0D01*
G01*
X7514800Y-11992000D02*
G75*
G03X7514800Y-11992000I-50000J0D01*
G01*
X7514800Y-14392000D02*
G75*
G03X7514800Y-14392000I-50000J0D01*
G01*
X7641800Y-5198100D02*
G75*
G03X7641800Y-5198100I-50000J0D01*
G01*
X7641800Y-7598100D02*
G75*
G03X7641800Y-7598100I-50000J0D01*
G01*
X7641800Y-9998100D02*
G75*
G03X7641800Y-9998100I-50000J0D01*
G01*
X7641800Y-12398100D02*
G75*
G03X7641800Y-12398100I-50000J0D01*
G01*
X7768800Y-7192000D02*
G75*
G03X7768800Y-7192000I-50000J0D01*
G01*
X7768800Y-9592000D02*
G75*
G03X7768800Y-9592000I-50000J0D01*
G01*
X7768800Y-11992000D02*
G75*
G03X7768800Y-11992000I-50000J0D01*
G01*
X7768800Y-14392000D02*
G75*
G03X7768800Y-14392000I-50000J0D01*
G01*
X7895800Y-5198100D02*
G75*
G03X7895800Y-5198100I-50000J0D01*
G01*
X7895800Y-7598100D02*
G75*
G03X7895800Y-7598100I-50000J0D01*
G01*
X7895800Y-9998100D02*
G75*
G03X7895800Y-9998100I-50000J0D01*
G01*
X7895800Y-12398100D02*
G75*
G03X7895800Y-12398100I-50000J0D01*
G01*
X8149800Y-5198100D02*
G75*
G03X8149800Y-5198100I-50000J0D01*
G01*
X8149800Y-7598100D02*
G75*
G03X8149800Y-7598100I-50000J0D01*
G01*
X8149800Y-9998100D02*
G75*
G03X8149800Y-9998100I-50000J0D01*
G01*
X8149800Y-12398100D02*
G75*
G03X8149800Y-12398100I-50000J0D01*
G01*
X8403800Y-5198100D02*
G75*
G03X8403800Y-5198100I-50000J0D01*
G01*
X8403800Y-7598100D02*
G75*
G03X8403800Y-7598100I-50000J0D01*
G01*
X8403800Y-9998100D02*
G75*
G03X8403800Y-9998100I-50000J0D01*
G01*
X8403800Y-12398100D02*
G75*
G03X8403800Y-12398100I-50000J0D01*
G01*
X8556200Y-7192000D02*
G75*
G03X8556200Y-7192000I-50000J0D01*
G01*
X8556200Y-9592000D02*
G75*
G03X8556200Y-9592000I-50000J0D01*
G01*
X8556200Y-11992000D02*
G75*
G03X8556200Y-11992000I-50000J0D01*
G01*
X8556200Y-14392000D02*
G75*
G03X8556200Y-14392000I-50000J0D01*
G01*
X8810200Y-7192000D02*
G75*
G03X8810200Y-7192000I-50000J0D01*
G01*
X8810200Y-9592000D02*
G75*
G03X8810200Y-9592000I-50000J0D01*
G01*
X8810200Y-11992000D02*
G75*
G03X8810200Y-11992000I-50000J0D01*
G01*
X8810200Y-14392000D02*
G75*
G03X8810200Y-14392000I-50000J0D01*
G01*
X9260800Y-7192000D02*
G75*
G03X9260800Y-7192000I-50000J0D01*
G01*
X9260800Y-9592000D02*
G75*
G03X9260800Y-9592000I-50000J0D01*
G01*
X9260800Y-11992000D02*
G75*
G03X9260800Y-11992000I-50000J0D01*
G01*
X9260800Y-14392000D02*
G75*
G03X9260800Y-14392000I-50000J0D01*
G01*
X9514800Y-7192000D02*
G75*
G03X9514800Y-7192000I-50000J0D01*
G01*
X9514800Y-9592000D02*
G75*
G03X9514800Y-9592000I-50000J0D01*
G01*
X9514800Y-11992000D02*
G75*
G03X9514800Y-11992000I-50000J0D01*
G01*
X9514800Y-14392000D02*
G75*
G03X9514800Y-14392000I-50000J0D01*
G01*
X9641800Y-5198100D02*
G75*
G03X9641800Y-5198100I-50000J0D01*
G01*
X9641800Y-7598100D02*
G75*
G03X9641800Y-7598100I-50000J0D01*
G01*
X9641800Y-9998100D02*
G75*
G03X9641800Y-9998100I-50000J0D01*
G01*
X9641800Y-12398100D02*
G75*
G03X9641800Y-12398100I-50000J0D01*
G01*
X9768800Y-7192000D02*
G75*
G03X9768800Y-7192000I-50000J0D01*
G01*
X9768800Y-9592000D02*
G75*
G03X9768800Y-9592000I-50000J0D01*
G01*
X9768800Y-11992000D02*
G75*
G03X9768800Y-11992000I-50000J0D01*
G01*
X9768800Y-14392000D02*
G75*
G03X9768800Y-14392000I-50000J0D01*
G01*
X9895800Y-5198100D02*
G75*
G03X9895800Y-5198100I-50000J0D01*
G01*
X9895800Y-7598100D02*
G75*
G03X9895800Y-7598100I-50000J0D01*
G01*
X9895800Y-9998100D02*
G75*
G03X9895800Y-9998100I-50000J0D01*
G01*
X9895800Y-12398100D02*
G75*
G03X9895800Y-12398100I-50000J0D01*
G01*
X10149800Y-5198100D02*
G75*
G03X10149800Y-5198100I-50000J0D01*
G01*
X10149800Y-7598100D02*
G75*
G03X10149800Y-7598100I-50000J0D01*
G01*
X10149800Y-9998100D02*
G75*
G03X10149800Y-9998100I-50000J0D01*
G01*
X10149800Y-12398100D02*
G75*
G03X10149800Y-12398100I-50000J0D01*
G01*
X10403800Y-5198100D02*
G75*
G03X10403800Y-5198100I-50000J0D01*
G01*
X10403800Y-7598100D02*
G75*
G03X10403800Y-7598100I-50000J0D01*
G01*
X10403800Y-9998100D02*
G75*
G03X10403800Y-9998100I-50000J0D01*
G01*
X10403800Y-12398100D02*
G75*
G03X10403800Y-12398100I-50000J0D01*
G01*
X10556200Y-7192000D02*
G75*
G03X10556200Y-7192000I-50000J0D01*
G01*
X10556200Y-9592000D02*
G75*
G03X10556200Y-9592000I-50000J0D01*
G01*
X10556200Y-11992000D02*
G75*
G03X10556200Y-11992000I-50000J0D01*
G01*
X10556200Y-14392000D02*
G75*
G03X10556200Y-14392000I-50000J0D01*
G01*
X10810200Y-7192000D02*
G75*
G03X10810200Y-7192000I-50000J0D01*
G01*
X10810200Y-9592000D02*
G75*
G03X10810200Y-9592000I-50000J0D01*
G01*
X10810200Y-11992000D02*
G75*
G03X10810200Y-11992000I-50000J0D01*
G01*
X10810200Y-14392000D02*
G75*
G03X10810200Y-14392000I-50000J0D01*
G01*
X11260800Y-7192000D02*
G75*
G03X11260800Y-7192000I-50000J0D01*
G01*
X11260800Y-9592000D02*
G75*
G03X11260800Y-9592000I-50000J0D01*
G01*
X11260800Y-11992000D02*
G75*
G03X11260800Y-11992000I-50000J0D01*
G01*
X11260800Y-14392000D02*
G75*
G03X11260800Y-14392000I-50000J0D01*
G01*
X11514800Y-7192000D02*
G75*
G03X11514800Y-7192000I-50000J0D01*
G01*
X11514800Y-9592000D02*
G75*
G03X11514800Y-9592000I-50000J0D01*
G01*
X11514800Y-11992000D02*
G75*
G03X11514800Y-11992000I-50000J0D01*
G01*
X11514800Y-14392000D02*
G75*
G03X11514800Y-14392000I-50000J0D01*
G01*
X11641800Y-5198100D02*
G75*
G03X11641800Y-5198100I-50000J0D01*
G01*
X11641800Y-7598100D02*
G75*
G03X11641800Y-7598100I-50000J0D01*
G01*
X11641800Y-9998100D02*
G75*
G03X11641800Y-9998100I-50000J0D01*
G01*
X11641800Y-12398100D02*
G75*
G03X11641800Y-12398100I-50000J0D01*
G01*
X11768800Y-7192000D02*
G75*
G03X11768800Y-7192000I-50000J0D01*
G01*
X11768800Y-9592000D02*
G75*
G03X11768800Y-9592000I-50000J0D01*
G01*
X11768800Y-11992000D02*
G75*
G03X11768800Y-11992000I-50000J0D01*
G01*
X11768800Y-14392000D02*
G75*
G03X11768800Y-14392000I-50000J0D01*
G01*
X11895800Y-5198100D02*
G75*
G03X11895800Y-5198100I-50000J0D01*
G01*
X11895800Y-7598100D02*
G75*
G03X11895800Y-7598100I-50000J0D01*
G01*
X11895800Y-9998100D02*
G75*
G03X11895800Y-9998100I-50000J0D01*
G01*
X11895800Y-12398100D02*
G75*
G03X11895800Y-12398100I-50000J0D01*
G01*
X12149800Y-5198100D02*
G75*
G03X12149800Y-5198100I-50000J0D01*
G01*
X12149800Y-7598100D02*
G75*
G03X12149800Y-7598100I-50000J0D01*
G01*
X12149800Y-9998100D02*
G75*
G03X12149800Y-9998100I-50000J0D01*
G01*
X12149800Y-12398100D02*
G75*
G03X12149800Y-12398100I-50000J0D01*
G01*
X12403800Y-5198100D02*
G75*
G03X12403800Y-5198100I-50000J0D01*
G01*
X12403800Y-7598100D02*
G75*
G03X12403800Y-7598100I-50000J0D01*
G01*
X12403800Y-9998100D02*
G75*
G03X12403800Y-9998100I-50000J0D01*
G01*
X12403800Y-12398100D02*
G75*
G03X12403800Y-12398100I-50000J0D01*
G01*
X12556200Y-7192000D02*
G75*
G03X12556200Y-7192000I-50000J0D01*
G01*
X12556200Y-9592000D02*
G75*
G03X12556200Y-9592000I-50000J0D01*
G01*
X12556200Y-11992000D02*
G75*
G03X12556200Y-11992000I-50000J0D01*
G01*
X12556200Y-14392000D02*
G75*
G03X12556200Y-14392000I-50000J0D01*
G01*
X12810200Y-7192000D02*
G75*
G03X12810200Y-7192000I-50000J0D01*
G01*
X12810200Y-9592000D02*
G75*
G03X12810200Y-9592000I-50000J0D01*
G01*
X12810200Y-11992000D02*
G75*
G03X12810200Y-11992000I-50000J0D01*
G01*
X12810200Y-14392000D02*
G75*
G03X12810200Y-14392000I-50000J0D01*
G01*
X13260800Y-7192000D02*
G75*
G03X13260800Y-7192000I-50000J0D01*
G01*
X13260800Y-9592000D02*
G75*
G03X13260800Y-9592000I-50000J0D01*
G01*
X13260800Y-11992000D02*
G75*
G03X13260800Y-11992000I-50000J0D01*
G01*
X13260800Y-14392000D02*
G75*
G03X13260800Y-14392000I-50000J0D01*
G01*
X13514800Y-7192000D02*
G75*
G03X13514800Y-7192000I-50000J0D01*
G01*
X13514800Y-9592000D02*
G75*
G03X13514800Y-9592000I-50000J0D01*
G01*
X13514800Y-11992000D02*
G75*
G03X13514800Y-11992000I-50000J0D01*
G01*
X13514800Y-14392000D02*
G75*
G03X13514800Y-14392000I-50000J0D01*
G01*
X13641800Y-5198100D02*
G75*
G03X13641800Y-5198100I-50000J0D01*
G01*
X13641800Y-7598100D02*
G75*
G03X13641800Y-7598100I-50000J0D01*
G01*
X13641800Y-9998100D02*
G75*
G03X13641800Y-9998100I-50000J0D01*
G01*
X13641800Y-12398100D02*
G75*
G03X13641800Y-12398100I-50000J0D01*
G01*
X13768800Y-7192000D02*
G75*
G03X13768800Y-7192000I-50000J0D01*
G01*
X13768800Y-9592000D02*
G75*
G03X13768800Y-9592000I-50000J0D01*
G01*
X13768800Y-11992000D02*
G75*
G03X13768800Y-11992000I-50000J0D01*
G01*
X13768800Y-14392000D02*
G75*
G03X13768800Y-14392000I-50000J0D01*
G01*
X13895800Y-5198100D02*
G75*
G03X13895800Y-5198100I-50000J0D01*
G01*
X13895800Y-7598100D02*
G75*
G03X13895800Y-7598100I-50000J0D01*
G01*
X13895800Y-9998100D02*
G75*
G03X13895800Y-9998100I-50000J0D01*
G01*
X13895800Y-12398100D02*
G75*
G03X13895800Y-12398100I-50000J0D01*
G01*
X14149800Y-5198100D02*
G75*
G03X14149800Y-5198100I-50000J0D01*
G01*
X14149800Y-7598100D02*
G75*
G03X14149800Y-7598100I-50000J0D01*
G01*
X14149800Y-9998100D02*
G75*
G03X14149800Y-9998100I-50000J0D01*
G01*
X14149800Y-12398100D02*
G75*
G03X14149800Y-12398100I-50000J0D01*
G01*
X14403800Y-5198100D02*
G75*
G03X14403800Y-5198100I-50000J0D01*
G01*
X14403800Y-7598100D02*
G75*
G03X14403800Y-7598100I-50000J0D01*
G01*
X14403800Y-9998100D02*
G75*
G03X14403800Y-9998100I-50000J0D01*
G01*
X14403800Y-12398100D02*
G75*
G03X14403800Y-12398100I-50000J0D01*
G01*
X14556200Y-7192000D02*
G75*
G03X14556200Y-7192000I-50000J0D01*
G01*
X14556200Y-9592000D02*
G75*
G03X14556200Y-9592000I-50000J0D01*
G01*
X14556200Y-11992000D02*
G75*
G03X14556200Y-11992000I-50000J0D01*
G01*
X14556200Y-14392000D02*
G75*
G03X14556200Y-14392000I-50000J0D01*
G01*
X14810200Y-7192000D02*
G75*
G03X14810200Y-7192000I-50000J0D01*
G01*
X14810200Y-9592000D02*
G75*
G03X14810200Y-9592000I-50000J0D01*
G01*
X14810200Y-11992000D02*
G75*
G03X14810200Y-11992000I-50000J0D01*
G01*
X14810200Y-14392000D02*
G75*
G03X14810200Y-14392000I-50000J0D01*
G01*
D13*
X5263929Y-15073214D02*
X5263929Y-14773214D01*
X5335357Y-14773214D01*
X5378214Y-14787500D01*
X5406786Y-14816071D01*
X5421071Y-14844643D01*
X5435357Y-14901786D01*
X5435357Y-14944643D01*
X5421071Y-15001786D01*
X5406786Y-15030357D01*
X5378214Y-15058929D01*
X5335357Y-15073214D01*
X5263929Y-15073214D01*
X5563929Y-15073214D02*
X5563929Y-14873214D01*
X5563929Y-14930357D02*
X5578214Y-14901786D01*
X5592500Y-14887500D01*
X5621071Y-14873214D01*
X5649643Y-14873214D01*
X5749643Y-15073214D02*
X5749643Y-14873214D01*
X5749643Y-14773214D02*
X5735357Y-14787500D01*
X5749643Y-14801786D01*
X5763928Y-14787500D01*
X5749643Y-14773214D01*
X5749643Y-14801786D01*
X5935357Y-15073214D02*
X5906786Y-15058929D01*
X5892500Y-15030357D01*
X5892500Y-14773214D01*
X6092500Y-15073214D02*
X6063928Y-15058929D01*
X6049643Y-15030357D01*
X6049643Y-14773214D01*
X6435357Y-15073214D02*
X6435357Y-14773214D01*
X6535357Y-14987500D01*
X6635357Y-14773214D01*
X6635357Y-15073214D01*
X6906786Y-15073214D02*
X6906786Y-14916071D01*
X6892500Y-14887500D01*
X6863928Y-14873214D01*
X6806786Y-14873214D01*
X6778214Y-14887500D01*
X6906786Y-15058929D02*
X6878214Y-15073214D01*
X6806786Y-15073214D01*
X6778214Y-15058929D01*
X6763928Y-15030357D01*
X6763928Y-15001786D01*
X6778214Y-14973214D01*
X6806786Y-14958929D01*
X6878214Y-14958929D01*
X6906786Y-14944643D01*
X7049643Y-14873214D02*
X7049643Y-15173214D01*
X7049643Y-14887500D02*
X7078214Y-14873214D01*
X7135357Y-14873214D01*
X7163928Y-14887500D01*
X7178214Y-14901786D01*
X7192500Y-14930357D01*
X7192500Y-15016071D01*
X7178214Y-15044643D01*
X7163928Y-15058929D01*
X7135357Y-15073214D01*
X7078214Y-15073214D01*
X7049643Y-15058929D01*
X7321071Y-15044643D02*
X7335357Y-15058929D01*
X7321071Y-15073214D01*
X7306786Y-15058929D01*
X7321071Y-15044643D01*
X7321071Y-15073214D01*
X7321071Y-14887500D02*
X7335357Y-14901786D01*
X7321071Y-14916071D01*
X7306786Y-14901786D01*
X7321071Y-14887500D01*
X7321071Y-14916071D01*
X4952500Y-15547500D02*
X4992500Y-15587500D01*
X4992500Y-15547500D02*
X4952500Y-15587500D01*
X5321071Y-15403214D02*
X5349643Y-15403214D01*
X5378214Y-15417500D01*
X5392500Y-15431786D01*
X5406786Y-15460357D01*
X5421071Y-15517500D01*
X5421071Y-15588929D01*
X5406786Y-15646071D01*
X5392500Y-15674643D01*
X5378214Y-15688929D01*
X5349643Y-15703214D01*
X5321071Y-15703214D01*
X5292500Y-15688929D01*
X5278214Y-15674643D01*
X5263929Y-15646071D01*
X5249643Y-15588929D01*
X5249643Y-15517500D01*
X5263929Y-15460357D01*
X5278214Y-15431786D01*
X5292500Y-15417500D01*
X5321071Y-15403214D01*
X5549643Y-15674643D02*
X5563929Y-15688929D01*
X5549643Y-15703214D01*
X5535357Y-15688929D01*
X5549643Y-15674643D01*
X5549643Y-15703214D01*
X5821071Y-15503214D02*
X5821071Y-15703214D01*
X5749643Y-15388929D02*
X5678214Y-15603214D01*
X5863928Y-15603214D01*
X6035357Y-15403214D02*
X6063928Y-15403214D01*
X6092500Y-15417500D01*
X6106786Y-15431786D01*
X6121071Y-15460357D01*
X6135357Y-15517500D01*
X6135357Y-15588929D01*
X6121071Y-15646071D01*
X6106786Y-15674643D01*
X6092500Y-15688929D01*
X6063928Y-15703214D01*
X6035357Y-15703214D01*
X6006786Y-15688929D01*
X5992500Y-15674643D01*
X5978214Y-15646071D01*
X5963928Y-15588929D01*
X5963928Y-15517500D01*
X5978214Y-15460357D01*
X5992500Y-15431786D01*
X6006786Y-15417500D01*
X6035357Y-15403214D01*
X6263928Y-15703214D02*
X6263928Y-15503214D01*
X6263928Y-15531786D02*
X6278214Y-15517500D01*
X6306786Y-15503214D01*
X6349643Y-15503214D01*
X6378214Y-15517500D01*
X6392500Y-15546071D01*
X6392500Y-15703214D01*
X6392500Y-15546071D02*
X6406786Y-15517500D01*
X6435357Y-15503214D01*
X6478214Y-15503214D01*
X6506786Y-15517500D01*
X6521071Y-15546071D01*
X6521071Y-15703214D01*
X6663928Y-15703214D02*
X6663928Y-15503214D01*
X6663928Y-15531786D02*
X6678214Y-15517500D01*
X6706786Y-15503214D01*
X6749643Y-15503214D01*
X6778214Y-15517500D01*
X6792500Y-15546071D01*
X6792500Y-15703214D01*
X6792500Y-15546071D02*
X6806786Y-15517500D01*
X6835357Y-15503214D01*
X6878214Y-15503214D01*
X6906786Y-15517500D01*
X6921071Y-15546071D01*
X6921071Y-15703214D01*
X7506786Y-15388929D02*
X7249643Y-15774643D01*
X7892500Y-15403214D02*
X7921071Y-15403214D01*
X7949643Y-15417500D01*
X7963928Y-15431786D01*
X7978214Y-15460357D01*
X7992500Y-15517500D01*
X7992500Y-15588929D01*
X7978214Y-15646071D01*
X7963928Y-15674643D01*
X7949643Y-15688929D01*
X7921071Y-15703214D01*
X7892500Y-15703214D01*
X7863928Y-15688929D01*
X7849643Y-15674643D01*
X7835357Y-15646071D01*
X7821071Y-15588929D01*
X7821071Y-15517500D01*
X7835357Y-15460357D01*
X7849643Y-15431786D01*
X7863928Y-15417500D01*
X7892500Y-15403214D01*
X8121071Y-15674643D02*
X8135357Y-15688929D01*
X8121071Y-15703214D01*
X8106786Y-15688929D01*
X8121071Y-15674643D01*
X8121071Y-15703214D01*
X8321071Y-15403214D02*
X8349643Y-15403214D01*
X8378214Y-15417500D01*
X8392500Y-15431786D01*
X8406786Y-15460357D01*
X8421071Y-15517500D01*
X8421071Y-15588929D01*
X8406786Y-15646071D01*
X8392500Y-15674643D01*
X8378214Y-15688929D01*
X8349643Y-15703214D01*
X8321071Y-15703214D01*
X8292500Y-15688929D01*
X8278214Y-15674643D01*
X8263928Y-15646071D01*
X8249643Y-15588929D01*
X8249643Y-15517500D01*
X8263928Y-15460357D01*
X8278214Y-15431786D01*
X8292500Y-15417500D01*
X8321071Y-15403214D01*
X8706786Y-15703214D02*
X8535357Y-15703214D01*
X8621071Y-15703214D02*
X8621071Y-15403214D01*
X8592500Y-15446071D01*
X8563928Y-15474643D01*
X8535357Y-15488929D01*
X8963928Y-15403214D02*
X8906786Y-15403214D01*
X8878214Y-15417500D01*
X8863928Y-15431786D01*
X8835357Y-15474643D01*
X8821071Y-15531786D01*
X8821071Y-15646071D01*
X8835357Y-15674643D01*
X8849643Y-15688929D01*
X8878214Y-15703214D01*
X8935357Y-15703214D01*
X8963928Y-15688929D01*
X8978214Y-15674643D01*
X8992500Y-15646071D01*
X8992500Y-15574643D01*
X8978214Y-15546071D01*
X8963928Y-15531786D01*
X8935357Y-15517500D01*
X8878214Y-15517500D01*
X8849643Y-15531786D01*
X8835357Y-15546071D01*
X8821071Y-15574643D01*
X9106786Y-15403214D02*
X9106786Y-15460357D01*
X9221071Y-15403214D02*
X9221071Y-15460357D01*
X9663928Y-15817500D02*
X9649643Y-15803214D01*
X9621071Y-15760357D01*
X9606786Y-15731786D01*
X9592500Y-15688929D01*
X9578214Y-15617500D01*
X9578214Y-15560357D01*
X9592500Y-15488929D01*
X9606786Y-15446071D01*
X9621071Y-15417500D01*
X9649643Y-15374643D01*
X9663928Y-15360357D01*
X9906786Y-15503214D02*
X9906786Y-15703214D01*
X9835357Y-15388929D02*
X9763928Y-15603214D01*
X9949643Y-15603214D01*
X10192500Y-15503214D02*
X10192500Y-15703214D01*
X10121071Y-15388929D02*
X10049643Y-15603214D01*
X10235357Y-15603214D01*
X10406786Y-15403214D02*
X10435357Y-15403214D01*
X10463928Y-15417500D01*
X10478214Y-15431786D01*
X10492500Y-15460357D01*
X10506786Y-15517500D01*
X10506786Y-15588929D01*
X10492500Y-15646071D01*
X10478214Y-15674643D01*
X10463928Y-15688929D01*
X10435357Y-15703214D01*
X10406786Y-15703214D01*
X10378214Y-15688929D01*
X10363928Y-15674643D01*
X10349643Y-15646071D01*
X10335357Y-15588929D01*
X10335357Y-15517500D01*
X10349643Y-15460357D01*
X10363928Y-15431786D01*
X10378214Y-15417500D01*
X10406786Y-15403214D01*
X10863928Y-15703214D02*
X10863928Y-15403214D01*
X10992500Y-15703214D02*
X10992500Y-15546071D01*
X10978214Y-15517500D01*
X10949643Y-15503214D01*
X10906786Y-15503214D01*
X10878214Y-15517500D01*
X10863928Y-15531786D01*
X11178214Y-15703214D02*
X11149643Y-15688929D01*
X11135357Y-15674643D01*
X11121071Y-15646071D01*
X11121071Y-15560357D01*
X11135357Y-15531786D01*
X11149643Y-15517500D01*
X11178214Y-15503214D01*
X11221071Y-15503214D01*
X11249643Y-15517500D01*
X11263928Y-15531786D01*
X11278214Y-15560357D01*
X11278214Y-15646071D01*
X11263928Y-15674643D01*
X11249643Y-15688929D01*
X11221071Y-15703214D01*
X11178214Y-15703214D01*
X11449643Y-15703214D02*
X11421071Y-15688929D01*
X11406786Y-15660357D01*
X11406786Y-15403214D01*
X11678214Y-15688929D02*
X11649643Y-15703214D01*
X11592500Y-15703214D01*
X11563928Y-15688929D01*
X11549643Y-15660357D01*
X11549643Y-15546071D01*
X11563928Y-15517500D01*
X11592500Y-15503214D01*
X11649643Y-15503214D01*
X11678214Y-15517500D01*
X11692500Y-15546071D01*
X11692500Y-15574643D01*
X11549643Y-15603214D01*
X11806786Y-15688929D02*
X11835357Y-15703214D01*
X11892500Y-15703214D01*
X11921071Y-15688929D01*
X11935357Y-15660357D01*
X11935357Y-15646071D01*
X11921071Y-15617500D01*
X11892500Y-15603214D01*
X11849643Y-15603214D01*
X11821071Y-15588929D01*
X11806786Y-15560357D01*
X11806786Y-15546071D01*
X11821071Y-15517500D01*
X11849643Y-15503214D01*
X11892500Y-15503214D01*
X11921071Y-15517500D01*
X12035357Y-15817500D02*
X12049643Y-15803214D01*
X12078214Y-15760357D01*
X12092500Y-15731786D01*
X12106786Y-15688929D01*
X12121071Y-15617500D01*
X12121071Y-15560357D01*
X12106786Y-15488929D01*
X12092500Y-15446071D01*
X12078214Y-15417500D01*
X12049643Y-15374643D01*
X12035357Y-15360357D01*
X4992500Y-15963500D02*
G75*
G03X4992500Y-15963500I-50000J0D01*
G01*
X5421071Y-16099214D02*
X5249643Y-16099214D01*
X5335357Y-16099214D02*
X5335357Y-15799214D01*
X5306786Y-15842071D01*
X5278214Y-15870643D01*
X5249643Y-15884929D01*
X5549643Y-16070643D02*
X5563929Y-16084929D01*
X5549643Y-16099214D01*
X5535357Y-16084929D01*
X5549643Y-16070643D01*
X5549643Y-16099214D01*
X5749643Y-15799214D02*
X5778214Y-15799214D01*
X5806786Y-15813500D01*
X5821071Y-15827786D01*
X5835357Y-15856357D01*
X5849643Y-15913500D01*
X5849643Y-15984929D01*
X5835357Y-16042071D01*
X5821071Y-16070643D01*
X5806786Y-16084929D01*
X5778214Y-16099214D01*
X5749643Y-16099214D01*
X5721071Y-16084929D01*
X5706786Y-16070643D01*
X5692500Y-16042071D01*
X5678214Y-15984929D01*
X5678214Y-15913500D01*
X5692500Y-15856357D01*
X5706786Y-15827786D01*
X5721071Y-15813500D01*
X5749643Y-15799214D01*
X6035357Y-15799214D02*
X6063928Y-15799214D01*
X6092500Y-15813500D01*
X6106786Y-15827786D01*
X6121071Y-15856357D01*
X6135357Y-15913500D01*
X6135357Y-15984929D01*
X6121071Y-16042071D01*
X6106786Y-16070643D01*
X6092500Y-16084929D01*
X6063928Y-16099214D01*
X6035357Y-16099214D01*
X6006786Y-16084929D01*
X5992500Y-16070643D01*
X5978214Y-16042071D01*
X5963928Y-15984929D01*
X5963928Y-15913500D01*
X5978214Y-15856357D01*
X5992500Y-15827786D01*
X6006786Y-15813500D01*
X6035357Y-15799214D01*
X6263928Y-16099214D02*
X6263928Y-15899214D01*
X6263928Y-15927786D02*
X6278214Y-15913500D01*
X6306786Y-15899214D01*
X6349643Y-15899214D01*
X6378214Y-15913500D01*
X6392500Y-15942071D01*
X6392500Y-16099214D01*
X6392500Y-15942071D02*
X6406786Y-15913500D01*
X6435357Y-15899214D01*
X6478214Y-15899214D01*
X6506786Y-15913500D01*
X6521071Y-15942071D01*
X6521071Y-16099214D01*
X6663928Y-16099214D02*
X6663928Y-15899214D01*
X6663928Y-15927786D02*
X6678214Y-15913500D01*
X6706786Y-15899214D01*
X6749643Y-15899214D01*
X6778214Y-15913500D01*
X6792500Y-15942071D01*
X6792500Y-16099214D01*
X6792500Y-15942071D02*
X6806786Y-15913500D01*
X6835357Y-15899214D01*
X6878214Y-15899214D01*
X6906786Y-15913500D01*
X6921071Y-15942071D01*
X6921071Y-16099214D01*
X7506786Y-15784929D02*
X7249643Y-16170643D01*
X7892500Y-15799214D02*
X7921071Y-15799214D01*
X7949643Y-15813500D01*
X7963928Y-15827786D01*
X7978214Y-15856357D01*
X7992500Y-15913500D01*
X7992500Y-15984929D01*
X7978214Y-16042071D01*
X7963928Y-16070643D01*
X7949643Y-16084929D01*
X7921071Y-16099214D01*
X7892500Y-16099214D01*
X7863928Y-16084929D01*
X7849643Y-16070643D01*
X7835357Y-16042071D01*
X7821071Y-15984929D01*
X7821071Y-15913500D01*
X7835357Y-15856357D01*
X7849643Y-15827786D01*
X7863928Y-15813500D01*
X7892500Y-15799214D01*
X8121071Y-16070643D02*
X8135357Y-16084929D01*
X8121071Y-16099214D01*
X8106786Y-16084929D01*
X8121071Y-16070643D01*
X8121071Y-16099214D01*
X8321071Y-15799214D02*
X8349643Y-15799214D01*
X8378214Y-15813500D01*
X8392500Y-15827786D01*
X8406786Y-15856357D01*
X8421071Y-15913500D01*
X8421071Y-15984929D01*
X8406786Y-16042071D01*
X8392500Y-16070643D01*
X8378214Y-16084929D01*
X8349643Y-16099214D01*
X8321071Y-16099214D01*
X8292500Y-16084929D01*
X8278214Y-16070643D01*
X8263928Y-16042071D01*
X8249643Y-15984929D01*
X8249643Y-15913500D01*
X8263928Y-15856357D01*
X8278214Y-15827786D01*
X8292500Y-15813500D01*
X8321071Y-15799214D01*
X8521071Y-15799214D02*
X8706786Y-15799214D01*
X8606786Y-15913500D01*
X8649643Y-15913500D01*
X8678214Y-15927786D01*
X8692500Y-15942071D01*
X8706786Y-15970643D01*
X8706786Y-16042071D01*
X8692500Y-16070643D01*
X8678214Y-16084929D01*
X8649643Y-16099214D01*
X8563928Y-16099214D01*
X8535357Y-16084929D01*
X8521071Y-16070643D01*
X8849643Y-16099214D02*
X8906786Y-16099214D01*
X8935357Y-16084929D01*
X8949643Y-16070643D01*
X8978214Y-16027786D01*
X8992500Y-15970643D01*
X8992500Y-15856357D01*
X8978214Y-15827786D01*
X8963928Y-15813500D01*
X8935357Y-15799214D01*
X8878214Y-15799214D01*
X8849643Y-15813500D01*
X8835357Y-15827786D01*
X8821071Y-15856357D01*
X8821071Y-15927786D01*
X8835357Y-15956357D01*
X8849643Y-15970643D01*
X8878214Y-15984929D01*
X8935357Y-15984929D01*
X8963928Y-15970643D01*
X8978214Y-15956357D01*
X8992500Y-15927786D01*
X9106786Y-15799214D02*
X9106786Y-15856357D01*
X9221071Y-15799214D02*
X9221071Y-15856357D01*
X9663928Y-16213500D02*
X9649643Y-16199214D01*
X9621071Y-16156357D01*
X9606786Y-16127786D01*
X9592500Y-16084929D01*
X9578214Y-16013500D01*
X9578214Y-15956357D01*
X9592500Y-15884929D01*
X9606786Y-15842071D01*
X9621071Y-15813500D01*
X9649643Y-15770643D01*
X9663928Y-15756357D01*
X9935357Y-16099214D02*
X9763928Y-16099214D01*
X9849643Y-16099214D02*
X9849643Y-15799214D01*
X9821071Y-15842071D01*
X9792500Y-15870643D01*
X9763928Y-15884929D01*
X10106786Y-15927786D02*
X10078214Y-15913500D01*
X10063928Y-15899214D01*
X10049643Y-15870643D01*
X10049643Y-15856357D01*
X10063928Y-15827786D01*
X10078214Y-15813500D01*
X10106786Y-15799214D01*
X10163928Y-15799214D01*
X10192500Y-15813500D01*
X10206786Y-15827786D01*
X10221071Y-15856357D01*
X10221071Y-15870643D01*
X10206786Y-15899214D01*
X10192500Y-15913500D01*
X10163928Y-15927786D01*
X10106786Y-15927786D01*
X10078214Y-15942071D01*
X10063928Y-15956357D01*
X10049643Y-15984929D01*
X10049643Y-16042071D01*
X10063928Y-16070643D01*
X10078214Y-16084929D01*
X10106786Y-16099214D01*
X10163928Y-16099214D01*
X10192500Y-16084929D01*
X10206786Y-16070643D01*
X10221071Y-16042071D01*
X10221071Y-15984929D01*
X10206786Y-15956357D01*
X10192500Y-15942071D01*
X10163928Y-15927786D01*
X10406786Y-15799214D02*
X10435357Y-15799214D01*
X10463928Y-15813500D01*
X10478214Y-15827786D01*
X10492500Y-15856357D01*
X10506786Y-15913500D01*
X10506786Y-15984929D01*
X10492500Y-16042071D01*
X10478214Y-16070643D01*
X10463928Y-16084929D01*
X10435357Y-16099214D01*
X10406786Y-16099214D01*
X10378214Y-16084929D01*
X10363928Y-16070643D01*
X10349643Y-16042071D01*
X10335357Y-15984929D01*
X10335357Y-15913500D01*
X10349643Y-15856357D01*
X10363928Y-15827786D01*
X10378214Y-15813500D01*
X10406786Y-15799214D01*
X10863928Y-16099214D02*
X10863928Y-15799214D01*
X10992500Y-16099214D02*
X10992500Y-15942071D01*
X10978214Y-15913500D01*
X10949643Y-15899214D01*
X10906786Y-15899214D01*
X10878214Y-15913500D01*
X10863928Y-15927786D01*
X11178214Y-16099214D02*
X11149643Y-16084929D01*
X11135357Y-16070643D01*
X11121071Y-16042071D01*
X11121071Y-15956357D01*
X11135357Y-15927786D01*
X11149643Y-15913500D01*
X11178214Y-15899214D01*
X11221071Y-15899214D01*
X11249643Y-15913500D01*
X11263928Y-15927786D01*
X11278214Y-15956357D01*
X11278214Y-16042071D01*
X11263928Y-16070643D01*
X11249643Y-16084929D01*
X11221071Y-16099214D01*
X11178214Y-16099214D01*
X11449643Y-16099214D02*
X11421071Y-16084929D01*
X11406786Y-16056357D01*
X11406786Y-15799214D01*
X11678214Y-16084929D02*
X11649643Y-16099214D01*
X11592500Y-16099214D01*
X11563928Y-16084929D01*
X11549643Y-16056357D01*
X11549643Y-15942071D01*
X11563928Y-15913500D01*
X11592500Y-15899214D01*
X11649643Y-15899214D01*
X11678214Y-15913500D01*
X11692500Y-15942071D01*
X11692500Y-15970643D01*
X11549643Y-15999214D01*
X11806786Y-16084929D02*
X11835357Y-16099214D01*
X11892500Y-16099214D01*
X11921071Y-16084929D01*
X11935357Y-16056357D01*
X11935357Y-16042071D01*
X11921071Y-16013500D01*
X11892500Y-15999214D01*
X11849643Y-15999214D01*
X11821071Y-15984929D01*
X11806786Y-15956357D01*
X11806786Y-15942071D01*
X11821071Y-15913500D01*
X11849643Y-15899214D01*
X11892500Y-15899214D01*
X11921071Y-15913500D01*
X12035357Y-16213500D02*
X12049643Y-16199214D01*
X12078214Y-16156357D01*
X12092500Y-16127786D01*
X12106786Y-16084929D01*
X12121071Y-16013500D01*
X12121071Y-15956357D01*
X12106786Y-15884929D01*
X12092500Y-15842071D01*
X12078214Y-15813500D01*
X12049643Y-15770643D01*
X12035357Y-15756357D01*
M02*
