G04 #@! TF.FileFunction,Soldermask,Top*
%FSLAX46Y46*%
G04 Gerber Fmt 4.6, Leading zero omitted, Abs format (unit mm)*
G04 Created by KiCad (PCBNEW 4.0.2-stable) date 9/5/2017 3:04:55 PM*
%MOMM*%
G01*
G04 APERTURE LIST*
%ADD10C,0.100000*%
%ADD11R,0.700000X1.300000*%
%ADD12R,1.700000X1.700000*%
%ADD13O,1.700000X1.700000*%
%ADD14R,1.000000X1.250000*%
%ADD15R,1.800000X2.500000*%
%ADD16R,2.150000X5.500000*%
%ADD17R,1.000000X1.600000*%
%ADD18R,1.500000X0.700000*%
%ADD19R,1.500000X1.000000*%
%ADD20R,0.800000X2.000000*%
%ADD21R,1.250000X1.000000*%
%ADD22R,1.300000X0.700000*%
G04 APERTURE END LIST*
D10*
D11*
X136116200Y-140999000D03*
X134216200Y-140999000D03*
X116116200Y-140999000D03*
X114216200Y-140999000D03*
X96116200Y-140999000D03*
X94216200Y-140999000D03*
X76116200Y-140999000D03*
X74216200Y-140999000D03*
X56116200Y-140999000D03*
X54216200Y-140999000D03*
X136116200Y-116999000D03*
X134216200Y-116999000D03*
X116116200Y-116999000D03*
X114216200Y-116999000D03*
X96116200Y-116999000D03*
X94216200Y-116999000D03*
X76116200Y-116999000D03*
X74216200Y-116999000D03*
X56116200Y-116999000D03*
X54216200Y-116999000D03*
X136116200Y-92999000D03*
X134216200Y-92999000D03*
X116116200Y-92999000D03*
X114216200Y-92999000D03*
X96116200Y-92999000D03*
X94216200Y-92999000D03*
X76116200Y-92999000D03*
X74216200Y-92999000D03*
X56116200Y-92999000D03*
X54216200Y-92999000D03*
X136116200Y-68999000D03*
X134216200Y-68999000D03*
X116116200Y-68999000D03*
X114216200Y-68999000D03*
X96116200Y-68999000D03*
X94216200Y-68999000D03*
X76116200Y-68999000D03*
X74216200Y-68999000D03*
D12*
X132108000Y-143920000D03*
D13*
X134648000Y-143920000D03*
X137188000Y-143920000D03*
D12*
X112108000Y-143920000D03*
D13*
X114648000Y-143920000D03*
X117188000Y-143920000D03*
D12*
X92108000Y-143920000D03*
D13*
X94648000Y-143920000D03*
X97188000Y-143920000D03*
D12*
X72108000Y-143920000D03*
D13*
X74648000Y-143920000D03*
X77188000Y-143920000D03*
D12*
X52108000Y-143920000D03*
D13*
X54648000Y-143920000D03*
X57188000Y-143920000D03*
D12*
X132108000Y-119920000D03*
D13*
X134648000Y-119920000D03*
X137188000Y-119920000D03*
D12*
X112108000Y-119920000D03*
D13*
X114648000Y-119920000D03*
X117188000Y-119920000D03*
D12*
X92108000Y-119920000D03*
D13*
X94648000Y-119920000D03*
X97188000Y-119920000D03*
D12*
X72108000Y-119920000D03*
D13*
X74648000Y-119920000D03*
X77188000Y-119920000D03*
D12*
X52108000Y-119920000D03*
D13*
X54648000Y-119920000D03*
X57188000Y-119920000D03*
D12*
X132108000Y-95920000D03*
D13*
X134648000Y-95920000D03*
X137188000Y-95920000D03*
D12*
X112108000Y-95920000D03*
D13*
X114648000Y-95920000D03*
X117188000Y-95920000D03*
D12*
X92108000Y-95920000D03*
D13*
X94648000Y-95920000D03*
X97188000Y-95920000D03*
D12*
X72108000Y-95920000D03*
D13*
X74648000Y-95920000D03*
X77188000Y-95920000D03*
D12*
X52108000Y-95920000D03*
D13*
X54648000Y-95920000D03*
X57188000Y-95920000D03*
D12*
X132108000Y-71920000D03*
D13*
X134648000Y-71920000D03*
X137188000Y-71920000D03*
D12*
X112108000Y-71920000D03*
D13*
X114648000Y-71920000D03*
X117188000Y-71920000D03*
D12*
X92108000Y-71920000D03*
D13*
X94648000Y-71920000D03*
X97188000Y-71920000D03*
D12*
X72108000Y-71920000D03*
D13*
X74648000Y-71920000D03*
X77188000Y-71920000D03*
D11*
X132804000Y-140999000D03*
X130904000Y-140999000D03*
X112804000Y-140999000D03*
X110904000Y-140999000D03*
X92804000Y-140999000D03*
X90904000Y-140999000D03*
X72804000Y-140999000D03*
X70904000Y-140999000D03*
X52804000Y-140999000D03*
X50904000Y-140999000D03*
X132804000Y-116999000D03*
X130904000Y-116999000D03*
X112804000Y-116999000D03*
X110904000Y-116999000D03*
X92804000Y-116999000D03*
X90904000Y-116999000D03*
X72804000Y-116999000D03*
X70904000Y-116999000D03*
X52804000Y-116999000D03*
X50904000Y-116999000D03*
X132804000Y-92999000D03*
X130904000Y-92999000D03*
X112804000Y-92999000D03*
X110904000Y-92999000D03*
X92804000Y-92999000D03*
X90904000Y-92999000D03*
X72804000Y-92999000D03*
X70904000Y-92999000D03*
X52804000Y-92999000D03*
X50904000Y-92999000D03*
X132804000Y-68999000D03*
X130904000Y-68999000D03*
X112804000Y-68999000D03*
X110904000Y-68999000D03*
X92804000Y-68999000D03*
X90904000Y-68999000D03*
X72804000Y-68999000D03*
X70904000Y-68999000D03*
D14*
X148297200Y-124006400D03*
X146297200Y-124006400D03*
X128297200Y-124006400D03*
X126297200Y-124006400D03*
X108297200Y-124006400D03*
X106297200Y-124006400D03*
X88297200Y-124006400D03*
X86297200Y-124006400D03*
X68297200Y-124006400D03*
X66297200Y-124006400D03*
X148297200Y-100006400D03*
X146297200Y-100006400D03*
X128297200Y-100006400D03*
X126297200Y-100006400D03*
X108297200Y-100006400D03*
X106297200Y-100006400D03*
X88297200Y-100006400D03*
X86297200Y-100006400D03*
X68297200Y-100006400D03*
X66297200Y-100006400D03*
X148297200Y-76006400D03*
X146297200Y-76006400D03*
X128297200Y-76006400D03*
X126297200Y-76006400D03*
X108297200Y-76006400D03*
X106297200Y-76006400D03*
X88297200Y-76006400D03*
X86297200Y-76006400D03*
X68297200Y-76006400D03*
X66297200Y-76006400D03*
X148297200Y-52006400D03*
X146297200Y-52006400D03*
X128297200Y-52006400D03*
X126297200Y-52006400D03*
X108297200Y-52006400D03*
X106297200Y-52006400D03*
X88297200Y-52006400D03*
X86297200Y-52006400D03*
D15*
X148110000Y-131283000D03*
X148110000Y-127283000D03*
X128110000Y-131283000D03*
X128110000Y-127283000D03*
X108110000Y-131283000D03*
X108110000Y-127283000D03*
X88110000Y-131283000D03*
X88110000Y-127283000D03*
X68110000Y-131283000D03*
X68110000Y-127283000D03*
X148110000Y-107283000D03*
X148110000Y-103283000D03*
X128110000Y-107283000D03*
X128110000Y-103283000D03*
X108110000Y-107283000D03*
X108110000Y-103283000D03*
X88110000Y-107283000D03*
X88110000Y-103283000D03*
X68110000Y-107283000D03*
X68110000Y-103283000D03*
X148110000Y-83283000D03*
X148110000Y-79283000D03*
X128110000Y-83283000D03*
X128110000Y-79283000D03*
X108110000Y-83283000D03*
X108110000Y-79283000D03*
X88110000Y-83283000D03*
X88110000Y-79283000D03*
X68110000Y-83283000D03*
X68110000Y-79283000D03*
X148110000Y-59283000D03*
X148110000Y-55283000D03*
X128110000Y-59283000D03*
X128110000Y-55283000D03*
X108110000Y-59283000D03*
X108110000Y-55283000D03*
X88110000Y-59283000D03*
X88110000Y-55283000D03*
D16*
X141232000Y-128680000D03*
X145082000Y-128680000D03*
X121232000Y-128680000D03*
X125082000Y-128680000D03*
X101232000Y-128680000D03*
X105082000Y-128680000D03*
X81232000Y-128680000D03*
X85082000Y-128680000D03*
X61232000Y-128680000D03*
X65082000Y-128680000D03*
X141232000Y-104680000D03*
X145082000Y-104680000D03*
X121232000Y-104680000D03*
X125082000Y-104680000D03*
X101232000Y-104680000D03*
X105082000Y-104680000D03*
X81232000Y-104680000D03*
X85082000Y-104680000D03*
X61232000Y-104680000D03*
X65082000Y-104680000D03*
X141232000Y-80680000D03*
X145082000Y-80680000D03*
X121232000Y-80680000D03*
X125082000Y-80680000D03*
X101232000Y-80680000D03*
X105082000Y-80680000D03*
X81232000Y-80680000D03*
X85082000Y-80680000D03*
X61232000Y-80680000D03*
X65082000Y-80680000D03*
X141232000Y-56680000D03*
X145082000Y-56680000D03*
X121232000Y-56680000D03*
X125082000Y-56680000D03*
X101232000Y-56680000D03*
X105082000Y-56680000D03*
X81232000Y-56680000D03*
X85082000Y-56680000D03*
D17*
X141911000Y-132617000D03*
X144911000Y-132617000D03*
X121911000Y-132617000D03*
X124911000Y-132617000D03*
X101911000Y-132617000D03*
X104911000Y-132617000D03*
X81911000Y-132617000D03*
X84911000Y-132617000D03*
X61911000Y-132617000D03*
X64911000Y-132617000D03*
X141911000Y-108617000D03*
X144911000Y-108617000D03*
X121911000Y-108617000D03*
X124911000Y-108617000D03*
X101911000Y-108617000D03*
X104911000Y-108617000D03*
X81911000Y-108617000D03*
X84911000Y-108617000D03*
X61911000Y-108617000D03*
X64911000Y-108617000D03*
X141911000Y-84617000D03*
X144911000Y-84617000D03*
X121911000Y-84617000D03*
X124911000Y-84617000D03*
X101911000Y-84617000D03*
X104911000Y-84617000D03*
X81911000Y-84617000D03*
X84911000Y-84617000D03*
X61911000Y-84617000D03*
X64911000Y-84617000D03*
X141911000Y-60617000D03*
X144911000Y-60617000D03*
X121911000Y-60617000D03*
X124911000Y-60617000D03*
X101911000Y-60617000D03*
X104911000Y-60617000D03*
X81911000Y-60617000D03*
X84911000Y-60617000D03*
D10*
G36*
X135302000Y-135300000D02*
X136052000Y-135800000D01*
X136052000Y-136800000D01*
X135302000Y-137300000D01*
X135302000Y-135300000D01*
X135302000Y-135300000D01*
G37*
D18*
X136752000Y-134800000D03*
X136752000Y-137800000D03*
X133052000Y-134800000D03*
D19*
X133052000Y-136300000D03*
D18*
X133052000Y-137800000D03*
D19*
X136752000Y-136300000D03*
D10*
G36*
X134502000Y-137300000D02*
X133752000Y-136800000D01*
X133752000Y-135800000D01*
X134502000Y-135300000D01*
X134502000Y-137300000D01*
X134502000Y-137300000D01*
G37*
D20*
X134902000Y-136300000D03*
D10*
G36*
X115302000Y-135300000D02*
X116052000Y-135800000D01*
X116052000Y-136800000D01*
X115302000Y-137300000D01*
X115302000Y-135300000D01*
X115302000Y-135300000D01*
G37*
D18*
X116752000Y-134800000D03*
X116752000Y-137800000D03*
X113052000Y-134800000D03*
D19*
X113052000Y-136300000D03*
D18*
X113052000Y-137800000D03*
D19*
X116752000Y-136300000D03*
D10*
G36*
X114502000Y-137300000D02*
X113752000Y-136800000D01*
X113752000Y-135800000D01*
X114502000Y-135300000D01*
X114502000Y-137300000D01*
X114502000Y-137300000D01*
G37*
D20*
X114902000Y-136300000D03*
D10*
G36*
X95302000Y-135300000D02*
X96052000Y-135800000D01*
X96052000Y-136800000D01*
X95302000Y-137300000D01*
X95302000Y-135300000D01*
X95302000Y-135300000D01*
G37*
D18*
X96752000Y-134800000D03*
X96752000Y-137800000D03*
X93052000Y-134800000D03*
D19*
X93052000Y-136300000D03*
D18*
X93052000Y-137800000D03*
D19*
X96752000Y-136300000D03*
D10*
G36*
X94502000Y-137300000D02*
X93752000Y-136800000D01*
X93752000Y-135800000D01*
X94502000Y-135300000D01*
X94502000Y-137300000D01*
X94502000Y-137300000D01*
G37*
D20*
X94902000Y-136300000D03*
D10*
G36*
X75302000Y-135300000D02*
X76052000Y-135800000D01*
X76052000Y-136800000D01*
X75302000Y-137300000D01*
X75302000Y-135300000D01*
X75302000Y-135300000D01*
G37*
D18*
X76752000Y-134800000D03*
X76752000Y-137800000D03*
X73052000Y-134800000D03*
D19*
X73052000Y-136300000D03*
D18*
X73052000Y-137800000D03*
D19*
X76752000Y-136300000D03*
D10*
G36*
X74502000Y-137300000D02*
X73752000Y-136800000D01*
X73752000Y-135800000D01*
X74502000Y-135300000D01*
X74502000Y-137300000D01*
X74502000Y-137300000D01*
G37*
D20*
X74902000Y-136300000D03*
D10*
G36*
X55302000Y-135300000D02*
X56052000Y-135800000D01*
X56052000Y-136800000D01*
X55302000Y-137300000D01*
X55302000Y-135300000D01*
X55302000Y-135300000D01*
G37*
D18*
X56752000Y-134800000D03*
X56752000Y-137800000D03*
X53052000Y-134800000D03*
D19*
X53052000Y-136300000D03*
D18*
X53052000Y-137800000D03*
D19*
X56752000Y-136300000D03*
D10*
G36*
X54502000Y-137300000D02*
X53752000Y-136800000D01*
X53752000Y-135800000D01*
X54502000Y-135300000D01*
X54502000Y-137300000D01*
X54502000Y-137300000D01*
G37*
D20*
X54902000Y-136300000D03*
D10*
G36*
X135302000Y-111300000D02*
X136052000Y-111800000D01*
X136052000Y-112800000D01*
X135302000Y-113300000D01*
X135302000Y-111300000D01*
X135302000Y-111300000D01*
G37*
D18*
X136752000Y-110800000D03*
X136752000Y-113800000D03*
X133052000Y-110800000D03*
D19*
X133052000Y-112300000D03*
D18*
X133052000Y-113800000D03*
D19*
X136752000Y-112300000D03*
D10*
G36*
X134502000Y-113300000D02*
X133752000Y-112800000D01*
X133752000Y-111800000D01*
X134502000Y-111300000D01*
X134502000Y-113300000D01*
X134502000Y-113300000D01*
G37*
D20*
X134902000Y-112300000D03*
D10*
G36*
X115302000Y-111300000D02*
X116052000Y-111800000D01*
X116052000Y-112800000D01*
X115302000Y-113300000D01*
X115302000Y-111300000D01*
X115302000Y-111300000D01*
G37*
D18*
X116752000Y-110800000D03*
X116752000Y-113800000D03*
X113052000Y-110800000D03*
D19*
X113052000Y-112300000D03*
D18*
X113052000Y-113800000D03*
D19*
X116752000Y-112300000D03*
D10*
G36*
X114502000Y-113300000D02*
X113752000Y-112800000D01*
X113752000Y-111800000D01*
X114502000Y-111300000D01*
X114502000Y-113300000D01*
X114502000Y-113300000D01*
G37*
D20*
X114902000Y-112300000D03*
D10*
G36*
X95302000Y-111300000D02*
X96052000Y-111800000D01*
X96052000Y-112800000D01*
X95302000Y-113300000D01*
X95302000Y-111300000D01*
X95302000Y-111300000D01*
G37*
D18*
X96752000Y-110800000D03*
X96752000Y-113800000D03*
X93052000Y-110800000D03*
D19*
X93052000Y-112300000D03*
D18*
X93052000Y-113800000D03*
D19*
X96752000Y-112300000D03*
D10*
G36*
X94502000Y-113300000D02*
X93752000Y-112800000D01*
X93752000Y-111800000D01*
X94502000Y-111300000D01*
X94502000Y-113300000D01*
X94502000Y-113300000D01*
G37*
D20*
X94902000Y-112300000D03*
D10*
G36*
X75302000Y-111300000D02*
X76052000Y-111800000D01*
X76052000Y-112800000D01*
X75302000Y-113300000D01*
X75302000Y-111300000D01*
X75302000Y-111300000D01*
G37*
D18*
X76752000Y-110800000D03*
X76752000Y-113800000D03*
X73052000Y-110800000D03*
D19*
X73052000Y-112300000D03*
D18*
X73052000Y-113800000D03*
D19*
X76752000Y-112300000D03*
D10*
G36*
X74502000Y-113300000D02*
X73752000Y-112800000D01*
X73752000Y-111800000D01*
X74502000Y-111300000D01*
X74502000Y-113300000D01*
X74502000Y-113300000D01*
G37*
D20*
X74902000Y-112300000D03*
D10*
G36*
X55302000Y-111300000D02*
X56052000Y-111800000D01*
X56052000Y-112800000D01*
X55302000Y-113300000D01*
X55302000Y-111300000D01*
X55302000Y-111300000D01*
G37*
D18*
X56752000Y-110800000D03*
X56752000Y-113800000D03*
X53052000Y-110800000D03*
D19*
X53052000Y-112300000D03*
D18*
X53052000Y-113800000D03*
D19*
X56752000Y-112300000D03*
D10*
G36*
X54502000Y-113300000D02*
X53752000Y-112800000D01*
X53752000Y-111800000D01*
X54502000Y-111300000D01*
X54502000Y-113300000D01*
X54502000Y-113300000D01*
G37*
D20*
X54902000Y-112300000D03*
D10*
G36*
X135302000Y-87300000D02*
X136052000Y-87800000D01*
X136052000Y-88800000D01*
X135302000Y-89300000D01*
X135302000Y-87300000D01*
X135302000Y-87300000D01*
G37*
D18*
X136752000Y-86800000D03*
X136752000Y-89800000D03*
X133052000Y-86800000D03*
D19*
X133052000Y-88300000D03*
D18*
X133052000Y-89800000D03*
D19*
X136752000Y-88300000D03*
D10*
G36*
X134502000Y-89300000D02*
X133752000Y-88800000D01*
X133752000Y-87800000D01*
X134502000Y-87300000D01*
X134502000Y-89300000D01*
X134502000Y-89300000D01*
G37*
D20*
X134902000Y-88300000D03*
D10*
G36*
X115302000Y-87300000D02*
X116052000Y-87800000D01*
X116052000Y-88800000D01*
X115302000Y-89300000D01*
X115302000Y-87300000D01*
X115302000Y-87300000D01*
G37*
D18*
X116752000Y-86800000D03*
X116752000Y-89800000D03*
X113052000Y-86800000D03*
D19*
X113052000Y-88300000D03*
D18*
X113052000Y-89800000D03*
D19*
X116752000Y-88300000D03*
D10*
G36*
X114502000Y-89300000D02*
X113752000Y-88800000D01*
X113752000Y-87800000D01*
X114502000Y-87300000D01*
X114502000Y-89300000D01*
X114502000Y-89300000D01*
G37*
D20*
X114902000Y-88300000D03*
D10*
G36*
X95302000Y-87300000D02*
X96052000Y-87800000D01*
X96052000Y-88800000D01*
X95302000Y-89300000D01*
X95302000Y-87300000D01*
X95302000Y-87300000D01*
G37*
D18*
X96752000Y-86800000D03*
X96752000Y-89800000D03*
X93052000Y-86800000D03*
D19*
X93052000Y-88300000D03*
D18*
X93052000Y-89800000D03*
D19*
X96752000Y-88300000D03*
D10*
G36*
X94502000Y-89300000D02*
X93752000Y-88800000D01*
X93752000Y-87800000D01*
X94502000Y-87300000D01*
X94502000Y-89300000D01*
X94502000Y-89300000D01*
G37*
D20*
X94902000Y-88300000D03*
D10*
G36*
X75302000Y-87300000D02*
X76052000Y-87800000D01*
X76052000Y-88800000D01*
X75302000Y-89300000D01*
X75302000Y-87300000D01*
X75302000Y-87300000D01*
G37*
D18*
X76752000Y-86800000D03*
X76752000Y-89800000D03*
X73052000Y-86800000D03*
D19*
X73052000Y-88300000D03*
D18*
X73052000Y-89800000D03*
D19*
X76752000Y-88300000D03*
D10*
G36*
X74502000Y-89300000D02*
X73752000Y-88800000D01*
X73752000Y-87800000D01*
X74502000Y-87300000D01*
X74502000Y-89300000D01*
X74502000Y-89300000D01*
G37*
D20*
X74902000Y-88300000D03*
D10*
G36*
X55302000Y-87300000D02*
X56052000Y-87800000D01*
X56052000Y-88800000D01*
X55302000Y-89300000D01*
X55302000Y-87300000D01*
X55302000Y-87300000D01*
G37*
D18*
X56752000Y-86800000D03*
X56752000Y-89800000D03*
X53052000Y-86800000D03*
D19*
X53052000Y-88300000D03*
D18*
X53052000Y-89800000D03*
D19*
X56752000Y-88300000D03*
D10*
G36*
X54502000Y-89300000D02*
X53752000Y-88800000D01*
X53752000Y-87800000D01*
X54502000Y-87300000D01*
X54502000Y-89300000D01*
X54502000Y-89300000D01*
G37*
D20*
X54902000Y-88300000D03*
D10*
G36*
X135302000Y-63300000D02*
X136052000Y-63800000D01*
X136052000Y-64800000D01*
X135302000Y-65300000D01*
X135302000Y-63300000D01*
X135302000Y-63300000D01*
G37*
D18*
X136752000Y-62800000D03*
X136752000Y-65800000D03*
X133052000Y-62800000D03*
D19*
X133052000Y-64300000D03*
D18*
X133052000Y-65800000D03*
D19*
X136752000Y-64300000D03*
D10*
G36*
X134502000Y-65300000D02*
X133752000Y-64800000D01*
X133752000Y-63800000D01*
X134502000Y-63300000D01*
X134502000Y-65300000D01*
X134502000Y-65300000D01*
G37*
D20*
X134902000Y-64300000D03*
D10*
G36*
X115302000Y-63300000D02*
X116052000Y-63800000D01*
X116052000Y-64800000D01*
X115302000Y-65300000D01*
X115302000Y-63300000D01*
X115302000Y-63300000D01*
G37*
D18*
X116752000Y-62800000D03*
X116752000Y-65800000D03*
X113052000Y-62800000D03*
D19*
X113052000Y-64300000D03*
D18*
X113052000Y-65800000D03*
D19*
X116752000Y-64300000D03*
D10*
G36*
X114502000Y-65300000D02*
X113752000Y-64800000D01*
X113752000Y-63800000D01*
X114502000Y-63300000D01*
X114502000Y-65300000D01*
X114502000Y-65300000D01*
G37*
D20*
X114902000Y-64300000D03*
D10*
G36*
X95302000Y-63300000D02*
X96052000Y-63800000D01*
X96052000Y-64800000D01*
X95302000Y-65300000D01*
X95302000Y-63300000D01*
X95302000Y-63300000D01*
G37*
D18*
X96752000Y-62800000D03*
X96752000Y-65800000D03*
X93052000Y-62800000D03*
D19*
X93052000Y-64300000D03*
D18*
X93052000Y-65800000D03*
D19*
X96752000Y-64300000D03*
D10*
G36*
X94502000Y-65300000D02*
X93752000Y-64800000D01*
X93752000Y-63800000D01*
X94502000Y-63300000D01*
X94502000Y-65300000D01*
X94502000Y-65300000D01*
G37*
D20*
X94902000Y-64300000D03*
D10*
G36*
X75302000Y-63300000D02*
X76052000Y-63800000D01*
X76052000Y-64800000D01*
X75302000Y-65300000D01*
X75302000Y-63300000D01*
X75302000Y-63300000D01*
G37*
D18*
X76752000Y-62800000D03*
X76752000Y-65800000D03*
X73052000Y-62800000D03*
D19*
X73052000Y-64300000D03*
D18*
X73052000Y-65800000D03*
D19*
X76752000Y-64300000D03*
D10*
G36*
X74502000Y-65300000D02*
X73752000Y-64800000D01*
X73752000Y-63800000D01*
X74502000Y-63300000D01*
X74502000Y-65300000D01*
X74502000Y-65300000D01*
G37*
D20*
X74902000Y-64300000D03*
D21*
X131092000Y-137808000D03*
X131092000Y-135808000D03*
X111092000Y-137808000D03*
X111092000Y-135808000D03*
X91092000Y-137808000D03*
X91092000Y-135808000D03*
X71092000Y-137808000D03*
X71092000Y-135808000D03*
X51092000Y-137808000D03*
X51092000Y-135808000D03*
X131092000Y-113808000D03*
X131092000Y-111808000D03*
X111092000Y-113808000D03*
X111092000Y-111808000D03*
X91092000Y-113808000D03*
X91092000Y-111808000D03*
X71092000Y-113808000D03*
X71092000Y-111808000D03*
X51092000Y-113808000D03*
X51092000Y-111808000D03*
X131092000Y-89808000D03*
X131092000Y-87808000D03*
X111092000Y-89808000D03*
X111092000Y-87808000D03*
X91092000Y-89808000D03*
X91092000Y-87808000D03*
X71092000Y-89808000D03*
X71092000Y-87808000D03*
X51092000Y-89808000D03*
X51092000Y-87808000D03*
X131092000Y-65808000D03*
X131092000Y-63808000D03*
X111092000Y-65808000D03*
X111092000Y-63808000D03*
X91092000Y-65808000D03*
X91092000Y-63808000D03*
X71092000Y-65808000D03*
X71092000Y-63808000D03*
D12*
X147602000Y-143920000D03*
D13*
X145062000Y-143920000D03*
D12*
X127602000Y-143920000D03*
D13*
X125062000Y-143920000D03*
D12*
X107602000Y-143920000D03*
D13*
X105062000Y-143920000D03*
D12*
X87602000Y-143920000D03*
D13*
X85062000Y-143920000D03*
D12*
X67602000Y-143920000D03*
D13*
X65062000Y-143920000D03*
D12*
X147602000Y-119920000D03*
D13*
X145062000Y-119920000D03*
D12*
X127602000Y-119920000D03*
D13*
X125062000Y-119920000D03*
D12*
X107602000Y-119920000D03*
D13*
X105062000Y-119920000D03*
D12*
X87602000Y-119920000D03*
D13*
X85062000Y-119920000D03*
D12*
X67602000Y-119920000D03*
D13*
X65062000Y-119920000D03*
D12*
X147602000Y-95920000D03*
D13*
X145062000Y-95920000D03*
D12*
X127602000Y-95920000D03*
D13*
X125062000Y-95920000D03*
D12*
X107602000Y-95920000D03*
D13*
X105062000Y-95920000D03*
D12*
X87602000Y-95920000D03*
D13*
X85062000Y-95920000D03*
D12*
X67602000Y-95920000D03*
D13*
X65062000Y-95920000D03*
D12*
X147602000Y-71920000D03*
D13*
X145062000Y-71920000D03*
D12*
X127602000Y-71920000D03*
D13*
X125062000Y-71920000D03*
D12*
X107602000Y-71920000D03*
D13*
X105062000Y-71920000D03*
D12*
X87602000Y-71920000D03*
D13*
X85062000Y-71920000D03*
D21*
X141125000Y-137871500D03*
X141125000Y-135871500D03*
X121125000Y-137871500D03*
X121125000Y-135871500D03*
X101125000Y-137871500D03*
X101125000Y-135871500D03*
X81125000Y-137871500D03*
X81125000Y-135871500D03*
X61125000Y-137871500D03*
X61125000Y-135871500D03*
X141125000Y-113871500D03*
X141125000Y-111871500D03*
X121125000Y-113871500D03*
X121125000Y-111871500D03*
X101125000Y-113871500D03*
X101125000Y-111871500D03*
X81125000Y-113871500D03*
X81125000Y-111871500D03*
X61125000Y-113871500D03*
X61125000Y-111871500D03*
X141125000Y-89871500D03*
X141125000Y-87871500D03*
X121125000Y-89871500D03*
X121125000Y-87871500D03*
X101125000Y-89871500D03*
X101125000Y-87871500D03*
X81125000Y-89871500D03*
X81125000Y-87871500D03*
X61125000Y-89871500D03*
X61125000Y-87871500D03*
X141125000Y-65871500D03*
X141125000Y-63871500D03*
X121125000Y-65871500D03*
X121125000Y-63871500D03*
X101125000Y-65871500D03*
X101125000Y-63871500D03*
X81125000Y-65871500D03*
X81125000Y-63871500D03*
D22*
X148872000Y-134803900D03*
X148872000Y-136703900D03*
X128872000Y-134803900D03*
X128872000Y-136703900D03*
X108872000Y-134803900D03*
X108872000Y-136703900D03*
X88872000Y-134803900D03*
X88872000Y-136703900D03*
X68872000Y-134803900D03*
X68872000Y-136703900D03*
X148872000Y-110803900D03*
X148872000Y-112703900D03*
X128872000Y-110803900D03*
X128872000Y-112703900D03*
X108872000Y-110803900D03*
X108872000Y-112703900D03*
X88872000Y-110803900D03*
X88872000Y-112703900D03*
X68872000Y-110803900D03*
X68872000Y-112703900D03*
X148872000Y-86803900D03*
X148872000Y-88703900D03*
X128872000Y-86803900D03*
X128872000Y-88703900D03*
X108872000Y-86803900D03*
X108872000Y-88703900D03*
X88872000Y-86803900D03*
X88872000Y-88703900D03*
X68872000Y-86803900D03*
X68872000Y-88703900D03*
X148872000Y-62803900D03*
X148872000Y-64703900D03*
X128872000Y-62803900D03*
X128872000Y-64703900D03*
X108872000Y-62803900D03*
X108872000Y-64703900D03*
X88872000Y-62803900D03*
X88872000Y-64703900D03*
D10*
G36*
X145407000Y-135339500D02*
X146157000Y-135839500D01*
X146157000Y-136839500D01*
X145407000Y-137339500D01*
X145407000Y-135339500D01*
X145407000Y-135339500D01*
G37*
D18*
X146857000Y-134839500D03*
X146857000Y-137839500D03*
X143157000Y-134839500D03*
D19*
X143157000Y-136339500D03*
D18*
X143157000Y-137839500D03*
D19*
X146857000Y-136339500D03*
D10*
G36*
X144607000Y-137339500D02*
X143857000Y-136839500D01*
X143857000Y-135839500D01*
X144607000Y-135339500D01*
X144607000Y-137339500D01*
X144607000Y-137339500D01*
G37*
D20*
X145007000Y-136339500D03*
D10*
G36*
X125407000Y-135339500D02*
X126157000Y-135839500D01*
X126157000Y-136839500D01*
X125407000Y-137339500D01*
X125407000Y-135339500D01*
X125407000Y-135339500D01*
G37*
D18*
X126857000Y-134839500D03*
X126857000Y-137839500D03*
X123157000Y-134839500D03*
D19*
X123157000Y-136339500D03*
D18*
X123157000Y-137839500D03*
D19*
X126857000Y-136339500D03*
D10*
G36*
X124607000Y-137339500D02*
X123857000Y-136839500D01*
X123857000Y-135839500D01*
X124607000Y-135339500D01*
X124607000Y-137339500D01*
X124607000Y-137339500D01*
G37*
D20*
X125007000Y-136339500D03*
D10*
G36*
X105407000Y-135339500D02*
X106157000Y-135839500D01*
X106157000Y-136839500D01*
X105407000Y-137339500D01*
X105407000Y-135339500D01*
X105407000Y-135339500D01*
G37*
D18*
X106857000Y-134839500D03*
X106857000Y-137839500D03*
X103157000Y-134839500D03*
D19*
X103157000Y-136339500D03*
D18*
X103157000Y-137839500D03*
D19*
X106857000Y-136339500D03*
D10*
G36*
X104607000Y-137339500D02*
X103857000Y-136839500D01*
X103857000Y-135839500D01*
X104607000Y-135339500D01*
X104607000Y-137339500D01*
X104607000Y-137339500D01*
G37*
D20*
X105007000Y-136339500D03*
D10*
G36*
X85407000Y-135339500D02*
X86157000Y-135839500D01*
X86157000Y-136839500D01*
X85407000Y-137339500D01*
X85407000Y-135339500D01*
X85407000Y-135339500D01*
G37*
D18*
X86857000Y-134839500D03*
X86857000Y-137839500D03*
X83157000Y-134839500D03*
D19*
X83157000Y-136339500D03*
D18*
X83157000Y-137839500D03*
D19*
X86857000Y-136339500D03*
D10*
G36*
X84607000Y-137339500D02*
X83857000Y-136839500D01*
X83857000Y-135839500D01*
X84607000Y-135339500D01*
X84607000Y-137339500D01*
X84607000Y-137339500D01*
G37*
D20*
X85007000Y-136339500D03*
D10*
G36*
X65407000Y-135339500D02*
X66157000Y-135839500D01*
X66157000Y-136839500D01*
X65407000Y-137339500D01*
X65407000Y-135339500D01*
X65407000Y-135339500D01*
G37*
D18*
X66857000Y-134839500D03*
X66857000Y-137839500D03*
X63157000Y-134839500D03*
D19*
X63157000Y-136339500D03*
D18*
X63157000Y-137839500D03*
D19*
X66857000Y-136339500D03*
D10*
G36*
X64607000Y-137339500D02*
X63857000Y-136839500D01*
X63857000Y-135839500D01*
X64607000Y-135339500D01*
X64607000Y-137339500D01*
X64607000Y-137339500D01*
G37*
D20*
X65007000Y-136339500D03*
D10*
G36*
X145407000Y-111339500D02*
X146157000Y-111839500D01*
X146157000Y-112839500D01*
X145407000Y-113339500D01*
X145407000Y-111339500D01*
X145407000Y-111339500D01*
G37*
D18*
X146857000Y-110839500D03*
X146857000Y-113839500D03*
X143157000Y-110839500D03*
D19*
X143157000Y-112339500D03*
D18*
X143157000Y-113839500D03*
D19*
X146857000Y-112339500D03*
D10*
G36*
X144607000Y-113339500D02*
X143857000Y-112839500D01*
X143857000Y-111839500D01*
X144607000Y-111339500D01*
X144607000Y-113339500D01*
X144607000Y-113339500D01*
G37*
D20*
X145007000Y-112339500D03*
D10*
G36*
X125407000Y-111339500D02*
X126157000Y-111839500D01*
X126157000Y-112839500D01*
X125407000Y-113339500D01*
X125407000Y-111339500D01*
X125407000Y-111339500D01*
G37*
D18*
X126857000Y-110839500D03*
X126857000Y-113839500D03*
X123157000Y-110839500D03*
D19*
X123157000Y-112339500D03*
D18*
X123157000Y-113839500D03*
D19*
X126857000Y-112339500D03*
D10*
G36*
X124607000Y-113339500D02*
X123857000Y-112839500D01*
X123857000Y-111839500D01*
X124607000Y-111339500D01*
X124607000Y-113339500D01*
X124607000Y-113339500D01*
G37*
D20*
X125007000Y-112339500D03*
D10*
G36*
X105407000Y-111339500D02*
X106157000Y-111839500D01*
X106157000Y-112839500D01*
X105407000Y-113339500D01*
X105407000Y-111339500D01*
X105407000Y-111339500D01*
G37*
D18*
X106857000Y-110839500D03*
X106857000Y-113839500D03*
X103157000Y-110839500D03*
D19*
X103157000Y-112339500D03*
D18*
X103157000Y-113839500D03*
D19*
X106857000Y-112339500D03*
D10*
G36*
X104607000Y-113339500D02*
X103857000Y-112839500D01*
X103857000Y-111839500D01*
X104607000Y-111339500D01*
X104607000Y-113339500D01*
X104607000Y-113339500D01*
G37*
D20*
X105007000Y-112339500D03*
D10*
G36*
X85407000Y-111339500D02*
X86157000Y-111839500D01*
X86157000Y-112839500D01*
X85407000Y-113339500D01*
X85407000Y-111339500D01*
X85407000Y-111339500D01*
G37*
D18*
X86857000Y-110839500D03*
X86857000Y-113839500D03*
X83157000Y-110839500D03*
D19*
X83157000Y-112339500D03*
D18*
X83157000Y-113839500D03*
D19*
X86857000Y-112339500D03*
D10*
G36*
X84607000Y-113339500D02*
X83857000Y-112839500D01*
X83857000Y-111839500D01*
X84607000Y-111339500D01*
X84607000Y-113339500D01*
X84607000Y-113339500D01*
G37*
D20*
X85007000Y-112339500D03*
D10*
G36*
X65407000Y-111339500D02*
X66157000Y-111839500D01*
X66157000Y-112839500D01*
X65407000Y-113339500D01*
X65407000Y-111339500D01*
X65407000Y-111339500D01*
G37*
D18*
X66857000Y-110839500D03*
X66857000Y-113839500D03*
X63157000Y-110839500D03*
D19*
X63157000Y-112339500D03*
D18*
X63157000Y-113839500D03*
D19*
X66857000Y-112339500D03*
D10*
G36*
X64607000Y-113339500D02*
X63857000Y-112839500D01*
X63857000Y-111839500D01*
X64607000Y-111339500D01*
X64607000Y-113339500D01*
X64607000Y-113339500D01*
G37*
D20*
X65007000Y-112339500D03*
D10*
G36*
X145407000Y-87339500D02*
X146157000Y-87839500D01*
X146157000Y-88839500D01*
X145407000Y-89339500D01*
X145407000Y-87339500D01*
X145407000Y-87339500D01*
G37*
D18*
X146857000Y-86839500D03*
X146857000Y-89839500D03*
X143157000Y-86839500D03*
D19*
X143157000Y-88339500D03*
D18*
X143157000Y-89839500D03*
D19*
X146857000Y-88339500D03*
D10*
G36*
X144607000Y-89339500D02*
X143857000Y-88839500D01*
X143857000Y-87839500D01*
X144607000Y-87339500D01*
X144607000Y-89339500D01*
X144607000Y-89339500D01*
G37*
D20*
X145007000Y-88339500D03*
D10*
G36*
X125407000Y-87339500D02*
X126157000Y-87839500D01*
X126157000Y-88839500D01*
X125407000Y-89339500D01*
X125407000Y-87339500D01*
X125407000Y-87339500D01*
G37*
D18*
X126857000Y-86839500D03*
X126857000Y-89839500D03*
X123157000Y-86839500D03*
D19*
X123157000Y-88339500D03*
D18*
X123157000Y-89839500D03*
D19*
X126857000Y-88339500D03*
D10*
G36*
X124607000Y-89339500D02*
X123857000Y-88839500D01*
X123857000Y-87839500D01*
X124607000Y-87339500D01*
X124607000Y-89339500D01*
X124607000Y-89339500D01*
G37*
D20*
X125007000Y-88339500D03*
D10*
G36*
X105407000Y-87339500D02*
X106157000Y-87839500D01*
X106157000Y-88839500D01*
X105407000Y-89339500D01*
X105407000Y-87339500D01*
X105407000Y-87339500D01*
G37*
D18*
X106857000Y-86839500D03*
X106857000Y-89839500D03*
X103157000Y-86839500D03*
D19*
X103157000Y-88339500D03*
D18*
X103157000Y-89839500D03*
D19*
X106857000Y-88339500D03*
D10*
G36*
X104607000Y-89339500D02*
X103857000Y-88839500D01*
X103857000Y-87839500D01*
X104607000Y-87339500D01*
X104607000Y-89339500D01*
X104607000Y-89339500D01*
G37*
D20*
X105007000Y-88339500D03*
D10*
G36*
X85407000Y-87339500D02*
X86157000Y-87839500D01*
X86157000Y-88839500D01*
X85407000Y-89339500D01*
X85407000Y-87339500D01*
X85407000Y-87339500D01*
G37*
D18*
X86857000Y-86839500D03*
X86857000Y-89839500D03*
X83157000Y-86839500D03*
D19*
X83157000Y-88339500D03*
D18*
X83157000Y-89839500D03*
D19*
X86857000Y-88339500D03*
D10*
G36*
X84607000Y-89339500D02*
X83857000Y-88839500D01*
X83857000Y-87839500D01*
X84607000Y-87339500D01*
X84607000Y-89339500D01*
X84607000Y-89339500D01*
G37*
D20*
X85007000Y-88339500D03*
D10*
G36*
X65407000Y-87339500D02*
X66157000Y-87839500D01*
X66157000Y-88839500D01*
X65407000Y-89339500D01*
X65407000Y-87339500D01*
X65407000Y-87339500D01*
G37*
D18*
X66857000Y-86839500D03*
X66857000Y-89839500D03*
X63157000Y-86839500D03*
D19*
X63157000Y-88339500D03*
D18*
X63157000Y-89839500D03*
D19*
X66857000Y-88339500D03*
D10*
G36*
X64607000Y-89339500D02*
X63857000Y-88839500D01*
X63857000Y-87839500D01*
X64607000Y-87339500D01*
X64607000Y-89339500D01*
X64607000Y-89339500D01*
G37*
D20*
X65007000Y-88339500D03*
D10*
G36*
X145407000Y-63339500D02*
X146157000Y-63839500D01*
X146157000Y-64839500D01*
X145407000Y-65339500D01*
X145407000Y-63339500D01*
X145407000Y-63339500D01*
G37*
D18*
X146857000Y-62839500D03*
X146857000Y-65839500D03*
X143157000Y-62839500D03*
D19*
X143157000Y-64339500D03*
D18*
X143157000Y-65839500D03*
D19*
X146857000Y-64339500D03*
D10*
G36*
X144607000Y-65339500D02*
X143857000Y-64839500D01*
X143857000Y-63839500D01*
X144607000Y-63339500D01*
X144607000Y-65339500D01*
X144607000Y-65339500D01*
G37*
D20*
X145007000Y-64339500D03*
D10*
G36*
X125407000Y-63339500D02*
X126157000Y-63839500D01*
X126157000Y-64839500D01*
X125407000Y-65339500D01*
X125407000Y-63339500D01*
X125407000Y-63339500D01*
G37*
D18*
X126857000Y-62839500D03*
X126857000Y-65839500D03*
X123157000Y-62839500D03*
D19*
X123157000Y-64339500D03*
D18*
X123157000Y-65839500D03*
D19*
X126857000Y-64339500D03*
D10*
G36*
X124607000Y-65339500D02*
X123857000Y-64839500D01*
X123857000Y-63839500D01*
X124607000Y-63339500D01*
X124607000Y-65339500D01*
X124607000Y-65339500D01*
G37*
D20*
X125007000Y-64339500D03*
D10*
G36*
X105407000Y-63339500D02*
X106157000Y-63839500D01*
X106157000Y-64839500D01*
X105407000Y-65339500D01*
X105407000Y-63339500D01*
X105407000Y-63339500D01*
G37*
D18*
X106857000Y-62839500D03*
X106857000Y-65839500D03*
X103157000Y-62839500D03*
D19*
X103157000Y-64339500D03*
D18*
X103157000Y-65839500D03*
D19*
X106857000Y-64339500D03*
D10*
G36*
X104607000Y-65339500D02*
X103857000Y-64839500D01*
X103857000Y-63839500D01*
X104607000Y-63339500D01*
X104607000Y-65339500D01*
X104607000Y-65339500D01*
G37*
D20*
X105007000Y-64339500D03*
D10*
G36*
X85407000Y-63339500D02*
X86157000Y-63839500D01*
X86157000Y-64839500D01*
X85407000Y-65339500D01*
X85407000Y-63339500D01*
X85407000Y-63339500D01*
G37*
D18*
X86857000Y-62839500D03*
X86857000Y-65839500D03*
X83157000Y-62839500D03*
D19*
X83157000Y-64339500D03*
D18*
X83157000Y-65839500D03*
D19*
X86857000Y-64339500D03*
D10*
G36*
X84607000Y-65339500D02*
X83857000Y-64839500D01*
X83857000Y-63839500D01*
X84607000Y-63339500D01*
X84607000Y-65339500D01*
X84607000Y-65339500D01*
G37*
D20*
X85007000Y-64339500D03*
D22*
X138813600Y-134791200D03*
X138813600Y-136691200D03*
X118813600Y-134791200D03*
X118813600Y-136691200D03*
X98813600Y-134791200D03*
X98813600Y-136691200D03*
X78813600Y-134791200D03*
X78813600Y-136691200D03*
X58813600Y-134791200D03*
X58813600Y-136691200D03*
X138813600Y-110791200D03*
X138813600Y-112691200D03*
X118813600Y-110791200D03*
X118813600Y-112691200D03*
X98813600Y-110791200D03*
X98813600Y-112691200D03*
X78813600Y-110791200D03*
X78813600Y-112691200D03*
X58813600Y-110791200D03*
X58813600Y-112691200D03*
X138813600Y-86791200D03*
X138813600Y-88691200D03*
X118813600Y-86791200D03*
X118813600Y-88691200D03*
X98813600Y-86791200D03*
X98813600Y-88691200D03*
X78813600Y-86791200D03*
X78813600Y-88691200D03*
X58813600Y-86791200D03*
X58813600Y-88691200D03*
X138813600Y-62791200D03*
X138813600Y-64691200D03*
X118813600Y-62791200D03*
X118813600Y-64691200D03*
X98813600Y-62791200D03*
X98813600Y-64691200D03*
X78813600Y-62791200D03*
X78813600Y-64691200D03*
D12*
X135918000Y-123981000D03*
D13*
X138458000Y-123981000D03*
X140998000Y-123981000D03*
X143538000Y-123981000D03*
D12*
X115918000Y-123981000D03*
D13*
X118458000Y-123981000D03*
X120998000Y-123981000D03*
X123538000Y-123981000D03*
D12*
X95918000Y-123981000D03*
D13*
X98458000Y-123981000D03*
X100998000Y-123981000D03*
X103538000Y-123981000D03*
D12*
X75918000Y-123981000D03*
D13*
X78458000Y-123981000D03*
X80998000Y-123981000D03*
X83538000Y-123981000D03*
D12*
X55918000Y-123981000D03*
D13*
X58458000Y-123981000D03*
X60998000Y-123981000D03*
X63538000Y-123981000D03*
D12*
X135918000Y-99981000D03*
D13*
X138458000Y-99981000D03*
X140998000Y-99981000D03*
X143538000Y-99981000D03*
D12*
X115918000Y-99981000D03*
D13*
X118458000Y-99981000D03*
X120998000Y-99981000D03*
X123538000Y-99981000D03*
D12*
X95918000Y-99981000D03*
D13*
X98458000Y-99981000D03*
X100998000Y-99981000D03*
X103538000Y-99981000D03*
D12*
X75918000Y-99981000D03*
D13*
X78458000Y-99981000D03*
X80998000Y-99981000D03*
X83538000Y-99981000D03*
D12*
X55918000Y-99981000D03*
D13*
X58458000Y-99981000D03*
X60998000Y-99981000D03*
X63538000Y-99981000D03*
D12*
X135918000Y-75981000D03*
D13*
X138458000Y-75981000D03*
X140998000Y-75981000D03*
X143538000Y-75981000D03*
D12*
X115918000Y-75981000D03*
D13*
X118458000Y-75981000D03*
X120998000Y-75981000D03*
X123538000Y-75981000D03*
D12*
X95918000Y-75981000D03*
D13*
X98458000Y-75981000D03*
X100998000Y-75981000D03*
X103538000Y-75981000D03*
D12*
X75918000Y-75981000D03*
D13*
X78458000Y-75981000D03*
X80998000Y-75981000D03*
X83538000Y-75981000D03*
D12*
X55918000Y-75981000D03*
D13*
X58458000Y-75981000D03*
X60998000Y-75981000D03*
X63538000Y-75981000D03*
D12*
X135918000Y-51981000D03*
D13*
X138458000Y-51981000D03*
X140998000Y-51981000D03*
X143538000Y-51981000D03*
D12*
X115918000Y-51981000D03*
D13*
X118458000Y-51981000D03*
X120998000Y-51981000D03*
X123538000Y-51981000D03*
D12*
X95918000Y-51981000D03*
D13*
X98458000Y-51981000D03*
X100998000Y-51981000D03*
X103538000Y-51981000D03*
D12*
X75918000Y-51981000D03*
D13*
X78458000Y-51981000D03*
X80998000Y-51981000D03*
X83538000Y-51981000D03*
D15*
X138331000Y-131315000D03*
X138331000Y-127315000D03*
X118331000Y-131315000D03*
X118331000Y-127315000D03*
X98331000Y-131315000D03*
X98331000Y-127315000D03*
X78331000Y-131315000D03*
X78331000Y-127315000D03*
X58331000Y-131315000D03*
X58331000Y-127315000D03*
X138331000Y-107315000D03*
X138331000Y-103315000D03*
X118331000Y-107315000D03*
X118331000Y-103315000D03*
X98331000Y-107315000D03*
X98331000Y-103315000D03*
X78331000Y-107315000D03*
X78331000Y-103315000D03*
X58331000Y-107315000D03*
X58331000Y-103315000D03*
X138331000Y-83315000D03*
X138331000Y-79315000D03*
X118331000Y-83315000D03*
X118331000Y-79315000D03*
X98331000Y-83315000D03*
X98331000Y-79315000D03*
X78331000Y-83315000D03*
X78331000Y-79315000D03*
X58331000Y-83315000D03*
X58331000Y-79315000D03*
X138331000Y-59315000D03*
X138331000Y-55315000D03*
X118331000Y-59315000D03*
X118331000Y-55315000D03*
X98331000Y-59315000D03*
X98331000Y-55315000D03*
X78331000Y-59315000D03*
X78331000Y-55315000D03*
D17*
X132005000Y-132617000D03*
X135005000Y-132617000D03*
X112005000Y-132617000D03*
X115005000Y-132617000D03*
X92005000Y-132617000D03*
X95005000Y-132617000D03*
X72005000Y-132617000D03*
X75005000Y-132617000D03*
X52005000Y-132617000D03*
X55005000Y-132617000D03*
X132005000Y-108617000D03*
X135005000Y-108617000D03*
X112005000Y-108617000D03*
X115005000Y-108617000D03*
X92005000Y-108617000D03*
X95005000Y-108617000D03*
X72005000Y-108617000D03*
X75005000Y-108617000D03*
X52005000Y-108617000D03*
X55005000Y-108617000D03*
X132005000Y-84617000D03*
X135005000Y-84617000D03*
X112005000Y-84617000D03*
X115005000Y-84617000D03*
X92005000Y-84617000D03*
X95005000Y-84617000D03*
X72005000Y-84617000D03*
X75005000Y-84617000D03*
X52005000Y-84617000D03*
X55005000Y-84617000D03*
X132005000Y-60617000D03*
X135005000Y-60617000D03*
X112005000Y-60617000D03*
X115005000Y-60617000D03*
X92005000Y-60617000D03*
X95005000Y-60617000D03*
X72005000Y-60617000D03*
X75005000Y-60617000D03*
D16*
X131453000Y-128680000D03*
X135303000Y-128680000D03*
X111453000Y-128680000D03*
X115303000Y-128680000D03*
X91453000Y-128680000D03*
X95303000Y-128680000D03*
X71453000Y-128680000D03*
X75303000Y-128680000D03*
X51453000Y-128680000D03*
X55303000Y-128680000D03*
X131453000Y-104680000D03*
X135303000Y-104680000D03*
X111453000Y-104680000D03*
X115303000Y-104680000D03*
X91453000Y-104680000D03*
X95303000Y-104680000D03*
X71453000Y-104680000D03*
X75303000Y-104680000D03*
X51453000Y-104680000D03*
X55303000Y-104680000D03*
X131453000Y-80680000D03*
X135303000Y-80680000D03*
X111453000Y-80680000D03*
X115303000Y-80680000D03*
X91453000Y-80680000D03*
X95303000Y-80680000D03*
X71453000Y-80680000D03*
X75303000Y-80680000D03*
X51453000Y-80680000D03*
X55303000Y-80680000D03*
X131453000Y-56680000D03*
X135303000Y-56680000D03*
X111453000Y-56680000D03*
X115303000Y-56680000D03*
X91453000Y-56680000D03*
X95303000Y-56680000D03*
X71453000Y-56680000D03*
X75303000Y-56680000D03*
D14*
X131082600Y-123955600D03*
X133082600Y-123955600D03*
X111082600Y-123955600D03*
X113082600Y-123955600D03*
X91082600Y-123955600D03*
X93082600Y-123955600D03*
X71082600Y-123955600D03*
X73082600Y-123955600D03*
X51082600Y-123955600D03*
X53082600Y-123955600D03*
X131082600Y-99955600D03*
X133082600Y-99955600D03*
X111082600Y-99955600D03*
X113082600Y-99955600D03*
X91082600Y-99955600D03*
X93082600Y-99955600D03*
X71082600Y-99955600D03*
X73082600Y-99955600D03*
X51082600Y-99955600D03*
X53082600Y-99955600D03*
X131082600Y-75955600D03*
X133082600Y-75955600D03*
X111082600Y-75955600D03*
X113082600Y-75955600D03*
X91082600Y-75955600D03*
X93082600Y-75955600D03*
X71082600Y-75955600D03*
X73082600Y-75955600D03*
X51082600Y-75955600D03*
X53082600Y-75955600D03*
X131082600Y-51955600D03*
X133082600Y-51955600D03*
X111082600Y-51955600D03*
X113082600Y-51955600D03*
X91082600Y-51955600D03*
X93082600Y-51955600D03*
X71082600Y-51955600D03*
X73082600Y-51955600D03*
X51082600Y-51955600D03*
X53082600Y-51955600D03*
X68297200Y-52006400D03*
X66297200Y-52006400D03*
D17*
X61911000Y-60617000D03*
X64911000Y-60617000D03*
X52005000Y-60617000D03*
X55005000Y-60617000D03*
D21*
X51092000Y-65808000D03*
X51092000Y-63808000D03*
X61125000Y-65871500D03*
X61125000Y-63871500D03*
D16*
X51453000Y-56680000D03*
X55303000Y-56680000D03*
X61232000Y-56680000D03*
X65082000Y-56680000D03*
D12*
X55918000Y-51981000D03*
D13*
X58458000Y-51981000D03*
X60998000Y-51981000D03*
X63538000Y-51981000D03*
D12*
X52108000Y-71920000D03*
D13*
X54648000Y-71920000D03*
X57188000Y-71920000D03*
D12*
X67602000Y-71920000D03*
D13*
X65062000Y-71920000D03*
D22*
X58813600Y-62791200D03*
X58813600Y-64691200D03*
X68872000Y-62803900D03*
X68872000Y-64703900D03*
D11*
X52804000Y-68999000D03*
X50904000Y-68999000D03*
X56116200Y-68999000D03*
X54216200Y-68999000D03*
D10*
G36*
X55302000Y-63300000D02*
X56052000Y-63800000D01*
X56052000Y-64800000D01*
X55302000Y-65300000D01*
X55302000Y-63300000D01*
X55302000Y-63300000D01*
G37*
D18*
X56752000Y-62800000D03*
X56752000Y-65800000D03*
X53052000Y-62800000D03*
D19*
X53052000Y-64300000D03*
D18*
X53052000Y-65800000D03*
D19*
X56752000Y-64300000D03*
D10*
G36*
X54502000Y-65300000D02*
X53752000Y-64800000D01*
X53752000Y-63800000D01*
X54502000Y-63300000D01*
X54502000Y-65300000D01*
X54502000Y-65300000D01*
G37*
D20*
X54902000Y-64300000D03*
D10*
G36*
X65407000Y-63339500D02*
X66157000Y-63839500D01*
X66157000Y-64839500D01*
X65407000Y-65339500D01*
X65407000Y-63339500D01*
X65407000Y-63339500D01*
G37*
D18*
X66857000Y-62839500D03*
X66857000Y-65839500D03*
X63157000Y-62839500D03*
D19*
X63157000Y-64339500D03*
D18*
X63157000Y-65839500D03*
D19*
X66857000Y-64339500D03*
D10*
G36*
X64607000Y-65339500D02*
X63857000Y-64839500D01*
X63857000Y-63839500D01*
X64607000Y-63339500D01*
X64607000Y-65339500D01*
X64607000Y-65339500D01*
G37*
D20*
X65007000Y-64339500D03*
D15*
X58331000Y-59315000D03*
X58331000Y-55315000D03*
X68110000Y-59283000D03*
X68110000Y-55283000D03*
M02*
