M48
;DRILL file {KiCad 4.0.2-stable} date 9/5/2017 3:04:57 PM
;FORMAT={3:3/ absolute / metric / suppress leading zeros}
FMAT,2
METRIC,TZ
T1C0.400
T2C1.000
%
G90
G05
M71
T1
X51790Y-53430
X51790Y-77430
X51790Y-101430
X51790Y-125430
X53403Y-67373
X53403Y-91373
X53403Y-115373
X53403Y-139373
X54089Y-67373
X54089Y-91373
X54089Y-115373
X54089Y-139373
X54775Y-67373
X54775Y-91373
X54775Y-115373
X54775Y-139373
X55461Y-67373
X55461Y-91373
X55461Y-115373
X55461Y-139373
X56147Y-67373
X56147Y-91373
X56147Y-115373
X56147Y-139373
X56172Y-60642
X56172Y-84642
X56172Y-108642
X56172Y-132642
X56629Y-61100
X56629Y-85100
X56629Y-109100
X56629Y-133100
X58839Y-67678
X58839Y-91678
X58839Y-115678
X58839Y-139678
X59322Y-68161
X59322Y-92161
X59322Y-116161
X59322Y-140161
X59957Y-61252
X59957Y-61887
X59957Y-85252
X59957Y-85887
X59957Y-109252
X59957Y-109887
X59957Y-133252
X59957Y-133887
X63487Y-67437
X63487Y-91437
X63487Y-115437
X63487Y-139437
X64173Y-67437
X64173Y-91437
X64173Y-115437
X64173Y-139437
X64859Y-67437
X64859Y-91437
X64859Y-115437
X64859Y-139437
X64884Y-53430
X64884Y-77430
X64884Y-101430
X64884Y-125430
X65545Y-67437
X65545Y-91437
X65545Y-115437
X65545Y-139437
X66154Y-60693
X66154Y-84693
X66154Y-108693
X66154Y-132693
X66230Y-67437
X66230Y-91437
X66230Y-115437
X66230Y-139437
X66611Y-61150
X66611Y-85150
X66611Y-109150
X66611Y-133150
X68593Y-66738
X68593Y-67399
X68593Y-90738
X68593Y-91399
X68593Y-114738
X68593Y-115399
X68593Y-138738
X68593Y-139399
X71791Y-53430
X71791Y-77430
X71791Y-101430
X71791Y-125430
X73403Y-67373
X73403Y-91373
X73403Y-115373
X73403Y-139373
X74089Y-67373
X74089Y-91373
X74089Y-115373
X74089Y-139373
X74775Y-67373
X74775Y-91373
X74775Y-115373
X74775Y-139373
X75461Y-67373
X75461Y-91373
X75461Y-115373
X75461Y-139373
X76147Y-67373
X76147Y-91373
X76147Y-115373
X76147Y-139373
X76172Y-60642
X76172Y-84642
X76172Y-108642
X76172Y-132642
X76629Y-61100
X76629Y-85100
X76629Y-109100
X76629Y-133100
X78839Y-67678
X78839Y-91678
X78839Y-115678
X78839Y-139678
X79322Y-68161
X79322Y-92161
X79322Y-116161
X79322Y-140161
X79957Y-61252
X79957Y-61887
X79957Y-85252
X79957Y-85887
X79957Y-109252
X79957Y-109887
X79957Y-133252
X79957Y-133887
X83487Y-67437
X83487Y-91437
X83487Y-115437
X83487Y-139437
X84173Y-67437
X84173Y-91437
X84173Y-115437
X84173Y-139437
X84859Y-67437
X84859Y-91437
X84859Y-115437
X84859Y-139437
X84884Y-53430
X84884Y-77430
X84884Y-101430
X84884Y-125430
X85545Y-67437
X85545Y-91437
X85545Y-115437
X85545Y-139437
X86154Y-60693
X86154Y-84693
X86154Y-108693
X86154Y-132693
X86230Y-67437
X86230Y-91437
X86230Y-115437
X86230Y-139437
X86611Y-61150
X86611Y-85150
X86611Y-109150
X86611Y-133150
X88593Y-66738
X88593Y-67399
X88593Y-90738
X88593Y-91399
X88593Y-114738
X88593Y-115399
X88593Y-138738
X88593Y-139399
X91791Y-53430
X91791Y-77430
X91791Y-101430
X91791Y-125430
X93403Y-67373
X93403Y-91373
X93403Y-115373
X93403Y-139373
X94089Y-67373
X94089Y-91373
X94089Y-115373
X94089Y-139373
X94775Y-67373
X94775Y-91373
X94775Y-115373
X94775Y-139373
X95461Y-67373
X95461Y-91373
X95461Y-115373
X95461Y-139373
X96147Y-67373
X96147Y-91373
X96147Y-115373
X96147Y-139373
X96172Y-60642
X96172Y-84642
X96172Y-108642
X96172Y-132642
X96629Y-61100
X96629Y-85100
X96629Y-109100
X96629Y-133100
X98839Y-67678
X98839Y-91678
X98839Y-115678
X98839Y-139678
X99322Y-68161
X99322Y-92161
X99322Y-116161
X99322Y-140161
X99957Y-61252
X99957Y-61887
X99957Y-85252
X99957Y-85887
X99957Y-109252
X99957Y-109887
X99957Y-133252
X99957Y-133887
X103487Y-67437
X103487Y-91437
X103487Y-115437
X103487Y-139437
X104173Y-67437
X104173Y-91437
X104173Y-115437
X104173Y-139437
X104859Y-67437
X104859Y-91437
X104859Y-115437
X104859Y-139437
X104884Y-53430
X104884Y-77430
X104884Y-101430
X104884Y-125430
X105545Y-67437
X105545Y-91437
X105545Y-115437
X105545Y-139437
X106154Y-60693
X106154Y-84693
X106154Y-108693
X106154Y-132693
X106230Y-67437
X106230Y-91437
X106230Y-115437
X106230Y-139437
X106611Y-61150
X106611Y-85150
X106611Y-109150
X106611Y-133150
X108593Y-66738
X108593Y-67399
X108593Y-90738
X108593Y-91399
X108593Y-114738
X108593Y-115399
X108593Y-138738
X108593Y-139399
X111791Y-53430
X111791Y-77430
X111791Y-101430
X111791Y-125430
X113403Y-67373
X113403Y-91373
X113403Y-115373
X113403Y-139373
X114089Y-67373
X114089Y-91373
X114089Y-115373
X114089Y-139373
X114775Y-67373
X114775Y-91373
X114775Y-115373
X114775Y-139373
X115461Y-67373
X115461Y-91373
X115461Y-115373
X115461Y-139373
X116147Y-67373
X116147Y-91373
X116147Y-115373
X116147Y-139373
X116172Y-60642
X116172Y-84642
X116172Y-108642
X116172Y-132642
X116629Y-61100
X116629Y-85100
X116629Y-109100
X116629Y-133100
X118839Y-67678
X118839Y-91678
X118839Y-115678
X118839Y-139678
X119322Y-68161
X119322Y-92161
X119322Y-116161
X119322Y-140161
X119957Y-61252
X119957Y-61887
X119957Y-85252
X119957Y-85887
X119957Y-109252
X119957Y-109887
X119957Y-133252
X119957Y-133887
X123487Y-67437
X123487Y-91437
X123487Y-115437
X123487Y-139437
X124173Y-67437
X124173Y-91437
X124173Y-115437
X124173Y-139437
X124859Y-67437
X124859Y-91437
X124859Y-115437
X124859Y-139437
X124884Y-53430
X124884Y-77430
X124884Y-101430
X124884Y-125430
X125545Y-67437
X125545Y-91437
X125545Y-115437
X125545Y-139437
X126154Y-60693
X126154Y-84693
X126154Y-108693
X126154Y-132693
X126230Y-67437
X126230Y-91437
X126230Y-115437
X126230Y-139437
X126611Y-61150
X126611Y-85150
X126611Y-109150
X126611Y-133150
X128593Y-66738
X128593Y-67399
X128593Y-90738
X128593Y-91399
X128593Y-114738
X128593Y-115399
X128593Y-138738
X128593Y-139399
X131790Y-53430
X131790Y-77430
X131790Y-101430
X131790Y-125430
X133403Y-67373
X133403Y-91373
X133403Y-115373
X133403Y-139373
X134089Y-67373
X134089Y-91373
X134089Y-115373
X134089Y-139373
X134775Y-67373
X134775Y-91373
X134775Y-115373
X134775Y-139373
X135461Y-67373
X135461Y-91373
X135461Y-115373
X135461Y-139373
X136147Y-67373
X136147Y-91373
X136147Y-115373
X136147Y-139373
X136172Y-60642
X136172Y-84642
X136172Y-108642
X136172Y-132642
X136629Y-61100
X136629Y-85100
X136629Y-109100
X136629Y-133100
X138839Y-67678
X138839Y-91678
X138839Y-115678
X138839Y-139678
X139322Y-68161
X139322Y-92161
X139322Y-116161
X139322Y-140161
X139957Y-61252
X139957Y-61887
X139957Y-85252
X139957Y-85887
X139957Y-109252
X139957Y-109887
X139957Y-133252
X139957Y-133887
X143487Y-67437
X143487Y-91437
X143487Y-115437
X143487Y-139437
X144173Y-67437
X144173Y-91437
X144173Y-115437
X144173Y-139437
X144859Y-67437
X144859Y-91437
X144859Y-115437
X144859Y-139437
X144884Y-53430
X144884Y-77430
X144884Y-101430
X144884Y-125430
X145545Y-67437
X145545Y-91437
X145545Y-115437
X145545Y-139437
X146154Y-60693
X146154Y-84693
X146154Y-108693
X146154Y-132693
X146230Y-67437
X146230Y-91437
X146230Y-115437
X146230Y-139437
X146611Y-61150
X146611Y-85150
X146611Y-109150
X146611Y-133150
X148593Y-66738
X148593Y-67399
X148593Y-90738
X148593Y-91399
X148593Y-114738
X148593Y-115399
X148593Y-138738
X148593Y-139399
T2
X52108Y-71920
X52108Y-95920
X52108Y-119920
X52108Y-143920
X54648Y-71920
X54648Y-95920
X54648Y-119920
X54648Y-143920
X55918Y-51981
X55918Y-75981
X55918Y-99981
X55918Y-123981
X57188Y-71920
X57188Y-95920
X57188Y-119920
X57188Y-143920
X58458Y-51981
X58458Y-75981
X58458Y-99981
X58458Y-123981
X60998Y-51981
X60998Y-75981
X60998Y-99981
X60998Y-123981
X63538Y-51981
X63538Y-75981
X63538Y-99981
X63538Y-123981
X65062Y-71920
X65062Y-95920
X65062Y-119920
X65062Y-143920
X67602Y-71920
X67602Y-95920
X67602Y-119920
X67602Y-143920
X72108Y-71920
X72108Y-95920
X72108Y-119920
X72108Y-143920
X74648Y-71920
X74648Y-95920
X74648Y-119920
X74648Y-143920
X75918Y-51981
X75918Y-75981
X75918Y-99981
X75918Y-123981
X77188Y-71920
X77188Y-95920
X77188Y-119920
X77188Y-143920
X78458Y-51981
X78458Y-75981
X78458Y-99981
X78458Y-123981
X80998Y-51981
X80998Y-75981
X80998Y-99981
X80998Y-123981
X83538Y-51981
X83538Y-75981
X83538Y-99981
X83538Y-123981
X85062Y-71920
X85062Y-95920
X85062Y-119920
X85062Y-143920
X87602Y-71920
X87602Y-95920
X87602Y-119920
X87602Y-143920
X92108Y-71920
X92108Y-95920
X92108Y-119920
X92108Y-143920
X94648Y-71920
X94648Y-95920
X94648Y-119920
X94648Y-143920
X95918Y-51981
X95918Y-75981
X95918Y-99981
X95918Y-123981
X97188Y-71920
X97188Y-95920
X97188Y-119920
X97188Y-143920
X98458Y-51981
X98458Y-75981
X98458Y-99981
X98458Y-123981
X100998Y-51981
X100998Y-75981
X100998Y-99981
X100998Y-123981
X103538Y-51981
X103538Y-75981
X103538Y-99981
X103538Y-123981
X105062Y-71920
X105062Y-95920
X105062Y-119920
X105062Y-143920
X107602Y-71920
X107602Y-95920
X107602Y-119920
X107602Y-143920
X112108Y-71920
X112108Y-95920
X112108Y-119920
X112108Y-143920
X114648Y-71920
X114648Y-95920
X114648Y-119920
X114648Y-143920
X115918Y-51981
X115918Y-75981
X115918Y-99981
X115918Y-123981
X117188Y-71920
X117188Y-95920
X117188Y-119920
X117188Y-143920
X118458Y-51981
X118458Y-75981
X118458Y-99981
X118458Y-123981
X120998Y-51981
X120998Y-75981
X120998Y-99981
X120998Y-123981
X123538Y-51981
X123538Y-75981
X123538Y-99981
X123538Y-123981
X125062Y-71920
X125062Y-95920
X125062Y-119920
X125062Y-143920
X127602Y-71920
X127602Y-95920
X127602Y-119920
X127602Y-143920
X132108Y-71920
X132108Y-95920
X132108Y-119920
X132108Y-143920
X134648Y-71920
X134648Y-95920
X134648Y-119920
X134648Y-143920
X135918Y-51981
X135918Y-75981
X135918Y-99981
X135918Y-123981
X137188Y-71920
X137188Y-95920
X137188Y-119920
X137188Y-143920
X138458Y-51981
X138458Y-75981
X138458Y-99981
X138458Y-123981
X140998Y-51981
X140998Y-75981
X140998Y-99981
X140998Y-123981
X143538Y-51981
X143538Y-75981
X143538Y-99981
X143538Y-123981
X145062Y-71920
X145062Y-95920
X145062Y-119920
X145062Y-143920
X147602Y-71920
X147602Y-95920
X147602Y-119920
X147602Y-143920
T0
M30
