G04 #@! TF.FileFunction,Copper,L2,Bot,Signal*
%FSLAX46Y46*%
G04 Gerber Fmt 4.6, Leading zero omitted, Abs format (unit mm)*
G04 Created by KiCad (PCBNEW 4.0.2-stable) date 9/5/2017 9:47:41 PM*
%MOMM*%
G01*
G04 APERTURE LIST*
%ADD10C,0.100000*%
%ADD11C,0.600000*%
%ADD12R,1.700000X1.700000*%
%ADD13O,1.700000X1.700000*%
%ADD14C,0.500000*%
%ADD15C,0.254000*%
G04 APERTURE END LIST*
D10*
D11*
X68592600Y-67398800D03*
X66611400Y-61150400D03*
X59321600Y-68160800D03*
X59956600Y-61887000D03*
X56629200Y-61099600D03*
X63487200Y-67436900D03*
X65544600Y-67436900D03*
X64173000Y-67436900D03*
X66230400Y-67436900D03*
X64858800Y-67436900D03*
X56146600Y-67373400D03*
X55460800Y-67373400D03*
X54775000Y-67373400D03*
X54089200Y-67373400D03*
D12*
X55918000Y-51981000D03*
D13*
X58458000Y-51981000D03*
X60998000Y-51981000D03*
X63538000Y-51981000D03*
D12*
X52108000Y-71920000D03*
D13*
X54648000Y-71920000D03*
X57188000Y-71920000D03*
D12*
X67602000Y-71920000D03*
D13*
X65062000Y-71920000D03*
D11*
X53403400Y-67373400D03*
X51790500Y-53429998D03*
X59956600Y-61252000D03*
X68592600Y-66738400D03*
X64884200Y-53429998D03*
X56172000Y-60642400D03*
X58839000Y-67678200D03*
X66154200Y-60693200D03*
D14*
X59956600Y-61252000D02*
X59956600Y-61887000D01*
X56997500Y-53441500D02*
X51790500Y-53429998D01*
X51790500Y-53441500D02*
X51790500Y-53429998D01*
X57608001Y-52830999D02*
X56997500Y-53441500D01*
X58458000Y-51981000D02*
X57608001Y-52830999D01*
X59956600Y-53454200D02*
X59956600Y-61252000D01*
X59307999Y-52830999D02*
X59333399Y-52830999D01*
X58458000Y-51981000D02*
X59307999Y-52830999D01*
X59333399Y-52830999D02*
X59956600Y-53454200D01*
X60998000Y-51981000D02*
X62471200Y-53454200D01*
X62471200Y-53454200D02*
X64960400Y-53454200D01*
X64960400Y-53454200D02*
X68592600Y-57086400D01*
X68592600Y-57086400D02*
X68592600Y-66738400D01*
X58839000Y-63309400D02*
X56172000Y-60642400D01*
X58839000Y-67678200D02*
X58839000Y-63309400D01*
X67602000Y-62141000D02*
X66154200Y-60693200D01*
X67602000Y-71920000D02*
X67602000Y-62141000D01*
D15*
G36*
X69373000Y-73373000D02*
X50627000Y-73373000D01*
X50627000Y-71070000D01*
X50869536Y-71070000D01*
X50869536Y-72770000D01*
X50896103Y-72911190D01*
X50979546Y-73040865D01*
X51106866Y-73127859D01*
X51258000Y-73158464D01*
X52958000Y-73158464D01*
X53099190Y-73131897D01*
X53228865Y-73048454D01*
X53315859Y-72921134D01*
X53346464Y-72770000D01*
X53346464Y-71895883D01*
X53417000Y-71895883D01*
X53417000Y-71944117D01*
X53510704Y-72415200D01*
X53777552Y-72814565D01*
X54176917Y-73081413D01*
X54648000Y-73175117D01*
X55119083Y-73081413D01*
X55518448Y-72814565D01*
X55785296Y-72415200D01*
X55845394Y-72113065D01*
X55972234Y-72113065D01*
X56138661Y-72563622D01*
X56464841Y-72916194D01*
X56901115Y-73117104D01*
X56994935Y-73135766D01*
X57187500Y-73055750D01*
X57187500Y-71920500D01*
X57188500Y-71920500D01*
X57188500Y-73055750D01*
X57381065Y-73135766D01*
X57474885Y-73117104D01*
X57911159Y-72916194D01*
X58237339Y-72563622D01*
X58403766Y-72113065D01*
X63846234Y-72113065D01*
X64012661Y-72563622D01*
X64338841Y-72916194D01*
X64775115Y-73117104D01*
X64868935Y-73135766D01*
X65061500Y-73055750D01*
X65061500Y-71920500D01*
X65062500Y-71920500D01*
X65062500Y-73055750D01*
X65255065Y-73135766D01*
X65348885Y-73117104D01*
X65785159Y-72916194D01*
X66111339Y-72563622D01*
X66277766Y-72113065D01*
X66197750Y-71920500D01*
X65062500Y-71920500D01*
X65061500Y-71920500D01*
X63926250Y-71920500D01*
X63846234Y-72113065D01*
X58403766Y-72113065D01*
X58323750Y-71920500D01*
X57188500Y-71920500D01*
X57187500Y-71920500D01*
X56052250Y-71920500D01*
X55972234Y-72113065D01*
X55845394Y-72113065D01*
X55879000Y-71944117D01*
X55879000Y-71895883D01*
X55845395Y-71726935D01*
X55972234Y-71726935D01*
X56052250Y-71919500D01*
X57187500Y-71919500D01*
X57187500Y-70784250D01*
X57188500Y-70784250D01*
X57188500Y-71919500D01*
X58323750Y-71919500D01*
X58403766Y-71726935D01*
X63846234Y-71726935D01*
X63926250Y-71919500D01*
X65061500Y-71919500D01*
X65061500Y-70784250D01*
X65062500Y-70784250D01*
X65062500Y-71919500D01*
X66197750Y-71919500D01*
X66277766Y-71726935D01*
X66111339Y-71276378D01*
X65785159Y-70923806D01*
X65348885Y-70722896D01*
X65255065Y-70704234D01*
X65062500Y-70784250D01*
X65061500Y-70784250D01*
X64868935Y-70704234D01*
X64775115Y-70722896D01*
X64338841Y-70923806D01*
X64012661Y-71276378D01*
X63846234Y-71726935D01*
X58403766Y-71726935D01*
X58237339Y-71276378D01*
X57911159Y-70923806D01*
X57474885Y-70722896D01*
X57381065Y-70704234D01*
X57188500Y-70784250D01*
X57187500Y-70784250D01*
X56994935Y-70704234D01*
X56901115Y-70722896D01*
X56464841Y-70923806D01*
X56138661Y-71276378D01*
X55972234Y-71726935D01*
X55845395Y-71726935D01*
X55785296Y-71424800D01*
X55518448Y-71025435D01*
X55119083Y-70758587D01*
X54648000Y-70664883D01*
X54176917Y-70758587D01*
X53777552Y-71025435D01*
X53510704Y-71424800D01*
X53417000Y-71895883D01*
X53346464Y-71895883D01*
X53346464Y-71070000D01*
X53319897Y-70928810D01*
X53236454Y-70799135D01*
X53109134Y-70712141D01*
X52958000Y-70681536D01*
X51258000Y-70681536D01*
X51116810Y-70708103D01*
X50987135Y-70791546D01*
X50900141Y-70918866D01*
X50869536Y-71070000D01*
X50627000Y-71070000D01*
X50627000Y-60777265D01*
X55490882Y-60777265D01*
X55594339Y-61027652D01*
X55785741Y-61219387D01*
X55906949Y-61269718D01*
X56001867Y-61364635D01*
X56051539Y-61484852D01*
X56242941Y-61676587D01*
X56364149Y-61726917D01*
X58208000Y-63570769D01*
X58208000Y-67422018D01*
X58158118Y-67542146D01*
X58157882Y-67813065D01*
X58261339Y-68063452D01*
X58452741Y-68255187D01*
X58659175Y-68340907D01*
X58743939Y-68546052D01*
X58935341Y-68737787D01*
X59185546Y-68841682D01*
X59456465Y-68841918D01*
X59706852Y-68738461D01*
X59898587Y-68547059D01*
X60002482Y-68296854D01*
X60002718Y-68025935D01*
X59899261Y-67775548D01*
X59707859Y-67583813D01*
X59501425Y-67498093D01*
X59470000Y-67422039D01*
X59470000Y-63309400D01*
X59421968Y-63067927D01*
X59285185Y-62863216D01*
X57256533Y-60834565D01*
X57206861Y-60714348D01*
X57015459Y-60522613D01*
X56894251Y-60472282D01*
X56799333Y-60377365D01*
X56749661Y-60257148D01*
X56558259Y-60065413D01*
X56308054Y-59961518D01*
X56037135Y-59961282D01*
X55786748Y-60064739D01*
X55595013Y-60256141D01*
X55491118Y-60506346D01*
X55490882Y-60777265D01*
X50627000Y-60777265D01*
X50627000Y-53564863D01*
X51109382Y-53564863D01*
X51212839Y-53815250D01*
X51404241Y-54006985D01*
X51654446Y-54110880D01*
X51925365Y-54111116D01*
X52045296Y-54061562D01*
X56996106Y-54072498D01*
X56996805Y-54072361D01*
X56997500Y-54072499D01*
X57117434Y-54048643D01*
X57237685Y-54025000D01*
X57238277Y-54024606D01*
X57238973Y-54024468D01*
X57340574Y-53956580D01*
X57442698Y-53888669D01*
X57443095Y-53888077D01*
X57443684Y-53887684D01*
X58054186Y-53277183D01*
X58054188Y-53277180D01*
X58155435Y-53175933D01*
X58458000Y-53236117D01*
X58760565Y-53175933D01*
X58861815Y-53277183D01*
X58938363Y-53328331D01*
X59325600Y-53715569D01*
X59325600Y-60995818D01*
X59275718Y-61115946D01*
X59275482Y-61386865D01*
X59325600Y-61508161D01*
X59325600Y-61630818D01*
X59275718Y-61750946D01*
X59275482Y-62021865D01*
X59378939Y-62272252D01*
X59570341Y-62463987D01*
X59820546Y-62567882D01*
X60091465Y-62568118D01*
X60341852Y-62464661D01*
X60533587Y-62273259D01*
X60637482Y-62023054D01*
X60637718Y-61752135D01*
X60587600Y-61630839D01*
X60587600Y-61508182D01*
X60637482Y-61388054D01*
X60637718Y-61117135D01*
X60587600Y-60995839D01*
X60587600Y-53454200D01*
X60539568Y-53212727D01*
X60539568Y-53212726D01*
X60464896Y-53100972D01*
X60526917Y-53142413D01*
X60998000Y-53236117D01*
X61300565Y-53175933D01*
X62025015Y-53900384D01*
X62229726Y-54037168D01*
X62269789Y-54045137D01*
X62471200Y-54085200D01*
X64686302Y-54085200D01*
X64708071Y-54094239D01*
X67961600Y-57347769D01*
X67961600Y-61608231D01*
X67238733Y-60885365D01*
X67189061Y-60765148D01*
X66997659Y-60573413D01*
X66876451Y-60523083D01*
X66781533Y-60428165D01*
X66731861Y-60307948D01*
X66540459Y-60116213D01*
X66290254Y-60012318D01*
X66019335Y-60012082D01*
X65768948Y-60115539D01*
X65577213Y-60306941D01*
X65473318Y-60557146D01*
X65473082Y-60828065D01*
X65576539Y-61078452D01*
X65767941Y-61270187D01*
X65889149Y-61320518D01*
X65984067Y-61415435D01*
X66033739Y-61535652D01*
X66225141Y-61727387D01*
X66346349Y-61777717D01*
X66971000Y-62402369D01*
X66971000Y-70681536D01*
X66752000Y-70681536D01*
X66610810Y-70708103D01*
X66481135Y-70791546D01*
X66394141Y-70918866D01*
X66363536Y-71070000D01*
X66363536Y-72770000D01*
X66390103Y-72911190D01*
X66473546Y-73040865D01*
X66600866Y-73127859D01*
X66752000Y-73158464D01*
X68452000Y-73158464D01*
X68593190Y-73131897D01*
X68722865Y-73048454D01*
X68809859Y-72921134D01*
X68840464Y-72770000D01*
X68840464Y-71070000D01*
X68813897Y-70928810D01*
X68730454Y-70799135D01*
X68603134Y-70712141D01*
X68452000Y-70681536D01*
X68233000Y-70681536D01*
X68233000Y-67986857D01*
X68456546Y-68079682D01*
X68727465Y-68079918D01*
X68977852Y-67976461D01*
X69169587Y-67785059D01*
X69273482Y-67534854D01*
X69273718Y-67263935D01*
X69192937Y-67068427D01*
X69273482Y-66874454D01*
X69273718Y-66603535D01*
X69223600Y-66482239D01*
X69223600Y-57086400D01*
X69175568Y-56844927D01*
X69038785Y-56640216D01*
X65474920Y-53076352D01*
X65461861Y-53044746D01*
X65270459Y-52853011D01*
X65020254Y-52749116D01*
X64749335Y-52748880D01*
X64569465Y-52823200D01*
X64443437Y-52823200D01*
X64675296Y-52476200D01*
X64769000Y-52005117D01*
X64769000Y-51956883D01*
X64675296Y-51485800D01*
X64408448Y-51086435D01*
X64009083Y-50819587D01*
X63538000Y-50725883D01*
X63066917Y-50819587D01*
X62667552Y-51086435D01*
X62400704Y-51485800D01*
X62307000Y-51956883D01*
X62307000Y-52005117D01*
X62400704Y-52476200D01*
X62431182Y-52521813D01*
X62176819Y-52267450D01*
X62229000Y-52005117D01*
X62229000Y-51956883D01*
X62135296Y-51485800D01*
X61868448Y-51086435D01*
X61469083Y-50819587D01*
X60998000Y-50725883D01*
X60526917Y-50819587D01*
X60127552Y-51086435D01*
X59860704Y-51485800D01*
X59767000Y-51956883D01*
X59767000Y-52005117D01*
X59858155Y-52463387D01*
X59779583Y-52384815D01*
X59703035Y-52333667D01*
X59636819Y-52267451D01*
X59689000Y-52005117D01*
X59689000Y-51956883D01*
X59595296Y-51485800D01*
X59328448Y-51086435D01*
X58929083Y-50819587D01*
X58458000Y-50725883D01*
X57986917Y-50819587D01*
X57587552Y-51086435D01*
X57320704Y-51485800D01*
X57227000Y-51956883D01*
X57227000Y-52005117D01*
X57279181Y-52267451D01*
X57161820Y-52384812D01*
X57161817Y-52384814D01*
X57156464Y-52390167D01*
X57156464Y-51131000D01*
X57129897Y-50989810D01*
X57046454Y-50860135D01*
X56919134Y-50773141D01*
X56768000Y-50742536D01*
X55068000Y-50742536D01*
X54926810Y-50769103D01*
X54797135Y-50852546D01*
X54710141Y-50979866D01*
X54679536Y-51131000D01*
X54679536Y-52805379D01*
X52048050Y-52799566D01*
X51926554Y-52749116D01*
X51655635Y-52748880D01*
X51405248Y-52852337D01*
X51213513Y-53043739D01*
X51109618Y-53293944D01*
X51109382Y-53564863D01*
X50627000Y-53564863D01*
X50627000Y-50627000D01*
X69373000Y-50627000D01*
X69373000Y-73373000D01*
X69373000Y-73373000D01*
G37*
X69373000Y-73373000D02*
X50627000Y-73373000D01*
X50627000Y-71070000D01*
X50869536Y-71070000D01*
X50869536Y-72770000D01*
X50896103Y-72911190D01*
X50979546Y-73040865D01*
X51106866Y-73127859D01*
X51258000Y-73158464D01*
X52958000Y-73158464D01*
X53099190Y-73131897D01*
X53228865Y-73048454D01*
X53315859Y-72921134D01*
X53346464Y-72770000D01*
X53346464Y-71895883D01*
X53417000Y-71895883D01*
X53417000Y-71944117D01*
X53510704Y-72415200D01*
X53777552Y-72814565D01*
X54176917Y-73081413D01*
X54648000Y-73175117D01*
X55119083Y-73081413D01*
X55518448Y-72814565D01*
X55785296Y-72415200D01*
X55845394Y-72113065D01*
X55972234Y-72113065D01*
X56138661Y-72563622D01*
X56464841Y-72916194D01*
X56901115Y-73117104D01*
X56994935Y-73135766D01*
X57187500Y-73055750D01*
X57187500Y-71920500D01*
X57188500Y-71920500D01*
X57188500Y-73055750D01*
X57381065Y-73135766D01*
X57474885Y-73117104D01*
X57911159Y-72916194D01*
X58237339Y-72563622D01*
X58403766Y-72113065D01*
X63846234Y-72113065D01*
X64012661Y-72563622D01*
X64338841Y-72916194D01*
X64775115Y-73117104D01*
X64868935Y-73135766D01*
X65061500Y-73055750D01*
X65061500Y-71920500D01*
X65062500Y-71920500D01*
X65062500Y-73055750D01*
X65255065Y-73135766D01*
X65348885Y-73117104D01*
X65785159Y-72916194D01*
X66111339Y-72563622D01*
X66277766Y-72113065D01*
X66197750Y-71920500D01*
X65062500Y-71920500D01*
X65061500Y-71920500D01*
X63926250Y-71920500D01*
X63846234Y-72113065D01*
X58403766Y-72113065D01*
X58323750Y-71920500D01*
X57188500Y-71920500D01*
X57187500Y-71920500D01*
X56052250Y-71920500D01*
X55972234Y-72113065D01*
X55845394Y-72113065D01*
X55879000Y-71944117D01*
X55879000Y-71895883D01*
X55845395Y-71726935D01*
X55972234Y-71726935D01*
X56052250Y-71919500D01*
X57187500Y-71919500D01*
X57187500Y-70784250D01*
X57188500Y-70784250D01*
X57188500Y-71919500D01*
X58323750Y-71919500D01*
X58403766Y-71726935D01*
X63846234Y-71726935D01*
X63926250Y-71919500D01*
X65061500Y-71919500D01*
X65061500Y-70784250D01*
X65062500Y-70784250D01*
X65062500Y-71919500D01*
X66197750Y-71919500D01*
X66277766Y-71726935D01*
X66111339Y-71276378D01*
X65785159Y-70923806D01*
X65348885Y-70722896D01*
X65255065Y-70704234D01*
X65062500Y-70784250D01*
X65061500Y-70784250D01*
X64868935Y-70704234D01*
X64775115Y-70722896D01*
X64338841Y-70923806D01*
X64012661Y-71276378D01*
X63846234Y-71726935D01*
X58403766Y-71726935D01*
X58237339Y-71276378D01*
X57911159Y-70923806D01*
X57474885Y-70722896D01*
X57381065Y-70704234D01*
X57188500Y-70784250D01*
X57187500Y-70784250D01*
X56994935Y-70704234D01*
X56901115Y-70722896D01*
X56464841Y-70923806D01*
X56138661Y-71276378D01*
X55972234Y-71726935D01*
X55845395Y-71726935D01*
X55785296Y-71424800D01*
X55518448Y-71025435D01*
X55119083Y-70758587D01*
X54648000Y-70664883D01*
X54176917Y-70758587D01*
X53777552Y-71025435D01*
X53510704Y-71424800D01*
X53417000Y-71895883D01*
X53346464Y-71895883D01*
X53346464Y-71070000D01*
X53319897Y-70928810D01*
X53236454Y-70799135D01*
X53109134Y-70712141D01*
X52958000Y-70681536D01*
X51258000Y-70681536D01*
X51116810Y-70708103D01*
X50987135Y-70791546D01*
X50900141Y-70918866D01*
X50869536Y-71070000D01*
X50627000Y-71070000D01*
X50627000Y-60777265D01*
X55490882Y-60777265D01*
X55594339Y-61027652D01*
X55785741Y-61219387D01*
X55906949Y-61269718D01*
X56001867Y-61364635D01*
X56051539Y-61484852D01*
X56242941Y-61676587D01*
X56364149Y-61726917D01*
X58208000Y-63570769D01*
X58208000Y-67422018D01*
X58158118Y-67542146D01*
X58157882Y-67813065D01*
X58261339Y-68063452D01*
X58452741Y-68255187D01*
X58659175Y-68340907D01*
X58743939Y-68546052D01*
X58935341Y-68737787D01*
X59185546Y-68841682D01*
X59456465Y-68841918D01*
X59706852Y-68738461D01*
X59898587Y-68547059D01*
X60002482Y-68296854D01*
X60002718Y-68025935D01*
X59899261Y-67775548D01*
X59707859Y-67583813D01*
X59501425Y-67498093D01*
X59470000Y-67422039D01*
X59470000Y-63309400D01*
X59421968Y-63067927D01*
X59285185Y-62863216D01*
X57256533Y-60834565D01*
X57206861Y-60714348D01*
X57015459Y-60522613D01*
X56894251Y-60472282D01*
X56799333Y-60377365D01*
X56749661Y-60257148D01*
X56558259Y-60065413D01*
X56308054Y-59961518D01*
X56037135Y-59961282D01*
X55786748Y-60064739D01*
X55595013Y-60256141D01*
X55491118Y-60506346D01*
X55490882Y-60777265D01*
X50627000Y-60777265D01*
X50627000Y-53564863D01*
X51109382Y-53564863D01*
X51212839Y-53815250D01*
X51404241Y-54006985D01*
X51654446Y-54110880D01*
X51925365Y-54111116D01*
X52045296Y-54061562D01*
X56996106Y-54072498D01*
X56996805Y-54072361D01*
X56997500Y-54072499D01*
X57117434Y-54048643D01*
X57237685Y-54025000D01*
X57238277Y-54024606D01*
X57238973Y-54024468D01*
X57340574Y-53956580D01*
X57442698Y-53888669D01*
X57443095Y-53888077D01*
X57443684Y-53887684D01*
X58054186Y-53277183D01*
X58054188Y-53277180D01*
X58155435Y-53175933D01*
X58458000Y-53236117D01*
X58760565Y-53175933D01*
X58861815Y-53277183D01*
X58938363Y-53328331D01*
X59325600Y-53715569D01*
X59325600Y-60995818D01*
X59275718Y-61115946D01*
X59275482Y-61386865D01*
X59325600Y-61508161D01*
X59325600Y-61630818D01*
X59275718Y-61750946D01*
X59275482Y-62021865D01*
X59378939Y-62272252D01*
X59570341Y-62463987D01*
X59820546Y-62567882D01*
X60091465Y-62568118D01*
X60341852Y-62464661D01*
X60533587Y-62273259D01*
X60637482Y-62023054D01*
X60637718Y-61752135D01*
X60587600Y-61630839D01*
X60587600Y-61508182D01*
X60637482Y-61388054D01*
X60637718Y-61117135D01*
X60587600Y-60995839D01*
X60587600Y-53454200D01*
X60539568Y-53212727D01*
X60539568Y-53212726D01*
X60464896Y-53100972D01*
X60526917Y-53142413D01*
X60998000Y-53236117D01*
X61300565Y-53175933D01*
X62025015Y-53900384D01*
X62229726Y-54037168D01*
X62269789Y-54045137D01*
X62471200Y-54085200D01*
X64686302Y-54085200D01*
X64708071Y-54094239D01*
X67961600Y-57347769D01*
X67961600Y-61608231D01*
X67238733Y-60885365D01*
X67189061Y-60765148D01*
X66997659Y-60573413D01*
X66876451Y-60523083D01*
X66781533Y-60428165D01*
X66731861Y-60307948D01*
X66540459Y-60116213D01*
X66290254Y-60012318D01*
X66019335Y-60012082D01*
X65768948Y-60115539D01*
X65577213Y-60306941D01*
X65473318Y-60557146D01*
X65473082Y-60828065D01*
X65576539Y-61078452D01*
X65767941Y-61270187D01*
X65889149Y-61320518D01*
X65984067Y-61415435D01*
X66033739Y-61535652D01*
X66225141Y-61727387D01*
X66346349Y-61777717D01*
X66971000Y-62402369D01*
X66971000Y-70681536D01*
X66752000Y-70681536D01*
X66610810Y-70708103D01*
X66481135Y-70791546D01*
X66394141Y-70918866D01*
X66363536Y-71070000D01*
X66363536Y-72770000D01*
X66390103Y-72911190D01*
X66473546Y-73040865D01*
X66600866Y-73127859D01*
X66752000Y-73158464D01*
X68452000Y-73158464D01*
X68593190Y-73131897D01*
X68722865Y-73048454D01*
X68809859Y-72921134D01*
X68840464Y-72770000D01*
X68840464Y-71070000D01*
X68813897Y-70928810D01*
X68730454Y-70799135D01*
X68603134Y-70712141D01*
X68452000Y-70681536D01*
X68233000Y-70681536D01*
X68233000Y-67986857D01*
X68456546Y-68079682D01*
X68727465Y-68079918D01*
X68977852Y-67976461D01*
X69169587Y-67785059D01*
X69273482Y-67534854D01*
X69273718Y-67263935D01*
X69192937Y-67068427D01*
X69273482Y-66874454D01*
X69273718Y-66603535D01*
X69223600Y-66482239D01*
X69223600Y-57086400D01*
X69175568Y-56844927D01*
X69038785Y-56640216D01*
X65474920Y-53076352D01*
X65461861Y-53044746D01*
X65270459Y-52853011D01*
X65020254Y-52749116D01*
X64749335Y-52748880D01*
X64569465Y-52823200D01*
X64443437Y-52823200D01*
X64675296Y-52476200D01*
X64769000Y-52005117D01*
X64769000Y-51956883D01*
X64675296Y-51485800D01*
X64408448Y-51086435D01*
X64009083Y-50819587D01*
X63538000Y-50725883D01*
X63066917Y-50819587D01*
X62667552Y-51086435D01*
X62400704Y-51485800D01*
X62307000Y-51956883D01*
X62307000Y-52005117D01*
X62400704Y-52476200D01*
X62431182Y-52521813D01*
X62176819Y-52267450D01*
X62229000Y-52005117D01*
X62229000Y-51956883D01*
X62135296Y-51485800D01*
X61868448Y-51086435D01*
X61469083Y-50819587D01*
X60998000Y-50725883D01*
X60526917Y-50819587D01*
X60127552Y-51086435D01*
X59860704Y-51485800D01*
X59767000Y-51956883D01*
X59767000Y-52005117D01*
X59858155Y-52463387D01*
X59779583Y-52384815D01*
X59703035Y-52333667D01*
X59636819Y-52267451D01*
X59689000Y-52005117D01*
X59689000Y-51956883D01*
X59595296Y-51485800D01*
X59328448Y-51086435D01*
X58929083Y-50819587D01*
X58458000Y-50725883D01*
X57986917Y-50819587D01*
X57587552Y-51086435D01*
X57320704Y-51485800D01*
X57227000Y-51956883D01*
X57227000Y-52005117D01*
X57279181Y-52267451D01*
X57161820Y-52384812D01*
X57161817Y-52384814D01*
X57156464Y-52390167D01*
X57156464Y-51131000D01*
X57129897Y-50989810D01*
X57046454Y-50860135D01*
X56919134Y-50773141D01*
X56768000Y-50742536D01*
X55068000Y-50742536D01*
X54926810Y-50769103D01*
X54797135Y-50852546D01*
X54710141Y-50979866D01*
X54679536Y-51131000D01*
X54679536Y-52805379D01*
X52048050Y-52799566D01*
X51926554Y-52749116D01*
X51655635Y-52748880D01*
X51405248Y-52852337D01*
X51213513Y-53043739D01*
X51109618Y-53293944D01*
X51109382Y-53564863D01*
X50627000Y-53564863D01*
X50627000Y-50627000D01*
X69373000Y-50627000D01*
X69373000Y-73373000D01*
M02*
