%FSLAX45Y45*%
G04 Gerber Fmt 4.5, Leading zero omitted, Abs format (unit mm)*
G04 Created by KiCad (PCBNEW 4.0.2-stable) date 9/5/2017 3:06:34 PM*
%MOMM*%
G01*
G04 APERTURE LIST*
%ADD10C,0.127000*%
%ADD11C,0.150000*%
%ADD12C,0.200000*%
%ADD13C,0.300000*%
G04 APERTURE END LIST*
D10*
D11*
X7000000Y-5000000D02*
X5000000Y-5000000D01*
X7000000Y-7400000D02*
X7000000Y-5000000D01*
X5000000Y-7400000D02*
X7000000Y-7400000D01*
X5000000Y-5000000D02*
X5000000Y-7400000D01*
D12*
X5159050Y-5323000D02*
X5199050Y-5363000D01*
X5199050Y-5323000D02*
X5159050Y-5363000D01*
X5320340Y-6717340D02*
X5360340Y-6757340D01*
X5360340Y-6717340D02*
X5320340Y-6757340D01*
X5388920Y-6717340D02*
X5428920Y-6757340D01*
X5428920Y-6717340D02*
X5388920Y-6757340D01*
X5457500Y-6717340D02*
X5497500Y-6757340D01*
X5497500Y-6717340D02*
X5457500Y-6757340D01*
X5526080Y-6717340D02*
X5566080Y-6757340D01*
X5566080Y-6717340D02*
X5526080Y-6757340D01*
X5594660Y-6717340D02*
X5634660Y-6757340D01*
X5634660Y-6717340D02*
X5594660Y-6757340D01*
X5597200Y-6044240D02*
X5637200Y-6084240D01*
X5637200Y-6044240D02*
X5597200Y-6084240D01*
X5642920Y-6089960D02*
X5682920Y-6129960D01*
X5682920Y-6089960D02*
X5642920Y-6129960D01*
X5863900Y-6747820D02*
X5903900Y-6787820D01*
X5903900Y-6747820D02*
X5863900Y-6787820D01*
X5912160Y-6796080D02*
X5952160Y-6836080D01*
X5952160Y-6796080D02*
X5912160Y-6836080D01*
X5975660Y-6105200D02*
X6015660Y-6145200D01*
X6015660Y-6105200D02*
X5975660Y-6145200D01*
X5975660Y-6168700D02*
X6015660Y-6208700D01*
X6015660Y-6168700D02*
X5975660Y-6208700D01*
X6328720Y-6723690D02*
X6368720Y-6763690D01*
X6368720Y-6723690D02*
X6328720Y-6763690D01*
X6397300Y-6723690D02*
X6437300Y-6763690D01*
X6437300Y-6723690D02*
X6397300Y-6763690D01*
X6465880Y-6723690D02*
X6505880Y-6763690D01*
X6505880Y-6723690D02*
X6465880Y-6763690D01*
X6468420Y-5323000D02*
X6508420Y-5363000D01*
X6508420Y-5323000D02*
X6468420Y-5363000D01*
X6534460Y-6723690D02*
X6574460Y-6763690D01*
X6574460Y-6723690D02*
X6534460Y-6763690D01*
X6595420Y-6049320D02*
X6635420Y-6089320D01*
X6635420Y-6049320D02*
X6595420Y-6089320D01*
X6603040Y-6723690D02*
X6643040Y-6763690D01*
X6643040Y-6723690D02*
X6603040Y-6763690D01*
X6641140Y-6095040D02*
X6681140Y-6135040D01*
X6681140Y-6095040D02*
X6641140Y-6135040D01*
X6839260Y-6653840D02*
X6879260Y-6693840D01*
X6879260Y-6653840D02*
X6839260Y-6693840D01*
X6839260Y-6719880D02*
X6879260Y-6759880D01*
X6879260Y-6719880D02*
X6839260Y-6759880D01*
X5260800Y-7192000D02*
G75*
G03X5260800Y-7192000I-50000J0D01*
G01*
X5514800Y-7192000D02*
G75*
G03X5514800Y-7192000I-50000J0D01*
G01*
X5641800Y-5198100D02*
G75*
G03X5641800Y-5198100I-50000J0D01*
G01*
X5768800Y-7192000D02*
G75*
G03X5768800Y-7192000I-50000J0D01*
G01*
X5895800Y-5198100D02*
G75*
G03X5895800Y-5198100I-50000J0D01*
G01*
X6149800Y-5198100D02*
G75*
G03X6149800Y-5198100I-50000J0D01*
G01*
X6403800Y-5198100D02*
G75*
G03X6403800Y-5198100I-50000J0D01*
G01*
X6556200Y-7192000D02*
G75*
G03X6556200Y-7192000I-50000J0D01*
G01*
X6810200Y-7192000D02*
G75*
G03X6810200Y-7192000I-50000J0D01*
G01*
D13*
X5263929Y-7873214D02*
X5263929Y-7573214D01*
X5335357Y-7573214D01*
X5378214Y-7587500D01*
X5406786Y-7616071D01*
X5421071Y-7644643D01*
X5435357Y-7701786D01*
X5435357Y-7744643D01*
X5421071Y-7801786D01*
X5406786Y-7830357D01*
X5378214Y-7858929D01*
X5335357Y-7873214D01*
X5263929Y-7873214D01*
X5563929Y-7873214D02*
X5563929Y-7673214D01*
X5563929Y-7730357D02*
X5578214Y-7701786D01*
X5592500Y-7687500D01*
X5621071Y-7673214D01*
X5649643Y-7673214D01*
X5749643Y-7873214D02*
X5749643Y-7673214D01*
X5749643Y-7573214D02*
X5735357Y-7587500D01*
X5749643Y-7601786D01*
X5763928Y-7587500D01*
X5749643Y-7573214D01*
X5749643Y-7601786D01*
X5935357Y-7873214D02*
X5906786Y-7858929D01*
X5892500Y-7830357D01*
X5892500Y-7573214D01*
X6092500Y-7873214D02*
X6063928Y-7858929D01*
X6049643Y-7830357D01*
X6049643Y-7573214D01*
X6435357Y-7873214D02*
X6435357Y-7573214D01*
X6535357Y-7787500D01*
X6635357Y-7573214D01*
X6635357Y-7873214D01*
X6906786Y-7873214D02*
X6906786Y-7716071D01*
X6892500Y-7687500D01*
X6863928Y-7673214D01*
X6806786Y-7673214D01*
X6778214Y-7687500D01*
X6906786Y-7858929D02*
X6878214Y-7873214D01*
X6806786Y-7873214D01*
X6778214Y-7858929D01*
X6763928Y-7830357D01*
X6763928Y-7801786D01*
X6778214Y-7773214D01*
X6806786Y-7758929D01*
X6878214Y-7758929D01*
X6906786Y-7744643D01*
X7049643Y-7673214D02*
X7049643Y-7973214D01*
X7049643Y-7687500D02*
X7078214Y-7673214D01*
X7135357Y-7673214D01*
X7163928Y-7687500D01*
X7178214Y-7701786D01*
X7192500Y-7730357D01*
X7192500Y-7816071D01*
X7178214Y-7844643D01*
X7163928Y-7858929D01*
X7135357Y-7873214D01*
X7078214Y-7873214D01*
X7049643Y-7858929D01*
X7321071Y-7844643D02*
X7335357Y-7858929D01*
X7321071Y-7873214D01*
X7306786Y-7858929D01*
X7321071Y-7844643D01*
X7321071Y-7873214D01*
X7321071Y-7687500D02*
X7335357Y-7701786D01*
X7321071Y-7716071D01*
X7306786Y-7701786D01*
X7321071Y-7687500D01*
X7321071Y-7716071D01*
X4952500Y-8347500D02*
X4992500Y-8387500D01*
X4992500Y-8347500D02*
X4952500Y-8387500D01*
X5321071Y-8203214D02*
X5349643Y-8203214D01*
X5378214Y-8217500D01*
X5392500Y-8231786D01*
X5406786Y-8260357D01*
X5421071Y-8317500D01*
X5421071Y-8388929D01*
X5406786Y-8446072D01*
X5392500Y-8474643D01*
X5378214Y-8488929D01*
X5349643Y-8503214D01*
X5321071Y-8503214D01*
X5292500Y-8488929D01*
X5278214Y-8474643D01*
X5263929Y-8446072D01*
X5249643Y-8388929D01*
X5249643Y-8317500D01*
X5263929Y-8260357D01*
X5278214Y-8231786D01*
X5292500Y-8217500D01*
X5321071Y-8203214D01*
X5549643Y-8474643D02*
X5563929Y-8488929D01*
X5549643Y-8503214D01*
X5535357Y-8488929D01*
X5549643Y-8474643D01*
X5549643Y-8503214D01*
X5821071Y-8303214D02*
X5821071Y-8503214D01*
X5749643Y-8188929D02*
X5678214Y-8403214D01*
X5863928Y-8403214D01*
X6035357Y-8203214D02*
X6063928Y-8203214D01*
X6092500Y-8217500D01*
X6106786Y-8231786D01*
X6121071Y-8260357D01*
X6135357Y-8317500D01*
X6135357Y-8388929D01*
X6121071Y-8446072D01*
X6106786Y-8474643D01*
X6092500Y-8488929D01*
X6063928Y-8503214D01*
X6035357Y-8503214D01*
X6006786Y-8488929D01*
X5992500Y-8474643D01*
X5978214Y-8446072D01*
X5963928Y-8388929D01*
X5963928Y-8317500D01*
X5978214Y-8260357D01*
X5992500Y-8231786D01*
X6006786Y-8217500D01*
X6035357Y-8203214D01*
X6263928Y-8503214D02*
X6263928Y-8303214D01*
X6263928Y-8331786D02*
X6278214Y-8317500D01*
X6306786Y-8303214D01*
X6349643Y-8303214D01*
X6378214Y-8317500D01*
X6392500Y-8346071D01*
X6392500Y-8503214D01*
X6392500Y-8346071D02*
X6406786Y-8317500D01*
X6435357Y-8303214D01*
X6478214Y-8303214D01*
X6506786Y-8317500D01*
X6521071Y-8346071D01*
X6521071Y-8503214D01*
X6663928Y-8503214D02*
X6663928Y-8303214D01*
X6663928Y-8331786D02*
X6678214Y-8317500D01*
X6706786Y-8303214D01*
X6749643Y-8303214D01*
X6778214Y-8317500D01*
X6792500Y-8346071D01*
X6792500Y-8503214D01*
X6792500Y-8346071D02*
X6806786Y-8317500D01*
X6835357Y-8303214D01*
X6878214Y-8303214D01*
X6906786Y-8317500D01*
X6921071Y-8346071D01*
X6921071Y-8503214D01*
X7506786Y-8188929D02*
X7249643Y-8574643D01*
X7892500Y-8203214D02*
X7921071Y-8203214D01*
X7949643Y-8217500D01*
X7963928Y-8231786D01*
X7978214Y-8260357D01*
X7992500Y-8317500D01*
X7992500Y-8388929D01*
X7978214Y-8446072D01*
X7963928Y-8474643D01*
X7949643Y-8488929D01*
X7921071Y-8503214D01*
X7892500Y-8503214D01*
X7863928Y-8488929D01*
X7849643Y-8474643D01*
X7835357Y-8446072D01*
X7821071Y-8388929D01*
X7821071Y-8317500D01*
X7835357Y-8260357D01*
X7849643Y-8231786D01*
X7863928Y-8217500D01*
X7892500Y-8203214D01*
X8121071Y-8474643D02*
X8135357Y-8488929D01*
X8121071Y-8503214D01*
X8106786Y-8488929D01*
X8121071Y-8474643D01*
X8121071Y-8503214D01*
X8321071Y-8203214D02*
X8349643Y-8203214D01*
X8378214Y-8217500D01*
X8392500Y-8231786D01*
X8406786Y-8260357D01*
X8421071Y-8317500D01*
X8421071Y-8388929D01*
X8406786Y-8446072D01*
X8392500Y-8474643D01*
X8378214Y-8488929D01*
X8349643Y-8503214D01*
X8321071Y-8503214D01*
X8292500Y-8488929D01*
X8278214Y-8474643D01*
X8263928Y-8446072D01*
X8249643Y-8388929D01*
X8249643Y-8317500D01*
X8263928Y-8260357D01*
X8278214Y-8231786D01*
X8292500Y-8217500D01*
X8321071Y-8203214D01*
X8706786Y-8503214D02*
X8535357Y-8503214D01*
X8621071Y-8503214D02*
X8621071Y-8203214D01*
X8592500Y-8246071D01*
X8563928Y-8274643D01*
X8535357Y-8288929D01*
X8963928Y-8203214D02*
X8906786Y-8203214D01*
X8878214Y-8217500D01*
X8863928Y-8231786D01*
X8835357Y-8274643D01*
X8821071Y-8331786D01*
X8821071Y-8446072D01*
X8835357Y-8474643D01*
X8849643Y-8488929D01*
X8878214Y-8503214D01*
X8935357Y-8503214D01*
X8963928Y-8488929D01*
X8978214Y-8474643D01*
X8992500Y-8446072D01*
X8992500Y-8374643D01*
X8978214Y-8346071D01*
X8963928Y-8331786D01*
X8935357Y-8317500D01*
X8878214Y-8317500D01*
X8849643Y-8331786D01*
X8835357Y-8346071D01*
X8821071Y-8374643D01*
X9106786Y-8203214D02*
X9106786Y-8260357D01*
X9221071Y-8203214D02*
X9221071Y-8260357D01*
X9663928Y-8617500D02*
X9649643Y-8603214D01*
X9621071Y-8560357D01*
X9606786Y-8531786D01*
X9592500Y-8488929D01*
X9578214Y-8417500D01*
X9578214Y-8360357D01*
X9592500Y-8288929D01*
X9606786Y-8246071D01*
X9621071Y-8217500D01*
X9649643Y-8174643D01*
X9663928Y-8160357D01*
X9763928Y-8231786D02*
X9778214Y-8217500D01*
X9806786Y-8203214D01*
X9878214Y-8203214D01*
X9906786Y-8217500D01*
X9921071Y-8231786D01*
X9935357Y-8260357D01*
X9935357Y-8288929D01*
X9921071Y-8331786D01*
X9749643Y-8503214D01*
X9935357Y-8503214D01*
X10049643Y-8231786D02*
X10063928Y-8217500D01*
X10092500Y-8203214D01*
X10163928Y-8203214D01*
X10192500Y-8217500D01*
X10206786Y-8231786D01*
X10221071Y-8260357D01*
X10221071Y-8288929D01*
X10206786Y-8331786D01*
X10035357Y-8503214D01*
X10221071Y-8503214D01*
X10578214Y-8503214D02*
X10578214Y-8203214D01*
X10706786Y-8503214D02*
X10706786Y-8346071D01*
X10692500Y-8317500D01*
X10663928Y-8303214D01*
X10621071Y-8303214D01*
X10592500Y-8317500D01*
X10578214Y-8331786D01*
X10892500Y-8503214D02*
X10863928Y-8488929D01*
X10849643Y-8474643D01*
X10835357Y-8446072D01*
X10835357Y-8360357D01*
X10849643Y-8331786D01*
X10863928Y-8317500D01*
X10892500Y-8303214D01*
X10935357Y-8303214D01*
X10963928Y-8317500D01*
X10978214Y-8331786D01*
X10992500Y-8360357D01*
X10992500Y-8446072D01*
X10978214Y-8474643D01*
X10963928Y-8488929D01*
X10935357Y-8503214D01*
X10892500Y-8503214D01*
X11163928Y-8503214D02*
X11135357Y-8488929D01*
X11121071Y-8460357D01*
X11121071Y-8203214D01*
X11392500Y-8488929D02*
X11363928Y-8503214D01*
X11306786Y-8503214D01*
X11278214Y-8488929D01*
X11263928Y-8460357D01*
X11263928Y-8346071D01*
X11278214Y-8317500D01*
X11306786Y-8303214D01*
X11363928Y-8303214D01*
X11392500Y-8317500D01*
X11406786Y-8346071D01*
X11406786Y-8374643D01*
X11263928Y-8403214D01*
X11521071Y-8488929D02*
X11549643Y-8503214D01*
X11606786Y-8503214D01*
X11635357Y-8488929D01*
X11649643Y-8460357D01*
X11649643Y-8446072D01*
X11635357Y-8417500D01*
X11606786Y-8403214D01*
X11563928Y-8403214D01*
X11535357Y-8388929D01*
X11521071Y-8360357D01*
X11521071Y-8346071D01*
X11535357Y-8317500D01*
X11563928Y-8303214D01*
X11606786Y-8303214D01*
X11635357Y-8317500D01*
X11749643Y-8617500D02*
X11763928Y-8603214D01*
X11792500Y-8560357D01*
X11806786Y-8531786D01*
X11821071Y-8488929D01*
X11835357Y-8417500D01*
X11835357Y-8360357D01*
X11821071Y-8288929D01*
X11806786Y-8246071D01*
X11792500Y-8217500D01*
X11763928Y-8174643D01*
X11749643Y-8160357D01*
X4992500Y-8763500D02*
G75*
G03X4992500Y-8763500I-50000J0D01*
G01*
X5421071Y-8899214D02*
X5249643Y-8899214D01*
X5335357Y-8899214D02*
X5335357Y-8599214D01*
X5306786Y-8642072D01*
X5278214Y-8670643D01*
X5249643Y-8684929D01*
X5549643Y-8870643D02*
X5563929Y-8884929D01*
X5549643Y-8899214D01*
X5535357Y-8884929D01*
X5549643Y-8870643D01*
X5549643Y-8899214D01*
X5749643Y-8599214D02*
X5778214Y-8599214D01*
X5806786Y-8613500D01*
X5821071Y-8627786D01*
X5835357Y-8656357D01*
X5849643Y-8713500D01*
X5849643Y-8784929D01*
X5835357Y-8842072D01*
X5821071Y-8870643D01*
X5806786Y-8884929D01*
X5778214Y-8899214D01*
X5749643Y-8899214D01*
X5721071Y-8884929D01*
X5706786Y-8870643D01*
X5692500Y-8842072D01*
X5678214Y-8784929D01*
X5678214Y-8713500D01*
X5692500Y-8656357D01*
X5706786Y-8627786D01*
X5721071Y-8613500D01*
X5749643Y-8599214D01*
X6035357Y-8599214D02*
X6063928Y-8599214D01*
X6092500Y-8613500D01*
X6106786Y-8627786D01*
X6121071Y-8656357D01*
X6135357Y-8713500D01*
X6135357Y-8784929D01*
X6121071Y-8842072D01*
X6106786Y-8870643D01*
X6092500Y-8884929D01*
X6063928Y-8899214D01*
X6035357Y-8899214D01*
X6006786Y-8884929D01*
X5992500Y-8870643D01*
X5978214Y-8842072D01*
X5963928Y-8784929D01*
X5963928Y-8713500D01*
X5978214Y-8656357D01*
X5992500Y-8627786D01*
X6006786Y-8613500D01*
X6035357Y-8599214D01*
X6263928Y-8899214D02*
X6263928Y-8699214D01*
X6263928Y-8727786D02*
X6278214Y-8713500D01*
X6306786Y-8699214D01*
X6349643Y-8699214D01*
X6378214Y-8713500D01*
X6392500Y-8742072D01*
X6392500Y-8899214D01*
X6392500Y-8742072D02*
X6406786Y-8713500D01*
X6435357Y-8699214D01*
X6478214Y-8699214D01*
X6506786Y-8713500D01*
X6521071Y-8742072D01*
X6521071Y-8899214D01*
X6663928Y-8899214D02*
X6663928Y-8699214D01*
X6663928Y-8727786D02*
X6678214Y-8713500D01*
X6706786Y-8699214D01*
X6749643Y-8699214D01*
X6778214Y-8713500D01*
X6792500Y-8742072D01*
X6792500Y-8899214D01*
X6792500Y-8742072D02*
X6806786Y-8713500D01*
X6835357Y-8699214D01*
X6878214Y-8699214D01*
X6906786Y-8713500D01*
X6921071Y-8742072D01*
X6921071Y-8899214D01*
X7506786Y-8584929D02*
X7249643Y-8970643D01*
X7892500Y-8599214D02*
X7921071Y-8599214D01*
X7949643Y-8613500D01*
X7963928Y-8627786D01*
X7978214Y-8656357D01*
X7992500Y-8713500D01*
X7992500Y-8784929D01*
X7978214Y-8842072D01*
X7963928Y-8870643D01*
X7949643Y-8884929D01*
X7921071Y-8899214D01*
X7892500Y-8899214D01*
X7863928Y-8884929D01*
X7849643Y-8870643D01*
X7835357Y-8842072D01*
X7821071Y-8784929D01*
X7821071Y-8713500D01*
X7835357Y-8656357D01*
X7849643Y-8627786D01*
X7863928Y-8613500D01*
X7892500Y-8599214D01*
X8121071Y-8870643D02*
X8135357Y-8884929D01*
X8121071Y-8899214D01*
X8106786Y-8884929D01*
X8121071Y-8870643D01*
X8121071Y-8899214D01*
X8321071Y-8599214D02*
X8349643Y-8599214D01*
X8378214Y-8613500D01*
X8392500Y-8627786D01*
X8406786Y-8656357D01*
X8421071Y-8713500D01*
X8421071Y-8784929D01*
X8406786Y-8842072D01*
X8392500Y-8870643D01*
X8378214Y-8884929D01*
X8349643Y-8899214D01*
X8321071Y-8899214D01*
X8292500Y-8884929D01*
X8278214Y-8870643D01*
X8263928Y-8842072D01*
X8249643Y-8784929D01*
X8249643Y-8713500D01*
X8263928Y-8656357D01*
X8278214Y-8627786D01*
X8292500Y-8613500D01*
X8321071Y-8599214D01*
X8521071Y-8599214D02*
X8706786Y-8599214D01*
X8606786Y-8713500D01*
X8649643Y-8713500D01*
X8678214Y-8727786D01*
X8692500Y-8742072D01*
X8706786Y-8770643D01*
X8706786Y-8842072D01*
X8692500Y-8870643D01*
X8678214Y-8884929D01*
X8649643Y-8899214D01*
X8563928Y-8899214D01*
X8535357Y-8884929D01*
X8521071Y-8870643D01*
X8849643Y-8899214D02*
X8906786Y-8899214D01*
X8935357Y-8884929D01*
X8949643Y-8870643D01*
X8978214Y-8827786D01*
X8992500Y-8770643D01*
X8992500Y-8656357D01*
X8978214Y-8627786D01*
X8963928Y-8613500D01*
X8935357Y-8599214D01*
X8878214Y-8599214D01*
X8849643Y-8613500D01*
X8835357Y-8627786D01*
X8821071Y-8656357D01*
X8821071Y-8727786D01*
X8835357Y-8756357D01*
X8849643Y-8770643D01*
X8878214Y-8784929D01*
X8935357Y-8784929D01*
X8963928Y-8770643D01*
X8978214Y-8756357D01*
X8992500Y-8727786D01*
X9106786Y-8599214D02*
X9106786Y-8656357D01*
X9221071Y-8599214D02*
X9221071Y-8656357D01*
X9663928Y-9013500D02*
X9649643Y-8999214D01*
X9621071Y-8956357D01*
X9606786Y-8927786D01*
X9592500Y-8884929D01*
X9578214Y-8813500D01*
X9578214Y-8756357D01*
X9592500Y-8684929D01*
X9606786Y-8642072D01*
X9621071Y-8613500D01*
X9649643Y-8570643D01*
X9663928Y-8556357D01*
X9792500Y-8899214D02*
X9849643Y-8899214D01*
X9878214Y-8884929D01*
X9892500Y-8870643D01*
X9921071Y-8827786D01*
X9935357Y-8770643D01*
X9935357Y-8656357D01*
X9921071Y-8627786D01*
X9906786Y-8613500D01*
X9878214Y-8599214D01*
X9821071Y-8599214D01*
X9792500Y-8613500D01*
X9778214Y-8627786D01*
X9763928Y-8656357D01*
X9763928Y-8727786D01*
X9778214Y-8756357D01*
X9792500Y-8770643D01*
X9821071Y-8784929D01*
X9878214Y-8784929D01*
X9906786Y-8770643D01*
X9921071Y-8756357D01*
X9935357Y-8727786D01*
X10292500Y-8899214D02*
X10292500Y-8599214D01*
X10421071Y-8899214D02*
X10421071Y-8742072D01*
X10406786Y-8713500D01*
X10378214Y-8699214D01*
X10335357Y-8699214D01*
X10306786Y-8713500D01*
X10292500Y-8727786D01*
X10606786Y-8899214D02*
X10578214Y-8884929D01*
X10563928Y-8870643D01*
X10549643Y-8842072D01*
X10549643Y-8756357D01*
X10563928Y-8727786D01*
X10578214Y-8713500D01*
X10606786Y-8699214D01*
X10649643Y-8699214D01*
X10678214Y-8713500D01*
X10692500Y-8727786D01*
X10706786Y-8756357D01*
X10706786Y-8842072D01*
X10692500Y-8870643D01*
X10678214Y-8884929D01*
X10649643Y-8899214D01*
X10606786Y-8899214D01*
X10878214Y-8899214D02*
X10849643Y-8884929D01*
X10835357Y-8856357D01*
X10835357Y-8599214D01*
X11106786Y-8884929D02*
X11078214Y-8899214D01*
X11021071Y-8899214D01*
X10992500Y-8884929D01*
X10978214Y-8856357D01*
X10978214Y-8742072D01*
X10992500Y-8713500D01*
X11021071Y-8699214D01*
X11078214Y-8699214D01*
X11106786Y-8713500D01*
X11121071Y-8742072D01*
X11121071Y-8770643D01*
X10978214Y-8799214D01*
X11235357Y-8884929D02*
X11263928Y-8899214D01*
X11321071Y-8899214D01*
X11349643Y-8884929D01*
X11363928Y-8856357D01*
X11363928Y-8842072D01*
X11349643Y-8813500D01*
X11321071Y-8799214D01*
X11278214Y-8799214D01*
X11249643Y-8784929D01*
X11235357Y-8756357D01*
X11235357Y-8742072D01*
X11249643Y-8713500D01*
X11278214Y-8699214D01*
X11321071Y-8699214D01*
X11349643Y-8713500D01*
X11463928Y-9013500D02*
X11478214Y-8999214D01*
X11506786Y-8956357D01*
X11521071Y-8927786D01*
X11535357Y-8884929D01*
X11549643Y-8813500D01*
X11549643Y-8756357D01*
X11535357Y-8684929D01*
X11521071Y-8642072D01*
X11506786Y-8613500D01*
X11478214Y-8570643D01*
X11463928Y-8556357D01*
M02*
