G04 #@! TF.FileFunction,Legend,Top*
%FSLAX46Y46*%
G04 Gerber Fmt 4.6, Leading zero omitted, Abs format (unit mm)*
G04 Created by KiCad (PCBNEW 4.0.2-stable) date 9/5/2017 3:06:29 PM*
%MOMM*%
G01*
G04 APERTURE LIST*
%ADD10C,0.100000*%
%ADD11C,0.150000*%
%ADD12C,0.120000*%
G04 APERTURE END LIST*
D10*
D11*
X60006357Y-68803381D02*
X60006357Y-67803381D01*
X60387310Y-67803381D01*
X60482548Y-67851000D01*
X60530167Y-67898619D01*
X60577786Y-67993857D01*
X60577786Y-68136714D01*
X60530167Y-68231952D01*
X60482548Y-68279571D01*
X60387310Y-68327190D01*
X60006357Y-68327190D01*
X60863500Y-67803381D02*
X61434929Y-67803381D01*
X61149214Y-68803381D02*
X61149214Y-67803381D01*
X62196834Y-68136714D02*
X62196834Y-68803381D01*
X61958738Y-67755762D02*
X61720643Y-68470048D01*
X62339691Y-68470048D01*
X63244453Y-68803381D02*
X62673024Y-68803381D01*
X62958738Y-68803381D02*
X62958738Y-67803381D01*
X62863500Y-67946238D01*
X62768262Y-68041476D01*
X62673024Y-68089095D01*
X64196834Y-68803381D02*
X63625405Y-68803381D01*
X63911119Y-68803381D02*
X63911119Y-67803381D01*
X63815881Y-67946238D01*
X63720643Y-68041476D01*
X63625405Y-68089095D01*
X65101596Y-67803381D02*
X64625405Y-67803381D01*
X64577786Y-68279571D01*
X64625405Y-68231952D01*
X64720643Y-68184333D01*
X64958739Y-68184333D01*
X65053977Y-68231952D01*
X65101596Y-68279571D01*
X65149215Y-68374810D01*
X65149215Y-68612905D01*
X65101596Y-68708143D01*
X65053977Y-68755762D01*
X64958739Y-68803381D01*
X64720643Y-68803381D01*
X64625405Y-68755762D01*
X64577786Y-68708143D01*
X65339691Y-68898619D02*
X66101596Y-68898619D01*
X66292072Y-67898619D02*
X66339691Y-67851000D01*
X66434929Y-67803381D01*
X66673025Y-67803381D01*
X66768263Y-67851000D01*
X66815882Y-67898619D01*
X66863501Y-67993857D01*
X66863501Y-68089095D01*
X66815882Y-68231952D01*
X66244453Y-68803381D01*
X66863501Y-68803381D01*
X67863501Y-68708143D02*
X67815882Y-68755762D01*
X67673025Y-68803381D01*
X67577787Y-68803381D01*
X67434929Y-68755762D01*
X67339691Y-68660524D01*
X67292072Y-68565286D01*
X67244453Y-68374810D01*
X67244453Y-68231952D01*
X67292072Y-68041476D01*
X67339691Y-67946238D01*
X67434929Y-67851000D01*
X67577787Y-67803381D01*
X67673025Y-67803381D01*
X67815882Y-67851000D01*
X67863501Y-67898619D01*
X68292072Y-68803381D02*
X68292072Y-67803381D01*
X68720644Y-68803381D02*
X68720644Y-68279571D01*
X68673025Y-68184333D01*
X68577787Y-68136714D01*
X68434929Y-68136714D01*
X68339691Y-68184333D01*
X68292072Y-68231952D01*
X59553976Y-69353381D02*
X59887309Y-70353381D01*
X60220643Y-69353381D01*
X61077786Y-70353381D02*
X60506357Y-70353381D01*
X60792071Y-70353381D02*
X60792071Y-69353381D01*
X60696833Y-69496238D01*
X60601595Y-69591476D01*
X60506357Y-69639095D01*
X61506357Y-70258143D02*
X61553976Y-70305762D01*
X61506357Y-70353381D01*
X61458738Y-70305762D01*
X61506357Y-70258143D01*
X61506357Y-70353381D01*
X62173023Y-69353381D02*
X62268262Y-69353381D01*
X62363500Y-69401000D01*
X62411119Y-69448619D01*
X62458738Y-69543857D01*
X62506357Y-69734333D01*
X62506357Y-69972429D01*
X62458738Y-70162905D01*
X62411119Y-70258143D01*
X62363500Y-70305762D01*
X62268262Y-70353381D01*
X62173023Y-70353381D01*
X62077785Y-70305762D01*
X62030166Y-70258143D01*
X61982547Y-70162905D01*
X61934928Y-69972429D01*
X61934928Y-69734333D01*
X61982547Y-69543857D01*
X62030166Y-69448619D01*
X62077785Y-69401000D01*
X62173023Y-69353381D01*
X64030167Y-69829571D02*
X64173024Y-69877190D01*
X64220643Y-69924810D01*
X64268262Y-70020048D01*
X64268262Y-70162905D01*
X64220643Y-70258143D01*
X64173024Y-70305762D01*
X64077786Y-70353381D01*
X63696833Y-70353381D01*
X63696833Y-69353381D01*
X64030167Y-69353381D01*
X64125405Y-69401000D01*
X64173024Y-69448619D01*
X64220643Y-69543857D01*
X64220643Y-69639095D01*
X64173024Y-69734333D01*
X64125405Y-69781952D01*
X64030167Y-69829571D01*
X63696833Y-69829571D01*
X64696833Y-70353381D02*
X64696833Y-69353381D01*
X65268262Y-70353381D02*
X64839690Y-69781952D01*
X65268262Y-69353381D02*
X64696833Y-69924810D01*
X65649214Y-69448619D02*
X65696833Y-69401000D01*
X65792071Y-69353381D01*
X66030167Y-69353381D01*
X66125405Y-69401000D01*
X66173024Y-69448619D01*
X66220643Y-69543857D01*
X66220643Y-69639095D01*
X66173024Y-69781952D01*
X65601595Y-70353381D01*
X66220643Y-70353381D01*
X66839690Y-69353381D02*
X66934929Y-69353381D01*
X67030167Y-69401000D01*
X67077786Y-69448619D01*
X67125405Y-69543857D01*
X67173024Y-69734333D01*
X67173024Y-69972429D01*
X67125405Y-70162905D01*
X67077786Y-70258143D01*
X67030167Y-70305762D01*
X66934929Y-70353381D01*
X66839690Y-70353381D01*
X66744452Y-70305762D01*
X66696833Y-70258143D01*
X66649214Y-70162905D01*
X66601595Y-69972429D01*
X66601595Y-69734333D01*
X66649214Y-69543857D01*
X66696833Y-69448619D01*
X66744452Y-69401000D01*
X66839690Y-69353381D01*
X68125405Y-70353381D02*
X67553976Y-70353381D01*
X67839690Y-70353381D02*
X67839690Y-69353381D01*
X67744452Y-69496238D01*
X67649214Y-69591476D01*
X67553976Y-69639095D01*
X68458738Y-69353381D02*
X69125405Y-69353381D01*
X68696833Y-70353381D01*
D12*
X52582600Y-51105600D02*
X51582600Y-51105600D01*
X51582600Y-52805600D02*
X52582600Y-52805600D01*
X66797200Y-52856400D02*
X67797200Y-52856400D01*
X67797200Y-51156400D02*
X66797200Y-51156400D01*
X64411000Y-59597000D02*
X62411000Y-59597000D01*
X62411000Y-61637000D02*
X64411000Y-61637000D01*
X54505000Y-59597000D02*
X52505000Y-59597000D01*
X52505000Y-61637000D02*
X54505000Y-61637000D01*
X50242000Y-64308000D02*
X50242000Y-65308000D01*
X51942000Y-65308000D02*
X51942000Y-64308000D01*
X60275000Y-64371500D02*
X60275000Y-65371500D01*
X61975000Y-65371500D02*
X61975000Y-64371500D01*
D11*
X52778000Y-59280000D02*
X53978000Y-59280000D01*
X52778000Y-54080000D02*
X53978000Y-54080000D01*
X62557000Y-59280000D02*
X63757000Y-59280000D01*
X62557000Y-54080000D02*
X63757000Y-54080000D01*
D12*
X64868000Y-53311000D02*
X64868000Y-50651000D01*
X57188000Y-53311000D02*
X64868000Y-53311000D01*
X57188000Y-50651000D02*
X64868000Y-50651000D01*
X57188000Y-53311000D02*
X57188000Y-50651000D01*
X55918000Y-53311000D02*
X54588000Y-53311000D01*
X54588000Y-53311000D02*
X54588000Y-51981000D01*
X58518000Y-73250000D02*
X58518000Y-70590000D01*
X53378000Y-73250000D02*
X58518000Y-73250000D01*
X53378000Y-70590000D02*
X58518000Y-70590000D01*
X53378000Y-73250000D02*
X53378000Y-70590000D01*
X52108000Y-73250000D02*
X50778000Y-73250000D01*
X50778000Y-73250000D02*
X50778000Y-71920000D01*
X63732000Y-70590000D02*
X63732000Y-73250000D01*
X66332000Y-70590000D02*
X63732000Y-70590000D01*
X66332000Y-73250000D02*
X63732000Y-73250000D01*
X66332000Y-70590000D02*
X66332000Y-73250000D01*
X67602000Y-70590000D02*
X68932000Y-70590000D01*
X68932000Y-70590000D02*
X68932000Y-71920000D01*
X57933600Y-64341200D02*
X57933600Y-63141200D01*
X59693600Y-63141200D02*
X59693600Y-64341200D01*
X67992000Y-64353900D02*
X67992000Y-63153900D01*
X69752000Y-63153900D02*
X69752000Y-64353900D01*
X51254000Y-68119000D02*
X52454000Y-68119000D01*
X52454000Y-69879000D02*
X51254000Y-69879000D01*
X54566200Y-68119000D02*
X55766200Y-68119000D01*
X55766200Y-69879000D02*
X54566200Y-69879000D01*
X56202000Y-66700000D02*
X53602000Y-66700000D01*
X52302000Y-61900000D02*
X56202000Y-61900000D01*
X66307000Y-66739500D02*
X63707000Y-66739500D01*
X62407000Y-61939500D02*
X66307000Y-61939500D01*
X56681000Y-60715000D02*
X59981000Y-60715000D01*
X59981000Y-60715000D02*
X59981000Y-55315000D01*
X56681000Y-60715000D02*
X56681000Y-55315000D01*
X66460000Y-60683000D02*
X69760000Y-60683000D01*
X69760000Y-60683000D02*
X69760000Y-55283000D01*
X66460000Y-60683000D02*
X66460000Y-55283000D01*
D11*
X53151400Y-50978857D02*
X53115686Y-51014571D01*
X53008543Y-51050286D01*
X52937114Y-51050286D01*
X52829971Y-51014571D01*
X52758543Y-50943143D01*
X52722828Y-50871714D01*
X52687114Y-50728857D01*
X52687114Y-50621714D01*
X52722828Y-50478857D01*
X52758543Y-50407429D01*
X52829971Y-50336000D01*
X52937114Y-50300286D01*
X53008543Y-50300286D01*
X53115686Y-50336000D01*
X53151400Y-50371714D01*
X53865686Y-51050286D02*
X53437114Y-51050286D01*
X53651400Y-51050286D02*
X53651400Y-50300286D01*
X53579971Y-50407429D01*
X53508543Y-50478857D01*
X53437114Y-50514571D01*
X68289800Y-50953457D02*
X68254086Y-50989171D01*
X68146943Y-51024886D01*
X68075514Y-51024886D01*
X67968371Y-50989171D01*
X67896943Y-50917743D01*
X67861228Y-50846314D01*
X67825514Y-50703457D01*
X67825514Y-50596314D01*
X67861228Y-50453457D01*
X67896943Y-50382029D01*
X67968371Y-50310600D01*
X68075514Y-50274886D01*
X68146943Y-50274886D01*
X68254086Y-50310600D01*
X68289800Y-50346314D01*
X68575514Y-50346314D02*
X68611228Y-50310600D01*
X68682657Y-50274886D01*
X68861228Y-50274886D01*
X68932657Y-50310600D01*
X68968371Y-50346314D01*
X69004086Y-50417743D01*
X69004086Y-50489171D01*
X68968371Y-50596314D01*
X68539800Y-51024886D01*
X69004086Y-51024886D01*
X60961057Y-60869000D02*
X60996771Y-60904714D01*
X61032486Y-61011857D01*
X61032486Y-61083286D01*
X60996771Y-61190429D01*
X60925343Y-61261857D01*
X60853914Y-61297572D01*
X60711057Y-61333286D01*
X60603914Y-61333286D01*
X60461057Y-61297572D01*
X60389629Y-61261857D01*
X60318200Y-61190429D01*
X60282486Y-61083286D01*
X60282486Y-61011857D01*
X60318200Y-60904714D01*
X60353914Y-60869000D01*
X60282486Y-60619000D02*
X60282486Y-60154714D01*
X60568200Y-60404714D01*
X60568200Y-60297572D01*
X60603914Y-60226143D01*
X60639629Y-60190429D01*
X60711057Y-60154714D01*
X60889629Y-60154714D01*
X60961057Y-60190429D01*
X60996771Y-60226143D01*
X61032486Y-60297572D01*
X61032486Y-60511857D01*
X60996771Y-60583286D01*
X60961057Y-60619000D01*
X51029657Y-60716600D02*
X51065371Y-60752314D01*
X51101086Y-60859457D01*
X51101086Y-60930886D01*
X51065371Y-61038029D01*
X50993943Y-61109457D01*
X50922514Y-61145172D01*
X50779657Y-61180886D01*
X50672514Y-61180886D01*
X50529657Y-61145172D01*
X50458229Y-61109457D01*
X50386800Y-61038029D01*
X50351086Y-60930886D01*
X50351086Y-60859457D01*
X50386800Y-60752314D01*
X50422514Y-60716600D01*
X50601086Y-60073743D02*
X51101086Y-60073743D01*
X50315371Y-60252314D02*
X50851086Y-60430886D01*
X50851086Y-59966600D01*
X51385257Y-62469200D02*
X51420971Y-62504914D01*
X51456686Y-62612057D01*
X51456686Y-62683486D01*
X51420971Y-62790629D01*
X51349543Y-62862057D01*
X51278114Y-62897772D01*
X51135257Y-62933486D01*
X51028114Y-62933486D01*
X50885257Y-62897772D01*
X50813829Y-62862057D01*
X50742400Y-62790629D01*
X50706686Y-62683486D01*
X50706686Y-62612057D01*
X50742400Y-62504914D01*
X50778114Y-62469200D01*
X50706686Y-61790629D02*
X50706686Y-62147772D01*
X51063829Y-62183486D01*
X51028114Y-62147772D01*
X50992400Y-62076343D01*
X50992400Y-61897772D01*
X51028114Y-61826343D01*
X51063829Y-61790629D01*
X51135257Y-61754914D01*
X51313829Y-61754914D01*
X51385257Y-61790629D01*
X51420971Y-61826343D01*
X51456686Y-61897772D01*
X51456686Y-62076343D01*
X51420971Y-62147772D01*
X51385257Y-62183486D01*
X61469057Y-62545400D02*
X61504771Y-62581114D01*
X61540486Y-62688257D01*
X61540486Y-62759686D01*
X61504771Y-62866829D01*
X61433343Y-62938257D01*
X61361914Y-62973972D01*
X61219057Y-63009686D01*
X61111914Y-63009686D01*
X60969057Y-62973972D01*
X60897629Y-62938257D01*
X60826200Y-62866829D01*
X60790486Y-62759686D01*
X60790486Y-62688257D01*
X60826200Y-62581114D01*
X60861914Y-62545400D01*
X60790486Y-61902543D02*
X60790486Y-62045400D01*
X60826200Y-62116829D01*
X60861914Y-62152543D01*
X60969057Y-62223972D01*
X61111914Y-62259686D01*
X61397629Y-62259686D01*
X61469057Y-62223972D01*
X61504771Y-62188257D01*
X61540486Y-62116829D01*
X61540486Y-61973972D01*
X61504771Y-61902543D01*
X61469057Y-61866829D01*
X61397629Y-61831114D01*
X61219057Y-61831114D01*
X61147629Y-61866829D01*
X61111914Y-61902543D01*
X61076200Y-61973972D01*
X61076200Y-62116829D01*
X61111914Y-62188257D01*
X61147629Y-62223972D01*
X61219057Y-62259686D01*
X53742686Y-56957400D02*
X53742686Y-57314543D01*
X52992686Y-57314543D01*
X53742686Y-56314542D02*
X53742686Y-56743114D01*
X53742686Y-56528828D02*
X52992686Y-56528828D01*
X53099829Y-56600257D01*
X53171257Y-56671685D01*
X53206971Y-56743114D01*
X63572486Y-56906600D02*
X63572486Y-57263743D01*
X62822486Y-57263743D01*
X62893914Y-56692314D02*
X62858200Y-56656600D01*
X62822486Y-56585171D01*
X62822486Y-56406600D01*
X62858200Y-56335171D01*
X62893914Y-56299457D01*
X62965343Y-56263742D01*
X63036771Y-56263742D01*
X63143914Y-56299457D01*
X63572486Y-56728028D01*
X63572486Y-56263742D01*
X53230828Y-53666486D02*
X53230828Y-52916486D01*
X53516543Y-52916486D01*
X53587971Y-52952200D01*
X53623686Y-52987914D01*
X53659400Y-53059343D01*
X53659400Y-53166486D01*
X53623686Y-53237914D01*
X53587971Y-53273629D01*
X53516543Y-53309343D01*
X53230828Y-53309343D01*
X54373686Y-53666486D02*
X53945114Y-53666486D01*
X54159400Y-53666486D02*
X54159400Y-52916486D01*
X54087971Y-53023629D01*
X54016543Y-53095057D01*
X53945114Y-53130771D01*
X59824781Y-72734295D02*
X58824781Y-72734295D01*
X58824781Y-72353342D01*
X58872400Y-72258104D01*
X58920019Y-72210485D01*
X59015257Y-72162866D01*
X59158114Y-72162866D01*
X59253352Y-72210485D01*
X59300971Y-72258104D01*
X59348590Y-72353342D01*
X59348590Y-72734295D01*
X58920019Y-71781914D02*
X58872400Y-71734295D01*
X58824781Y-71639057D01*
X58824781Y-71400961D01*
X58872400Y-71305723D01*
X58920019Y-71258104D01*
X59015257Y-71210485D01*
X59110495Y-71210485D01*
X59253352Y-71258104D01*
X59824781Y-71829533D01*
X59824781Y-71210485D01*
X63507781Y-72785095D02*
X62507781Y-72785095D01*
X62507781Y-72404142D01*
X62555400Y-72308904D01*
X62603019Y-72261285D01*
X62698257Y-72213666D01*
X62841114Y-72213666D01*
X62936352Y-72261285D01*
X62983971Y-72308904D01*
X63031590Y-72404142D01*
X63031590Y-72785095D01*
X62507781Y-71880333D02*
X62507781Y-71261285D01*
X62888733Y-71594619D01*
X62888733Y-71451761D01*
X62936352Y-71356523D01*
X62983971Y-71308904D01*
X63079210Y-71261285D01*
X63317305Y-71261285D01*
X63412543Y-71308904D01*
X63460162Y-71356523D01*
X63507781Y-71451761D01*
X63507781Y-71737476D01*
X63460162Y-71832714D01*
X63412543Y-71880333D01*
X58739400Y-66264886D02*
X58489400Y-65907743D01*
X58310828Y-66264886D02*
X58310828Y-65514886D01*
X58596543Y-65514886D01*
X58667971Y-65550600D01*
X58703686Y-65586314D01*
X58739400Y-65657743D01*
X58739400Y-65764886D01*
X58703686Y-65836314D01*
X58667971Y-65872029D01*
X58596543Y-65907743D01*
X58310828Y-65907743D01*
X59453686Y-66264886D02*
X59025114Y-66264886D01*
X59239400Y-66264886D02*
X59239400Y-65514886D01*
X59167971Y-65622029D01*
X59096543Y-65693457D01*
X59025114Y-65729171D01*
X68772400Y-66214086D02*
X68522400Y-65856943D01*
X68343828Y-66214086D02*
X68343828Y-65464086D01*
X68629543Y-65464086D01*
X68700971Y-65499800D01*
X68736686Y-65535514D01*
X68772400Y-65606943D01*
X68772400Y-65714086D01*
X68736686Y-65785514D01*
X68700971Y-65821229D01*
X68629543Y-65856943D01*
X68343828Y-65856943D01*
X69058114Y-65535514D02*
X69093828Y-65499800D01*
X69165257Y-65464086D01*
X69343828Y-65464086D01*
X69415257Y-65499800D01*
X69450971Y-65535514D01*
X69486686Y-65606943D01*
X69486686Y-65678371D01*
X69450971Y-65785514D01*
X69022400Y-66214086D01*
X69486686Y-66214086D01*
X51754400Y-67915886D02*
X51504400Y-67558743D01*
X51325828Y-67915886D02*
X51325828Y-67165886D01*
X51611543Y-67165886D01*
X51682971Y-67201600D01*
X51718686Y-67237314D01*
X51754400Y-67308743D01*
X51754400Y-67415886D01*
X51718686Y-67487314D01*
X51682971Y-67523029D01*
X51611543Y-67558743D01*
X51325828Y-67558743D01*
X52004400Y-67165886D02*
X52468686Y-67165886D01*
X52218686Y-67451600D01*
X52325828Y-67451600D01*
X52397257Y-67487314D01*
X52432971Y-67523029D01*
X52468686Y-67594457D01*
X52468686Y-67773029D01*
X52432971Y-67844457D01*
X52397257Y-67880171D01*
X52325828Y-67915886D01*
X52111543Y-67915886D01*
X52040114Y-67880171D01*
X52004400Y-67844457D01*
X57393200Y-69439886D02*
X57143200Y-69082743D01*
X56964628Y-69439886D02*
X56964628Y-68689886D01*
X57250343Y-68689886D01*
X57321771Y-68725600D01*
X57357486Y-68761314D01*
X57393200Y-68832743D01*
X57393200Y-68939886D01*
X57357486Y-69011314D01*
X57321771Y-69047029D01*
X57250343Y-69082743D01*
X56964628Y-69082743D01*
X58036057Y-68939886D02*
X58036057Y-69439886D01*
X57857486Y-68654171D02*
X57678914Y-69189886D01*
X58143200Y-69189886D01*
X56946771Y-66556286D02*
X56946771Y-67163429D01*
X56982486Y-67234857D01*
X57018200Y-67270571D01*
X57089629Y-67306286D01*
X57232486Y-67306286D01*
X57303914Y-67270571D01*
X57339629Y-67234857D01*
X57375343Y-67163429D01*
X57375343Y-66556286D01*
X58125343Y-67306286D02*
X57696771Y-67306286D01*
X57911057Y-67306286D02*
X57911057Y-66556286D01*
X57839628Y-66663429D01*
X57768200Y-66734857D01*
X57696771Y-66770571D01*
X66928971Y-66556286D02*
X66928971Y-67163429D01*
X66964686Y-67234857D01*
X67000400Y-67270571D01*
X67071829Y-67306286D01*
X67214686Y-67306286D01*
X67286114Y-67270571D01*
X67321829Y-67234857D01*
X67357543Y-67163429D01*
X67357543Y-66556286D01*
X67678971Y-66627714D02*
X67714685Y-66592000D01*
X67786114Y-66556286D01*
X67964685Y-66556286D01*
X68036114Y-66592000D01*
X68071828Y-66627714D01*
X68107543Y-66699143D01*
X68107543Y-66770571D01*
X68071828Y-66877714D01*
X67643257Y-67306286D01*
X68107543Y-67306286D01*
X57853628Y-61794486D02*
X57853628Y-61044486D01*
X58032200Y-61044486D01*
X58139343Y-61080200D01*
X58210771Y-61151629D01*
X58246486Y-61223057D01*
X58282200Y-61365914D01*
X58282200Y-61473057D01*
X58246486Y-61615914D01*
X58210771Y-61687343D01*
X58139343Y-61758771D01*
X58032200Y-61794486D01*
X57853628Y-61794486D01*
X58996486Y-61794486D02*
X58567914Y-61794486D01*
X58782200Y-61794486D02*
X58782200Y-61044486D01*
X58710771Y-61151629D01*
X58639343Y-61223057D01*
X58567914Y-61258771D01*
X67835828Y-61743686D02*
X67835828Y-60993686D01*
X68014400Y-60993686D01*
X68121543Y-61029400D01*
X68192971Y-61100829D01*
X68228686Y-61172257D01*
X68264400Y-61315114D01*
X68264400Y-61422257D01*
X68228686Y-61565114D01*
X68192971Y-61636543D01*
X68121543Y-61707971D01*
X68014400Y-61743686D01*
X67835828Y-61743686D01*
X68550114Y-61065114D02*
X68585828Y-61029400D01*
X68657257Y-60993686D01*
X68835828Y-60993686D01*
X68907257Y-61029400D01*
X68942971Y-61065114D01*
X68978686Y-61136543D01*
X68978686Y-61207971D01*
X68942971Y-61315114D01*
X68514400Y-61743686D01*
X68978686Y-61743686D01*
M02*
