G04 #@! TF.FileFunction,Legend,Bot*
%FSLAX46Y46*%
G04 Gerber Fmt 4.6, Leading zero omitted, Abs format (unit mm)*
G04 Created by KiCad (PCBNEW 4.0.2-stable) date 9/5/2017 9:47:41 PM*
%MOMM*%
G01*
G04 APERTURE LIST*
%ADD10C,0.100000*%
%ADD11C,0.150000*%
%ADD12C,0.010000*%
G04 APERTURE END LIST*
D10*
D11*
X63545453Y-55544881D02*
X64021644Y-55544881D01*
X64021644Y-54544881D01*
X63212120Y-55021071D02*
X62878786Y-55021071D01*
X62735929Y-55544881D02*
X63212120Y-55544881D01*
X63212120Y-54544881D01*
X62735929Y-54544881D01*
X62307358Y-55544881D02*
X62307358Y-54544881D01*
X62069263Y-54544881D01*
X61926405Y-54592500D01*
X61831167Y-54687738D01*
X61783548Y-54782976D01*
X61735929Y-54973452D01*
X61735929Y-55116310D01*
X61783548Y-55306786D01*
X61831167Y-55402024D01*
X61926405Y-55497262D01*
X62069263Y-55544881D01*
X62307358Y-55544881D01*
X60354977Y-54544881D02*
X60164500Y-54544881D01*
X60069262Y-54592500D01*
X59974024Y-54687738D01*
X59926405Y-54878214D01*
X59926405Y-55211548D01*
X59974024Y-55402024D01*
X60069262Y-55497262D01*
X60164500Y-55544881D01*
X60354977Y-55544881D01*
X60450215Y-55497262D01*
X60545453Y-55402024D01*
X60593072Y-55211548D01*
X60593072Y-54878214D01*
X60545453Y-54687738D01*
X60450215Y-54592500D01*
X60354977Y-54544881D01*
X59069262Y-54878214D02*
X59069262Y-55544881D01*
X59497834Y-54878214D02*
X59497834Y-55402024D01*
X59450215Y-55497262D01*
X59354977Y-55544881D01*
X59212119Y-55544881D01*
X59116881Y-55497262D01*
X59069262Y-55449643D01*
X58735929Y-54878214D02*
X58354977Y-54878214D01*
X58593072Y-54544881D02*
X58593072Y-55402024D01*
X58545453Y-55497262D01*
X58450215Y-55544881D01*
X58354977Y-55544881D01*
X58021643Y-54878214D02*
X58021643Y-55878214D01*
X58021643Y-54925833D02*
X57926405Y-54878214D01*
X57735928Y-54878214D01*
X57640690Y-54925833D01*
X57593071Y-54973452D01*
X57545452Y-55068690D01*
X57545452Y-55354405D01*
X57593071Y-55449643D01*
X57640690Y-55497262D01*
X57735928Y-55544881D01*
X57926405Y-55544881D01*
X58021643Y-55497262D01*
X56688309Y-54878214D02*
X56688309Y-55544881D01*
X57116881Y-54878214D02*
X57116881Y-55402024D01*
X57069262Y-55497262D01*
X56974024Y-55544881D01*
X56831166Y-55544881D01*
X56735928Y-55497262D01*
X56688309Y-55449643D01*
X56354976Y-54878214D02*
X55974024Y-54878214D01*
X56212119Y-54544881D02*
X56212119Y-55402024D01*
X56164500Y-55497262D01*
X56069262Y-55544881D01*
X55974024Y-55544881D01*
X55688309Y-55497262D02*
X55593071Y-55544881D01*
X55402595Y-55544881D01*
X55307356Y-55497262D01*
X55259737Y-55402024D01*
X55259737Y-55354405D01*
X55307356Y-55259167D01*
X55402595Y-55211548D01*
X55545452Y-55211548D01*
X55640690Y-55163929D01*
X55688309Y-55068690D01*
X55688309Y-55021071D01*
X55640690Y-54925833D01*
X55545452Y-54878214D01*
X55402595Y-54878214D01*
X55307356Y-54925833D01*
X57068643Y-68816381D02*
X57068643Y-67816381D01*
X56830548Y-67816381D01*
X56687690Y-67864000D01*
X56592452Y-67959238D01*
X56544833Y-68054476D01*
X56497214Y-68244952D01*
X56497214Y-68387810D01*
X56544833Y-68578286D01*
X56592452Y-68673524D01*
X56687690Y-68768762D01*
X56830548Y-68816381D01*
X57068643Y-68816381D01*
X56068643Y-68816381D02*
X56068643Y-67816381D01*
X55592453Y-68816381D02*
X55592453Y-67816381D01*
X55259119Y-68530667D01*
X54925786Y-67816381D01*
X54925786Y-68816381D01*
X53211500Y-67816381D02*
X53687691Y-67816381D01*
X53735310Y-68292571D01*
X53687691Y-68244952D01*
X53592453Y-68197333D01*
X53354357Y-68197333D01*
X53259119Y-68244952D01*
X53211500Y-68292571D01*
X53163881Y-68387810D01*
X53163881Y-68625905D01*
X53211500Y-68721143D01*
X53259119Y-68768762D01*
X53354357Y-68816381D01*
X53592453Y-68816381D01*
X53687691Y-68768762D01*
X53735310Y-68721143D01*
X52878167Y-67816381D02*
X52544834Y-68816381D01*
X52211500Y-67816381D01*
X51822285Y-70340381D02*
X52393714Y-70340381D01*
X52108000Y-70340381D02*
X52108000Y-69340381D01*
X52203238Y-69483238D01*
X52298476Y-69578476D01*
X52393714Y-69626095D01*
X54933714Y-69435619D02*
X54886095Y-69388000D01*
X54790857Y-69340381D01*
X54552761Y-69340381D01*
X54457523Y-69388000D01*
X54409904Y-69435619D01*
X54362285Y-69530857D01*
X54362285Y-69626095D01*
X54409904Y-69768952D01*
X54981333Y-70340381D01*
X54362285Y-70340381D01*
X56989595Y-69388000D02*
X57084833Y-69340381D01*
X57227690Y-69340381D01*
X57370548Y-69388000D01*
X57465786Y-69483238D01*
X57513405Y-69578476D01*
X57561024Y-69768952D01*
X57561024Y-69911810D01*
X57513405Y-70102286D01*
X57465786Y-70197524D01*
X57370548Y-70292762D01*
X57227690Y-70340381D01*
X57132452Y-70340381D01*
X56989595Y-70292762D01*
X56941976Y-70245143D01*
X56941976Y-69911810D01*
X57132452Y-69911810D01*
X68982810Y-68879881D02*
X68982810Y-67879881D01*
X68744715Y-67879881D01*
X68601857Y-67927500D01*
X68506619Y-68022738D01*
X68459000Y-68117976D01*
X68411381Y-68308452D01*
X68411381Y-68451310D01*
X68459000Y-68641786D01*
X68506619Y-68737024D01*
X68601857Y-68832262D01*
X68744715Y-68879881D01*
X68982810Y-68879881D01*
X67411381Y-68784643D02*
X67459000Y-68832262D01*
X67601857Y-68879881D01*
X67697095Y-68879881D01*
X67839953Y-68832262D01*
X67935191Y-68737024D01*
X67982810Y-68641786D01*
X68030429Y-68451310D01*
X68030429Y-68308452D01*
X67982810Y-68117976D01*
X67935191Y-68022738D01*
X67839953Y-67927500D01*
X67697095Y-67879881D01*
X67601857Y-67879881D01*
X67459000Y-67927500D01*
X67411381Y-67975119D01*
X66316143Y-67879881D02*
X65697095Y-67879881D01*
X66030429Y-68260833D01*
X65887571Y-68260833D01*
X65792333Y-68308452D01*
X65744714Y-68356071D01*
X65697095Y-68451310D01*
X65697095Y-68689405D01*
X65744714Y-68784643D01*
X65792333Y-68832262D01*
X65887571Y-68879881D01*
X66173286Y-68879881D01*
X66268524Y-68832262D01*
X66316143Y-68784643D01*
X64792333Y-67879881D02*
X65268524Y-67879881D01*
X65316143Y-68356071D01*
X65268524Y-68308452D01*
X65173286Y-68260833D01*
X64935190Y-68260833D01*
X64839952Y-68308452D01*
X64792333Y-68356071D01*
X64744714Y-68451310D01*
X64744714Y-68689405D01*
X64792333Y-68784643D01*
X64839952Y-68832262D01*
X64935190Y-68879881D01*
X65173286Y-68879881D01*
X65268524Y-68832262D01*
X65316143Y-68784643D01*
X64459000Y-67879881D02*
X64125667Y-68879881D01*
X63792333Y-67879881D01*
X67982952Y-69832429D02*
X67221047Y-69832429D01*
X67601999Y-70213381D02*
X67601999Y-69451476D01*
X65379452Y-69768929D02*
X64617547Y-69768929D01*
X63918952Y-53703429D02*
X63157047Y-53703429D01*
X61315452Y-53830429D02*
X60553547Y-53830429D01*
X60934499Y-54211381D02*
X60934499Y-53449476D01*
X58838952Y-53766929D02*
X58077047Y-53766929D01*
X58457999Y-54147881D02*
X58457999Y-53385976D01*
X56298952Y-53703429D02*
X55537047Y-53703429D01*
X68688358Y-59024381D02*
X68688358Y-58024381D01*
X68307405Y-58024381D01*
X68212167Y-58072000D01*
X68164548Y-58119619D01*
X68116929Y-58214857D01*
X68116929Y-58357714D01*
X68164548Y-58452952D01*
X68212167Y-58500571D01*
X68307405Y-58548190D01*
X68688358Y-58548190D01*
X67831215Y-58024381D02*
X67259786Y-58024381D01*
X67545501Y-59024381D02*
X67545501Y-58024381D01*
X66497881Y-58357714D02*
X66497881Y-59024381D01*
X66735977Y-57976762D02*
X66974072Y-58691048D01*
X66355024Y-58691048D01*
X65450262Y-59024381D02*
X66021691Y-59024381D01*
X65735977Y-59024381D02*
X65735977Y-58024381D01*
X65831215Y-58167238D01*
X65926453Y-58262476D01*
X66021691Y-58310095D01*
X64497881Y-59024381D02*
X65069310Y-59024381D01*
X64783596Y-59024381D02*
X64783596Y-58024381D01*
X64878834Y-58167238D01*
X64974072Y-58262476D01*
X65069310Y-58310095D01*
X63593119Y-58024381D02*
X64069310Y-58024381D01*
X64116929Y-58500571D01*
X64069310Y-58452952D01*
X63974072Y-58405333D01*
X63735976Y-58405333D01*
X63640738Y-58452952D01*
X63593119Y-58500571D01*
X63545500Y-58595810D01*
X63545500Y-58833905D01*
X63593119Y-58929143D01*
X63640738Y-58976762D01*
X63735976Y-59024381D01*
X63974072Y-59024381D01*
X64069310Y-58976762D01*
X64116929Y-58929143D01*
X62402643Y-58119619D02*
X62355024Y-58072000D01*
X62259786Y-58024381D01*
X62021690Y-58024381D01*
X61926452Y-58072000D01*
X61878833Y-58119619D01*
X61831214Y-58214857D01*
X61831214Y-58310095D01*
X61878833Y-58452952D01*
X62450262Y-59024381D01*
X61831214Y-59024381D01*
X60831214Y-58929143D02*
X60878833Y-58976762D01*
X61021690Y-59024381D01*
X61116928Y-59024381D01*
X61259786Y-58976762D01*
X61355024Y-58881524D01*
X61402643Y-58786286D01*
X61450262Y-58595810D01*
X61450262Y-58452952D01*
X61402643Y-58262476D01*
X61355024Y-58167238D01*
X61259786Y-58072000D01*
X61116928Y-58024381D01*
X61021690Y-58024381D01*
X60878833Y-58072000D01*
X60831214Y-58119619D01*
X60402643Y-59024381D02*
X60402643Y-58024381D01*
X59974071Y-59024381D02*
X59974071Y-58500571D01*
X60021690Y-58405333D01*
X60116928Y-58357714D01*
X60259786Y-58357714D01*
X60355024Y-58405333D01*
X60402643Y-58452952D01*
X58259785Y-59024381D02*
X58735976Y-59024381D01*
X58735976Y-58024381D01*
X57926452Y-58500571D02*
X57593118Y-58500571D01*
X57450261Y-59024381D02*
X57926452Y-59024381D01*
X57926452Y-58024381D01*
X57450261Y-58024381D01*
X57021690Y-59024381D02*
X57021690Y-58024381D01*
X56783595Y-58024381D01*
X56640737Y-58072000D01*
X56545499Y-58167238D01*
X56497880Y-58262476D01*
X56450261Y-58452952D01*
X56450261Y-58595810D01*
X56497880Y-58786286D01*
X56545499Y-58881524D01*
X56640737Y-58976762D01*
X56783595Y-59024381D01*
X57021690Y-59024381D01*
X55259785Y-59024381D02*
X55259785Y-58024381D01*
X55021690Y-58024381D01*
X54878832Y-58072000D01*
X54783594Y-58167238D01*
X54735975Y-58262476D01*
X54688356Y-58452952D01*
X54688356Y-58595810D01*
X54735975Y-58786286D01*
X54783594Y-58881524D01*
X54878832Y-58976762D01*
X55021690Y-59024381D01*
X55259785Y-59024381D01*
X54259785Y-59024381D02*
X54259785Y-58357714D01*
X54259785Y-58548190D02*
X54212166Y-58452952D01*
X54164547Y-58405333D01*
X54069309Y-58357714D01*
X53974070Y-58357714D01*
X53640737Y-59024381D02*
X53640737Y-58357714D01*
X53640737Y-58024381D02*
X53688356Y-58072000D01*
X53640737Y-58119619D01*
X53593118Y-58072000D01*
X53640737Y-58024381D01*
X53640737Y-58119619D01*
X53259785Y-58357714D02*
X53021690Y-59024381D01*
X52783594Y-58357714D01*
X52021689Y-58976762D02*
X52116927Y-59024381D01*
X52307404Y-59024381D01*
X52402642Y-58976762D01*
X52450261Y-58881524D01*
X52450261Y-58500571D01*
X52402642Y-58405333D01*
X52307404Y-58357714D01*
X52116927Y-58357714D01*
X52021689Y-58405333D01*
X51974070Y-58500571D01*
X51974070Y-58595810D01*
X52450261Y-58691048D01*
X51545499Y-59024381D02*
X51545499Y-58357714D01*
X51545499Y-58548190D02*
X51497880Y-58452952D01*
X51450261Y-58405333D01*
X51355023Y-58357714D01*
X51259784Y-58357714D01*
X65140738Y-59907714D02*
X64902643Y-60574381D01*
X64664547Y-59907714D01*
X63759785Y-60574381D02*
X64331214Y-60574381D01*
X64045500Y-60574381D02*
X64045500Y-59574381D01*
X64140738Y-59717238D01*
X64235976Y-59812476D01*
X64331214Y-59860095D01*
X63331214Y-60479143D02*
X63283595Y-60526762D01*
X63331214Y-60574381D01*
X63378833Y-60526762D01*
X63331214Y-60479143D01*
X63331214Y-60574381D01*
X62664548Y-59574381D02*
X62569309Y-59574381D01*
X62474071Y-59622000D01*
X62426452Y-59669619D01*
X62378833Y-59764857D01*
X62331214Y-59955333D01*
X62331214Y-60193429D01*
X62378833Y-60383905D01*
X62426452Y-60479143D01*
X62474071Y-60526762D01*
X62569309Y-60574381D01*
X62664548Y-60574381D01*
X62759786Y-60526762D01*
X62807405Y-60479143D01*
X62855024Y-60383905D01*
X62902643Y-60193429D01*
X62902643Y-59955333D01*
X62855024Y-59764857D01*
X62807405Y-59669619D01*
X62759786Y-59622000D01*
X62664548Y-59574381D01*
X60807404Y-60050571D02*
X60664547Y-60098190D01*
X60616928Y-60145810D01*
X60569309Y-60241048D01*
X60569309Y-60383905D01*
X60616928Y-60479143D01*
X60664547Y-60526762D01*
X60759785Y-60574381D01*
X61140738Y-60574381D01*
X61140738Y-59574381D01*
X60807404Y-59574381D01*
X60712166Y-59622000D01*
X60664547Y-59669619D01*
X60616928Y-59764857D01*
X60616928Y-59860095D01*
X60664547Y-59955333D01*
X60712166Y-60002952D01*
X60807404Y-60050571D01*
X61140738Y-60050571D01*
X60140738Y-60574381D02*
X60140738Y-59574381D01*
X59569309Y-60574381D02*
X59997881Y-60002952D01*
X59569309Y-59574381D02*
X60140738Y-60145810D01*
X58426452Y-59669619D02*
X58378833Y-59622000D01*
X58283595Y-59574381D01*
X58045499Y-59574381D01*
X57950261Y-59622000D01*
X57902642Y-59669619D01*
X57855023Y-59764857D01*
X57855023Y-59860095D01*
X57902642Y-60002952D01*
X58474071Y-60574381D01*
X57855023Y-60574381D01*
X57235976Y-59574381D02*
X57140737Y-59574381D01*
X57045499Y-59622000D01*
X56997880Y-59669619D01*
X56950261Y-59764857D01*
X56902642Y-59955333D01*
X56902642Y-60193429D01*
X56950261Y-60383905D01*
X56997880Y-60479143D01*
X57045499Y-60526762D01*
X57140737Y-60574381D01*
X57235976Y-60574381D01*
X57331214Y-60526762D01*
X57378833Y-60479143D01*
X57426452Y-60383905D01*
X57474071Y-60193429D01*
X57474071Y-59955333D01*
X57426452Y-59764857D01*
X57378833Y-59669619D01*
X57331214Y-59622000D01*
X57235976Y-59574381D01*
X55950261Y-60574381D02*
X56521690Y-60574381D01*
X56235976Y-60574381D02*
X56235976Y-59574381D01*
X56331214Y-59717238D01*
X56426452Y-59812476D01*
X56521690Y-59860095D01*
X55616928Y-59574381D02*
X54950261Y-59574381D01*
X55378833Y-60574381D01*
D12*
G36*
X62928371Y-65997566D02*
X62888889Y-65997967D01*
X62773200Y-66000759D01*
X62676311Y-66009050D01*
X62594919Y-66023732D01*
X62525723Y-66045693D01*
X62465420Y-66075822D01*
X62410708Y-66115010D01*
X62391167Y-66132032D01*
X62358750Y-66171863D01*
X62329520Y-66225913D01*
X62306991Y-66285823D01*
X62294679Y-66343239D01*
X62293400Y-66364456D01*
X62301417Y-66423269D01*
X62322899Y-66487513D01*
X62353999Y-66548321D01*
X62390866Y-66596830D01*
X62396854Y-66602682D01*
X62447579Y-66643821D01*
X62503125Y-66675935D01*
X62566696Y-66699865D01*
X62641494Y-66716453D01*
X62730722Y-66726541D01*
X62837582Y-66730969D01*
X62886528Y-66731345D01*
X62948762Y-66731045D01*
X62992528Y-66729792D01*
X63021931Y-66727054D01*
X63041079Y-66722301D01*
X63054077Y-66715001D01*
X63061045Y-66708767D01*
X63067626Y-66701194D01*
X63072788Y-66691424D01*
X63076703Y-66676840D01*
X63079543Y-66654826D01*
X63081480Y-66622764D01*
X63082684Y-66578036D01*
X63083328Y-66518026D01*
X63083583Y-66440117D01*
X63083622Y-66364456D01*
X63083870Y-66263541D01*
X63083817Y-66182927D01*
X63082857Y-66144322D01*
X62936867Y-66144322D01*
X62936867Y-66584589D01*
X62843734Y-66584504D01*
X62787693Y-66582896D01*
X62728999Y-66578756D01*
X62680028Y-66572964D01*
X62678538Y-66572726D01*
X62599392Y-66553590D01*
X62538002Y-66523787D01*
X62491305Y-66481378D01*
X62461635Y-66435461D01*
X62443353Y-66384526D01*
X62444771Y-66336700D01*
X62465988Y-66285433D01*
X62507489Y-66232399D01*
X62564998Y-66193100D01*
X62639750Y-66166831D01*
X62689708Y-66157535D01*
X62746416Y-66151007D01*
X62806519Y-66146282D01*
X62857639Y-66144317D01*
X62860667Y-66144308D01*
X62936867Y-66144322D01*
X63082857Y-66144322D01*
X63082260Y-66120351D01*
X63077998Y-66073555D01*
X63069830Y-66040278D01*
X63056556Y-66018259D01*
X63036974Y-66005239D01*
X63009883Y-65998957D01*
X62974082Y-65997153D01*
X62928371Y-65997566D01*
X62928371Y-65997566D01*
G37*
X62928371Y-65997566D02*
X62888889Y-65997967D01*
X62773200Y-66000759D01*
X62676311Y-66009050D01*
X62594919Y-66023732D01*
X62525723Y-66045693D01*
X62465420Y-66075822D01*
X62410708Y-66115010D01*
X62391167Y-66132032D01*
X62358750Y-66171863D01*
X62329520Y-66225913D01*
X62306991Y-66285823D01*
X62294679Y-66343239D01*
X62293400Y-66364456D01*
X62301417Y-66423269D01*
X62322899Y-66487513D01*
X62353999Y-66548321D01*
X62390866Y-66596830D01*
X62396854Y-66602682D01*
X62447579Y-66643821D01*
X62503125Y-66675935D01*
X62566696Y-66699865D01*
X62641494Y-66716453D01*
X62730722Y-66726541D01*
X62837582Y-66730969D01*
X62886528Y-66731345D01*
X62948762Y-66731045D01*
X62992528Y-66729792D01*
X63021931Y-66727054D01*
X63041079Y-66722301D01*
X63054077Y-66715001D01*
X63061045Y-66708767D01*
X63067626Y-66701194D01*
X63072788Y-66691424D01*
X63076703Y-66676840D01*
X63079543Y-66654826D01*
X63081480Y-66622764D01*
X63082684Y-66578036D01*
X63083328Y-66518026D01*
X63083583Y-66440117D01*
X63083622Y-66364456D01*
X63083870Y-66263541D01*
X63083817Y-66182927D01*
X63082857Y-66144322D01*
X62936867Y-66144322D01*
X62936867Y-66584589D01*
X62843734Y-66584504D01*
X62787693Y-66582896D01*
X62728999Y-66578756D01*
X62680028Y-66572964D01*
X62678538Y-66572726D01*
X62599392Y-66553590D01*
X62538002Y-66523787D01*
X62491305Y-66481378D01*
X62461635Y-66435461D01*
X62443353Y-66384526D01*
X62444771Y-66336700D01*
X62465988Y-66285433D01*
X62507489Y-66232399D01*
X62564998Y-66193100D01*
X62639750Y-66166831D01*
X62689708Y-66157535D01*
X62746416Y-66151007D01*
X62806519Y-66146282D01*
X62857639Y-66144317D01*
X62860667Y-66144308D01*
X62936867Y-66144322D01*
X63082857Y-66144322D01*
X63082260Y-66120351D01*
X63077998Y-66073555D01*
X63069830Y-66040278D01*
X63056556Y-66018259D01*
X63036974Y-66005239D01*
X63009883Y-65998957D01*
X62974082Y-65997153D01*
X62928371Y-65997566D01*
G36*
X61519794Y-65997646D02*
X61450386Y-65998018D01*
X61397997Y-65998885D01*
X61359847Y-66000446D01*
X61333159Y-66002903D01*
X61315153Y-66006457D01*
X61303049Y-66011310D01*
X61294069Y-66017661D01*
X61290818Y-66020584D01*
X61271043Y-66051642D01*
X61267482Y-66087328D01*
X61280491Y-66119010D01*
X61286506Y-66125413D01*
X61296235Y-66131621D01*
X61311901Y-66136410D01*
X61336408Y-66140014D01*
X61372661Y-66142664D01*
X61423565Y-66144595D01*
X61492026Y-66146039D01*
X61554617Y-66146918D01*
X61802334Y-66149967D01*
X61805719Y-66214878D01*
X61809105Y-66279789D01*
X61640958Y-66279789D01*
X61567959Y-66280419D01*
X61514517Y-66283053D01*
X61477628Y-66288809D01*
X61454288Y-66298804D01*
X61441494Y-66314156D01*
X61436242Y-66335982D01*
X61435445Y-66356238D01*
X61437923Y-66381092D01*
X61447277Y-66399406D01*
X61466383Y-66412137D01*
X61498118Y-66420241D01*
X61545359Y-66424676D01*
X61610983Y-66426399D01*
X61646801Y-66426545D01*
X61807978Y-66426545D01*
X61807978Y-66584589D01*
X61559622Y-66584589D01*
X61478213Y-66584702D01*
X61416342Y-66585212D01*
X61370968Y-66586370D01*
X61339054Y-66588430D01*
X61317559Y-66591646D01*
X61303443Y-66596272D01*
X61293668Y-66602559D01*
X61288689Y-66607167D01*
X61271610Y-66634060D01*
X61266111Y-66657967D01*
X61273963Y-66687167D01*
X61288689Y-66708767D01*
X61296546Y-66715566D01*
X61306688Y-66720846D01*
X61321844Y-66724798D01*
X61344741Y-66727613D01*
X61378109Y-66729482D01*
X61424675Y-66730598D01*
X61487167Y-66731151D01*
X61568314Y-66731333D01*
X61610422Y-66731345D01*
X61700598Y-66731265D01*
X61770924Y-66730898D01*
X61824129Y-66730052D01*
X61862940Y-66728536D01*
X61890087Y-66726159D01*
X61908298Y-66722729D01*
X61920300Y-66718054D01*
X61928822Y-66711944D01*
X61932156Y-66708767D01*
X61938755Y-66701170D01*
X61943927Y-66691370D01*
X61947846Y-66676739D01*
X61950684Y-66654652D01*
X61952615Y-66622482D01*
X61953812Y-66577603D01*
X61954448Y-66517389D01*
X61954697Y-66439213D01*
X61954734Y-66366423D01*
X61954700Y-66273207D01*
X61954465Y-66199931D01*
X61953830Y-66143958D01*
X61952594Y-66102651D01*
X61950556Y-66073372D01*
X61947517Y-66053484D01*
X61943277Y-66040350D01*
X61937635Y-66031332D01*
X61930391Y-66023793D01*
X61928606Y-66022112D01*
X61919945Y-66014672D01*
X61909882Y-66008909D01*
X61895625Y-66004612D01*
X61874383Y-66001564D01*
X61843364Y-65999551D01*
X61799777Y-65998360D01*
X61740831Y-65997775D01*
X61663734Y-65997583D01*
X61609001Y-65997567D01*
X61519794Y-65997646D01*
X61519794Y-65997646D01*
G37*
X61519794Y-65997646D02*
X61450386Y-65998018D01*
X61397997Y-65998885D01*
X61359847Y-66000446D01*
X61333159Y-66002903D01*
X61315153Y-66006457D01*
X61303049Y-66011310D01*
X61294069Y-66017661D01*
X61290818Y-66020584D01*
X61271043Y-66051642D01*
X61267482Y-66087328D01*
X61280491Y-66119010D01*
X61286506Y-66125413D01*
X61296235Y-66131621D01*
X61311901Y-66136410D01*
X61336408Y-66140014D01*
X61372661Y-66142664D01*
X61423565Y-66144595D01*
X61492026Y-66146039D01*
X61554617Y-66146918D01*
X61802334Y-66149967D01*
X61805719Y-66214878D01*
X61809105Y-66279789D01*
X61640958Y-66279789D01*
X61567959Y-66280419D01*
X61514517Y-66283053D01*
X61477628Y-66288809D01*
X61454288Y-66298804D01*
X61441494Y-66314156D01*
X61436242Y-66335982D01*
X61435445Y-66356238D01*
X61437923Y-66381092D01*
X61447277Y-66399406D01*
X61466383Y-66412137D01*
X61498118Y-66420241D01*
X61545359Y-66424676D01*
X61610983Y-66426399D01*
X61646801Y-66426545D01*
X61807978Y-66426545D01*
X61807978Y-66584589D01*
X61559622Y-66584589D01*
X61478213Y-66584702D01*
X61416342Y-66585212D01*
X61370968Y-66586370D01*
X61339054Y-66588430D01*
X61317559Y-66591646D01*
X61303443Y-66596272D01*
X61293668Y-66602559D01*
X61288689Y-66607167D01*
X61271610Y-66634060D01*
X61266111Y-66657967D01*
X61273963Y-66687167D01*
X61288689Y-66708767D01*
X61296546Y-66715566D01*
X61306688Y-66720846D01*
X61321844Y-66724798D01*
X61344741Y-66727613D01*
X61378109Y-66729482D01*
X61424675Y-66730598D01*
X61487167Y-66731151D01*
X61568314Y-66731333D01*
X61610422Y-66731345D01*
X61700598Y-66731265D01*
X61770924Y-66730898D01*
X61824129Y-66730052D01*
X61862940Y-66728536D01*
X61890087Y-66726159D01*
X61908298Y-66722729D01*
X61920300Y-66718054D01*
X61928822Y-66711944D01*
X61932156Y-66708767D01*
X61938755Y-66701170D01*
X61943927Y-66691370D01*
X61947846Y-66676739D01*
X61950684Y-66654652D01*
X61952615Y-66622482D01*
X61953812Y-66577603D01*
X61954448Y-66517389D01*
X61954697Y-66439213D01*
X61954734Y-66366423D01*
X61954700Y-66273207D01*
X61954465Y-66199931D01*
X61953830Y-66143958D01*
X61952594Y-66102651D01*
X61950556Y-66073372D01*
X61947517Y-66053484D01*
X61943277Y-66040350D01*
X61937635Y-66031332D01*
X61930391Y-66023793D01*
X61928606Y-66022112D01*
X61919945Y-66014672D01*
X61909882Y-66008909D01*
X61895625Y-66004612D01*
X61874383Y-66001564D01*
X61843364Y-65999551D01*
X61799777Y-65998360D01*
X61740831Y-65997775D01*
X61663734Y-65997583D01*
X61609001Y-65997567D01*
X61519794Y-65997646D01*
G36*
X60498703Y-65998851D02*
X60423888Y-66004081D01*
X60354306Y-66012250D01*
X60294002Y-66023050D01*
X60247020Y-66036173D01*
X60217406Y-66051313D01*
X60212860Y-66055769D01*
X60197054Y-66090350D01*
X60201847Y-66125851D01*
X60226364Y-66156225D01*
X60227534Y-66157096D01*
X60241954Y-66166454D01*
X60257008Y-66171376D01*
X60278005Y-66171973D01*
X60310257Y-66168361D01*
X60359073Y-66160654D01*
X60363000Y-66160005D01*
X60435739Y-66151069D01*
X60514217Y-66146661D01*
X60592927Y-66146619D01*
X60666361Y-66150779D01*
X60729011Y-66158979D01*
X60775370Y-66171057D01*
X60778416Y-66172271D01*
X60812048Y-66191115D01*
X60823864Y-66210185D01*
X60814614Y-66228939D01*
X60785047Y-66246837D01*
X60735911Y-66263337D01*
X60667957Y-66277896D01*
X60622645Y-66284906D01*
X60528456Y-66298389D01*
X60453544Y-66310714D01*
X60394717Y-66322949D01*
X60348785Y-66336161D01*
X60312555Y-66351417D01*
X60282838Y-66369785D01*
X60256442Y-66392331D01*
X60235230Y-66414471D01*
X60210065Y-66445319D01*
X60197681Y-66471845D01*
X60193808Y-66504526D01*
X60193667Y-66516495D01*
X60196576Y-66556212D01*
X60208202Y-66585759D01*
X60228323Y-66611986D01*
X60269216Y-66652076D01*
X60314817Y-66682649D01*
X60368513Y-66704703D01*
X60433692Y-66719235D01*
X60513744Y-66727241D01*
X60612057Y-66729718D01*
X60628289Y-66729677D01*
X60693849Y-66728318D01*
X60758866Y-66725230D01*
X60816252Y-66720856D01*
X60858922Y-66715640D01*
X60862372Y-66715041D01*
X60904796Y-66704991D01*
X60940780Y-66692296D01*
X60961150Y-66680690D01*
X60980107Y-66650072D01*
X60981427Y-66614418D01*
X60965085Y-66582644D01*
X60961429Y-66579051D01*
X60946315Y-66568376D01*
X60927415Y-66563776D01*
X60898162Y-66564559D01*
X60862651Y-66568627D01*
X60822970Y-66572262D01*
X60767345Y-66575328D01*
X60702406Y-66577553D01*
X60634785Y-66578664D01*
X60617000Y-66578737D01*
X60549128Y-66578464D01*
X60499454Y-66577146D01*
X60463610Y-66574327D01*
X60437224Y-66569550D01*
X60415926Y-66562357D01*
X60403126Y-66556367D01*
X60375000Y-66539733D01*
X60357068Y-66524668D01*
X60354447Y-66520397D01*
X60359976Y-66502763D01*
X60386260Y-66485692D01*
X60431478Y-66469958D01*
X60493808Y-66456338D01*
X60512171Y-66453304D01*
X60608090Y-66438238D01*
X60684641Y-66425646D01*
X60744780Y-66414611D01*
X60791460Y-66404220D01*
X60827637Y-66393556D01*
X60856265Y-66381705D01*
X60880298Y-66367751D01*
X60902692Y-66350781D01*
X60926402Y-66329878D01*
X60934380Y-66322549D01*
X60962353Y-66295199D01*
X60977160Y-66273529D01*
X60982952Y-66248732D01*
X60983889Y-66217483D01*
X60973575Y-66156205D01*
X60942752Y-66104140D01*
X60891595Y-66061458D01*
X60820283Y-66028325D01*
X60769400Y-66013464D01*
X60714100Y-66003866D01*
X60647853Y-65998436D01*
X60574706Y-65996867D01*
X60498703Y-65998851D01*
X60498703Y-65998851D01*
G37*
X60498703Y-65998851D02*
X60423888Y-66004081D01*
X60354306Y-66012250D01*
X60294002Y-66023050D01*
X60247020Y-66036173D01*
X60217406Y-66051313D01*
X60212860Y-66055769D01*
X60197054Y-66090350D01*
X60201847Y-66125851D01*
X60226364Y-66156225D01*
X60227534Y-66157096D01*
X60241954Y-66166454D01*
X60257008Y-66171376D01*
X60278005Y-66171973D01*
X60310257Y-66168361D01*
X60359073Y-66160654D01*
X60363000Y-66160005D01*
X60435739Y-66151069D01*
X60514217Y-66146661D01*
X60592927Y-66146619D01*
X60666361Y-66150779D01*
X60729011Y-66158979D01*
X60775370Y-66171057D01*
X60778416Y-66172271D01*
X60812048Y-66191115D01*
X60823864Y-66210185D01*
X60814614Y-66228939D01*
X60785047Y-66246837D01*
X60735911Y-66263337D01*
X60667957Y-66277896D01*
X60622645Y-66284906D01*
X60528456Y-66298389D01*
X60453544Y-66310714D01*
X60394717Y-66322949D01*
X60348785Y-66336161D01*
X60312555Y-66351417D01*
X60282838Y-66369785D01*
X60256442Y-66392331D01*
X60235230Y-66414471D01*
X60210065Y-66445319D01*
X60197681Y-66471845D01*
X60193808Y-66504526D01*
X60193667Y-66516495D01*
X60196576Y-66556212D01*
X60208202Y-66585759D01*
X60228323Y-66611986D01*
X60269216Y-66652076D01*
X60314817Y-66682649D01*
X60368513Y-66704703D01*
X60433692Y-66719235D01*
X60513744Y-66727241D01*
X60612057Y-66729718D01*
X60628289Y-66729677D01*
X60693849Y-66728318D01*
X60758866Y-66725230D01*
X60816252Y-66720856D01*
X60858922Y-66715640D01*
X60862372Y-66715041D01*
X60904796Y-66704991D01*
X60940780Y-66692296D01*
X60961150Y-66680690D01*
X60980107Y-66650072D01*
X60981427Y-66614418D01*
X60965085Y-66582644D01*
X60961429Y-66579051D01*
X60946315Y-66568376D01*
X60927415Y-66563776D01*
X60898162Y-66564559D01*
X60862651Y-66568627D01*
X60822970Y-66572262D01*
X60767345Y-66575328D01*
X60702406Y-66577553D01*
X60634785Y-66578664D01*
X60617000Y-66578737D01*
X60549128Y-66578464D01*
X60499454Y-66577146D01*
X60463610Y-66574327D01*
X60437224Y-66569550D01*
X60415926Y-66562357D01*
X60403126Y-66556367D01*
X60375000Y-66539733D01*
X60357068Y-66524668D01*
X60354447Y-66520397D01*
X60359976Y-66502763D01*
X60386260Y-66485692D01*
X60431478Y-66469958D01*
X60493808Y-66456338D01*
X60512171Y-66453304D01*
X60608090Y-66438238D01*
X60684641Y-66425646D01*
X60744780Y-66414611D01*
X60791460Y-66404220D01*
X60827637Y-66393556D01*
X60856265Y-66381705D01*
X60880298Y-66367751D01*
X60902692Y-66350781D01*
X60926402Y-66329878D01*
X60934380Y-66322549D01*
X60962353Y-66295199D01*
X60977160Y-66273529D01*
X60982952Y-66248732D01*
X60983889Y-66217483D01*
X60973575Y-66156205D01*
X60942752Y-66104140D01*
X60891595Y-66061458D01*
X60820283Y-66028325D01*
X60769400Y-66013464D01*
X60714100Y-66003866D01*
X60647853Y-65998436D01*
X60574706Y-65996867D01*
X60498703Y-65998851D01*
G36*
X59730822Y-66020145D02*
X59724242Y-66027718D01*
X59719079Y-66037487D01*
X59715164Y-66052071D01*
X59712324Y-66074085D01*
X59710387Y-66106148D01*
X59709183Y-66150875D01*
X59708539Y-66210885D01*
X59708284Y-66288794D01*
X59708245Y-66364456D01*
X59708314Y-66458302D01*
X59708638Y-66532189D01*
X59709386Y-66588732D01*
X59710732Y-66630549D01*
X59712846Y-66660257D01*
X59715900Y-66680473D01*
X59720066Y-66693814D01*
X59725516Y-66702898D01*
X59730822Y-66708767D01*
X59763826Y-66728447D01*
X59798991Y-66726681D01*
X59830455Y-66705217D01*
X59837684Y-66696837D01*
X59843334Y-66687114D01*
X59847599Y-66673361D01*
X59850673Y-66652889D01*
X59852752Y-66623012D01*
X59854030Y-66581041D01*
X59854701Y-66524289D01*
X59854959Y-66450067D01*
X59855000Y-66366037D01*
X59855000Y-66052985D01*
X59827291Y-66025276D01*
X59793137Y-66001963D01*
X59760006Y-66001123D01*
X59730822Y-66020145D01*
X59730822Y-66020145D01*
G37*
X59730822Y-66020145D02*
X59724242Y-66027718D01*
X59719079Y-66037487D01*
X59715164Y-66052071D01*
X59712324Y-66074085D01*
X59710387Y-66106148D01*
X59709183Y-66150875D01*
X59708539Y-66210885D01*
X59708284Y-66288794D01*
X59708245Y-66364456D01*
X59708314Y-66458302D01*
X59708638Y-66532189D01*
X59709386Y-66588732D01*
X59710732Y-66630549D01*
X59712846Y-66660257D01*
X59715900Y-66680473D01*
X59720066Y-66693814D01*
X59725516Y-66702898D01*
X59730822Y-66708767D01*
X59763826Y-66728447D01*
X59798991Y-66726681D01*
X59830455Y-66705217D01*
X59837684Y-66696837D01*
X59843334Y-66687114D01*
X59847599Y-66673361D01*
X59850673Y-66652889D01*
X59852752Y-66623012D01*
X59854030Y-66581041D01*
X59854701Y-66524289D01*
X59854959Y-66450067D01*
X59855000Y-66366037D01*
X59855000Y-66052985D01*
X59827291Y-66025276D01*
X59793137Y-66001963D01*
X59760006Y-66001123D01*
X59730822Y-66020145D01*
G36*
X58757081Y-66003099D02*
X58688565Y-66014595D01*
X58635943Y-66032467D01*
X58601708Y-66055999D01*
X58592379Y-66069424D01*
X58582893Y-66100648D01*
X58589277Y-66128895D01*
X58609430Y-66155682D01*
X58640745Y-66168213D01*
X58686183Y-66167196D01*
X58721326Y-66160406D01*
X58799419Y-66147471D01*
X58879226Y-66146242D01*
X58968555Y-66156741D01*
X58993229Y-66161190D01*
X59076291Y-66184608D01*
X59141273Y-66219445D01*
X59187461Y-66265104D01*
X59214145Y-66320994D01*
X59219663Y-66349888D01*
X59216051Y-66408512D01*
X59192729Y-66460379D01*
X59151824Y-66504478D01*
X59095459Y-66539799D01*
X59025760Y-66565329D01*
X58944852Y-66580059D01*
X58854860Y-66582978D01*
X58757910Y-66573075D01*
X58752436Y-66572141D01*
X58713875Y-66564959D01*
X58692494Y-66558021D01*
X58683227Y-66547727D01*
X58681006Y-66530476D01*
X58680956Y-66521341D01*
X58680956Y-66482989D01*
X58749431Y-66482989D01*
X58809900Y-66478847D01*
X58851165Y-66465647D01*
X58875175Y-66442230D01*
X58883877Y-66407436D01*
X58883983Y-66402894D01*
X58878892Y-66373154D01*
X58861433Y-66351919D01*
X58828939Y-66337866D01*
X58778743Y-66329673D01*
X58730123Y-66326661D01*
X58659456Y-66324933D01*
X58608198Y-66327570D01*
X58573239Y-66337300D01*
X58551470Y-66356853D01*
X58539780Y-66388956D01*
X58535060Y-66436338D01*
X58534200Y-66498571D01*
X58535609Y-66568035D01*
X58539848Y-66615286D01*
X58546936Y-66640512D01*
X58548311Y-66642488D01*
X58587228Y-66674008D01*
X58644286Y-66698970D01*
X58715869Y-66716840D01*
X58798358Y-66727086D01*
X58888139Y-66729173D01*
X58981592Y-66722568D01*
X59036556Y-66714456D01*
X59122766Y-66690054D01*
X59202892Y-66650162D01*
X59269977Y-66598387D01*
X59280173Y-66588039D01*
X59313302Y-66544535D01*
X59343194Y-66490618D01*
X59366357Y-66434092D01*
X59379298Y-66382759D01*
X59380858Y-66363044D01*
X59374218Y-66321919D01*
X59356568Y-66270752D01*
X59331297Y-66216894D01*
X59301789Y-66167695D01*
X59275719Y-66134834D01*
X59214765Y-66085952D01*
X59135969Y-66047045D01*
X59042157Y-66018994D01*
X58936150Y-66002679D01*
X58839000Y-65998692D01*
X58757081Y-66003099D01*
X58757081Y-66003099D01*
G37*
X58757081Y-66003099D02*
X58688565Y-66014595D01*
X58635943Y-66032467D01*
X58601708Y-66055999D01*
X58592379Y-66069424D01*
X58582893Y-66100648D01*
X58589277Y-66128895D01*
X58609430Y-66155682D01*
X58640745Y-66168213D01*
X58686183Y-66167196D01*
X58721326Y-66160406D01*
X58799419Y-66147471D01*
X58879226Y-66146242D01*
X58968555Y-66156741D01*
X58993229Y-66161190D01*
X59076291Y-66184608D01*
X59141273Y-66219445D01*
X59187461Y-66265104D01*
X59214145Y-66320994D01*
X59219663Y-66349888D01*
X59216051Y-66408512D01*
X59192729Y-66460379D01*
X59151824Y-66504478D01*
X59095459Y-66539799D01*
X59025760Y-66565329D01*
X58944852Y-66580059D01*
X58854860Y-66582978D01*
X58757910Y-66573075D01*
X58752436Y-66572141D01*
X58713875Y-66564959D01*
X58692494Y-66558021D01*
X58683227Y-66547727D01*
X58681006Y-66530476D01*
X58680956Y-66521341D01*
X58680956Y-66482989D01*
X58749431Y-66482989D01*
X58809900Y-66478847D01*
X58851165Y-66465647D01*
X58875175Y-66442230D01*
X58883877Y-66407436D01*
X58883983Y-66402894D01*
X58878892Y-66373154D01*
X58861433Y-66351919D01*
X58828939Y-66337866D01*
X58778743Y-66329673D01*
X58730123Y-66326661D01*
X58659456Y-66324933D01*
X58608198Y-66327570D01*
X58573239Y-66337300D01*
X58551470Y-66356853D01*
X58539780Y-66388956D01*
X58535060Y-66436338D01*
X58534200Y-66498571D01*
X58535609Y-66568035D01*
X58539848Y-66615286D01*
X58546936Y-66640512D01*
X58548311Y-66642488D01*
X58587228Y-66674008D01*
X58644286Y-66698970D01*
X58715869Y-66716840D01*
X58798358Y-66727086D01*
X58888139Y-66729173D01*
X58981592Y-66722568D01*
X59036556Y-66714456D01*
X59122766Y-66690054D01*
X59202892Y-66650162D01*
X59269977Y-66598387D01*
X59280173Y-66588039D01*
X59313302Y-66544535D01*
X59343194Y-66490618D01*
X59366357Y-66434092D01*
X59379298Y-66382759D01*
X59380858Y-66363044D01*
X59374218Y-66321919D01*
X59356568Y-66270752D01*
X59331297Y-66216894D01*
X59301789Y-66167695D01*
X59275719Y-66134834D01*
X59214765Y-66085952D01*
X59135969Y-66047045D01*
X59042157Y-66018994D01*
X58936150Y-66002679D01*
X58839000Y-65998692D01*
X58757081Y-66003099D01*
G36*
X58107114Y-66001948D02*
X58083548Y-66015773D01*
X58052735Y-66038381D01*
X58013078Y-66070838D01*
X57962980Y-66114208D01*
X57900843Y-66169558D01*
X57825072Y-66237951D01*
X57738334Y-66316584D01*
X57557711Y-66480378D01*
X57552067Y-66260529D01*
X57550029Y-66184851D01*
X57548063Y-66128494D01*
X57545734Y-66088206D01*
X57542606Y-66060735D01*
X57538245Y-66042829D01*
X57532216Y-66031237D01*
X57524084Y-66022708D01*
X57519772Y-66019123D01*
X57485241Y-66000170D01*
X57452383Y-66002941D01*
X57426318Y-66019133D01*
X57399667Y-66040699D01*
X57396352Y-66355651D01*
X57395435Y-66448279D01*
X57394968Y-66521044D01*
X57395113Y-66576661D01*
X57396032Y-66617842D01*
X57397887Y-66647303D01*
X57400839Y-66667755D01*
X57405050Y-66681913D01*
X57410682Y-66692491D01*
X57416927Y-66700974D01*
X57430439Y-66716707D01*
X57443883Y-66727136D01*
X57459124Y-66731139D01*
X57478026Y-66727594D01*
X57502455Y-66715379D01*
X57534273Y-66693371D01*
X57575348Y-66660449D01*
X57627542Y-66615491D01*
X57692722Y-66557375D01*
X57766556Y-66490599D01*
X58031845Y-66249958D01*
X58037489Y-66469089D01*
X58039531Y-66544628D01*
X58041502Y-66600854D01*
X58043839Y-66641024D01*
X58046981Y-66668396D01*
X58051364Y-66686228D01*
X58057424Y-66697779D01*
X58065600Y-66706307D01*
X58069784Y-66709782D01*
X58106765Y-66728872D01*
X58141708Y-66725993D01*
X58172136Y-66701600D01*
X58179097Y-66691786D01*
X58184523Y-66680326D01*
X58188603Y-66664468D01*
X58191529Y-66641463D01*
X58193492Y-66608562D01*
X58194683Y-66563016D01*
X58195292Y-66502073D01*
X58195511Y-66422986D01*
X58195534Y-66364456D01*
X58195460Y-66272907D01*
X58195113Y-66201187D01*
X58194301Y-66146545D01*
X58192833Y-66106232D01*
X58190519Y-66077498D01*
X58187167Y-66057593D01*
X58182588Y-66043768D01*
X58176589Y-66033272D01*
X58172136Y-66027311D01*
X58160850Y-66013191D01*
X58150301Y-66002529D01*
X58138893Y-65996392D01*
X58125030Y-65995843D01*
X58107114Y-66001948D01*
X58107114Y-66001948D01*
G37*
X58107114Y-66001948D02*
X58083548Y-66015773D01*
X58052735Y-66038381D01*
X58013078Y-66070838D01*
X57962980Y-66114208D01*
X57900843Y-66169558D01*
X57825072Y-66237951D01*
X57738334Y-66316584D01*
X57557711Y-66480378D01*
X57552067Y-66260529D01*
X57550029Y-66184851D01*
X57548063Y-66128494D01*
X57545734Y-66088206D01*
X57542606Y-66060735D01*
X57538245Y-66042829D01*
X57532216Y-66031237D01*
X57524084Y-66022708D01*
X57519772Y-66019123D01*
X57485241Y-66000170D01*
X57452383Y-66002941D01*
X57426318Y-66019133D01*
X57399667Y-66040699D01*
X57396352Y-66355651D01*
X57395435Y-66448279D01*
X57394968Y-66521044D01*
X57395113Y-66576661D01*
X57396032Y-66617842D01*
X57397887Y-66647303D01*
X57400839Y-66667755D01*
X57405050Y-66681913D01*
X57410682Y-66692491D01*
X57416927Y-66700974D01*
X57430439Y-66716707D01*
X57443883Y-66727136D01*
X57459124Y-66731139D01*
X57478026Y-66727594D01*
X57502455Y-66715379D01*
X57534273Y-66693371D01*
X57575348Y-66660449D01*
X57627542Y-66615491D01*
X57692722Y-66557375D01*
X57766556Y-66490599D01*
X58031845Y-66249958D01*
X58037489Y-66469089D01*
X58039531Y-66544628D01*
X58041502Y-66600854D01*
X58043839Y-66641024D01*
X58046981Y-66668396D01*
X58051364Y-66686228D01*
X58057424Y-66697779D01*
X58065600Y-66706307D01*
X58069784Y-66709782D01*
X58106765Y-66728872D01*
X58141708Y-66725993D01*
X58172136Y-66701600D01*
X58179097Y-66691786D01*
X58184523Y-66680326D01*
X58188603Y-66664468D01*
X58191529Y-66641463D01*
X58193492Y-66608562D01*
X58194683Y-66563016D01*
X58195292Y-66502073D01*
X58195511Y-66422986D01*
X58195534Y-66364456D01*
X58195460Y-66272907D01*
X58195113Y-66201187D01*
X58194301Y-66146545D01*
X58192833Y-66106232D01*
X58190519Y-66077498D01*
X58187167Y-66057593D01*
X58182588Y-66043768D01*
X58176589Y-66033272D01*
X58172136Y-66027311D01*
X58160850Y-66013191D01*
X58150301Y-66002529D01*
X58138893Y-65996392D01*
X58125030Y-65995843D01*
X58107114Y-66001948D01*
G36*
X56576657Y-65997760D02*
X56500299Y-65998674D01*
X56441783Y-66000811D01*
X56398745Y-66004675D01*
X56368817Y-66010767D01*
X56349632Y-66019590D01*
X56338824Y-66031646D01*
X56334027Y-66047439D01*
X56332873Y-66067470D01*
X56332867Y-66069835D01*
X56333869Y-66092492D01*
X56338604Y-66110003D01*
X56349667Y-66123074D01*
X56369652Y-66132413D01*
X56401154Y-66138727D01*
X56446768Y-66142722D01*
X56509087Y-66145106D01*
X56590707Y-66146586D01*
X56615723Y-66146914D01*
X56857800Y-66149967D01*
X56861186Y-66214878D01*
X56864571Y-66279789D01*
X56696424Y-66279789D01*
X56630734Y-66280031D01*
X56583828Y-66281056D01*
X56551917Y-66283311D01*
X56531209Y-66287242D01*
X56517916Y-66293298D01*
X56508245Y-66301924D01*
X56508183Y-66301993D01*
X56490644Y-66335612D01*
X56491278Y-66371948D01*
X56509686Y-66402923D01*
X56513329Y-66406107D01*
X56526259Y-66414312D01*
X56543976Y-66420021D01*
X56570430Y-66423662D01*
X56609568Y-66425667D01*
X56665338Y-66426464D01*
X56701006Y-66426545D01*
X56863445Y-66426545D01*
X56863445Y-66584589D01*
X56616839Y-66584589D01*
X56535420Y-66584731D01*
X56473590Y-66585314D01*
X56428363Y-66586568D01*
X56396752Y-66588727D01*
X56375769Y-66592023D01*
X56362427Y-66596689D01*
X56353739Y-66602957D01*
X56351550Y-66605233D01*
X56335386Y-66636780D01*
X56334203Y-66672668D01*
X56347464Y-66703785D01*
X56357957Y-66713771D01*
X56368871Y-66719269D01*
X56385783Y-66723522D01*
X56411367Y-66726680D01*
X56448299Y-66728892D01*
X56499254Y-66730306D01*
X56566906Y-66731072D01*
X56653931Y-66731338D01*
X56673606Y-66731345D01*
X56762089Y-66731287D01*
X56830773Y-66730967D01*
X56882436Y-66730167D01*
X56919855Y-66728667D01*
X56945810Y-66726249D01*
X56963078Y-66722694D01*
X56974438Y-66717782D01*
X56982668Y-66711295D01*
X56987183Y-66706638D01*
X56993979Y-66698389D01*
X56999288Y-66688169D01*
X57003294Y-66673300D01*
X57006179Y-66651102D01*
X57008126Y-66618893D01*
X57009319Y-66573996D01*
X57009939Y-66513728D01*
X57010171Y-66435411D01*
X57010200Y-66369494D01*
X57010129Y-66277128D01*
X57009792Y-66204617D01*
X57009002Y-66149237D01*
X57007574Y-66108265D01*
X57005321Y-66078978D01*
X57002057Y-66058653D01*
X56997596Y-66044566D01*
X56991752Y-66033995D01*
X56986803Y-66027311D01*
X56963406Y-65997567D01*
X56673226Y-65997567D01*
X56576657Y-65997760D01*
X56576657Y-65997760D01*
G37*
X56576657Y-65997760D02*
X56500299Y-65998674D01*
X56441783Y-66000811D01*
X56398745Y-66004675D01*
X56368817Y-66010767D01*
X56349632Y-66019590D01*
X56338824Y-66031646D01*
X56334027Y-66047439D01*
X56332873Y-66067470D01*
X56332867Y-66069835D01*
X56333869Y-66092492D01*
X56338604Y-66110003D01*
X56349667Y-66123074D01*
X56369652Y-66132413D01*
X56401154Y-66138727D01*
X56446768Y-66142722D01*
X56509087Y-66145106D01*
X56590707Y-66146586D01*
X56615723Y-66146914D01*
X56857800Y-66149967D01*
X56861186Y-66214878D01*
X56864571Y-66279789D01*
X56696424Y-66279789D01*
X56630734Y-66280031D01*
X56583828Y-66281056D01*
X56551917Y-66283311D01*
X56531209Y-66287242D01*
X56517916Y-66293298D01*
X56508245Y-66301924D01*
X56508183Y-66301993D01*
X56490644Y-66335612D01*
X56491278Y-66371948D01*
X56509686Y-66402923D01*
X56513329Y-66406107D01*
X56526259Y-66414312D01*
X56543976Y-66420021D01*
X56570430Y-66423662D01*
X56609568Y-66425667D01*
X56665338Y-66426464D01*
X56701006Y-66426545D01*
X56863445Y-66426545D01*
X56863445Y-66584589D01*
X56616839Y-66584589D01*
X56535420Y-66584731D01*
X56473590Y-66585314D01*
X56428363Y-66586568D01*
X56396752Y-66588727D01*
X56375769Y-66592023D01*
X56362427Y-66596689D01*
X56353739Y-66602957D01*
X56351550Y-66605233D01*
X56335386Y-66636780D01*
X56334203Y-66672668D01*
X56347464Y-66703785D01*
X56357957Y-66713771D01*
X56368871Y-66719269D01*
X56385783Y-66723522D01*
X56411367Y-66726680D01*
X56448299Y-66728892D01*
X56499254Y-66730306D01*
X56566906Y-66731072D01*
X56653931Y-66731338D01*
X56673606Y-66731345D01*
X56762089Y-66731287D01*
X56830773Y-66730967D01*
X56882436Y-66730167D01*
X56919855Y-66728667D01*
X56945810Y-66726249D01*
X56963078Y-66722694D01*
X56974438Y-66717782D01*
X56982668Y-66711295D01*
X56987183Y-66706638D01*
X56993979Y-66698389D01*
X56999288Y-66688169D01*
X57003294Y-66673300D01*
X57006179Y-66651102D01*
X57008126Y-66618893D01*
X57009319Y-66573996D01*
X57009939Y-66513728D01*
X57010171Y-66435411D01*
X57010200Y-66369494D01*
X57010129Y-66277128D01*
X57009792Y-66204617D01*
X57009002Y-66149237D01*
X57007574Y-66108265D01*
X57005321Y-66078978D01*
X57002057Y-66058653D01*
X56997596Y-66044566D01*
X56991752Y-66033995D01*
X56986803Y-66027311D01*
X56963406Y-65997567D01*
X56673226Y-65997567D01*
X56576657Y-65997760D01*
G36*
X55788691Y-65997775D02*
X55659712Y-66002136D01*
X55550009Y-66015361D01*
X55457774Y-66038241D01*
X55381198Y-66071570D01*
X55318473Y-66116138D01*
X55267788Y-66172736D01*
X55227337Y-66242158D01*
X55226541Y-66243851D01*
X55202399Y-66305983D01*
X55193797Y-66361009D01*
X55200769Y-66416387D01*
X55223346Y-66479573D01*
X55227628Y-66489189D01*
X55256828Y-66545466D01*
X55289644Y-66588951D01*
X55331998Y-66625917D01*
X55389810Y-66662635D01*
X55393169Y-66664552D01*
X55443496Y-66688727D01*
X55500379Y-66706782D01*
X55567473Y-66719339D01*
X55648435Y-66727022D01*
X55746918Y-66730453D01*
X55781714Y-66730751D01*
X55947406Y-66731345D01*
X55970803Y-66701600D01*
X55977743Y-66691819D01*
X55983158Y-66680397D01*
X55987235Y-66664595D01*
X55990163Y-66641675D01*
X55992133Y-66608896D01*
X55992775Y-66584589D01*
X55836156Y-66584589D01*
X55742274Y-66584589D01*
X55687336Y-66582983D01*
X55630940Y-66578755D01*
X55584655Y-66572792D01*
X55581861Y-66572290D01*
X55499652Y-66550236D01*
X55435886Y-66517100D01*
X55388548Y-66471347D01*
X55355618Y-66411439D01*
X55349892Y-66395561D01*
X55344279Y-66370833D01*
X55346709Y-66346402D01*
X55358533Y-66313900D01*
X55365660Y-66297934D01*
X55389000Y-66255506D01*
X55417120Y-66225740D01*
X55448060Y-66205011D01*
X55510034Y-66178037D01*
X55589349Y-66158498D01*
X55681747Y-66147246D01*
X55748667Y-66144770D01*
X55836156Y-66144322D01*
X55836156Y-66584589D01*
X55992775Y-66584589D01*
X55993332Y-66563521D01*
X55993950Y-66502811D01*
X55994175Y-66424026D01*
X55994200Y-66362420D01*
X55994200Y-66052985D01*
X55966491Y-66025276D01*
X55954194Y-66014044D01*
X55940897Y-66006353D01*
X55922328Y-66001540D01*
X55894214Y-65998946D01*
X55852283Y-65997910D01*
X55792263Y-65997770D01*
X55788691Y-65997775D01*
X55788691Y-65997775D01*
G37*
X55788691Y-65997775D02*
X55659712Y-66002136D01*
X55550009Y-66015361D01*
X55457774Y-66038241D01*
X55381198Y-66071570D01*
X55318473Y-66116138D01*
X55267788Y-66172736D01*
X55227337Y-66242158D01*
X55226541Y-66243851D01*
X55202399Y-66305983D01*
X55193797Y-66361009D01*
X55200769Y-66416387D01*
X55223346Y-66479573D01*
X55227628Y-66489189D01*
X55256828Y-66545466D01*
X55289644Y-66588951D01*
X55331998Y-66625917D01*
X55389810Y-66662635D01*
X55393169Y-66664552D01*
X55443496Y-66688727D01*
X55500379Y-66706782D01*
X55567473Y-66719339D01*
X55648435Y-66727022D01*
X55746918Y-66730453D01*
X55781714Y-66730751D01*
X55947406Y-66731345D01*
X55970803Y-66701600D01*
X55977743Y-66691819D01*
X55983158Y-66680397D01*
X55987235Y-66664595D01*
X55990163Y-66641675D01*
X55992133Y-66608896D01*
X55992775Y-66584589D01*
X55836156Y-66584589D01*
X55742274Y-66584589D01*
X55687336Y-66582983D01*
X55630940Y-66578755D01*
X55584655Y-66572792D01*
X55581861Y-66572290D01*
X55499652Y-66550236D01*
X55435886Y-66517100D01*
X55388548Y-66471347D01*
X55355618Y-66411439D01*
X55349892Y-66395561D01*
X55344279Y-66370833D01*
X55346709Y-66346402D01*
X55358533Y-66313900D01*
X55365660Y-66297934D01*
X55389000Y-66255506D01*
X55417120Y-66225740D01*
X55448060Y-66205011D01*
X55510034Y-66178037D01*
X55589349Y-66158498D01*
X55681747Y-66147246D01*
X55748667Y-66144770D01*
X55836156Y-66144322D01*
X55836156Y-66584589D01*
X55992775Y-66584589D01*
X55993332Y-66563521D01*
X55993950Y-66502811D01*
X55994175Y-66424026D01*
X55994200Y-66362420D01*
X55994200Y-66052985D01*
X55966491Y-66025276D01*
X55954194Y-66014044D01*
X55940897Y-66006353D01*
X55922328Y-66001540D01*
X55894214Y-65998946D01*
X55852283Y-65997910D01*
X55792263Y-65997770D01*
X55788691Y-65997775D01*
G36*
X53062335Y-65999534D02*
X53042745Y-66006535D01*
X53041990Y-66006877D01*
X53015387Y-66027178D01*
X53000730Y-66048061D01*
X52997862Y-66057852D01*
X52998004Y-66070861D01*
X53002039Y-66089395D01*
X53010854Y-66115757D01*
X53025331Y-66152252D01*
X53046355Y-66201187D01*
X53074812Y-66264865D01*
X53111585Y-66345593D01*
X53131825Y-66389716D01*
X53168375Y-66468485D01*
X53202685Y-66540923D01*
X53233448Y-66604380D01*
X53259352Y-66656208D01*
X53279090Y-66693759D01*
X53291350Y-66714384D01*
X53293776Y-66717233D01*
X53324817Y-66729802D01*
X53359879Y-66728119D01*
X53388000Y-66712832D01*
X53389146Y-66711589D01*
X53400332Y-66694654D01*
X53419096Y-66661670D01*
X53443125Y-66616880D01*
X53470103Y-66564532D01*
X53479799Y-66545242D01*
X53552986Y-66398650D01*
X53632760Y-66557893D01*
X53661233Y-66612915D01*
X53687650Y-66660632D01*
X53709852Y-66697393D01*
X53725681Y-66719544D01*
X53731046Y-66724241D01*
X53772743Y-66730602D01*
X53807151Y-66717233D01*
X53817272Y-66702946D01*
X53834786Y-66671192D01*
X53858265Y-66625097D01*
X53886280Y-66567785D01*
X53917401Y-66502380D01*
X53950201Y-66432007D01*
X53983250Y-66359791D01*
X54015119Y-66288855D01*
X54044381Y-66222325D01*
X54069605Y-66163326D01*
X54089364Y-66114981D01*
X54102228Y-66080415D01*
X54106769Y-66062753D01*
X54106723Y-66062113D01*
X54095674Y-66039888D01*
X54073590Y-66017253D01*
X54072290Y-66016268D01*
X54045147Y-66000925D01*
X54020042Y-66001074D01*
X54010632Y-66003966D01*
X53999166Y-66010218D01*
X53986990Y-66022514D01*
X53972643Y-66043408D01*
X53954664Y-66075449D01*
X53931593Y-66121188D01*
X53901970Y-66183177D01*
X53875255Y-66240398D01*
X53844520Y-66306726D01*
X53816979Y-66366374D01*
X53794062Y-66416225D01*
X53777202Y-66453164D01*
X53767827Y-66474073D01*
X53766460Y-66477345D01*
X53760311Y-66471997D01*
X53746178Y-66449609D01*
X53725943Y-66413446D01*
X53701485Y-66366777D01*
X53691752Y-66347522D01*
X53658783Y-66282504D01*
X53633357Y-66235154D01*
X53613388Y-66202719D01*
X53596790Y-66182446D01*
X53581476Y-66171582D01*
X53565360Y-66167375D01*
X53554857Y-66166900D01*
X53536330Y-66168542D01*
X53520096Y-66175331D01*
X53503965Y-66190066D01*
X53485749Y-66215544D01*
X53463261Y-66254561D01*
X53434311Y-66309914D01*
X53418338Y-66341403D01*
X53392430Y-66391587D01*
X53369833Y-66433204D01*
X53352542Y-66462742D01*
X53342550Y-66476689D01*
X53341191Y-66477270D01*
X53334739Y-66466293D01*
X53320292Y-66437790D01*
X53299297Y-66394744D01*
X53273203Y-66340138D01*
X53243454Y-66276954D01*
X53228820Y-66245571D01*
X53190750Y-66164578D01*
X53160095Y-66102256D01*
X53135263Y-66056571D01*
X53114663Y-66025489D01*
X53096702Y-66006978D01*
X53079790Y-65999004D01*
X53062335Y-65999534D01*
X53062335Y-65999534D01*
G37*
X53062335Y-65999534D02*
X53042745Y-66006535D01*
X53041990Y-66006877D01*
X53015387Y-66027178D01*
X53000730Y-66048061D01*
X52997862Y-66057852D01*
X52998004Y-66070861D01*
X53002039Y-66089395D01*
X53010854Y-66115757D01*
X53025331Y-66152252D01*
X53046355Y-66201187D01*
X53074812Y-66264865D01*
X53111585Y-66345593D01*
X53131825Y-66389716D01*
X53168375Y-66468485D01*
X53202685Y-66540923D01*
X53233448Y-66604380D01*
X53259352Y-66656208D01*
X53279090Y-66693759D01*
X53291350Y-66714384D01*
X53293776Y-66717233D01*
X53324817Y-66729802D01*
X53359879Y-66728119D01*
X53388000Y-66712832D01*
X53389146Y-66711589D01*
X53400332Y-66694654D01*
X53419096Y-66661670D01*
X53443125Y-66616880D01*
X53470103Y-66564532D01*
X53479799Y-66545242D01*
X53552986Y-66398650D01*
X53632760Y-66557893D01*
X53661233Y-66612915D01*
X53687650Y-66660632D01*
X53709852Y-66697393D01*
X53725681Y-66719544D01*
X53731046Y-66724241D01*
X53772743Y-66730602D01*
X53807151Y-66717233D01*
X53817272Y-66702946D01*
X53834786Y-66671192D01*
X53858265Y-66625097D01*
X53886280Y-66567785D01*
X53917401Y-66502380D01*
X53950201Y-66432007D01*
X53983250Y-66359791D01*
X54015119Y-66288855D01*
X54044381Y-66222325D01*
X54069605Y-66163326D01*
X54089364Y-66114981D01*
X54102228Y-66080415D01*
X54106769Y-66062753D01*
X54106723Y-66062113D01*
X54095674Y-66039888D01*
X54073590Y-66017253D01*
X54072290Y-66016268D01*
X54045147Y-66000925D01*
X54020042Y-66001074D01*
X54010632Y-66003966D01*
X53999166Y-66010218D01*
X53986990Y-66022514D01*
X53972643Y-66043408D01*
X53954664Y-66075449D01*
X53931593Y-66121188D01*
X53901970Y-66183177D01*
X53875255Y-66240398D01*
X53844520Y-66306726D01*
X53816979Y-66366374D01*
X53794062Y-66416225D01*
X53777202Y-66453164D01*
X53767827Y-66474073D01*
X53766460Y-66477345D01*
X53760311Y-66471997D01*
X53746178Y-66449609D01*
X53725943Y-66413446D01*
X53701485Y-66366777D01*
X53691752Y-66347522D01*
X53658783Y-66282504D01*
X53633357Y-66235154D01*
X53613388Y-66202719D01*
X53596790Y-66182446D01*
X53581476Y-66171582D01*
X53565360Y-66167375D01*
X53554857Y-66166900D01*
X53536330Y-66168542D01*
X53520096Y-66175331D01*
X53503965Y-66190066D01*
X53485749Y-66215544D01*
X53463261Y-66254561D01*
X53434311Y-66309914D01*
X53418338Y-66341403D01*
X53392430Y-66391587D01*
X53369833Y-66433204D01*
X53352542Y-66462742D01*
X53342550Y-66476689D01*
X53341191Y-66477270D01*
X53334739Y-66466293D01*
X53320292Y-66437790D01*
X53299297Y-66394744D01*
X53273203Y-66340138D01*
X53243454Y-66276954D01*
X53228820Y-66245571D01*
X53190750Y-66164578D01*
X53160095Y-66102256D01*
X53135263Y-66056571D01*
X53114663Y-66025489D01*
X53096702Y-66006978D01*
X53079790Y-65999004D01*
X53062335Y-65999534D01*
G36*
X52618386Y-66004377D02*
X52594673Y-66019147D01*
X52568022Y-66040727D01*
X52568022Y-66362273D01*
X52568107Y-66456330D01*
X52568471Y-66530432D01*
X52569276Y-66587204D01*
X52570687Y-66629268D01*
X52572867Y-66659248D01*
X52575979Y-66679767D01*
X52580186Y-66693449D01*
X52585652Y-66702916D01*
X52589528Y-66707582D01*
X52620966Y-66728075D01*
X52656767Y-66727239D01*
X52688127Y-66709764D01*
X52714778Y-66688184D01*
X52714778Y-66040727D01*
X52688127Y-66019147D01*
X52662406Y-66003449D01*
X52641400Y-65997567D01*
X52618386Y-66004377D01*
X52618386Y-66004377D01*
G37*
X52618386Y-66004377D02*
X52594673Y-66019147D01*
X52568022Y-66040727D01*
X52568022Y-66362273D01*
X52568107Y-66456330D01*
X52568471Y-66530432D01*
X52569276Y-66587204D01*
X52570687Y-66629268D01*
X52572867Y-66659248D01*
X52575979Y-66679767D01*
X52580186Y-66693449D01*
X52585652Y-66702916D01*
X52589528Y-66707582D01*
X52620966Y-66728075D01*
X52656767Y-66727239D01*
X52688127Y-66709764D01*
X52714778Y-66688184D01*
X52714778Y-66040727D01*
X52688127Y-66019147D01*
X52662406Y-66003449D01*
X52641400Y-65997567D01*
X52618386Y-66004377D01*
G36*
X51843935Y-65997663D02*
X51765228Y-65998042D01*
X51704137Y-65998833D01*
X51658183Y-66000170D01*
X51624886Y-66002183D01*
X51601764Y-66005006D01*
X51586338Y-66008769D01*
X51576129Y-66013605D01*
X51571187Y-66017322D01*
X51545543Y-66049858D01*
X51542441Y-66083638D01*
X51558289Y-66114326D01*
X51568652Y-66126589D01*
X51579804Y-66134950D01*
X51595965Y-66140157D01*
X51621358Y-66142957D01*
X51660202Y-66144096D01*
X51716720Y-66144321D01*
X51727820Y-66144322D01*
X51873756Y-66144322D01*
X51873756Y-66415256D01*
X51873852Y-66500654D01*
X51874289Y-66566364D01*
X51875288Y-66615274D01*
X51877072Y-66650273D01*
X51879863Y-66674249D01*
X51883883Y-66690093D01*
X51889355Y-66700691D01*
X51896334Y-66708767D01*
X51929266Y-66728612D01*
X51963646Y-66727048D01*
X51994824Y-66704406D01*
X51997114Y-66701600D01*
X52004571Y-66690992D01*
X52010253Y-66678581D01*
X52014399Y-66661350D01*
X52017250Y-66636284D01*
X52019046Y-66600367D01*
X52020028Y-66550583D01*
X52020436Y-66483917D01*
X52020511Y-66408089D01*
X52020511Y-66144322D01*
X52159873Y-66144322D01*
X52219678Y-66143918D01*
X52261082Y-66142340D01*
X52288252Y-66139047D01*
X52305354Y-66133492D01*
X52316557Y-66125131D01*
X52317917Y-66123678D01*
X52334275Y-66090439D01*
X52332828Y-66052862D01*
X52314022Y-66020145D01*
X52306750Y-66013798D01*
X52297373Y-66008766D01*
X52283391Y-66004896D01*
X52262304Y-66002037D01*
X52231611Y-66000035D01*
X52188811Y-65998739D01*
X52131405Y-65997998D01*
X52056890Y-65997658D01*
X51962767Y-65997568D01*
X51942740Y-65997567D01*
X51843935Y-65997663D01*
X51843935Y-65997663D01*
G37*
X51843935Y-65997663D02*
X51765228Y-65998042D01*
X51704137Y-65998833D01*
X51658183Y-66000170D01*
X51624886Y-66002183D01*
X51601764Y-66005006D01*
X51586338Y-66008769D01*
X51576129Y-66013605D01*
X51571187Y-66017322D01*
X51545543Y-66049858D01*
X51542441Y-66083638D01*
X51558289Y-66114326D01*
X51568652Y-66126589D01*
X51579804Y-66134950D01*
X51595965Y-66140157D01*
X51621358Y-66142957D01*
X51660202Y-66144096D01*
X51716720Y-66144321D01*
X51727820Y-66144322D01*
X51873756Y-66144322D01*
X51873756Y-66415256D01*
X51873852Y-66500654D01*
X51874289Y-66566364D01*
X51875288Y-66615274D01*
X51877072Y-66650273D01*
X51879863Y-66674249D01*
X51883883Y-66690093D01*
X51889355Y-66700691D01*
X51896334Y-66708767D01*
X51929266Y-66728612D01*
X51963646Y-66727048D01*
X51994824Y-66704406D01*
X51997114Y-66701600D01*
X52004571Y-66690992D01*
X52010253Y-66678581D01*
X52014399Y-66661350D01*
X52017250Y-66636284D01*
X52019046Y-66600367D01*
X52020028Y-66550583D01*
X52020436Y-66483917D01*
X52020511Y-66408089D01*
X52020511Y-66144322D01*
X52159873Y-66144322D01*
X52219678Y-66143918D01*
X52261082Y-66142340D01*
X52288252Y-66139047D01*
X52305354Y-66133492D01*
X52316557Y-66125131D01*
X52317917Y-66123678D01*
X52334275Y-66090439D01*
X52332828Y-66052862D01*
X52314022Y-66020145D01*
X52306750Y-66013798D01*
X52297373Y-66008766D01*
X52283391Y-66004896D01*
X52262304Y-66002037D01*
X52231611Y-66000035D01*
X52188811Y-65998739D01*
X52131405Y-65997998D01*
X52056890Y-65997658D01*
X51962767Y-65997568D01*
X51942740Y-65997567D01*
X51843935Y-65997663D01*
G36*
X50578177Y-66003033D02*
X50546798Y-66025276D01*
X50519089Y-66052985D01*
X50519089Y-66362420D01*
X50519162Y-66454299D01*
X50519505Y-66526340D01*
X50520308Y-66581280D01*
X50521759Y-66621860D01*
X50524048Y-66650817D01*
X50527364Y-66670891D01*
X50531895Y-66684821D01*
X50537831Y-66695345D01*
X50542486Y-66701600D01*
X50573217Y-66726173D01*
X50608504Y-66728841D01*
X50640755Y-66713771D01*
X50651412Y-66704874D01*
X50658536Y-66693057D01*
X50662833Y-66674026D01*
X50665009Y-66643492D01*
X50665772Y-66597162D01*
X50665845Y-66561371D01*
X50665845Y-66426545D01*
X51162556Y-66426545D01*
X51162556Y-66549200D01*
X51163069Y-66605287D01*
X51165124Y-66643833D01*
X51169492Y-66669861D01*
X51176944Y-66688397D01*
X51185953Y-66701600D01*
X51216856Y-66726104D01*
X51251804Y-66729006D01*
X51285262Y-66711589D01*
X51294396Y-66702459D01*
X51300848Y-66690355D01*
X51305103Y-66671501D01*
X51307648Y-66642120D01*
X51308971Y-66598437D01*
X51309557Y-66536675D01*
X51309625Y-66522500D01*
X51310109Y-66406131D01*
X51310359Y-66310227D01*
X51310277Y-66232677D01*
X51309769Y-66171369D01*
X51308738Y-66124190D01*
X51307087Y-66089030D01*
X51304721Y-66063776D01*
X51301543Y-66046317D01*
X51297456Y-66034541D01*
X51292366Y-66026335D01*
X51286734Y-66020145D01*
X51254872Y-66000344D01*
X51221643Y-66003033D01*
X51190265Y-66025276D01*
X51177567Y-66039626D01*
X51169474Y-66055478D01*
X51164958Y-66078054D01*
X51162994Y-66112578D01*
X51162556Y-66164276D01*
X51162556Y-66279789D01*
X50665845Y-66279789D01*
X50665845Y-66161256D01*
X50665338Y-66106648D01*
X50663302Y-66069775D01*
X50658965Y-66045807D01*
X50651553Y-66029915D01*
X50643267Y-66020145D01*
X50611406Y-66000344D01*
X50578177Y-66003033D01*
X50578177Y-66003033D01*
G37*
X50578177Y-66003033D02*
X50546798Y-66025276D01*
X50519089Y-66052985D01*
X50519089Y-66362420D01*
X50519162Y-66454299D01*
X50519505Y-66526340D01*
X50520308Y-66581280D01*
X50521759Y-66621860D01*
X50524048Y-66650817D01*
X50527364Y-66670891D01*
X50531895Y-66684821D01*
X50537831Y-66695345D01*
X50542486Y-66701600D01*
X50573217Y-66726173D01*
X50608504Y-66728841D01*
X50640755Y-66713771D01*
X50651412Y-66704874D01*
X50658536Y-66693057D01*
X50662833Y-66674026D01*
X50665009Y-66643492D01*
X50665772Y-66597162D01*
X50665845Y-66561371D01*
X50665845Y-66426545D01*
X51162556Y-66426545D01*
X51162556Y-66549200D01*
X51163069Y-66605287D01*
X51165124Y-66643833D01*
X51169492Y-66669861D01*
X51176944Y-66688397D01*
X51185953Y-66701600D01*
X51216856Y-66726104D01*
X51251804Y-66729006D01*
X51285262Y-66711589D01*
X51294396Y-66702459D01*
X51300848Y-66690355D01*
X51305103Y-66671501D01*
X51307648Y-66642120D01*
X51308971Y-66598437D01*
X51309557Y-66536675D01*
X51309625Y-66522500D01*
X51310109Y-66406131D01*
X51310359Y-66310227D01*
X51310277Y-66232677D01*
X51309769Y-66171369D01*
X51308738Y-66124190D01*
X51307087Y-66089030D01*
X51304721Y-66063776D01*
X51301543Y-66046317D01*
X51297456Y-66034541D01*
X51292366Y-66026335D01*
X51286734Y-66020145D01*
X51254872Y-66000344D01*
X51221643Y-66003033D01*
X51190265Y-66025276D01*
X51177567Y-66039626D01*
X51169474Y-66055478D01*
X51164958Y-66078054D01*
X51162994Y-66112578D01*
X51162556Y-66164276D01*
X51162556Y-66279789D01*
X50665845Y-66279789D01*
X50665845Y-66161256D01*
X50665338Y-66106648D01*
X50663302Y-66069775D01*
X50658965Y-66045807D01*
X50651553Y-66029915D01*
X50643267Y-66020145D01*
X50611406Y-66000344D01*
X50578177Y-66003033D01*
G36*
X59753400Y-61217554D02*
X59742535Y-61331493D01*
X59710918Y-61439116D01*
X59660015Y-61538115D01*
X59591293Y-61626184D01*
X59506219Y-61701016D01*
X59409232Y-61758884D01*
X59302964Y-61798505D01*
X59195950Y-61817073D01*
X59090300Y-61815934D01*
X58988125Y-61796430D01*
X58891534Y-61759906D01*
X58802638Y-61707705D01*
X58723546Y-61641173D01*
X58656369Y-61561652D01*
X58603217Y-61470487D01*
X58566199Y-61369023D01*
X58547427Y-61258602D01*
X58545489Y-61208706D01*
X58545489Y-61120767D01*
X58493560Y-61120767D01*
X58457253Y-61123611D01*
X58430355Y-61135411D01*
X58403249Y-61159149D01*
X58364867Y-61197531D01*
X58364867Y-63389102D01*
X58364876Y-63651239D01*
X58364908Y-63891741D01*
X58364972Y-64111548D01*
X58365076Y-64311601D01*
X58365227Y-64492844D01*
X58365434Y-64656216D01*
X58365706Y-64802660D01*
X58366050Y-64933117D01*
X58366474Y-65048529D01*
X58366987Y-65149838D01*
X58367597Y-65237984D01*
X58368312Y-65313910D01*
X58369140Y-65378557D01*
X58370089Y-65432867D01*
X58371167Y-65477780D01*
X58372383Y-65514240D01*
X58373745Y-65543187D01*
X58375261Y-65565563D01*
X58376938Y-65582309D01*
X58378786Y-65594368D01*
X58380813Y-65602680D01*
X58383025Y-65608187D01*
X58384108Y-65610037D01*
X58388271Y-65617049D01*
X58391805Y-65623496D01*
X58395635Y-65629400D01*
X58400682Y-65634786D01*
X58407871Y-65639678D01*
X58418123Y-65644098D01*
X58432364Y-65648072D01*
X58451514Y-65651621D01*
X58476499Y-65654770D01*
X58508240Y-65657542D01*
X58547662Y-65659961D01*
X58595686Y-65662051D01*
X58653237Y-65663835D01*
X58721237Y-65665337D01*
X58800610Y-65666580D01*
X58892279Y-65667589D01*
X58997166Y-65668385D01*
X59116196Y-65668994D01*
X59250290Y-65669439D01*
X59400373Y-65669743D01*
X59567367Y-65669930D01*
X59752196Y-65670024D01*
X59955783Y-65670048D01*
X60179050Y-65670025D01*
X60422922Y-65669980D01*
X60688321Y-65669937D01*
X60726704Y-65669932D01*
X60993682Y-65669889D01*
X61239002Y-65669818D01*
X61463583Y-65669713D01*
X61668345Y-65669566D01*
X61854206Y-65669369D01*
X62022088Y-65669116D01*
X62172908Y-65668800D01*
X62307587Y-65668413D01*
X62427044Y-65667947D01*
X62532199Y-65667397D01*
X62623971Y-65666753D01*
X62703279Y-65666011D01*
X62771043Y-65665161D01*
X62828182Y-65664197D01*
X62875617Y-65663111D01*
X62914266Y-65661897D01*
X62945049Y-65660547D01*
X62968885Y-65659055D01*
X62986694Y-65657411D01*
X62999395Y-65655611D01*
X63007908Y-65653645D01*
X63012266Y-65651977D01*
X63020728Y-65648406D01*
X63028497Y-65645770D01*
X63035602Y-65643134D01*
X63042073Y-65639562D01*
X63047939Y-65634121D01*
X63053229Y-65625875D01*
X63057974Y-65613890D01*
X63062202Y-65597231D01*
X63065943Y-65574963D01*
X63069227Y-65546152D01*
X63072083Y-65509863D01*
X63074540Y-65465161D01*
X63076629Y-65411111D01*
X63078378Y-65346779D01*
X63079817Y-65271230D01*
X63080976Y-65183530D01*
X63081883Y-65082743D01*
X63082569Y-64967934D01*
X63083063Y-64838170D01*
X63083395Y-64692515D01*
X63083593Y-64530035D01*
X63083687Y-64349795D01*
X63083708Y-64150860D01*
X63083685Y-63932296D01*
X63083646Y-63693168D01*
X63083622Y-63432540D01*
X63083622Y-63390389D01*
X63083636Y-63127492D01*
X63083661Y-62886232D01*
X63083671Y-62665665D01*
X63083642Y-62464852D01*
X63083548Y-62282849D01*
X63083362Y-62118716D01*
X63083059Y-61971511D01*
X63082614Y-61840292D01*
X63082034Y-61730367D01*
X62779197Y-61730367D01*
X62739407Y-61788211D01*
X62728236Y-61803979D01*
X62718166Y-61817941D01*
X62709138Y-61831284D01*
X62701097Y-61845193D01*
X62693986Y-61860856D01*
X62687747Y-61879458D01*
X62682325Y-61902186D01*
X62677662Y-61930227D01*
X62673701Y-61964767D01*
X62670385Y-62006992D01*
X62667659Y-62058089D01*
X62665464Y-62119244D01*
X62663745Y-62191644D01*
X62662444Y-62276475D01*
X62661505Y-62374922D01*
X62660870Y-62488174D01*
X62660484Y-62617416D01*
X62660288Y-62763834D01*
X62660227Y-62928616D01*
X62660243Y-63112947D01*
X62660280Y-63318013D01*
X62660289Y-63440633D01*
X62660265Y-63657582D01*
X62660231Y-63853142D01*
X62660243Y-64028499D01*
X62660358Y-64184841D01*
X62660630Y-64323357D01*
X62661118Y-64445234D01*
X62661876Y-64551660D01*
X62662962Y-64643822D01*
X62664431Y-64722909D01*
X62666340Y-64790108D01*
X62668744Y-64846607D01*
X62671701Y-64893593D01*
X62675266Y-64932255D01*
X62679495Y-64963780D01*
X62684446Y-64989355D01*
X62690173Y-65010170D01*
X62696733Y-65027411D01*
X62704183Y-65042265D01*
X62712579Y-65055922D01*
X62721976Y-65069569D01*
X62732432Y-65084393D01*
X62738523Y-65093283D01*
X62777296Y-65150900D01*
X62245732Y-65150900D01*
X62122483Y-65150865D01*
X62019987Y-65150715D01*
X61936420Y-65150378D01*
X61869956Y-65149786D01*
X61818771Y-65148867D01*
X61781041Y-65147551D01*
X61754940Y-65145769D01*
X61738644Y-65143451D01*
X61730328Y-65140526D01*
X61728168Y-65136924D01*
X61730339Y-65132575D01*
X61731535Y-65131145D01*
X61756685Y-65094073D01*
X61782583Y-65041272D01*
X61806192Y-64979270D01*
X61814461Y-64952857D01*
X61819078Y-64934916D01*
X61822979Y-64913855D01*
X61826248Y-64887589D01*
X61828966Y-64854032D01*
X61831215Y-64811099D01*
X61833077Y-64756704D01*
X61834636Y-64688762D01*
X61835972Y-64605188D01*
X61837169Y-64503895D01*
X61838308Y-64382800D01*
X61838685Y-64338100D01*
X61839702Y-64212949D01*
X61840460Y-64108582D01*
X61840903Y-64023207D01*
X61840970Y-63955033D01*
X61840605Y-63902265D01*
X61839748Y-63863114D01*
X61838341Y-63835785D01*
X61836325Y-63818486D01*
X61833643Y-63809426D01*
X61830236Y-63806812D01*
X61826044Y-63808851D01*
X61821571Y-63813167D01*
X61811216Y-63826102D01*
X61789158Y-63855176D01*
X61756957Y-63898259D01*
X61716174Y-63953218D01*
X61668370Y-64017923D01*
X61615105Y-64090242D01*
X61557940Y-64168044D01*
X61498437Y-64249198D01*
X61438155Y-64331572D01*
X61378655Y-64413036D01*
X61321498Y-64491457D01*
X61268245Y-64564704D01*
X61220457Y-64630647D01*
X61179693Y-64687154D01*
X61147516Y-64732093D01*
X61125485Y-64763334D01*
X61120917Y-64769966D01*
X61097996Y-64806869D01*
X61071188Y-64854859D01*
X61045789Y-64904397D01*
X61042568Y-64911077D01*
X61020890Y-64959272D01*
X61008304Y-64996834D01*
X61002574Y-65032660D01*
X61001456Y-65074700D01*
X61002090Y-65150900D01*
X59847651Y-65150900D01*
X59938815Y-65057169D01*
X59985612Y-65007275D01*
X60035899Y-64950795D01*
X60081944Y-64896526D01*
X60102369Y-64871173D01*
X60132807Y-64831628D01*
X60172862Y-64778416D01*
X60221361Y-64713167D01*
X60277135Y-64637511D01*
X60339011Y-64553077D01*
X60405819Y-64461494D01*
X60476387Y-64364392D01*
X60549545Y-64263401D01*
X60624121Y-64160150D01*
X60698944Y-64056268D01*
X60772843Y-63953385D01*
X60844646Y-63853131D01*
X60913184Y-63757136D01*
X60977284Y-63667027D01*
X61035775Y-63584436D01*
X61087486Y-63510992D01*
X61131247Y-63448324D01*
X61165885Y-63398061D01*
X61190230Y-63361834D01*
X61203111Y-63341271D01*
X61204869Y-63337168D01*
X61196910Y-63325842D01*
X61176115Y-63298662D01*
X61143847Y-63257329D01*
X61101470Y-63203544D01*
X61050347Y-63139006D01*
X60991841Y-63065418D01*
X60927314Y-62984478D01*
X60858131Y-62897888D01*
X60785653Y-62807348D01*
X60711246Y-62714560D01*
X60651517Y-62640202D01*
X59640511Y-62640202D01*
X59634602Y-62653159D01*
X59620272Y-62675408D01*
X59619225Y-62676891D01*
X59600438Y-62707044D01*
X59580791Y-62743875D01*
X59576892Y-62752011D01*
X59573356Y-62760440D01*
X59570230Y-62770559D01*
X59567486Y-62783760D01*
X59565092Y-62801438D01*
X59563019Y-62824984D01*
X59561235Y-62855793D01*
X59559712Y-62895257D01*
X59558419Y-62944769D01*
X59557326Y-63005723D01*
X59556403Y-63079511D01*
X59555619Y-63167528D01*
X59554945Y-63271165D01*
X59554350Y-63391816D01*
X59553805Y-63530874D01*
X59553279Y-63689732D01*
X59552745Y-63868589D01*
X59552206Y-64053707D01*
X59551772Y-64217645D01*
X59551509Y-64361803D01*
X59551484Y-64487579D01*
X59551765Y-64596371D01*
X59552419Y-64689577D01*
X59553514Y-64768597D01*
X59555118Y-64834828D01*
X59557297Y-64889670D01*
X59560119Y-64934521D01*
X59563651Y-64970778D01*
X59567961Y-64999841D01*
X59573117Y-65023109D01*
X59579185Y-65041979D01*
X59586233Y-65057851D01*
X59594329Y-65072122D01*
X59603540Y-65086191D01*
X59612040Y-65098658D01*
X59629176Y-65124952D01*
X59639322Y-65142537D01*
X59640511Y-65145757D01*
X59629604Y-65146834D01*
X59598411Y-65147835D01*
X59549223Y-65148735D01*
X59484333Y-65149510D01*
X59406030Y-65150137D01*
X59316607Y-65150591D01*
X59218356Y-65150849D01*
X59149445Y-65150900D01*
X59044452Y-65150680D01*
X58947610Y-65150048D01*
X58861107Y-65149049D01*
X58787132Y-65147727D01*
X58727874Y-65146126D01*
X58685520Y-65144291D01*
X58662260Y-65142265D01*
X58658378Y-65140993D01*
X58666076Y-65126091D01*
X58674074Y-65118060D01*
X58687246Y-65100934D01*
X58704485Y-65070683D01*
X58716407Y-65046122D01*
X58743045Y-64987211D01*
X58746120Y-63810345D01*
X58749195Y-62633478D01*
X59194853Y-62633478D01*
X59292670Y-62633642D01*
X59383064Y-62634111D01*
X59463630Y-62634847D01*
X59531962Y-62635816D01*
X59585656Y-62636980D01*
X59622305Y-62638303D01*
X59639504Y-62639749D01*
X59640511Y-62640202D01*
X60651517Y-62640202D01*
X60636270Y-62621222D01*
X60562090Y-62529037D01*
X60490069Y-62439704D01*
X60421569Y-62354924D01*
X60357955Y-62276398D01*
X60300588Y-62205826D01*
X60250833Y-62144909D01*
X60210052Y-62095347D01*
X60192888Y-62074678D01*
X60106596Y-61974016D01*
X60029997Y-61890759D01*
X59961183Y-61822938D01*
X59898248Y-61768589D01*
X59888867Y-61761222D01*
X59849356Y-61730617D01*
X60981116Y-61730367D01*
X60975827Y-61778344D01*
X60979130Y-61835688D01*
X61000661Y-61903963D01*
X61040635Y-61983712D01*
X61085943Y-62055995D01*
X61102161Y-62078640D01*
X61130214Y-62116196D01*
X61168430Y-62166521D01*
X61215137Y-62227473D01*
X61268661Y-62296911D01*
X61327331Y-62372694D01*
X61389475Y-62452680D01*
X61453421Y-62534728D01*
X61517495Y-62616696D01*
X61580027Y-62696443D01*
X61639343Y-62771827D01*
X61693771Y-62840707D01*
X61741639Y-62900942D01*
X61781275Y-62950389D01*
X61811006Y-62986908D01*
X61829161Y-63008358D01*
X61832220Y-63011656D01*
X61835079Y-63003649D01*
X61837293Y-62973355D01*
X61838857Y-62921056D01*
X61839767Y-62847031D01*
X61840020Y-62751563D01*
X61839613Y-62634934D01*
X61838704Y-62514945D01*
X61837382Y-62382833D01*
X61835857Y-62271094D01*
X61833881Y-62177525D01*
X61831206Y-62099919D01*
X61827582Y-62036074D01*
X61822761Y-61983783D01*
X61816494Y-61940844D01*
X61808532Y-61905051D01*
X61798627Y-61874200D01*
X61786531Y-61846086D01*
X61771993Y-61818505D01*
X61757311Y-61793466D01*
X61719314Y-61730367D01*
X62779197Y-61730367D01*
X63082034Y-61730367D01*
X63082001Y-61724117D01*
X63081195Y-61622044D01*
X63080170Y-61533133D01*
X63078900Y-61456441D01*
X63077360Y-61391027D01*
X63075524Y-61335949D01*
X63073367Y-61290265D01*
X63070863Y-61253034D01*
X63067987Y-61223313D01*
X63064713Y-61200162D01*
X63061015Y-61182639D01*
X63056869Y-61169801D01*
X63052247Y-61160708D01*
X63047126Y-61154418D01*
X63041478Y-61149988D01*
X63035279Y-61146478D01*
X63028504Y-61142945D01*
X63022508Y-61139376D01*
X63017275Y-61136800D01*
X63009099Y-61134472D01*
X62996886Y-61132378D01*
X62979541Y-61130507D01*
X62955969Y-61128847D01*
X62925077Y-61127384D01*
X62885768Y-61126108D01*
X62836950Y-61125004D01*
X62777527Y-61124061D01*
X62706404Y-61123267D01*
X62622488Y-61122609D01*
X62524683Y-61122075D01*
X62411894Y-61121653D01*
X62283029Y-61121329D01*
X62136991Y-61121092D01*
X61972686Y-61120930D01*
X61789020Y-61120830D01*
X61584897Y-61120780D01*
X61373753Y-61120767D01*
X59753400Y-61120767D01*
X59753400Y-61217554D01*
X59753400Y-61217554D01*
G37*
X59753400Y-61217554D02*
X59742535Y-61331493D01*
X59710918Y-61439116D01*
X59660015Y-61538115D01*
X59591293Y-61626184D01*
X59506219Y-61701016D01*
X59409232Y-61758884D01*
X59302964Y-61798505D01*
X59195950Y-61817073D01*
X59090300Y-61815934D01*
X58988125Y-61796430D01*
X58891534Y-61759906D01*
X58802638Y-61707705D01*
X58723546Y-61641173D01*
X58656369Y-61561652D01*
X58603217Y-61470487D01*
X58566199Y-61369023D01*
X58547427Y-61258602D01*
X58545489Y-61208706D01*
X58545489Y-61120767D01*
X58493560Y-61120767D01*
X58457253Y-61123611D01*
X58430355Y-61135411D01*
X58403249Y-61159149D01*
X58364867Y-61197531D01*
X58364867Y-63389102D01*
X58364876Y-63651239D01*
X58364908Y-63891741D01*
X58364972Y-64111548D01*
X58365076Y-64311601D01*
X58365227Y-64492844D01*
X58365434Y-64656216D01*
X58365706Y-64802660D01*
X58366050Y-64933117D01*
X58366474Y-65048529D01*
X58366987Y-65149838D01*
X58367597Y-65237984D01*
X58368312Y-65313910D01*
X58369140Y-65378557D01*
X58370089Y-65432867D01*
X58371167Y-65477780D01*
X58372383Y-65514240D01*
X58373745Y-65543187D01*
X58375261Y-65565563D01*
X58376938Y-65582309D01*
X58378786Y-65594368D01*
X58380813Y-65602680D01*
X58383025Y-65608187D01*
X58384108Y-65610037D01*
X58388271Y-65617049D01*
X58391805Y-65623496D01*
X58395635Y-65629400D01*
X58400682Y-65634786D01*
X58407871Y-65639678D01*
X58418123Y-65644098D01*
X58432364Y-65648072D01*
X58451514Y-65651621D01*
X58476499Y-65654770D01*
X58508240Y-65657542D01*
X58547662Y-65659961D01*
X58595686Y-65662051D01*
X58653237Y-65663835D01*
X58721237Y-65665337D01*
X58800610Y-65666580D01*
X58892279Y-65667589D01*
X58997166Y-65668385D01*
X59116196Y-65668994D01*
X59250290Y-65669439D01*
X59400373Y-65669743D01*
X59567367Y-65669930D01*
X59752196Y-65670024D01*
X59955783Y-65670048D01*
X60179050Y-65670025D01*
X60422922Y-65669980D01*
X60688321Y-65669937D01*
X60726704Y-65669932D01*
X60993682Y-65669889D01*
X61239002Y-65669818D01*
X61463583Y-65669713D01*
X61668345Y-65669566D01*
X61854206Y-65669369D01*
X62022088Y-65669116D01*
X62172908Y-65668800D01*
X62307587Y-65668413D01*
X62427044Y-65667947D01*
X62532199Y-65667397D01*
X62623971Y-65666753D01*
X62703279Y-65666011D01*
X62771043Y-65665161D01*
X62828182Y-65664197D01*
X62875617Y-65663111D01*
X62914266Y-65661897D01*
X62945049Y-65660547D01*
X62968885Y-65659055D01*
X62986694Y-65657411D01*
X62999395Y-65655611D01*
X63007908Y-65653645D01*
X63012266Y-65651977D01*
X63020728Y-65648406D01*
X63028497Y-65645770D01*
X63035602Y-65643134D01*
X63042073Y-65639562D01*
X63047939Y-65634121D01*
X63053229Y-65625875D01*
X63057974Y-65613890D01*
X63062202Y-65597231D01*
X63065943Y-65574963D01*
X63069227Y-65546152D01*
X63072083Y-65509863D01*
X63074540Y-65465161D01*
X63076629Y-65411111D01*
X63078378Y-65346779D01*
X63079817Y-65271230D01*
X63080976Y-65183530D01*
X63081883Y-65082743D01*
X63082569Y-64967934D01*
X63083063Y-64838170D01*
X63083395Y-64692515D01*
X63083593Y-64530035D01*
X63083687Y-64349795D01*
X63083708Y-64150860D01*
X63083685Y-63932296D01*
X63083646Y-63693168D01*
X63083622Y-63432540D01*
X63083622Y-63390389D01*
X63083636Y-63127492D01*
X63083661Y-62886232D01*
X63083671Y-62665665D01*
X63083642Y-62464852D01*
X63083548Y-62282849D01*
X63083362Y-62118716D01*
X63083059Y-61971511D01*
X63082614Y-61840292D01*
X63082034Y-61730367D01*
X62779197Y-61730367D01*
X62739407Y-61788211D01*
X62728236Y-61803979D01*
X62718166Y-61817941D01*
X62709138Y-61831284D01*
X62701097Y-61845193D01*
X62693986Y-61860856D01*
X62687747Y-61879458D01*
X62682325Y-61902186D01*
X62677662Y-61930227D01*
X62673701Y-61964767D01*
X62670385Y-62006992D01*
X62667659Y-62058089D01*
X62665464Y-62119244D01*
X62663745Y-62191644D01*
X62662444Y-62276475D01*
X62661505Y-62374922D01*
X62660870Y-62488174D01*
X62660484Y-62617416D01*
X62660288Y-62763834D01*
X62660227Y-62928616D01*
X62660243Y-63112947D01*
X62660280Y-63318013D01*
X62660289Y-63440633D01*
X62660265Y-63657582D01*
X62660231Y-63853142D01*
X62660243Y-64028499D01*
X62660358Y-64184841D01*
X62660630Y-64323357D01*
X62661118Y-64445234D01*
X62661876Y-64551660D01*
X62662962Y-64643822D01*
X62664431Y-64722909D01*
X62666340Y-64790108D01*
X62668744Y-64846607D01*
X62671701Y-64893593D01*
X62675266Y-64932255D01*
X62679495Y-64963780D01*
X62684446Y-64989355D01*
X62690173Y-65010170D01*
X62696733Y-65027411D01*
X62704183Y-65042265D01*
X62712579Y-65055922D01*
X62721976Y-65069569D01*
X62732432Y-65084393D01*
X62738523Y-65093283D01*
X62777296Y-65150900D01*
X62245732Y-65150900D01*
X62122483Y-65150865D01*
X62019987Y-65150715D01*
X61936420Y-65150378D01*
X61869956Y-65149786D01*
X61818771Y-65148867D01*
X61781041Y-65147551D01*
X61754940Y-65145769D01*
X61738644Y-65143451D01*
X61730328Y-65140526D01*
X61728168Y-65136924D01*
X61730339Y-65132575D01*
X61731535Y-65131145D01*
X61756685Y-65094073D01*
X61782583Y-65041272D01*
X61806192Y-64979270D01*
X61814461Y-64952857D01*
X61819078Y-64934916D01*
X61822979Y-64913855D01*
X61826248Y-64887589D01*
X61828966Y-64854032D01*
X61831215Y-64811099D01*
X61833077Y-64756704D01*
X61834636Y-64688762D01*
X61835972Y-64605188D01*
X61837169Y-64503895D01*
X61838308Y-64382800D01*
X61838685Y-64338100D01*
X61839702Y-64212949D01*
X61840460Y-64108582D01*
X61840903Y-64023207D01*
X61840970Y-63955033D01*
X61840605Y-63902265D01*
X61839748Y-63863114D01*
X61838341Y-63835785D01*
X61836325Y-63818486D01*
X61833643Y-63809426D01*
X61830236Y-63806812D01*
X61826044Y-63808851D01*
X61821571Y-63813167D01*
X61811216Y-63826102D01*
X61789158Y-63855176D01*
X61756957Y-63898259D01*
X61716174Y-63953218D01*
X61668370Y-64017923D01*
X61615105Y-64090242D01*
X61557940Y-64168044D01*
X61498437Y-64249198D01*
X61438155Y-64331572D01*
X61378655Y-64413036D01*
X61321498Y-64491457D01*
X61268245Y-64564704D01*
X61220457Y-64630647D01*
X61179693Y-64687154D01*
X61147516Y-64732093D01*
X61125485Y-64763334D01*
X61120917Y-64769966D01*
X61097996Y-64806869D01*
X61071188Y-64854859D01*
X61045789Y-64904397D01*
X61042568Y-64911077D01*
X61020890Y-64959272D01*
X61008304Y-64996834D01*
X61002574Y-65032660D01*
X61001456Y-65074700D01*
X61002090Y-65150900D01*
X59847651Y-65150900D01*
X59938815Y-65057169D01*
X59985612Y-65007275D01*
X60035899Y-64950795D01*
X60081944Y-64896526D01*
X60102369Y-64871173D01*
X60132807Y-64831628D01*
X60172862Y-64778416D01*
X60221361Y-64713167D01*
X60277135Y-64637511D01*
X60339011Y-64553077D01*
X60405819Y-64461494D01*
X60476387Y-64364392D01*
X60549545Y-64263401D01*
X60624121Y-64160150D01*
X60698944Y-64056268D01*
X60772843Y-63953385D01*
X60844646Y-63853131D01*
X60913184Y-63757136D01*
X60977284Y-63667027D01*
X61035775Y-63584436D01*
X61087486Y-63510992D01*
X61131247Y-63448324D01*
X61165885Y-63398061D01*
X61190230Y-63361834D01*
X61203111Y-63341271D01*
X61204869Y-63337168D01*
X61196910Y-63325842D01*
X61176115Y-63298662D01*
X61143847Y-63257329D01*
X61101470Y-63203544D01*
X61050347Y-63139006D01*
X60991841Y-63065418D01*
X60927314Y-62984478D01*
X60858131Y-62897888D01*
X60785653Y-62807348D01*
X60711246Y-62714560D01*
X60651517Y-62640202D01*
X59640511Y-62640202D01*
X59634602Y-62653159D01*
X59620272Y-62675408D01*
X59619225Y-62676891D01*
X59600438Y-62707044D01*
X59580791Y-62743875D01*
X59576892Y-62752011D01*
X59573356Y-62760440D01*
X59570230Y-62770559D01*
X59567486Y-62783760D01*
X59565092Y-62801438D01*
X59563019Y-62824984D01*
X59561235Y-62855793D01*
X59559712Y-62895257D01*
X59558419Y-62944769D01*
X59557326Y-63005723D01*
X59556403Y-63079511D01*
X59555619Y-63167528D01*
X59554945Y-63271165D01*
X59554350Y-63391816D01*
X59553805Y-63530874D01*
X59553279Y-63689732D01*
X59552745Y-63868589D01*
X59552206Y-64053707D01*
X59551772Y-64217645D01*
X59551509Y-64361803D01*
X59551484Y-64487579D01*
X59551765Y-64596371D01*
X59552419Y-64689577D01*
X59553514Y-64768597D01*
X59555118Y-64834828D01*
X59557297Y-64889670D01*
X59560119Y-64934521D01*
X59563651Y-64970778D01*
X59567961Y-64999841D01*
X59573117Y-65023109D01*
X59579185Y-65041979D01*
X59586233Y-65057851D01*
X59594329Y-65072122D01*
X59603540Y-65086191D01*
X59612040Y-65098658D01*
X59629176Y-65124952D01*
X59639322Y-65142537D01*
X59640511Y-65145757D01*
X59629604Y-65146834D01*
X59598411Y-65147835D01*
X59549223Y-65148735D01*
X59484333Y-65149510D01*
X59406030Y-65150137D01*
X59316607Y-65150591D01*
X59218356Y-65150849D01*
X59149445Y-65150900D01*
X59044452Y-65150680D01*
X58947610Y-65150048D01*
X58861107Y-65149049D01*
X58787132Y-65147727D01*
X58727874Y-65146126D01*
X58685520Y-65144291D01*
X58662260Y-65142265D01*
X58658378Y-65140993D01*
X58666076Y-65126091D01*
X58674074Y-65118060D01*
X58687246Y-65100934D01*
X58704485Y-65070683D01*
X58716407Y-65046122D01*
X58743045Y-64987211D01*
X58746120Y-63810345D01*
X58749195Y-62633478D01*
X59194853Y-62633478D01*
X59292670Y-62633642D01*
X59383064Y-62634111D01*
X59463630Y-62634847D01*
X59531962Y-62635816D01*
X59585656Y-62636980D01*
X59622305Y-62638303D01*
X59639504Y-62639749D01*
X59640511Y-62640202D01*
X60651517Y-62640202D01*
X60636270Y-62621222D01*
X60562090Y-62529037D01*
X60490069Y-62439704D01*
X60421569Y-62354924D01*
X60357955Y-62276398D01*
X60300588Y-62205826D01*
X60250833Y-62144909D01*
X60210052Y-62095347D01*
X60192888Y-62074678D01*
X60106596Y-61974016D01*
X60029997Y-61890759D01*
X59961183Y-61822938D01*
X59898248Y-61768589D01*
X59888867Y-61761222D01*
X59849356Y-61730617D01*
X60981116Y-61730367D01*
X60975827Y-61778344D01*
X60979130Y-61835688D01*
X61000661Y-61903963D01*
X61040635Y-61983712D01*
X61085943Y-62055995D01*
X61102161Y-62078640D01*
X61130214Y-62116196D01*
X61168430Y-62166521D01*
X61215137Y-62227473D01*
X61268661Y-62296911D01*
X61327331Y-62372694D01*
X61389475Y-62452680D01*
X61453421Y-62534728D01*
X61517495Y-62616696D01*
X61580027Y-62696443D01*
X61639343Y-62771827D01*
X61693771Y-62840707D01*
X61741639Y-62900942D01*
X61781275Y-62950389D01*
X61811006Y-62986908D01*
X61829161Y-63008358D01*
X61832220Y-63011656D01*
X61835079Y-63003649D01*
X61837293Y-62973355D01*
X61838857Y-62921056D01*
X61839767Y-62847031D01*
X61840020Y-62751563D01*
X61839613Y-62634934D01*
X61838704Y-62514945D01*
X61837382Y-62382833D01*
X61835857Y-62271094D01*
X61833881Y-62177525D01*
X61831206Y-62099919D01*
X61827582Y-62036074D01*
X61822761Y-61983783D01*
X61816494Y-61940844D01*
X61808532Y-61905051D01*
X61798627Y-61874200D01*
X61786531Y-61846086D01*
X61771993Y-61818505D01*
X61757311Y-61793466D01*
X61719314Y-61730367D01*
X62779197Y-61730367D01*
X63082034Y-61730367D01*
X63082001Y-61724117D01*
X63081195Y-61622044D01*
X63080170Y-61533133D01*
X63078900Y-61456441D01*
X63077360Y-61391027D01*
X63075524Y-61335949D01*
X63073367Y-61290265D01*
X63070863Y-61253034D01*
X63067987Y-61223313D01*
X63064713Y-61200162D01*
X63061015Y-61182639D01*
X63056869Y-61169801D01*
X63052247Y-61160708D01*
X63047126Y-61154418D01*
X63041478Y-61149988D01*
X63035279Y-61146478D01*
X63028504Y-61142945D01*
X63022508Y-61139376D01*
X63017275Y-61136800D01*
X63009099Y-61134472D01*
X62996886Y-61132378D01*
X62979541Y-61130507D01*
X62955969Y-61128847D01*
X62925077Y-61127384D01*
X62885768Y-61126108D01*
X62836950Y-61125004D01*
X62777527Y-61124061D01*
X62706404Y-61123267D01*
X62622488Y-61122609D01*
X62524683Y-61122075D01*
X62411894Y-61121653D01*
X62283029Y-61121329D01*
X62136991Y-61121092D01*
X61972686Y-61120930D01*
X61789020Y-61120830D01*
X61584897Y-61120780D01*
X61373753Y-61120767D01*
X59753400Y-61120767D01*
X59753400Y-61217554D01*
G36*
X56478571Y-61677571D02*
X56318430Y-61698745D01*
X56154490Y-61738885D01*
X55984687Y-61798389D01*
X55806957Y-61877654D01*
X55795690Y-61883199D01*
X55737995Y-61911225D01*
X55686448Y-61935302D01*
X55644809Y-61953749D01*
X55616838Y-61964886D01*
X55607267Y-61967433D01*
X55588050Y-61972441D01*
X55583439Y-61976647D01*
X55588542Y-61987080D01*
X55604582Y-62013368D01*
X55629712Y-62052757D01*
X55662086Y-62102491D01*
X55699857Y-62159815D01*
X55741178Y-62221976D01*
X55784202Y-62286218D01*
X55827083Y-62349785D01*
X55867974Y-62409925D01*
X55905029Y-62463880D01*
X55936400Y-62508897D01*
X55960241Y-62542221D01*
X55974706Y-62561097D01*
X55976691Y-62563287D01*
X55986809Y-62558638D01*
X56009150Y-62541462D01*
X56039720Y-62514940D01*
X56055464Y-62500464D01*
X56151953Y-62425182D01*
X56258664Y-62369741D01*
X56374168Y-62334641D01*
X56497038Y-62320380D01*
X56566439Y-62321551D01*
X56687577Y-62338712D01*
X56796795Y-62374594D01*
X56894418Y-62429459D01*
X56980772Y-62503570D01*
X57056185Y-62597188D01*
X57120982Y-62710576D01*
X57158399Y-62797167D01*
X57202252Y-62932866D01*
X57234572Y-63080350D01*
X57255443Y-63235814D01*
X57264949Y-63395456D01*
X57263173Y-63555473D01*
X57250197Y-63712061D01*
X57226106Y-63861418D01*
X57190982Y-63999740D01*
X57144908Y-64123224D01*
X57128627Y-64157478D01*
X57060380Y-64271564D01*
X56979921Y-64368057D01*
X56888430Y-64446170D01*
X56787089Y-64505117D01*
X56677080Y-64544112D01*
X56559585Y-64562368D01*
X56518117Y-64563711D01*
X56396559Y-64552790D01*
X56276122Y-64519974D01*
X56158334Y-64465939D01*
X56044723Y-64391365D01*
X55953315Y-64313039D01*
X55906785Y-64268508D01*
X55725517Y-64565771D01*
X55680420Y-64639933D01*
X55639181Y-64708146D01*
X55603265Y-64767959D01*
X55574134Y-64816920D01*
X55553250Y-64852579D01*
X55542076Y-64872484D01*
X55540625Y-64875579D01*
X55548854Y-64885218D01*
X55574433Y-64902499D01*
X55614127Y-64925783D01*
X55664703Y-64953434D01*
X55722926Y-64983815D01*
X55785563Y-65015290D01*
X55849379Y-65046222D01*
X55911140Y-65074973D01*
X55967612Y-65099908D01*
X56015562Y-65119389D01*
X56039014Y-65127818D01*
X56172779Y-65165633D01*
X56310673Y-65190636D01*
X56458378Y-65203640D01*
X56585167Y-65205968D01*
X56653122Y-65204873D01*
X56718723Y-65202775D01*
X56776153Y-65199934D01*
X56819597Y-65196606D01*
X56833702Y-65194922D01*
X56972716Y-65166087D01*
X57114243Y-65120968D01*
X57251725Y-65062250D01*
X57378606Y-64992620D01*
X57456111Y-64939941D01*
X57583519Y-64831739D01*
X57701822Y-64705171D01*
X57808828Y-64563366D01*
X57902348Y-64409451D01*
X57980190Y-64246553D01*
X58024044Y-64129256D01*
X58074292Y-63945628D01*
X58107791Y-63751081D01*
X58124551Y-63549825D01*
X58124584Y-63346068D01*
X58107899Y-63144021D01*
X58074507Y-62947892D01*
X58024420Y-62761891D01*
X58020603Y-62750303D01*
X57957719Y-62588250D01*
X57880972Y-62440332D01*
X57787758Y-62302365D01*
X57675473Y-62170161D01*
X57631608Y-62124899D01*
X57495466Y-62000957D01*
X57355509Y-61898415D01*
X57209589Y-61816156D01*
X57055558Y-61753064D01*
X56891268Y-61708023D01*
X56795711Y-61690533D01*
X56636977Y-61674966D01*
X56478571Y-61677571D01*
X56478571Y-61677571D01*
G37*
X56478571Y-61677571D02*
X56318430Y-61698745D01*
X56154490Y-61738885D01*
X55984687Y-61798389D01*
X55806957Y-61877654D01*
X55795690Y-61883199D01*
X55737995Y-61911225D01*
X55686448Y-61935302D01*
X55644809Y-61953749D01*
X55616838Y-61964886D01*
X55607267Y-61967433D01*
X55588050Y-61972441D01*
X55583439Y-61976647D01*
X55588542Y-61987080D01*
X55604582Y-62013368D01*
X55629712Y-62052757D01*
X55662086Y-62102491D01*
X55699857Y-62159815D01*
X55741178Y-62221976D01*
X55784202Y-62286218D01*
X55827083Y-62349785D01*
X55867974Y-62409925D01*
X55905029Y-62463880D01*
X55936400Y-62508897D01*
X55960241Y-62542221D01*
X55974706Y-62561097D01*
X55976691Y-62563287D01*
X55986809Y-62558638D01*
X56009150Y-62541462D01*
X56039720Y-62514940D01*
X56055464Y-62500464D01*
X56151953Y-62425182D01*
X56258664Y-62369741D01*
X56374168Y-62334641D01*
X56497038Y-62320380D01*
X56566439Y-62321551D01*
X56687577Y-62338712D01*
X56796795Y-62374594D01*
X56894418Y-62429459D01*
X56980772Y-62503570D01*
X57056185Y-62597188D01*
X57120982Y-62710576D01*
X57158399Y-62797167D01*
X57202252Y-62932866D01*
X57234572Y-63080350D01*
X57255443Y-63235814D01*
X57264949Y-63395456D01*
X57263173Y-63555473D01*
X57250197Y-63712061D01*
X57226106Y-63861418D01*
X57190982Y-63999740D01*
X57144908Y-64123224D01*
X57128627Y-64157478D01*
X57060380Y-64271564D01*
X56979921Y-64368057D01*
X56888430Y-64446170D01*
X56787089Y-64505117D01*
X56677080Y-64544112D01*
X56559585Y-64562368D01*
X56518117Y-64563711D01*
X56396559Y-64552790D01*
X56276122Y-64519974D01*
X56158334Y-64465939D01*
X56044723Y-64391365D01*
X55953315Y-64313039D01*
X55906785Y-64268508D01*
X55725517Y-64565771D01*
X55680420Y-64639933D01*
X55639181Y-64708146D01*
X55603265Y-64767959D01*
X55574134Y-64816920D01*
X55553250Y-64852579D01*
X55542076Y-64872484D01*
X55540625Y-64875579D01*
X55548854Y-64885218D01*
X55574433Y-64902499D01*
X55614127Y-64925783D01*
X55664703Y-64953434D01*
X55722926Y-64983815D01*
X55785563Y-65015290D01*
X55849379Y-65046222D01*
X55911140Y-65074973D01*
X55967612Y-65099908D01*
X56015562Y-65119389D01*
X56039014Y-65127818D01*
X56172779Y-65165633D01*
X56310673Y-65190636D01*
X56458378Y-65203640D01*
X56585167Y-65205968D01*
X56653122Y-65204873D01*
X56718723Y-65202775D01*
X56776153Y-65199934D01*
X56819597Y-65196606D01*
X56833702Y-65194922D01*
X56972716Y-65166087D01*
X57114243Y-65120968D01*
X57251725Y-65062250D01*
X57378606Y-64992620D01*
X57456111Y-64939941D01*
X57583519Y-64831739D01*
X57701822Y-64705171D01*
X57808828Y-64563366D01*
X57902348Y-64409451D01*
X57980190Y-64246553D01*
X58024044Y-64129256D01*
X58074292Y-63945628D01*
X58107791Y-63751081D01*
X58124551Y-63549825D01*
X58124584Y-63346068D01*
X58107899Y-63144021D01*
X58074507Y-62947892D01*
X58024420Y-62761891D01*
X58020603Y-62750303D01*
X57957719Y-62588250D01*
X57880972Y-62440332D01*
X57787758Y-62302365D01*
X57675473Y-62170161D01*
X57631608Y-62124899D01*
X57495466Y-62000957D01*
X57355509Y-61898415D01*
X57209589Y-61816156D01*
X57055558Y-61753064D01*
X56891268Y-61708023D01*
X56795711Y-61690533D01*
X56636977Y-61674966D01*
X56478571Y-61677571D01*
G36*
X54133426Y-62595052D02*
X53981508Y-62615067D01*
X53846244Y-62648702D01*
X53726761Y-62696225D01*
X53622185Y-62757905D01*
X53544576Y-62821465D01*
X53475735Y-62895599D01*
X53421994Y-62975371D01*
X53379090Y-63067591D01*
X53363616Y-63110661D01*
X53350756Y-63149642D01*
X53339554Y-63185789D01*
X53329880Y-63220934D01*
X53321604Y-63256910D01*
X53314597Y-63295550D01*
X53308728Y-63338685D01*
X53303869Y-63388149D01*
X53299890Y-63445773D01*
X53296660Y-63513391D01*
X53294051Y-63592834D01*
X53291933Y-63685936D01*
X53290176Y-63794527D01*
X53288651Y-63920442D01*
X53287228Y-64065512D01*
X53285975Y-64208278D01*
X53284649Y-64364468D01*
X53283444Y-64499739D01*
X53282234Y-64615746D01*
X53280894Y-64714145D01*
X53279300Y-64796593D01*
X53277325Y-64864746D01*
X53274844Y-64920260D01*
X53271731Y-64964792D01*
X53267862Y-64999998D01*
X53263111Y-65027534D01*
X53257352Y-65049056D01*
X53250461Y-65066222D01*
X53242311Y-65080686D01*
X53232777Y-65094106D01*
X53221734Y-65108138D01*
X53217434Y-65113571D01*
X53201614Y-65136410D01*
X53194578Y-65151963D01*
X53194556Y-65152422D01*
X53205433Y-65154621D01*
X53236418Y-65156647D01*
X53285043Y-65158442D01*
X53348837Y-65159951D01*
X53425331Y-65161116D01*
X53512056Y-65161880D01*
X53606543Y-65162186D01*
X53617450Y-65162189D01*
X54040343Y-65162189D01*
X54043605Y-65066122D01*
X54046867Y-64970056D01*
X54108956Y-65021043D01*
X54206286Y-65088557D01*
X54316187Y-65143249D01*
X54402651Y-65173478D01*
X54471722Y-65188166D01*
X54555075Y-65198159D01*
X54644841Y-65203146D01*
X54733155Y-65202813D01*
X54812149Y-65196851D01*
X54848378Y-65191138D01*
X54988397Y-65153276D01*
X55114822Y-65098432D01*
X55226740Y-65027424D01*
X55323238Y-64941068D01*
X55403400Y-64840179D01*
X55466313Y-64725576D01*
X55510688Y-64599484D01*
X55523022Y-64542901D01*
X55530632Y-64480702D01*
X55534261Y-64405863D01*
X55534755Y-64371967D01*
X55534690Y-64368782D01*
X54774752Y-64368782D01*
X54765459Y-64443833D01*
X54737272Y-64507660D01*
X54688803Y-64563298D01*
X54683746Y-64567711D01*
X54635452Y-64602537D01*
X54583743Y-64625120D01*
X54523011Y-64637040D01*
X54447648Y-64639883D01*
X54429541Y-64639478D01*
X54375722Y-64636825D01*
X54335692Y-64631409D01*
X54300676Y-64621245D01*
X54261897Y-64604350D01*
X54251255Y-64599172D01*
X54190604Y-64563344D01*
X54143785Y-64520712D01*
X54131048Y-64505473D01*
X54086378Y-64448962D01*
X54086378Y-64253086D01*
X54086914Y-64174439D01*
X54088604Y-64116488D01*
X54091572Y-64077375D01*
X54095943Y-64055241D01*
X54100028Y-64048774D01*
X54115953Y-64045611D01*
X54149736Y-64042988D01*
X54196660Y-64041155D01*
X54252007Y-64040357D01*
X54260894Y-64040342D01*
X54381670Y-64045596D01*
X54484340Y-64061763D01*
X54570894Y-64089461D01*
X54643319Y-64129308D01*
X54698249Y-64176258D01*
X54742796Y-64234145D01*
X54767520Y-64297193D01*
X54774752Y-64368782D01*
X55534690Y-64368782D01*
X55532822Y-64278212D01*
X55524478Y-64199312D01*
X55508232Y-64128090D01*
X55482595Y-64057364D01*
X55458599Y-64004993D01*
X55399980Y-63909696D01*
X55321883Y-63821670D01*
X55226685Y-63742517D01*
X55116762Y-63673840D01*
X54994490Y-63617241D01*
X54862245Y-63574321D01*
X54797578Y-63559382D01*
X54661396Y-63537277D01*
X54512951Y-63522694D01*
X54361495Y-63516313D01*
X54234936Y-63517945D01*
X54073050Y-63524724D01*
X54080470Y-63465745D01*
X54099762Y-63366592D01*
X54130896Y-63285872D01*
X54174731Y-63222966D01*
X54232129Y-63177256D01*
X54303952Y-63148122D01*
X54391059Y-63134947D01*
X54494314Y-63137111D01*
X54532289Y-63141112D01*
X54673480Y-63166280D01*
X54810293Y-63207314D01*
X54904822Y-63245315D01*
X54949982Y-63264690D01*
X54988415Y-63280260D01*
X55014766Y-63289905D01*
X55022454Y-63291952D01*
X55032198Y-63282874D01*
X55048917Y-63253905D01*
X55072768Y-63204717D01*
X55103907Y-63134984D01*
X55142493Y-63044379D01*
X55149090Y-63028589D01*
X55179147Y-62956272D01*
X55206126Y-62890925D01*
X55228864Y-62835406D01*
X55246194Y-62792572D01*
X55256952Y-62765281D01*
X55260059Y-62756442D01*
X55250060Y-62751687D01*
X55223783Y-62746410D01*
X55195511Y-62742731D01*
X55165354Y-62737974D01*
X55117567Y-62728528D01*
X55056388Y-62715320D01*
X54986054Y-62699276D01*
X54910806Y-62681320D01*
X54882245Y-62674297D01*
X54777184Y-62648709D01*
X54689520Y-62628647D01*
X54614932Y-62613469D01*
X54549097Y-62602535D01*
X54487693Y-62595204D01*
X54426398Y-62590835D01*
X54360890Y-62588787D01*
X54302872Y-62588389D01*
X54133426Y-62595052D01*
X54133426Y-62595052D01*
G37*
X54133426Y-62595052D02*
X53981508Y-62615067D01*
X53846244Y-62648702D01*
X53726761Y-62696225D01*
X53622185Y-62757905D01*
X53544576Y-62821465D01*
X53475735Y-62895599D01*
X53421994Y-62975371D01*
X53379090Y-63067591D01*
X53363616Y-63110661D01*
X53350756Y-63149642D01*
X53339554Y-63185789D01*
X53329880Y-63220934D01*
X53321604Y-63256910D01*
X53314597Y-63295550D01*
X53308728Y-63338685D01*
X53303869Y-63388149D01*
X53299890Y-63445773D01*
X53296660Y-63513391D01*
X53294051Y-63592834D01*
X53291933Y-63685936D01*
X53290176Y-63794527D01*
X53288651Y-63920442D01*
X53287228Y-64065512D01*
X53285975Y-64208278D01*
X53284649Y-64364468D01*
X53283444Y-64499739D01*
X53282234Y-64615746D01*
X53280894Y-64714145D01*
X53279300Y-64796593D01*
X53277325Y-64864746D01*
X53274844Y-64920260D01*
X53271731Y-64964792D01*
X53267862Y-64999998D01*
X53263111Y-65027534D01*
X53257352Y-65049056D01*
X53250461Y-65066222D01*
X53242311Y-65080686D01*
X53232777Y-65094106D01*
X53221734Y-65108138D01*
X53217434Y-65113571D01*
X53201614Y-65136410D01*
X53194578Y-65151963D01*
X53194556Y-65152422D01*
X53205433Y-65154621D01*
X53236418Y-65156647D01*
X53285043Y-65158442D01*
X53348837Y-65159951D01*
X53425331Y-65161116D01*
X53512056Y-65161880D01*
X53606543Y-65162186D01*
X53617450Y-65162189D01*
X54040343Y-65162189D01*
X54043605Y-65066122D01*
X54046867Y-64970056D01*
X54108956Y-65021043D01*
X54206286Y-65088557D01*
X54316187Y-65143249D01*
X54402651Y-65173478D01*
X54471722Y-65188166D01*
X54555075Y-65198159D01*
X54644841Y-65203146D01*
X54733155Y-65202813D01*
X54812149Y-65196851D01*
X54848378Y-65191138D01*
X54988397Y-65153276D01*
X55114822Y-65098432D01*
X55226740Y-65027424D01*
X55323238Y-64941068D01*
X55403400Y-64840179D01*
X55466313Y-64725576D01*
X55510688Y-64599484D01*
X55523022Y-64542901D01*
X55530632Y-64480702D01*
X55534261Y-64405863D01*
X55534755Y-64371967D01*
X55534690Y-64368782D01*
X54774752Y-64368782D01*
X54765459Y-64443833D01*
X54737272Y-64507660D01*
X54688803Y-64563298D01*
X54683746Y-64567711D01*
X54635452Y-64602537D01*
X54583743Y-64625120D01*
X54523011Y-64637040D01*
X54447648Y-64639883D01*
X54429541Y-64639478D01*
X54375722Y-64636825D01*
X54335692Y-64631409D01*
X54300676Y-64621245D01*
X54261897Y-64604350D01*
X54251255Y-64599172D01*
X54190604Y-64563344D01*
X54143785Y-64520712D01*
X54131048Y-64505473D01*
X54086378Y-64448962D01*
X54086378Y-64253086D01*
X54086914Y-64174439D01*
X54088604Y-64116488D01*
X54091572Y-64077375D01*
X54095943Y-64055241D01*
X54100028Y-64048774D01*
X54115953Y-64045611D01*
X54149736Y-64042988D01*
X54196660Y-64041155D01*
X54252007Y-64040357D01*
X54260894Y-64040342D01*
X54381670Y-64045596D01*
X54484340Y-64061763D01*
X54570894Y-64089461D01*
X54643319Y-64129308D01*
X54698249Y-64176258D01*
X54742796Y-64234145D01*
X54767520Y-64297193D01*
X54774752Y-64368782D01*
X55534690Y-64368782D01*
X55532822Y-64278212D01*
X55524478Y-64199312D01*
X55508232Y-64128090D01*
X55482595Y-64057364D01*
X55458599Y-64004993D01*
X55399980Y-63909696D01*
X55321883Y-63821670D01*
X55226685Y-63742517D01*
X55116762Y-63673840D01*
X54994490Y-63617241D01*
X54862245Y-63574321D01*
X54797578Y-63559382D01*
X54661396Y-63537277D01*
X54512951Y-63522694D01*
X54361495Y-63516313D01*
X54234936Y-63517945D01*
X54073050Y-63524724D01*
X54080470Y-63465745D01*
X54099762Y-63366592D01*
X54130896Y-63285872D01*
X54174731Y-63222966D01*
X54232129Y-63177256D01*
X54303952Y-63148122D01*
X54391059Y-63134947D01*
X54494314Y-63137111D01*
X54532289Y-63141112D01*
X54673480Y-63166280D01*
X54810293Y-63207314D01*
X54904822Y-63245315D01*
X54949982Y-63264690D01*
X54988415Y-63280260D01*
X55014766Y-63289905D01*
X55022454Y-63291952D01*
X55032198Y-63282874D01*
X55048917Y-63253905D01*
X55072768Y-63204717D01*
X55103907Y-63134984D01*
X55142493Y-63044379D01*
X55149090Y-63028589D01*
X55179147Y-62956272D01*
X55206126Y-62890925D01*
X55228864Y-62835406D01*
X55246194Y-62792572D01*
X55256952Y-62765281D01*
X55260059Y-62756442D01*
X55250060Y-62751687D01*
X55223783Y-62746410D01*
X55195511Y-62742731D01*
X55165354Y-62737974D01*
X55117567Y-62728528D01*
X55056388Y-62715320D01*
X54986054Y-62699276D01*
X54910806Y-62681320D01*
X54882245Y-62674297D01*
X54777184Y-62648709D01*
X54689520Y-62628647D01*
X54614932Y-62613469D01*
X54549097Y-62602535D01*
X54487693Y-62595204D01*
X54426398Y-62590835D01*
X54360890Y-62588787D01*
X54302872Y-62588389D01*
X54133426Y-62595052D01*
G36*
X50620493Y-63200745D02*
X50620474Y-63435162D01*
X50620448Y-63648103D01*
X50620375Y-63840668D01*
X50620218Y-64013959D01*
X50619936Y-64169076D01*
X50619491Y-64307120D01*
X50618844Y-64429192D01*
X50617955Y-64536394D01*
X50616787Y-64629826D01*
X50615299Y-64710590D01*
X50613454Y-64779786D01*
X50611211Y-64838515D01*
X50608531Y-64887879D01*
X50605377Y-64928978D01*
X50601708Y-64962913D01*
X50597487Y-64990786D01*
X50592673Y-65013698D01*
X50587227Y-65032749D01*
X50581112Y-65049040D01*
X50574288Y-65063673D01*
X50566715Y-65077749D01*
X50558355Y-65092368D01*
X50553161Y-65101474D01*
X50518896Y-65162189D01*
X51377045Y-65162189D01*
X51377045Y-65066233D01*
X51377776Y-65022870D01*
X51379728Y-64989705D01*
X51382537Y-64971924D01*
X51383779Y-64970278D01*
X51395201Y-64977162D01*
X51417916Y-64995005D01*
X51440615Y-65014379D01*
X51495200Y-65055114D01*
X51564679Y-65096117D01*
X51641730Y-65133623D01*
X51719035Y-65163864D01*
X51749887Y-65173512D01*
X51818384Y-65188078D01*
X51901236Y-65198039D01*
X51990629Y-65203083D01*
X52078752Y-65202896D01*
X52157793Y-65197166D01*
X52195489Y-65191358D01*
X52333586Y-65153297D01*
X52460887Y-65095573D01*
X52576708Y-65018711D01*
X52680363Y-64923239D01*
X52771167Y-64809679D01*
X52837969Y-64698881D01*
X52892836Y-64582125D01*
X52934837Y-64462776D01*
X52964833Y-64336783D01*
X52983689Y-64200094D01*
X52992268Y-64048658D01*
X52992994Y-63971211D01*
X52990900Y-63914434D01*
X52161783Y-63914434D01*
X52161576Y-64007502D01*
X52158663Y-64095192D01*
X52153000Y-64172272D01*
X52144545Y-64233509D01*
X52141962Y-64245850D01*
X52110160Y-64353133D01*
X52068502Y-64440158D01*
X52016637Y-64507142D01*
X51954219Y-64554305D01*
X51880900Y-64581865D01*
X51796331Y-64590041D01*
X51700165Y-64579051D01*
X51636689Y-64563329D01*
X51587546Y-64545139D01*
X51533417Y-64519291D01*
X51492756Y-64495589D01*
X51422200Y-64449221D01*
X51422200Y-63299030D01*
X51489608Y-63255462D01*
X51568133Y-63214540D01*
X51652319Y-63187889D01*
X51737443Y-63175965D01*
X51818784Y-63179222D01*
X51891620Y-63198115D01*
X51923574Y-63213684D01*
X51981499Y-63256681D01*
X52030456Y-63313453D01*
X52071610Y-63386075D01*
X52106126Y-63476621D01*
X52135167Y-63587166D01*
X52136448Y-63593033D01*
X52146619Y-63655288D01*
X52154261Y-63733094D01*
X52159330Y-63821220D01*
X52161783Y-63914434D01*
X52990900Y-63914434D01*
X52985143Y-63758395D01*
X52963198Y-63562559D01*
X52927214Y-63383832D01*
X52877241Y-63222345D01*
X52813332Y-63078226D01*
X52735538Y-62951606D01*
X52643911Y-62842615D01*
X52538503Y-62751383D01*
X52493338Y-62720432D01*
X52392389Y-62664285D01*
X52289099Y-62624674D01*
X52179011Y-62600514D01*
X52057670Y-62590719D01*
X51965164Y-62591765D01*
X51835510Y-62602731D01*
X51722916Y-62624546D01*
X51624125Y-62658214D01*
X51535879Y-62704736D01*
X51487014Y-62738948D01*
X51457647Y-62760862D01*
X51435957Y-62775833D01*
X51427747Y-62780233D01*
X51426132Y-62769404D01*
X51424841Y-62738751D01*
X51423862Y-62691026D01*
X51423183Y-62628979D01*
X51422790Y-62555362D01*
X51422670Y-62472927D01*
X51422812Y-62384425D01*
X51423203Y-62292607D01*
X51423829Y-62200224D01*
X51424680Y-62110028D01*
X51425740Y-62024771D01*
X51426999Y-61947203D01*
X51428444Y-61880076D01*
X51430062Y-61826141D01*
X51431839Y-61788150D01*
X51432331Y-61781167D01*
X51439908Y-61710751D01*
X51451469Y-61655602D01*
X51469208Y-61608481D01*
X51495318Y-61562147D01*
X51501585Y-61552567D01*
X51526017Y-61515878D01*
X50620689Y-61515878D01*
X50620493Y-63200745D01*
X50620493Y-63200745D01*
G37*
X50620493Y-63200745D02*
X50620474Y-63435162D01*
X50620448Y-63648103D01*
X50620375Y-63840668D01*
X50620218Y-64013959D01*
X50619936Y-64169076D01*
X50619491Y-64307120D01*
X50618844Y-64429192D01*
X50617955Y-64536394D01*
X50616787Y-64629826D01*
X50615299Y-64710590D01*
X50613454Y-64779786D01*
X50611211Y-64838515D01*
X50608531Y-64887879D01*
X50605377Y-64928978D01*
X50601708Y-64962913D01*
X50597487Y-64990786D01*
X50592673Y-65013698D01*
X50587227Y-65032749D01*
X50581112Y-65049040D01*
X50574288Y-65063673D01*
X50566715Y-65077749D01*
X50558355Y-65092368D01*
X50553161Y-65101474D01*
X50518896Y-65162189D01*
X51377045Y-65162189D01*
X51377045Y-65066233D01*
X51377776Y-65022870D01*
X51379728Y-64989705D01*
X51382537Y-64971924D01*
X51383779Y-64970278D01*
X51395201Y-64977162D01*
X51417916Y-64995005D01*
X51440615Y-65014379D01*
X51495200Y-65055114D01*
X51564679Y-65096117D01*
X51641730Y-65133623D01*
X51719035Y-65163864D01*
X51749887Y-65173512D01*
X51818384Y-65188078D01*
X51901236Y-65198039D01*
X51990629Y-65203083D01*
X52078752Y-65202896D01*
X52157793Y-65197166D01*
X52195489Y-65191358D01*
X52333586Y-65153297D01*
X52460887Y-65095573D01*
X52576708Y-65018711D01*
X52680363Y-64923239D01*
X52771167Y-64809679D01*
X52837969Y-64698881D01*
X52892836Y-64582125D01*
X52934837Y-64462776D01*
X52964833Y-64336783D01*
X52983689Y-64200094D01*
X52992268Y-64048658D01*
X52992994Y-63971211D01*
X52990900Y-63914434D01*
X52161783Y-63914434D01*
X52161576Y-64007502D01*
X52158663Y-64095192D01*
X52153000Y-64172272D01*
X52144545Y-64233509D01*
X52141962Y-64245850D01*
X52110160Y-64353133D01*
X52068502Y-64440158D01*
X52016637Y-64507142D01*
X51954219Y-64554305D01*
X51880900Y-64581865D01*
X51796331Y-64590041D01*
X51700165Y-64579051D01*
X51636689Y-64563329D01*
X51587546Y-64545139D01*
X51533417Y-64519291D01*
X51492756Y-64495589D01*
X51422200Y-64449221D01*
X51422200Y-63299030D01*
X51489608Y-63255462D01*
X51568133Y-63214540D01*
X51652319Y-63187889D01*
X51737443Y-63175965D01*
X51818784Y-63179222D01*
X51891620Y-63198115D01*
X51923574Y-63213684D01*
X51981499Y-63256681D01*
X52030456Y-63313453D01*
X52071610Y-63386075D01*
X52106126Y-63476621D01*
X52135167Y-63587166D01*
X52136448Y-63593033D01*
X52146619Y-63655288D01*
X52154261Y-63733094D01*
X52159330Y-63821220D01*
X52161783Y-63914434D01*
X52990900Y-63914434D01*
X52985143Y-63758395D01*
X52963198Y-63562559D01*
X52927214Y-63383832D01*
X52877241Y-63222345D01*
X52813332Y-63078226D01*
X52735538Y-62951606D01*
X52643911Y-62842615D01*
X52538503Y-62751383D01*
X52493338Y-62720432D01*
X52392389Y-62664285D01*
X52289099Y-62624674D01*
X52179011Y-62600514D01*
X52057670Y-62590719D01*
X51965164Y-62591765D01*
X51835510Y-62602731D01*
X51722916Y-62624546D01*
X51624125Y-62658214D01*
X51535879Y-62704736D01*
X51487014Y-62738948D01*
X51457647Y-62760862D01*
X51435957Y-62775833D01*
X51427747Y-62780233D01*
X51426132Y-62769404D01*
X51424841Y-62738751D01*
X51423862Y-62691026D01*
X51423183Y-62628979D01*
X51422790Y-62555362D01*
X51422670Y-62472927D01*
X51422812Y-62384425D01*
X51423203Y-62292607D01*
X51423829Y-62200224D01*
X51424680Y-62110028D01*
X51425740Y-62024771D01*
X51426999Y-61947203D01*
X51428444Y-61880076D01*
X51430062Y-61826141D01*
X51431839Y-61788150D01*
X51432331Y-61781167D01*
X51439908Y-61710751D01*
X51451469Y-61655602D01*
X51469208Y-61608481D01*
X51495318Y-61562147D01*
X51501585Y-61552567D01*
X51526017Y-61515878D01*
X50620689Y-61515878D01*
X50620493Y-63200745D01*
G36*
X59080043Y-60755071D02*
X58983768Y-60779309D01*
X58897184Y-60822141D01*
X58822373Y-60881919D01*
X58761418Y-60956994D01*
X58716399Y-61045720D01*
X58690136Y-61142030D01*
X58684286Y-61239295D01*
X58699140Y-61333154D01*
X58732840Y-61421011D01*
X58783528Y-61500270D01*
X58849345Y-61568336D01*
X58928434Y-61622612D01*
X59018934Y-61660502D01*
X59070200Y-61672926D01*
X59114698Y-61680447D01*
X59148999Y-61683419D01*
X59181960Y-61681594D01*
X59222434Y-61674725D01*
X59255531Y-61667750D01*
X59348947Y-61636241D01*
X59432619Y-61585117D01*
X59504665Y-61515929D01*
X59563200Y-61430228D01*
X59577148Y-61402989D01*
X59593586Y-61366622D01*
X59603894Y-61336082D01*
X59609460Y-61303950D01*
X59611669Y-61262807D01*
X59611948Y-61216722D01*
X59607861Y-61132365D01*
X59594446Y-61063086D01*
X59569256Y-61002461D01*
X59529846Y-60944067D01*
X59491298Y-60899802D01*
X59419406Y-60833984D01*
X59344313Y-60788553D01*
X59261562Y-60761350D01*
X59183928Y-60751076D01*
X59080043Y-60755071D01*
X59080043Y-60755071D01*
G37*
X59080043Y-60755071D02*
X58983768Y-60779309D01*
X58897184Y-60822141D01*
X58822373Y-60881919D01*
X58761418Y-60956994D01*
X58716399Y-61045720D01*
X58690136Y-61142030D01*
X58684286Y-61239295D01*
X58699140Y-61333154D01*
X58732840Y-61421011D01*
X58783528Y-61500270D01*
X58849345Y-61568336D01*
X58928434Y-61622612D01*
X59018934Y-61660502D01*
X59070200Y-61672926D01*
X59114698Y-61680447D01*
X59148999Y-61683419D01*
X59181960Y-61681594D01*
X59222434Y-61674725D01*
X59255531Y-61667750D01*
X59348947Y-61636241D01*
X59432619Y-61585117D01*
X59504665Y-61515929D01*
X59563200Y-61430228D01*
X59577148Y-61402989D01*
X59593586Y-61366622D01*
X59603894Y-61336082D01*
X59609460Y-61303950D01*
X59611669Y-61262807D01*
X59611948Y-61216722D01*
X59607861Y-61132365D01*
X59594446Y-61063086D01*
X59569256Y-61002461D01*
X59529846Y-60944067D01*
X59491298Y-60899802D01*
X59419406Y-60833984D01*
X59344313Y-60788553D01*
X59261562Y-60761350D01*
X59183928Y-60751076D01*
X59080043Y-60755071D01*
G36*
X68494759Y-65134184D02*
X68468247Y-65147282D01*
X68435553Y-65170106D01*
X68411725Y-65194996D01*
X68395406Y-65226249D01*
X68385240Y-65268166D01*
X68379872Y-65325044D01*
X68377944Y-65401184D01*
X68377831Y-65433917D01*
X68378161Y-65505656D01*
X68379527Y-65556927D01*
X68382500Y-65592404D01*
X68387649Y-65616763D01*
X68395543Y-65634680D01*
X68403757Y-65646902D01*
X68456187Y-65698905D01*
X68517930Y-65730184D01*
X68584536Y-65739592D01*
X68651558Y-65725980D01*
X68672792Y-65716354D01*
X68723624Y-65689859D01*
X68723624Y-66105052D01*
X68686525Y-66085868D01*
X68637643Y-66071025D01*
X68577561Y-66067222D01*
X68517564Y-66074243D01*
X68472256Y-66090013D01*
X68434675Y-66120047D01*
X68402564Y-66163024D01*
X68400150Y-66167436D01*
X68389967Y-66188221D01*
X68382530Y-66209170D01*
X68377411Y-66234548D01*
X68374181Y-66268618D01*
X68372413Y-66315641D01*
X68371677Y-66379882D01*
X68371544Y-66452176D01*
X68371544Y-66682822D01*
X68509861Y-66682822D01*
X68509861Y-66257533D01*
X68548549Y-66224979D01*
X68588738Y-66198940D01*
X68626797Y-66194205D01*
X68665066Y-66206389D01*
X68685462Y-66218320D01*
X68700642Y-66235313D01*
X68711438Y-66260995D01*
X68718683Y-66298991D01*
X68723208Y-66352926D01*
X68725844Y-66426425D01*
X68726772Y-66475347D01*
X68729911Y-66676535D01*
X68795926Y-66680336D01*
X68861940Y-66684136D01*
X68861940Y-65435650D01*
X68723624Y-65435650D01*
X68720097Y-65505254D01*
X68708215Y-65553569D01*
X68686020Y-65583631D01*
X68651559Y-65598471D01*
X68616742Y-65601436D01*
X68577329Y-65598028D01*
X68551171Y-65584617D01*
X68534814Y-65566896D01*
X68521937Y-65547835D01*
X68514272Y-65526601D01*
X68510861Y-65496849D01*
X68510749Y-65452236D01*
X68511897Y-65414880D01*
X68514532Y-65358604D01*
X68518456Y-65321658D01*
X68525063Y-65298223D01*
X68535749Y-65282480D01*
X68545833Y-65273380D01*
X68587970Y-65253537D01*
X68637840Y-65250332D01*
X68666476Y-65257168D01*
X68694828Y-65281464D01*
X68713609Y-65328728D01*
X68722712Y-65398624D01*
X68723624Y-65435650D01*
X68861940Y-65435650D01*
X68861940Y-65123614D01*
X68792782Y-65123614D01*
X68751260Y-65125256D01*
X68729838Y-65131087D01*
X68723626Y-65142461D01*
X68723624Y-65142798D01*
X68720742Y-65153938D01*
X68708030Y-65152673D01*
X68682757Y-65140433D01*
X68623869Y-65121707D01*
X68557615Y-65119739D01*
X68494759Y-65134184D01*
X68494759Y-65134184D01*
G37*
X68494759Y-65134184D02*
X68468247Y-65147282D01*
X68435553Y-65170106D01*
X68411725Y-65194996D01*
X68395406Y-65226249D01*
X68385240Y-65268166D01*
X68379872Y-65325044D01*
X68377944Y-65401184D01*
X68377831Y-65433917D01*
X68378161Y-65505656D01*
X68379527Y-65556927D01*
X68382500Y-65592404D01*
X68387649Y-65616763D01*
X68395543Y-65634680D01*
X68403757Y-65646902D01*
X68456187Y-65698905D01*
X68517930Y-65730184D01*
X68584536Y-65739592D01*
X68651558Y-65725980D01*
X68672792Y-65716354D01*
X68723624Y-65689859D01*
X68723624Y-66105052D01*
X68686525Y-66085868D01*
X68637643Y-66071025D01*
X68577561Y-66067222D01*
X68517564Y-66074243D01*
X68472256Y-66090013D01*
X68434675Y-66120047D01*
X68402564Y-66163024D01*
X68400150Y-66167436D01*
X68389967Y-66188221D01*
X68382530Y-66209170D01*
X68377411Y-66234548D01*
X68374181Y-66268618D01*
X68372413Y-66315641D01*
X68371677Y-66379882D01*
X68371544Y-66452176D01*
X68371544Y-66682822D01*
X68509861Y-66682822D01*
X68509861Y-66257533D01*
X68548549Y-66224979D01*
X68588738Y-66198940D01*
X68626797Y-66194205D01*
X68665066Y-66206389D01*
X68685462Y-66218320D01*
X68700642Y-66235313D01*
X68711438Y-66260995D01*
X68718683Y-66298991D01*
X68723208Y-66352926D01*
X68725844Y-66426425D01*
X68726772Y-66475347D01*
X68729911Y-66676535D01*
X68795926Y-66680336D01*
X68861940Y-66684136D01*
X68861940Y-65435650D01*
X68723624Y-65435650D01*
X68720097Y-65505254D01*
X68708215Y-65553569D01*
X68686020Y-65583631D01*
X68651559Y-65598471D01*
X68616742Y-65601436D01*
X68577329Y-65598028D01*
X68551171Y-65584617D01*
X68534814Y-65566896D01*
X68521937Y-65547835D01*
X68514272Y-65526601D01*
X68510861Y-65496849D01*
X68510749Y-65452236D01*
X68511897Y-65414880D01*
X68514532Y-65358604D01*
X68518456Y-65321658D01*
X68525063Y-65298223D01*
X68535749Y-65282480D01*
X68545833Y-65273380D01*
X68587970Y-65253537D01*
X68637840Y-65250332D01*
X68666476Y-65257168D01*
X68694828Y-65281464D01*
X68713609Y-65328728D01*
X68722712Y-65398624D01*
X68723624Y-65435650D01*
X68861940Y-65435650D01*
X68861940Y-65123614D01*
X68792782Y-65123614D01*
X68751260Y-65125256D01*
X68729838Y-65131087D01*
X68723626Y-65142461D01*
X68723624Y-65142798D01*
X68720742Y-65153938D01*
X68708030Y-65152673D01*
X68682757Y-65140433D01*
X68623869Y-65121707D01*
X68557615Y-65119739D01*
X68494759Y-65134184D01*
G36*
X67970210Y-66071555D02*
X67911055Y-66087339D01*
X67866023Y-66115948D01*
X67834246Y-66153419D01*
X67824366Y-66169411D01*
X67817073Y-66186163D01*
X67811974Y-66207592D01*
X67808679Y-66237616D01*
X67806797Y-66280154D01*
X67805937Y-66339122D01*
X67805707Y-66418440D01*
X67805703Y-66439484D01*
X67805703Y-66682822D01*
X67866059Y-66682822D01*
X67904557Y-66680126D01*
X67933023Y-66673295D01*
X67940155Y-66669083D01*
X67959652Y-66661813D01*
X67979566Y-66669083D01*
X68012353Y-66678160D01*
X68059978Y-66681813D01*
X68112764Y-66680228D01*
X68161036Y-66673589D01*
X68189218Y-66665072D01*
X68243753Y-66630063D01*
X68277835Y-66581479D01*
X68293157Y-66516882D01*
X68293299Y-66515223D01*
X68291955Y-66486566D01*
X68170356Y-66486566D01*
X68159726Y-66519161D01*
X68142410Y-66537505D01*
X68107652Y-66551379D01*
X68061773Y-66556917D01*
X68014988Y-66554191D01*
X67977514Y-66543274D01*
X67967015Y-66536269D01*
X67948668Y-66503904D01*
X67944020Y-66467111D01*
X67944020Y-66418763D01*
X68013582Y-66418763D01*
X68079667Y-66423850D01*
X68129764Y-66438263D01*
X68160929Y-66460729D01*
X68170356Y-66486566D01*
X68291955Y-66486566D01*
X68289987Y-66444647D01*
X68266710Y-66388845D01*
X68222948Y-66346647D01*
X68216899Y-66342808D01*
X68190907Y-66330309D01*
X68158735Y-66322740D01*
X68113760Y-66319061D01*
X68060331Y-66318216D01*
X67944020Y-66318169D01*
X67944020Y-66269411D01*
X67948953Y-66231581D01*
X67961543Y-66206236D01*
X67963017Y-66204887D01*
X67991034Y-66193800D01*
X68033326Y-66189503D01*
X68080064Y-66191615D01*
X68121418Y-66199756D01*
X68145957Y-66211965D01*
X68159253Y-66221746D01*
X68173294Y-66223613D01*
X68192671Y-66215600D01*
X68221976Y-66195739D01*
X68265803Y-66162063D01*
X68269825Y-66158909D01*
X68267764Y-66147236D01*
X68250568Y-66127822D01*
X68224433Y-66106248D01*
X68195552Y-66088096D01*
X68186478Y-66083809D01*
X68153380Y-66075256D01*
X68104880Y-66069155D01*
X68050695Y-66066708D01*
X68048161Y-66066703D01*
X67970210Y-66071555D01*
X67970210Y-66071555D01*
G37*
X67970210Y-66071555D02*
X67911055Y-66087339D01*
X67866023Y-66115948D01*
X67834246Y-66153419D01*
X67824366Y-66169411D01*
X67817073Y-66186163D01*
X67811974Y-66207592D01*
X67808679Y-66237616D01*
X67806797Y-66280154D01*
X67805937Y-66339122D01*
X67805707Y-66418440D01*
X67805703Y-66439484D01*
X67805703Y-66682822D01*
X67866059Y-66682822D01*
X67904557Y-66680126D01*
X67933023Y-66673295D01*
X67940155Y-66669083D01*
X67959652Y-66661813D01*
X67979566Y-66669083D01*
X68012353Y-66678160D01*
X68059978Y-66681813D01*
X68112764Y-66680228D01*
X68161036Y-66673589D01*
X68189218Y-66665072D01*
X68243753Y-66630063D01*
X68277835Y-66581479D01*
X68293157Y-66516882D01*
X68293299Y-66515223D01*
X68291955Y-66486566D01*
X68170356Y-66486566D01*
X68159726Y-66519161D01*
X68142410Y-66537505D01*
X68107652Y-66551379D01*
X68061773Y-66556917D01*
X68014988Y-66554191D01*
X67977514Y-66543274D01*
X67967015Y-66536269D01*
X67948668Y-66503904D01*
X67944020Y-66467111D01*
X67944020Y-66418763D01*
X68013582Y-66418763D01*
X68079667Y-66423850D01*
X68129764Y-66438263D01*
X68160929Y-66460729D01*
X68170356Y-66486566D01*
X68291955Y-66486566D01*
X68289987Y-66444647D01*
X68266710Y-66388845D01*
X68222948Y-66346647D01*
X68216899Y-66342808D01*
X68190907Y-66330309D01*
X68158735Y-66322740D01*
X68113760Y-66319061D01*
X68060331Y-66318216D01*
X67944020Y-66318169D01*
X67944020Y-66269411D01*
X67948953Y-66231581D01*
X67961543Y-66206236D01*
X67963017Y-66204887D01*
X67991034Y-66193800D01*
X68033326Y-66189503D01*
X68080064Y-66191615D01*
X68121418Y-66199756D01*
X68145957Y-66211965D01*
X68159253Y-66221746D01*
X68173294Y-66223613D01*
X68192671Y-66215600D01*
X68221976Y-66195739D01*
X68265803Y-66162063D01*
X68269825Y-66158909D01*
X68267764Y-66147236D01*
X68250568Y-66127822D01*
X68224433Y-66106248D01*
X68195552Y-66088096D01*
X68186478Y-66083809D01*
X68153380Y-66075256D01*
X68104880Y-66069155D01*
X68050695Y-66066708D01*
X68048161Y-66066703D01*
X67970210Y-66071555D01*
G36*
X67579356Y-66068020D02*
X67560539Y-66073660D01*
X67554473Y-66086053D01*
X67554218Y-66091647D01*
X67553129Y-66107230D01*
X67545632Y-66109676D01*
X67525381Y-66098993D01*
X67513351Y-66091694D01*
X67475400Y-66076063D01*
X67430072Y-66068334D01*
X67382544Y-66067740D01*
X67337995Y-66073513D01*
X67301602Y-66084884D01*
X67278543Y-66101088D01*
X67273996Y-66121355D01*
X67276291Y-66126843D01*
X67293020Y-66149626D01*
X67318963Y-66177647D01*
X67323655Y-66182177D01*
X67348383Y-66203005D01*
X67369718Y-66209735D01*
X67399555Y-66205038D01*
X67411508Y-66201917D01*
X67448705Y-66194421D01*
X67474859Y-66197792D01*
X67496946Y-66209681D01*
X67517178Y-66225635D01*
X67532079Y-66245700D01*
X67542434Y-66273702D01*
X67549029Y-66313467D01*
X67552649Y-66368823D01*
X67554078Y-66443594D01*
X67554218Y-66488740D01*
X67554218Y-66682822D01*
X67679960Y-66682822D01*
X67679960Y-66066683D01*
X67617089Y-66066683D01*
X67579356Y-66068020D01*
X67579356Y-66068020D01*
G37*
X67579356Y-66068020D02*
X67560539Y-66073660D01*
X67554473Y-66086053D01*
X67554218Y-66091647D01*
X67553129Y-66107230D01*
X67545632Y-66109676D01*
X67525381Y-66098993D01*
X67513351Y-66091694D01*
X67475400Y-66076063D01*
X67430072Y-66068334D01*
X67382544Y-66067740D01*
X67337995Y-66073513D01*
X67301602Y-66084884D01*
X67278543Y-66101088D01*
X67273996Y-66121355D01*
X67276291Y-66126843D01*
X67293020Y-66149626D01*
X67318963Y-66177647D01*
X67323655Y-66182177D01*
X67348383Y-66203005D01*
X67369718Y-66209735D01*
X67399555Y-66205038D01*
X67411508Y-66201917D01*
X67448705Y-66194421D01*
X67474859Y-66197792D01*
X67496946Y-66209681D01*
X67517178Y-66225635D01*
X67532079Y-66245700D01*
X67542434Y-66273702D01*
X67549029Y-66313467D01*
X67552649Y-66368823D01*
X67554078Y-66443594D01*
X67554218Y-66488740D01*
X67554218Y-66682822D01*
X67679960Y-66682822D01*
X67679960Y-66066683D01*
X67617089Y-66066683D01*
X67579356Y-66068020D01*
G36*
X66787188Y-66682822D02*
X66856346Y-66682822D01*
X66896488Y-66681645D01*
X66917394Y-66676772D01*
X66924922Y-66666186D01*
X66925505Y-66659029D01*
X66926774Y-66644676D01*
X66934779Y-66641923D01*
X66955815Y-66650771D01*
X66972173Y-66659029D01*
X67034977Y-66678597D01*
X67103248Y-66679729D01*
X67158752Y-66665135D01*
X67210438Y-66629877D01*
X67249838Y-66577835D01*
X67271413Y-66516450D01*
X67271962Y-66513018D01*
X67275167Y-66475571D01*
X67276761Y-66421813D01*
X67276633Y-66381155D01*
X67139279Y-66381155D01*
X67136097Y-66435194D01*
X67128859Y-66479735D01*
X67119060Y-66504888D01*
X67081989Y-66539260D01*
X67037974Y-66551582D01*
X66992584Y-66541618D01*
X66953797Y-66511895D01*
X66939108Y-66491905D01*
X66930519Y-66468050D01*
X66926496Y-66433230D01*
X66925505Y-66380930D01*
X66927278Y-66329139D01*
X66931963Y-66283634D01*
X66938603Y-66253181D01*
X66939710Y-66250452D01*
X66966491Y-66218000D01*
X67005579Y-66200183D01*
X67049315Y-66197306D01*
X67090038Y-66209674D01*
X67120087Y-66237593D01*
X67123204Y-66243148D01*
X67132961Y-66277022D01*
X67138277Y-66325728D01*
X67139279Y-66381155D01*
X67276633Y-66381155D01*
X67276568Y-66360540D01*
X67275664Y-66327563D01*
X67269514Y-66245981D01*
X67256733Y-66184730D01*
X67235471Y-66139449D01*
X67203878Y-66105779D01*
X67173207Y-66086014D01*
X67130354Y-66072120D01*
X67077056Y-66067354D01*
X67022480Y-66071236D01*
X66975792Y-66083282D01*
X66951124Y-66097693D01*
X66925505Y-66120878D01*
X66925505Y-65827773D01*
X66787188Y-65827773D01*
X66787188Y-66682822D01*
X66787188Y-66682822D01*
G37*
X66787188Y-66682822D02*
X66856346Y-66682822D01*
X66896488Y-66681645D01*
X66917394Y-66676772D01*
X66924922Y-66666186D01*
X66925505Y-66659029D01*
X66926774Y-66644676D01*
X66934779Y-66641923D01*
X66955815Y-66650771D01*
X66972173Y-66659029D01*
X67034977Y-66678597D01*
X67103248Y-66679729D01*
X67158752Y-66665135D01*
X67210438Y-66629877D01*
X67249838Y-66577835D01*
X67271413Y-66516450D01*
X67271962Y-66513018D01*
X67275167Y-66475571D01*
X67276761Y-66421813D01*
X67276633Y-66381155D01*
X67139279Y-66381155D01*
X67136097Y-66435194D01*
X67128859Y-66479735D01*
X67119060Y-66504888D01*
X67081989Y-66539260D01*
X67037974Y-66551582D01*
X66992584Y-66541618D01*
X66953797Y-66511895D01*
X66939108Y-66491905D01*
X66930519Y-66468050D01*
X66926496Y-66433230D01*
X66925505Y-66380930D01*
X66927278Y-66329139D01*
X66931963Y-66283634D01*
X66938603Y-66253181D01*
X66939710Y-66250452D01*
X66966491Y-66218000D01*
X67005579Y-66200183D01*
X67049315Y-66197306D01*
X67090038Y-66209674D01*
X67120087Y-66237593D01*
X67123204Y-66243148D01*
X67132961Y-66277022D01*
X67138277Y-66325728D01*
X67139279Y-66381155D01*
X67276633Y-66381155D01*
X67276568Y-66360540D01*
X67275664Y-66327563D01*
X67269514Y-66245981D01*
X67256733Y-66184730D01*
X67235471Y-66139449D01*
X67203878Y-66105779D01*
X67173207Y-66086014D01*
X67130354Y-66072120D01*
X67077056Y-66067354D01*
X67022480Y-66071236D01*
X66975792Y-66083282D01*
X66951124Y-66097693D01*
X66925505Y-66120878D01*
X66925505Y-65827773D01*
X66787188Y-65827773D01*
X66787188Y-66682822D01*
G36*
X66304476Y-66069237D02*
X66254745Y-66072971D01*
X66124709Y-66462773D01*
X66104322Y-66393614D01*
X66092054Y-66350874D01*
X66075915Y-66293115D01*
X66058488Y-66229625D01*
X66049274Y-66195570D01*
X66014612Y-66066683D01*
X65871609Y-66066683D01*
X65914354Y-66201857D01*
X65935404Y-66268342D01*
X65960833Y-66348539D01*
X65987390Y-66432193D01*
X66011098Y-66506782D01*
X66065098Y-66676535D01*
X66123402Y-66680328D01*
X66181705Y-66684122D01*
X66213321Y-66579734D01*
X66232818Y-66514889D01*
X66254096Y-66443400D01*
X66272692Y-66380263D01*
X66273426Y-66377750D01*
X66287316Y-66334969D01*
X66299571Y-66305779D01*
X66308154Y-66294741D01*
X66309918Y-66296018D01*
X66316109Y-66313130D01*
X66327872Y-66349787D01*
X66343775Y-66401378D01*
X66362386Y-66463294D01*
X66372457Y-66497352D01*
X66426993Y-66682822D01*
X66542736Y-66682822D01*
X66635263Y-66390471D01*
X66661256Y-66308462D01*
X66684934Y-66233987D01*
X66705180Y-66170544D01*
X66720874Y-66121632D01*
X66730898Y-66090749D01*
X66733945Y-66081726D01*
X66731533Y-66072487D01*
X66712592Y-66068441D01*
X66673177Y-66068846D01*
X66667007Y-66069152D01*
X66593914Y-66072971D01*
X66546043Y-66249010D01*
X66528447Y-66313211D01*
X66512723Y-66369649D01*
X66500254Y-66413422D01*
X66492426Y-66439630D01*
X66490980Y-66443903D01*
X66484986Y-66438990D01*
X66472899Y-66413532D01*
X66456107Y-66370997D01*
X66435997Y-66314850D01*
X66418997Y-66264130D01*
X66354206Y-66065504D01*
X66304476Y-66069237D01*
X66304476Y-66069237D01*
G37*
X66304476Y-66069237D02*
X66254745Y-66072971D01*
X66124709Y-66462773D01*
X66104322Y-66393614D01*
X66092054Y-66350874D01*
X66075915Y-66293115D01*
X66058488Y-66229625D01*
X66049274Y-66195570D01*
X66014612Y-66066683D01*
X65871609Y-66066683D01*
X65914354Y-66201857D01*
X65935404Y-66268342D01*
X65960833Y-66348539D01*
X65987390Y-66432193D01*
X66011098Y-66506782D01*
X66065098Y-66676535D01*
X66123402Y-66680328D01*
X66181705Y-66684122D01*
X66213321Y-66579734D01*
X66232818Y-66514889D01*
X66254096Y-66443400D01*
X66272692Y-66380263D01*
X66273426Y-66377750D01*
X66287316Y-66334969D01*
X66299571Y-66305779D01*
X66308154Y-66294741D01*
X66309918Y-66296018D01*
X66316109Y-66313130D01*
X66327872Y-66349787D01*
X66343775Y-66401378D01*
X66362386Y-66463294D01*
X66372457Y-66497352D01*
X66426993Y-66682822D01*
X66542736Y-66682822D01*
X66635263Y-66390471D01*
X66661256Y-66308462D01*
X66684934Y-66233987D01*
X66705180Y-66170544D01*
X66720874Y-66121632D01*
X66730898Y-66090749D01*
X66733945Y-66081726D01*
X66731533Y-66072487D01*
X66712592Y-66068441D01*
X66673177Y-66068846D01*
X66667007Y-66069152D01*
X66593914Y-66072971D01*
X66546043Y-66249010D01*
X66528447Y-66313211D01*
X66512723Y-66369649D01*
X66500254Y-66413422D01*
X66492426Y-66439630D01*
X66490980Y-66443903D01*
X66484986Y-66438990D01*
X66472899Y-66413532D01*
X66456107Y-66370997D01*
X66435997Y-66314850D01*
X66418997Y-66264130D01*
X66354206Y-66065504D01*
X66304476Y-66069237D01*
G36*
X65547589Y-66070417D02*
X65494589Y-66083290D01*
X65479269Y-66090110D01*
X65449572Y-66107974D01*
X65426780Y-66128093D01*
X65409917Y-66153962D01*
X65398002Y-66189073D01*
X65390058Y-66236920D01*
X65385106Y-66300996D01*
X65382169Y-66384794D01*
X65381053Y-66440768D01*
X65376948Y-66682822D01*
X65447068Y-66682822D01*
X65489607Y-66681038D01*
X65511524Y-66674942D01*
X65517188Y-66664706D01*
X65520179Y-66653637D01*
X65533549Y-66655754D01*
X65551767Y-66664629D01*
X65597376Y-66678233D01*
X65655993Y-66681899D01*
X65717646Y-66675903D01*
X65772362Y-66660521D01*
X65777270Y-66658386D01*
X65827277Y-66623255D01*
X65860244Y-66574419D01*
X65875413Y-66517333D01*
X65874254Y-66496824D01*
X65750492Y-66496824D01*
X65739587Y-66524425D01*
X65707255Y-66544204D01*
X65655090Y-66554819D01*
X65627213Y-66556228D01*
X65580753Y-66552620D01*
X65549871Y-66538597D01*
X65542336Y-66531931D01*
X65521924Y-66495666D01*
X65517188Y-66462773D01*
X65517188Y-66418763D01*
X65578487Y-66418763D01*
X65649744Y-66422395D01*
X65699724Y-66433818D01*
X65731304Y-66453824D01*
X65738374Y-66462743D01*
X65750492Y-66496824D01*
X65874254Y-66496824D01*
X65872029Y-66457456D01*
X65849337Y-66400244D01*
X65818376Y-66361580D01*
X65799624Y-66344864D01*
X65781267Y-66333878D01*
X65757381Y-66327180D01*
X65722043Y-66323326D01*
X65669331Y-66320873D01*
X65648423Y-66320168D01*
X65517188Y-66315879D01*
X65517380Y-66276158D01*
X65522463Y-66234405D01*
X65540838Y-66209158D01*
X65577961Y-66193030D01*
X65578957Y-66192742D01*
X65631590Y-66186400D01*
X65683094Y-66194684D01*
X65721370Y-66214827D01*
X65736728Y-66224773D01*
X65753270Y-66223397D01*
X65778725Y-66208987D01*
X65793672Y-66198817D01*
X65822909Y-66177088D01*
X65841020Y-66160800D01*
X65843926Y-66156137D01*
X65831960Y-66132005D01*
X65796604Y-66103185D01*
X65781247Y-66093461D01*
X65737099Y-66076714D01*
X65677602Y-66067227D01*
X65611513Y-66065095D01*
X65547589Y-66070417D01*
X65547589Y-66070417D01*
G37*
X65547589Y-66070417D02*
X65494589Y-66083290D01*
X65479269Y-66090110D01*
X65449572Y-66107974D01*
X65426780Y-66128093D01*
X65409917Y-66153962D01*
X65398002Y-66189073D01*
X65390058Y-66236920D01*
X65385106Y-66300996D01*
X65382169Y-66384794D01*
X65381053Y-66440768D01*
X65376948Y-66682822D01*
X65447068Y-66682822D01*
X65489607Y-66681038D01*
X65511524Y-66674942D01*
X65517188Y-66664706D01*
X65520179Y-66653637D01*
X65533549Y-66655754D01*
X65551767Y-66664629D01*
X65597376Y-66678233D01*
X65655993Y-66681899D01*
X65717646Y-66675903D01*
X65772362Y-66660521D01*
X65777270Y-66658386D01*
X65827277Y-66623255D01*
X65860244Y-66574419D01*
X65875413Y-66517333D01*
X65874254Y-66496824D01*
X65750492Y-66496824D01*
X65739587Y-66524425D01*
X65707255Y-66544204D01*
X65655090Y-66554819D01*
X65627213Y-66556228D01*
X65580753Y-66552620D01*
X65549871Y-66538597D01*
X65542336Y-66531931D01*
X65521924Y-66495666D01*
X65517188Y-66462773D01*
X65517188Y-66418763D01*
X65578487Y-66418763D01*
X65649744Y-66422395D01*
X65699724Y-66433818D01*
X65731304Y-66453824D01*
X65738374Y-66462743D01*
X65750492Y-66496824D01*
X65874254Y-66496824D01*
X65872029Y-66457456D01*
X65849337Y-66400244D01*
X65818376Y-66361580D01*
X65799624Y-66344864D01*
X65781267Y-66333878D01*
X65757381Y-66327180D01*
X65722043Y-66323326D01*
X65669331Y-66320873D01*
X65648423Y-66320168D01*
X65517188Y-66315879D01*
X65517380Y-66276158D01*
X65522463Y-66234405D01*
X65540838Y-66209158D01*
X65577961Y-66193030D01*
X65578957Y-66192742D01*
X65631590Y-66186400D01*
X65683094Y-66194684D01*
X65721370Y-66214827D01*
X65736728Y-66224773D01*
X65753270Y-66223397D01*
X65778725Y-66208987D01*
X65793672Y-66198817D01*
X65822909Y-66177088D01*
X65841020Y-66160800D01*
X65843926Y-66156137D01*
X65831960Y-66132005D01*
X65796604Y-66103185D01*
X65781247Y-66093461D01*
X65737099Y-66076714D01*
X65677602Y-66067227D01*
X65611513Y-66065095D01*
X65547589Y-66070417D01*
G36*
X64950745Y-66066486D02*
X64902405Y-66076015D01*
X64874886Y-66090125D01*
X64845936Y-66113568D01*
X64887124Y-66165571D01*
X64912518Y-66197064D01*
X64929762Y-66212428D01*
X64946898Y-66214776D01*
X64971973Y-66207217D01*
X64983743Y-66202941D01*
X65031730Y-66196631D01*
X65075676Y-66210156D01*
X65107940Y-66240710D01*
X65113181Y-66250452D01*
X65118888Y-66276258D01*
X65123294Y-66323817D01*
X65126189Y-66389758D01*
X65127369Y-66470710D01*
X65127386Y-66482226D01*
X65127386Y-66682822D01*
X65265703Y-66682822D01*
X65265703Y-66066683D01*
X65196544Y-66066683D01*
X65156667Y-66067725D01*
X65135893Y-66072358D01*
X65128211Y-66082849D01*
X65127386Y-66092745D01*
X65127386Y-66118806D01*
X65094255Y-66092745D01*
X65056265Y-66074965D01*
X65005230Y-66066174D01*
X64950745Y-66066486D01*
X64950745Y-66066486D01*
G37*
X64950745Y-66066486D02*
X64902405Y-66076015D01*
X64874886Y-66090125D01*
X64845936Y-66113568D01*
X64887124Y-66165571D01*
X64912518Y-66197064D01*
X64929762Y-66212428D01*
X64946898Y-66214776D01*
X64971973Y-66207217D01*
X64983743Y-66202941D01*
X65031730Y-66196631D01*
X65075676Y-66210156D01*
X65107940Y-66240710D01*
X65113181Y-66250452D01*
X65118888Y-66276258D01*
X65123294Y-66323817D01*
X65126189Y-66389758D01*
X65127369Y-66470710D01*
X65127386Y-66482226D01*
X65127386Y-66682822D01*
X65265703Y-66682822D01*
X65265703Y-66066683D01*
X65196544Y-66066683D01*
X65156667Y-66067725D01*
X65135893Y-66072358D01*
X65128211Y-66082849D01*
X65127386Y-66092745D01*
X65127386Y-66118806D01*
X65094255Y-66092745D01*
X65056265Y-66074965D01*
X65005230Y-66066174D01*
X64950745Y-66066486D01*
G36*
X64553419Y-66069970D02*
X64493315Y-66085597D01*
X64442979Y-66117848D01*
X64418607Y-66141940D01*
X64378655Y-66198895D01*
X64355758Y-66264965D01*
X64347892Y-66346182D01*
X64347852Y-66352748D01*
X64347782Y-66418763D01*
X64727736Y-66418763D01*
X64719637Y-66453342D01*
X64705013Y-66484659D01*
X64679419Y-66517291D01*
X64674065Y-66522500D01*
X64628057Y-66550694D01*
X64575590Y-66555475D01*
X64515197Y-66536926D01*
X64504960Y-66531931D01*
X64473561Y-66516745D01*
X64452530Y-66508094D01*
X64448861Y-66507293D01*
X64436052Y-66515063D01*
X64411622Y-66534072D01*
X64399221Y-66544460D01*
X64373524Y-66568321D01*
X64365085Y-66584077D01*
X64370942Y-66598571D01*
X64374072Y-66602534D01*
X64395275Y-66619879D01*
X64430262Y-66640959D01*
X64454663Y-66653265D01*
X64523928Y-66674946D01*
X64600612Y-66681971D01*
X64673235Y-66673647D01*
X64693574Y-66667686D01*
X64756524Y-66633952D01*
X64803185Y-66582045D01*
X64833827Y-66511459D01*
X64848718Y-66421692D01*
X64850353Y-66374753D01*
X64845579Y-66306413D01*
X64725010Y-66306413D01*
X64713348Y-66311465D01*
X64682002Y-66315429D01*
X64636429Y-66317768D01*
X64605554Y-66318169D01*
X64550019Y-66317783D01*
X64514967Y-66315975D01*
X64495738Y-66311773D01*
X64487670Y-66304203D01*
X64486099Y-66293218D01*
X64496879Y-66259381D01*
X64524020Y-66225940D01*
X64559723Y-66200272D01*
X64595440Y-66189772D01*
X64643952Y-66199086D01*
X64685947Y-66226013D01*
X64715064Y-66264827D01*
X64725010Y-66306413D01*
X64845579Y-66306413D01*
X64843401Y-66275236D01*
X64821945Y-66195949D01*
X64785530Y-66136263D01*
X64733703Y-66095549D01*
X64666010Y-66073179D01*
X64629338Y-66068871D01*
X64553419Y-66069970D01*
X64553419Y-66069970D01*
G37*
X64553419Y-66069970D02*
X64493315Y-66085597D01*
X64442979Y-66117848D01*
X64418607Y-66141940D01*
X64378655Y-66198895D01*
X64355758Y-66264965D01*
X64347892Y-66346182D01*
X64347852Y-66352748D01*
X64347782Y-66418763D01*
X64727736Y-66418763D01*
X64719637Y-66453342D01*
X64705013Y-66484659D01*
X64679419Y-66517291D01*
X64674065Y-66522500D01*
X64628057Y-66550694D01*
X64575590Y-66555475D01*
X64515197Y-66536926D01*
X64504960Y-66531931D01*
X64473561Y-66516745D01*
X64452530Y-66508094D01*
X64448861Y-66507293D01*
X64436052Y-66515063D01*
X64411622Y-66534072D01*
X64399221Y-66544460D01*
X64373524Y-66568321D01*
X64365085Y-66584077D01*
X64370942Y-66598571D01*
X64374072Y-66602534D01*
X64395275Y-66619879D01*
X64430262Y-66640959D01*
X64454663Y-66653265D01*
X64523928Y-66674946D01*
X64600612Y-66681971D01*
X64673235Y-66673647D01*
X64693574Y-66667686D01*
X64756524Y-66633952D01*
X64803185Y-66582045D01*
X64833827Y-66511459D01*
X64848718Y-66421692D01*
X64850353Y-66374753D01*
X64845579Y-66306413D01*
X64725010Y-66306413D01*
X64713348Y-66311465D01*
X64682002Y-66315429D01*
X64636429Y-66317768D01*
X64605554Y-66318169D01*
X64550019Y-66317783D01*
X64514967Y-66315975D01*
X64495738Y-66311773D01*
X64487670Y-66304203D01*
X64486099Y-66293218D01*
X64496879Y-66259381D01*
X64524020Y-66225940D01*
X64559723Y-66200272D01*
X64595440Y-66189772D01*
X64643952Y-66199086D01*
X64685947Y-66226013D01*
X64715064Y-66264827D01*
X64725010Y-66306413D01*
X64845579Y-66306413D01*
X64843401Y-66275236D01*
X64821945Y-66195949D01*
X64785530Y-66136263D01*
X64733703Y-66095549D01*
X64666010Y-66073179D01*
X64629338Y-66068871D01*
X64553419Y-66069970D01*
G36*
X69124261Y-65130148D02*
X69058479Y-65159231D01*
X69008540Y-65207793D01*
X68974374Y-65275908D01*
X68955907Y-65363651D01*
X68954583Y-65377351D01*
X68953546Y-65473939D01*
X68966993Y-65558602D01*
X68994108Y-65627221D01*
X69008627Y-65649294D01*
X69059201Y-65696011D01*
X69123609Y-65726268D01*
X69195666Y-65738824D01*
X69269185Y-65732439D01*
X69325072Y-65712772D01*
X69373132Y-65679629D01*
X69412412Y-65636175D01*
X69413092Y-65635158D01*
X69429044Y-65608338D01*
X69439410Y-65581368D01*
X69445688Y-65547332D01*
X69449373Y-65499310D01*
X69450997Y-65459931D01*
X69451672Y-65424219D01*
X69325955Y-65424219D01*
X69324726Y-65459770D01*
X69320266Y-65507094D01*
X69312397Y-65537465D01*
X69298207Y-65559072D01*
X69284917Y-65571694D01*
X69237802Y-65598122D01*
X69188505Y-65601653D01*
X69142593Y-65582639D01*
X69119638Y-65561331D01*
X69103096Y-65539859D01*
X69093421Y-65519313D01*
X69089174Y-65492574D01*
X69088920Y-65452523D01*
X69090228Y-65415638D01*
X69093043Y-65362947D01*
X69097505Y-65328772D01*
X69105548Y-65306480D01*
X69119103Y-65289442D01*
X69129845Y-65279703D01*
X69174777Y-65254123D01*
X69223249Y-65252847D01*
X69263894Y-65267999D01*
X69298567Y-65299642D01*
X69319224Y-65351620D01*
X69325955Y-65424219D01*
X69451672Y-65424219D01*
X69452479Y-65381621D01*
X69449948Y-65323056D01*
X69442362Y-65279007D01*
X69428681Y-65244248D01*
X69407865Y-65213551D01*
X69400147Y-65204436D01*
X69351889Y-65159021D01*
X69300128Y-65132493D01*
X69236828Y-65121379D01*
X69205961Y-65120471D01*
X69124261Y-65130148D01*
X69124261Y-65130148D01*
G37*
X69124261Y-65130148D02*
X69058479Y-65159231D01*
X69008540Y-65207793D01*
X68974374Y-65275908D01*
X68955907Y-65363651D01*
X68954583Y-65377351D01*
X68953546Y-65473939D01*
X68966993Y-65558602D01*
X68994108Y-65627221D01*
X69008627Y-65649294D01*
X69059201Y-65696011D01*
X69123609Y-65726268D01*
X69195666Y-65738824D01*
X69269185Y-65732439D01*
X69325072Y-65712772D01*
X69373132Y-65679629D01*
X69412412Y-65636175D01*
X69413092Y-65635158D01*
X69429044Y-65608338D01*
X69439410Y-65581368D01*
X69445688Y-65547332D01*
X69449373Y-65499310D01*
X69450997Y-65459931D01*
X69451672Y-65424219D01*
X69325955Y-65424219D01*
X69324726Y-65459770D01*
X69320266Y-65507094D01*
X69312397Y-65537465D01*
X69298207Y-65559072D01*
X69284917Y-65571694D01*
X69237802Y-65598122D01*
X69188505Y-65601653D01*
X69142593Y-65582639D01*
X69119638Y-65561331D01*
X69103096Y-65539859D01*
X69093421Y-65519313D01*
X69089174Y-65492574D01*
X69088920Y-65452523D01*
X69090228Y-65415638D01*
X69093043Y-65362947D01*
X69097505Y-65328772D01*
X69105548Y-65306480D01*
X69119103Y-65289442D01*
X69129845Y-65279703D01*
X69174777Y-65254123D01*
X69223249Y-65252847D01*
X69263894Y-65267999D01*
X69298567Y-65299642D01*
X69319224Y-65351620D01*
X69325955Y-65424219D01*
X69451672Y-65424219D01*
X69452479Y-65381621D01*
X69449948Y-65323056D01*
X69442362Y-65279007D01*
X69428681Y-65244248D01*
X69407865Y-65213551D01*
X69400147Y-65204436D01*
X69351889Y-65159021D01*
X69300128Y-65132493D01*
X69236828Y-65121379D01*
X69205961Y-65120471D01*
X69124261Y-65130148D01*
G36*
X67942699Y-65137614D02*
X67930168Y-65143514D01*
X67886799Y-65175283D01*
X67845790Y-65221646D01*
X67815168Y-65272696D01*
X67806459Y-65296166D01*
X67798512Y-65338091D01*
X67793774Y-65388757D01*
X67793199Y-65409679D01*
X67793129Y-65475693D01*
X68173083Y-65475693D01*
X68164983Y-65510273D01*
X68145104Y-65551170D01*
X68110347Y-65586514D01*
X68068998Y-65609282D01*
X68042649Y-65614010D01*
X68006916Y-65608273D01*
X67964282Y-65593882D01*
X67949799Y-65587262D01*
X67896240Y-65560513D01*
X67850533Y-65595376D01*
X67824158Y-65618955D01*
X67810124Y-65638417D01*
X67809414Y-65644129D01*
X67821951Y-65657973D01*
X67849428Y-65679012D01*
X67874366Y-65695425D01*
X67941664Y-65724930D01*
X68017110Y-65738284D01*
X68091888Y-65734812D01*
X68151495Y-65716663D01*
X68212941Y-65677784D01*
X68256608Y-65626595D01*
X68283926Y-65560367D01*
X68296322Y-65476371D01*
X68297421Y-65437936D01*
X68293022Y-65349861D01*
X68292482Y-65347299D01*
X68166582Y-65347299D01*
X68163115Y-65355558D01*
X68148863Y-65360113D01*
X68119470Y-65362065D01*
X68070575Y-65362517D01*
X68051748Y-65362525D01*
X67994467Y-65361843D01*
X67958141Y-65359364D01*
X67938604Y-65354443D01*
X67931690Y-65346434D01*
X67931445Y-65343862D01*
X67939336Y-65323423D01*
X67959085Y-65294789D01*
X67967575Y-65284763D01*
X67999094Y-65256408D01*
X68031949Y-65245259D01*
X68049651Y-65244327D01*
X68097539Y-65255981D01*
X68137699Y-65287285D01*
X68163173Y-65332752D01*
X68163625Y-65334233D01*
X68166582Y-65347299D01*
X68292482Y-65347299D01*
X68278392Y-65280510D01*
X68252038Y-65225025D01*
X68219807Y-65185639D01*
X68160217Y-65142931D01*
X68090168Y-65120109D01*
X68015661Y-65118046D01*
X67942699Y-65137614D01*
X67942699Y-65137614D01*
G37*
X67942699Y-65137614D02*
X67930168Y-65143514D01*
X67886799Y-65175283D01*
X67845790Y-65221646D01*
X67815168Y-65272696D01*
X67806459Y-65296166D01*
X67798512Y-65338091D01*
X67793774Y-65388757D01*
X67793199Y-65409679D01*
X67793129Y-65475693D01*
X68173083Y-65475693D01*
X68164983Y-65510273D01*
X68145104Y-65551170D01*
X68110347Y-65586514D01*
X68068998Y-65609282D01*
X68042649Y-65614010D01*
X68006916Y-65608273D01*
X67964282Y-65593882D01*
X67949799Y-65587262D01*
X67896240Y-65560513D01*
X67850533Y-65595376D01*
X67824158Y-65618955D01*
X67810124Y-65638417D01*
X67809414Y-65644129D01*
X67821951Y-65657973D01*
X67849428Y-65679012D01*
X67874366Y-65695425D01*
X67941664Y-65724930D01*
X68017110Y-65738284D01*
X68091888Y-65734812D01*
X68151495Y-65716663D01*
X68212941Y-65677784D01*
X68256608Y-65626595D01*
X68283926Y-65560367D01*
X68296322Y-65476371D01*
X68297421Y-65437936D01*
X68293022Y-65349861D01*
X68292482Y-65347299D01*
X68166582Y-65347299D01*
X68163115Y-65355558D01*
X68148863Y-65360113D01*
X68119470Y-65362065D01*
X68070575Y-65362517D01*
X68051748Y-65362525D01*
X67994467Y-65361843D01*
X67958141Y-65359364D01*
X67938604Y-65354443D01*
X67931690Y-65346434D01*
X67931445Y-65343862D01*
X67939336Y-65323423D01*
X67959085Y-65294789D01*
X67967575Y-65284763D01*
X67999094Y-65256408D01*
X68031949Y-65245259D01*
X68049651Y-65244327D01*
X68097539Y-65255981D01*
X68137699Y-65287285D01*
X68163173Y-65332752D01*
X68163625Y-65334233D01*
X68166582Y-65347299D01*
X68292482Y-65347299D01*
X68278392Y-65280510D01*
X68252038Y-65225025D01*
X68219807Y-65185639D01*
X68160217Y-65142931D01*
X68090168Y-65120109D01*
X68015661Y-65118046D01*
X67942699Y-65137614D01*
G36*
X66571983Y-65121452D02*
X66524366Y-65130482D01*
X66474966Y-65149370D01*
X66469688Y-65151777D01*
X66432226Y-65171476D01*
X66406283Y-65189781D01*
X66397897Y-65201508D01*
X66405883Y-65220632D01*
X66425280Y-65248850D01*
X66433890Y-65259384D01*
X66469372Y-65300847D01*
X66515115Y-65273858D01*
X66558650Y-65255878D01*
X66608950Y-65246267D01*
X66657188Y-65245660D01*
X66694533Y-65254691D01*
X66703495Y-65260327D01*
X66720563Y-65286171D01*
X66722637Y-65315941D01*
X66709866Y-65339197D01*
X66702312Y-65343708D01*
X66679675Y-65349309D01*
X66639885Y-65355892D01*
X66590834Y-65362183D01*
X66581785Y-65363170D01*
X66503004Y-65376798D01*
X66445864Y-65399946D01*
X66407970Y-65434752D01*
X66386921Y-65483354D01*
X66380365Y-65542718D01*
X66389423Y-65610198D01*
X66418836Y-65663188D01*
X66468722Y-65701783D01*
X66539200Y-65726081D01*
X66617435Y-65735667D01*
X66681234Y-65735552D01*
X66732984Y-65726845D01*
X66768327Y-65714825D01*
X66812983Y-65693880D01*
X66854253Y-65669574D01*
X66868921Y-65658876D01*
X66906643Y-65628084D01*
X66861148Y-65582049D01*
X66815653Y-65536013D01*
X66763928Y-65570243D01*
X66712048Y-65595952D01*
X66656649Y-65609399D01*
X66603395Y-65610818D01*
X66557951Y-65600443D01*
X66525984Y-65578507D01*
X66515662Y-65559998D01*
X66517211Y-65530314D01*
X66542860Y-65507615D01*
X66592540Y-65491940D01*
X66646969Y-65484695D01*
X66730736Y-65470873D01*
X66792967Y-65444796D01*
X66834493Y-65405699D01*
X66856147Y-65352820D01*
X66859147Y-65290126D01*
X66844329Y-65224642D01*
X66810546Y-65175144D01*
X66757495Y-65141408D01*
X66684874Y-65123207D01*
X66631072Y-65119639D01*
X66571983Y-65121452D01*
X66571983Y-65121452D01*
G37*
X66571983Y-65121452D02*
X66524366Y-65130482D01*
X66474966Y-65149370D01*
X66469688Y-65151777D01*
X66432226Y-65171476D01*
X66406283Y-65189781D01*
X66397897Y-65201508D01*
X66405883Y-65220632D01*
X66425280Y-65248850D01*
X66433890Y-65259384D01*
X66469372Y-65300847D01*
X66515115Y-65273858D01*
X66558650Y-65255878D01*
X66608950Y-65246267D01*
X66657188Y-65245660D01*
X66694533Y-65254691D01*
X66703495Y-65260327D01*
X66720563Y-65286171D01*
X66722637Y-65315941D01*
X66709866Y-65339197D01*
X66702312Y-65343708D01*
X66679675Y-65349309D01*
X66639885Y-65355892D01*
X66590834Y-65362183D01*
X66581785Y-65363170D01*
X66503004Y-65376798D01*
X66445864Y-65399946D01*
X66407970Y-65434752D01*
X66386921Y-65483354D01*
X66380365Y-65542718D01*
X66389423Y-65610198D01*
X66418836Y-65663188D01*
X66468722Y-65701783D01*
X66539200Y-65726081D01*
X66617435Y-65735667D01*
X66681234Y-65735552D01*
X66732984Y-65726845D01*
X66768327Y-65714825D01*
X66812983Y-65693880D01*
X66854253Y-65669574D01*
X66868921Y-65658876D01*
X66906643Y-65628084D01*
X66861148Y-65582049D01*
X66815653Y-65536013D01*
X66763928Y-65570243D01*
X66712048Y-65595952D01*
X66656649Y-65609399D01*
X66603395Y-65610818D01*
X66557951Y-65600443D01*
X66525984Y-65578507D01*
X66515662Y-65559998D01*
X66517211Y-65530314D01*
X66542860Y-65507615D01*
X66592540Y-65491940D01*
X66646969Y-65484695D01*
X66730736Y-65470873D01*
X66792967Y-65444796D01*
X66834493Y-65405699D01*
X66856147Y-65352820D01*
X66859147Y-65290126D01*
X66844329Y-65224642D01*
X66810546Y-65175144D01*
X66757495Y-65141408D01*
X66684874Y-65123207D01*
X66631072Y-65119639D01*
X66571983Y-65121452D01*
G36*
X65975238Y-65131055D02*
X65911637Y-65165692D01*
X65861877Y-65220372D01*
X65838432Y-65264842D01*
X65828366Y-65304121D01*
X65821844Y-65360116D01*
X65819049Y-65424621D01*
X65820164Y-65489429D01*
X65825374Y-65546334D01*
X65831459Y-65576727D01*
X65851986Y-65618306D01*
X65887537Y-65662468D01*
X65930381Y-65701087D01*
X65972789Y-65726034D01*
X65973823Y-65726430D01*
X66026447Y-65737331D01*
X66088812Y-65737601D01*
X66148076Y-65727676D01*
X66170960Y-65719722D01*
X66229898Y-65686300D01*
X66272110Y-65642511D01*
X66299844Y-65584538D01*
X66315349Y-65508565D01*
X66318857Y-65468771D01*
X66318410Y-65418766D01*
X66183624Y-65418766D01*
X66179083Y-65491732D01*
X66166014Y-65547334D01*
X66145244Y-65582861D01*
X66130448Y-65593020D01*
X66092536Y-65600104D01*
X66047473Y-65598007D01*
X66008513Y-65587812D01*
X65998296Y-65582204D01*
X65971341Y-65549538D01*
X65953549Y-65499545D01*
X65945976Y-65438705D01*
X65949675Y-65373497D01*
X65957943Y-65334253D01*
X65981680Y-65288805D01*
X66019151Y-65260396D01*
X66064280Y-65250573D01*
X66110989Y-65260887D01*
X66146868Y-65286112D01*
X66165723Y-65306925D01*
X66176728Y-65327439D01*
X66181974Y-65355203D01*
X66183551Y-65397762D01*
X66183624Y-65418766D01*
X66318410Y-65418766D01*
X66317906Y-65362580D01*
X66300612Y-65275501D01*
X66266971Y-65207530D01*
X66216982Y-65158664D01*
X66150644Y-65128899D01*
X66136399Y-65125448D01*
X66050790Y-65117345D01*
X65975238Y-65131055D01*
X65975238Y-65131055D01*
G37*
X65975238Y-65131055D02*
X65911637Y-65165692D01*
X65861877Y-65220372D01*
X65838432Y-65264842D01*
X65828366Y-65304121D01*
X65821844Y-65360116D01*
X65819049Y-65424621D01*
X65820164Y-65489429D01*
X65825374Y-65546334D01*
X65831459Y-65576727D01*
X65851986Y-65618306D01*
X65887537Y-65662468D01*
X65930381Y-65701087D01*
X65972789Y-65726034D01*
X65973823Y-65726430D01*
X66026447Y-65737331D01*
X66088812Y-65737601D01*
X66148076Y-65727676D01*
X66170960Y-65719722D01*
X66229898Y-65686300D01*
X66272110Y-65642511D01*
X66299844Y-65584538D01*
X66315349Y-65508565D01*
X66318857Y-65468771D01*
X66318410Y-65418766D01*
X66183624Y-65418766D01*
X66179083Y-65491732D01*
X66166014Y-65547334D01*
X66145244Y-65582861D01*
X66130448Y-65593020D01*
X66092536Y-65600104D01*
X66047473Y-65598007D01*
X66008513Y-65587812D01*
X65998296Y-65582204D01*
X65971341Y-65549538D01*
X65953549Y-65499545D01*
X65945976Y-65438705D01*
X65949675Y-65373497D01*
X65957943Y-65334253D01*
X65981680Y-65288805D01*
X66019151Y-65260396D01*
X66064280Y-65250573D01*
X66110989Y-65260887D01*
X66146868Y-65286112D01*
X66165723Y-65306925D01*
X66176728Y-65327439D01*
X66181974Y-65355203D01*
X66183551Y-65397762D01*
X66183624Y-65418766D01*
X66318410Y-65418766D01*
X66317906Y-65362580D01*
X66300612Y-65275501D01*
X66266971Y-65207530D01*
X66216982Y-65158664D01*
X66150644Y-65128899D01*
X66136399Y-65125448D01*
X66050790Y-65117345D01*
X65975238Y-65131055D01*
G36*
X65592633Y-65319342D02*
X65591445Y-65411563D01*
X65587103Y-65481610D01*
X65578442Y-65532381D01*
X65564296Y-65566772D01*
X65543500Y-65587679D01*
X65514890Y-65598000D01*
X65479465Y-65600636D01*
X65442364Y-65597682D01*
X65414182Y-65586889D01*
X65393757Y-65565360D01*
X65379921Y-65530199D01*
X65371509Y-65478510D01*
X65367357Y-65407394D01*
X65366297Y-65319342D01*
X65366297Y-65123614D01*
X65227980Y-65123614D01*
X65227980Y-65727179D01*
X65297138Y-65727179D01*
X65338830Y-65725489D01*
X65360299Y-65719556D01*
X65366297Y-65708293D01*
X65369909Y-65698261D01*
X65384286Y-65700383D01*
X65413264Y-65714580D01*
X65479681Y-65736480D01*
X65550125Y-65734928D01*
X65617623Y-65711147D01*
X65649767Y-65692362D01*
X65674285Y-65672022D01*
X65692196Y-65646573D01*
X65704521Y-65612458D01*
X65712277Y-65566121D01*
X65716484Y-65504007D01*
X65718160Y-65422561D01*
X65718376Y-65359578D01*
X65718376Y-65123614D01*
X65592633Y-65123614D01*
X65592633Y-65319342D01*
X65592633Y-65319342D01*
G37*
X65592633Y-65319342D02*
X65591445Y-65411563D01*
X65587103Y-65481610D01*
X65578442Y-65532381D01*
X65564296Y-65566772D01*
X65543500Y-65587679D01*
X65514890Y-65598000D01*
X65479465Y-65600636D01*
X65442364Y-65597682D01*
X65414182Y-65586889D01*
X65393757Y-65565360D01*
X65379921Y-65530199D01*
X65371509Y-65478510D01*
X65367357Y-65407394D01*
X65366297Y-65319342D01*
X65366297Y-65123614D01*
X65227980Y-65123614D01*
X65227980Y-65727179D01*
X65297138Y-65727179D01*
X65338830Y-65725489D01*
X65360299Y-65719556D01*
X65366297Y-65708293D01*
X65369909Y-65698261D01*
X65384286Y-65700383D01*
X65413264Y-65714580D01*
X65479681Y-65736480D01*
X65550125Y-65734928D01*
X65617623Y-65711147D01*
X65649767Y-65692362D01*
X65674285Y-65672022D01*
X65692196Y-65646573D01*
X65704521Y-65612458D01*
X65712277Y-65566121D01*
X65716484Y-65504007D01*
X65718160Y-65422561D01*
X65718376Y-65359578D01*
X65718376Y-65123614D01*
X65592633Y-65123614D01*
X65592633Y-65319342D01*
G36*
X64368774Y-65128880D02*
X64295920Y-65159830D01*
X64272973Y-65174895D01*
X64243646Y-65198048D01*
X64225236Y-65216253D01*
X64222039Y-65222183D01*
X64231065Y-65235340D01*
X64254163Y-65257667D01*
X64272656Y-65273250D01*
X64323272Y-65313926D01*
X64363240Y-65280295D01*
X64394126Y-65258584D01*
X64424241Y-65251090D01*
X64458708Y-65252920D01*
X64513439Y-65266528D01*
X64551114Y-65294772D01*
X64574009Y-65340433D01*
X64584403Y-65406289D01*
X64584405Y-65406331D01*
X64583506Y-65479939D01*
X64569537Y-65533946D01*
X64541672Y-65570716D01*
X64522675Y-65583168D01*
X64472224Y-65598673D01*
X64418337Y-65598683D01*
X64371454Y-65583638D01*
X64360356Y-65576287D01*
X64332524Y-65557511D01*
X64310764Y-65554434D01*
X64287296Y-65568409D01*
X64261351Y-65593510D01*
X64220284Y-65635880D01*
X64265879Y-65673464D01*
X64336326Y-65715882D01*
X64415767Y-65736785D01*
X64498785Y-65735272D01*
X64553306Y-65721411D01*
X64617030Y-65687135D01*
X64667995Y-65633212D01*
X64691149Y-65595149D01*
X64709901Y-65540536D01*
X64719285Y-65471369D01*
X64719357Y-65396407D01*
X64710176Y-65324409D01*
X64691801Y-65264137D01*
X64688907Y-65257958D01*
X64646048Y-65197351D01*
X64588021Y-65153224D01*
X64519409Y-65126493D01*
X64444799Y-65118073D01*
X64368774Y-65128880D01*
X64368774Y-65128880D01*
G37*
X64368774Y-65128880D02*
X64295920Y-65159830D01*
X64272973Y-65174895D01*
X64243646Y-65198048D01*
X64225236Y-65216253D01*
X64222039Y-65222183D01*
X64231065Y-65235340D01*
X64254163Y-65257667D01*
X64272656Y-65273250D01*
X64323272Y-65313926D01*
X64363240Y-65280295D01*
X64394126Y-65258584D01*
X64424241Y-65251090D01*
X64458708Y-65252920D01*
X64513439Y-65266528D01*
X64551114Y-65294772D01*
X64574009Y-65340433D01*
X64584403Y-65406289D01*
X64584405Y-65406331D01*
X64583506Y-65479939D01*
X64569537Y-65533946D01*
X64541672Y-65570716D01*
X64522675Y-65583168D01*
X64472224Y-65598673D01*
X64418337Y-65598683D01*
X64371454Y-65583638D01*
X64360356Y-65576287D01*
X64332524Y-65557511D01*
X64310764Y-65554434D01*
X64287296Y-65568409D01*
X64261351Y-65593510D01*
X64220284Y-65635880D01*
X64265879Y-65673464D01*
X64336326Y-65715882D01*
X64415767Y-65736785D01*
X64498785Y-65735272D01*
X64553306Y-65721411D01*
X64617030Y-65687135D01*
X64667995Y-65633212D01*
X64691149Y-65595149D01*
X64709901Y-65540536D01*
X64719285Y-65471369D01*
X64719357Y-65396407D01*
X64710176Y-65324409D01*
X64691801Y-65264137D01*
X64688907Y-65257958D01*
X64646048Y-65197351D01*
X64588021Y-65153224D01*
X64519409Y-65126493D01*
X64444799Y-65118073D01*
X64368774Y-65128880D01*
G36*
X63908102Y-65121457D02*
X63875904Y-65129279D01*
X63814175Y-65157921D01*
X63761390Y-65201667D01*
X63724859Y-65254117D01*
X63719840Y-65265893D01*
X63712955Y-65296740D01*
X63708136Y-65342371D01*
X63706495Y-65388492D01*
X63706495Y-65475693D01*
X63888822Y-65475693D01*
X63964021Y-65475978D01*
X64016997Y-65477704D01*
X64050675Y-65482181D01*
X64067980Y-65490720D01*
X64071837Y-65504630D01*
X64065171Y-65525222D01*
X64053230Y-65549315D01*
X64019920Y-65589525D01*
X63973632Y-65609558D01*
X63917056Y-65608905D01*
X63852969Y-65587101D01*
X63797583Y-65560193D01*
X63751625Y-65596532D01*
X63705667Y-65632872D01*
X63748904Y-65672819D01*
X63806626Y-65710563D01*
X63877614Y-65733320D01*
X63953971Y-65739688D01*
X64027801Y-65728268D01*
X64039713Y-65724393D01*
X64104601Y-65690506D01*
X64152870Y-65639986D01*
X64185535Y-65571325D01*
X64203615Y-65483014D01*
X64203825Y-65481121D01*
X64205444Y-65384878D01*
X64198900Y-65350542D01*
X64071148Y-65350542D01*
X64059416Y-65355822D01*
X64027562Y-65359867D01*
X63980603Y-65362176D01*
X63950846Y-65362525D01*
X63895352Y-65362306D01*
X63860654Y-65360916D01*
X63842399Y-65357251D01*
X63836234Y-65350210D01*
X63837805Y-65338690D01*
X63839122Y-65334233D01*
X63861618Y-65292355D01*
X63896997Y-65258604D01*
X63928220Y-65243773D01*
X63969699Y-65244668D01*
X64011731Y-65263164D01*
X64046988Y-65293786D01*
X64068146Y-65331062D01*
X64071148Y-65350542D01*
X64198900Y-65350542D01*
X64189310Y-65300229D01*
X64157302Y-65229191D01*
X64111299Y-65173779D01*
X64053179Y-65136009D01*
X63984820Y-65117896D01*
X63908102Y-65121457D01*
X63908102Y-65121457D01*
G37*
X63908102Y-65121457D02*
X63875904Y-65129279D01*
X63814175Y-65157921D01*
X63761390Y-65201667D01*
X63724859Y-65254117D01*
X63719840Y-65265893D01*
X63712955Y-65296740D01*
X63708136Y-65342371D01*
X63706495Y-65388492D01*
X63706495Y-65475693D01*
X63888822Y-65475693D01*
X63964021Y-65475978D01*
X64016997Y-65477704D01*
X64050675Y-65482181D01*
X64067980Y-65490720D01*
X64071837Y-65504630D01*
X64065171Y-65525222D01*
X64053230Y-65549315D01*
X64019920Y-65589525D01*
X63973632Y-65609558D01*
X63917056Y-65608905D01*
X63852969Y-65587101D01*
X63797583Y-65560193D01*
X63751625Y-65596532D01*
X63705667Y-65632872D01*
X63748904Y-65672819D01*
X63806626Y-65710563D01*
X63877614Y-65733320D01*
X63953971Y-65739688D01*
X64027801Y-65728268D01*
X64039713Y-65724393D01*
X64104601Y-65690506D01*
X64152870Y-65639986D01*
X64185535Y-65571325D01*
X64203615Y-65483014D01*
X64203825Y-65481121D01*
X64205444Y-65384878D01*
X64198900Y-65350542D01*
X64071148Y-65350542D01*
X64059416Y-65355822D01*
X64027562Y-65359867D01*
X63980603Y-65362176D01*
X63950846Y-65362525D01*
X63895352Y-65362306D01*
X63860654Y-65360916D01*
X63842399Y-65357251D01*
X63836234Y-65350210D01*
X63837805Y-65338690D01*
X63839122Y-65334233D01*
X63861618Y-65292355D01*
X63896997Y-65258604D01*
X63928220Y-65243773D01*
X63969699Y-65244668D01*
X64011731Y-65263164D01*
X64046988Y-65293786D01*
X64068146Y-65331062D01*
X64071148Y-65350542D01*
X64198900Y-65350542D01*
X64189310Y-65300229D01*
X64157302Y-65229191D01*
X64111299Y-65173779D01*
X64053179Y-65136009D01*
X63984820Y-65117896D01*
X63908102Y-65121457D01*
G36*
X67340012Y-65134002D02*
X67308717Y-65148950D01*
X67278409Y-65170541D01*
X67255318Y-65195391D01*
X67238500Y-65227087D01*
X67227006Y-65269214D01*
X67219891Y-65325358D01*
X67216207Y-65399106D01*
X67215008Y-65494044D01*
X67214989Y-65503985D01*
X67214713Y-65727179D01*
X67353030Y-65727179D01*
X67353030Y-65521418D01*
X67353128Y-65445189D01*
X67353809Y-65389939D01*
X67355651Y-65351501D01*
X67359233Y-65325706D01*
X67365132Y-65308384D01*
X67373927Y-65295368D01*
X67386180Y-65282507D01*
X67429047Y-65254873D01*
X67475843Y-65249745D01*
X67520424Y-65267217D01*
X67535928Y-65280221D01*
X67547310Y-65292447D01*
X67555481Y-65305540D01*
X67560974Y-65323615D01*
X67564320Y-65350787D01*
X67566051Y-65391170D01*
X67566697Y-65448879D01*
X67566792Y-65519132D01*
X67566792Y-65727179D01*
X67705109Y-65727179D01*
X67705109Y-65123614D01*
X67635950Y-65123614D01*
X67594428Y-65125256D01*
X67573006Y-65131087D01*
X67566795Y-65142461D01*
X67566792Y-65142798D01*
X67563910Y-65153938D01*
X67551199Y-65152674D01*
X67525926Y-65140434D01*
X67468605Y-65122424D01*
X67403037Y-65120421D01*
X67340012Y-65134002D01*
X67340012Y-65134002D01*
G37*
X67340012Y-65134002D02*
X67308717Y-65148950D01*
X67278409Y-65170541D01*
X67255318Y-65195391D01*
X67238500Y-65227087D01*
X67227006Y-65269214D01*
X67219891Y-65325358D01*
X67216207Y-65399106D01*
X67215008Y-65494044D01*
X67214989Y-65503985D01*
X67214713Y-65727179D01*
X67353030Y-65727179D01*
X67353030Y-65521418D01*
X67353128Y-65445189D01*
X67353809Y-65389939D01*
X67355651Y-65351501D01*
X67359233Y-65325706D01*
X67365132Y-65308384D01*
X67373927Y-65295368D01*
X67386180Y-65282507D01*
X67429047Y-65254873D01*
X67475843Y-65249745D01*
X67520424Y-65267217D01*
X67535928Y-65280221D01*
X67547310Y-65292447D01*
X67555481Y-65305540D01*
X67560974Y-65323615D01*
X67564320Y-65350787D01*
X67566051Y-65391170D01*
X67566697Y-65448879D01*
X67566792Y-65519132D01*
X67566792Y-65727179D01*
X67705109Y-65727179D01*
X67705109Y-65123614D01*
X67635950Y-65123614D01*
X67594428Y-65125256D01*
X67573006Y-65131087D01*
X67566795Y-65142461D01*
X67566792Y-65142798D01*
X67563910Y-65153938D01*
X67551199Y-65152674D01*
X67525926Y-65140434D01*
X67468605Y-65122424D01*
X67403037Y-65120421D01*
X67340012Y-65134002D01*
G36*
X64786540Y-65123030D02*
X64743289Y-65136245D01*
X64715442Y-65152941D01*
X64706371Y-65166145D01*
X64708868Y-65181797D01*
X64725069Y-65206385D01*
X64738768Y-65223800D01*
X64767008Y-65255283D01*
X64788225Y-65268529D01*
X64806312Y-65267664D01*
X64859965Y-65254010D01*
X64899370Y-65254630D01*
X64931368Y-65270104D01*
X64942110Y-65279161D01*
X64976495Y-65311027D01*
X64976495Y-65727179D01*
X65114812Y-65727179D01*
X65114812Y-65123614D01*
X65045653Y-65123614D01*
X65004131Y-65125256D01*
X64982709Y-65131087D01*
X64976498Y-65142461D01*
X64976495Y-65142798D01*
X64973561Y-65154713D01*
X64960296Y-65153159D01*
X64941916Y-65144563D01*
X64903954Y-65128568D01*
X64873128Y-65118945D01*
X64833464Y-65116478D01*
X64786540Y-65123030D01*
X64786540Y-65123030D01*
G37*
X64786540Y-65123030D02*
X64743289Y-65136245D01*
X64715442Y-65152941D01*
X64706371Y-65166145D01*
X64708868Y-65181797D01*
X64725069Y-65206385D01*
X64738768Y-65223800D01*
X64767008Y-65255283D01*
X64788225Y-65268529D01*
X64806312Y-65267664D01*
X64859965Y-65254010D01*
X64899370Y-65254630D01*
X64931368Y-65270104D01*
X64942110Y-65279161D01*
X64976495Y-65311027D01*
X64976495Y-65727179D01*
X65114812Y-65727179D01*
X65114812Y-65123614D01*
X65045653Y-65123614D01*
X65004131Y-65125256D01*
X64982709Y-65131087D01*
X64976498Y-65142461D01*
X64976495Y-65142798D01*
X64973561Y-65154713D01*
X64960296Y-65153159D01*
X64941916Y-65144563D01*
X64903954Y-65128568D01*
X64873128Y-65118945D01*
X64833464Y-65116478D01*
X64786540Y-65123030D01*
G36*
X66209036Y-60955018D02*
X66152188Y-61256570D01*
X65732662Y-61429512D01*
X65481016Y-61258395D01*
X65410542Y-61210750D01*
X65346837Y-61168210D01*
X65292874Y-61132715D01*
X65251627Y-61106210D01*
X65226066Y-61090636D01*
X65219105Y-61087278D01*
X65206565Y-61095914D01*
X65179769Y-61119792D01*
X65141720Y-61155859D01*
X65095421Y-61201067D01*
X65043877Y-61252364D01*
X64990091Y-61306701D01*
X64937065Y-61361028D01*
X64887805Y-61412295D01*
X64845313Y-61457451D01*
X64812593Y-61493446D01*
X64792649Y-61517230D01*
X64787881Y-61525190D01*
X64794743Y-61539865D01*
X64813980Y-61572014D01*
X64843570Y-61618492D01*
X64881490Y-61676156D01*
X64925718Y-61741860D01*
X64951346Y-61779336D01*
X64998059Y-61847768D01*
X65039568Y-61909520D01*
X65073860Y-61961519D01*
X65098920Y-62000692D01*
X65112736Y-62023965D01*
X65114812Y-62028855D01*
X65110105Y-62042755D01*
X65097277Y-62075150D01*
X65078262Y-62121485D01*
X65054997Y-62177206D01*
X65029416Y-62237758D01*
X65003455Y-62298586D01*
X64979050Y-62355136D01*
X64958137Y-62402852D01*
X64942651Y-62437181D01*
X64934528Y-62453568D01*
X64934048Y-62454212D01*
X64921293Y-62457341D01*
X64887323Y-62464321D01*
X64835660Y-62474467D01*
X64769824Y-62487092D01*
X64693336Y-62501509D01*
X64648710Y-62509823D01*
X64566979Y-62525384D01*
X64493157Y-62540192D01*
X64430979Y-62553436D01*
X64384178Y-62564305D01*
X64356491Y-62571989D01*
X64350926Y-62574427D01*
X64345474Y-62590930D01*
X64341076Y-62628200D01*
X64337728Y-62681880D01*
X64335426Y-62747612D01*
X64334168Y-62821037D01*
X64333952Y-62897796D01*
X64334773Y-62973532D01*
X64336629Y-63043886D01*
X64339518Y-63104500D01*
X64343435Y-63151016D01*
X64348378Y-63179075D01*
X64351343Y-63184916D01*
X64369066Y-63191917D01*
X64406619Y-63201927D01*
X64459036Y-63213769D01*
X64521348Y-63226267D01*
X64543100Y-63230310D01*
X64647976Y-63249520D01*
X64730820Y-63264991D01*
X64794370Y-63277337D01*
X64841363Y-63287173D01*
X64874537Y-63295114D01*
X64896629Y-63301776D01*
X64910376Y-63307773D01*
X64918516Y-63313719D01*
X64919655Y-63314894D01*
X64931023Y-63333826D01*
X64948365Y-63370669D01*
X64969950Y-63420913D01*
X64994046Y-63480046D01*
X65018921Y-63543556D01*
X65042843Y-63606932D01*
X65064081Y-63665662D01*
X65080903Y-63715235D01*
X65091578Y-63751139D01*
X65094373Y-63768862D01*
X65094140Y-63769483D01*
X65084669Y-63783970D01*
X65063182Y-63815844D01*
X65031937Y-63861789D01*
X64993193Y-63918485D01*
X64949207Y-63982617D01*
X64936681Y-64000842D01*
X64892016Y-64066914D01*
X64852712Y-64127200D01*
X64820912Y-64178235D01*
X64798755Y-64216560D01*
X64788383Y-64238711D01*
X64787881Y-64241432D01*
X64796595Y-64255736D01*
X64820675Y-64284072D01*
X64857024Y-64323396D01*
X64902547Y-64370661D01*
X64954148Y-64422823D01*
X65008733Y-64476835D01*
X65063206Y-64529653D01*
X65114471Y-64578231D01*
X65159433Y-64619523D01*
X65194996Y-64650485D01*
X65218065Y-64668070D01*
X65224446Y-64670941D01*
X65239301Y-64664178D01*
X65269714Y-64645939D01*
X65310732Y-64619297D01*
X65342291Y-64597852D01*
X65399475Y-64558503D01*
X65467194Y-64512171D01*
X65535120Y-64465913D01*
X65571639Y-64441155D01*
X65695248Y-64357547D01*
X65799009Y-64413650D01*
X65846280Y-64438228D01*
X65886477Y-64457331D01*
X65913674Y-64468227D01*
X65920598Y-64469743D01*
X65928923Y-64458549D01*
X65945346Y-64426917D01*
X65968643Y-64377765D01*
X65997586Y-64314010D01*
X66030950Y-64238571D01*
X66067509Y-64154364D01*
X66106036Y-64064308D01*
X66145306Y-63971321D01*
X66184092Y-63878320D01*
X66221170Y-63788223D01*
X66255311Y-63703948D01*
X66285292Y-63628413D01*
X66309884Y-63564534D01*
X66327864Y-63515231D01*
X66338003Y-63483421D01*
X66339634Y-63472496D01*
X66326709Y-63458561D01*
X66298411Y-63435940D01*
X66260654Y-63409333D01*
X66257485Y-63407228D01*
X66159900Y-63329114D01*
X66081214Y-63237982D01*
X66022109Y-63136745D01*
X65983268Y-63028318D01*
X65965372Y-62915614D01*
X65969103Y-62801548D01*
X65995143Y-62689034D01*
X66044175Y-62580985D01*
X66058600Y-62557345D01*
X66133631Y-62461887D01*
X66222270Y-62385232D01*
X66321451Y-62327780D01*
X66428105Y-62289929D01*
X66539164Y-62272078D01*
X66651561Y-62274625D01*
X66762227Y-62297970D01*
X66868094Y-62342510D01*
X66966095Y-62408645D01*
X66996410Y-62435487D01*
X67073562Y-62519512D01*
X67129782Y-62607966D01*
X67168347Y-62707115D01*
X67189826Y-62805303D01*
X67195128Y-62915697D01*
X67177448Y-63026640D01*
X67138581Y-63134381D01*
X67080323Y-63235169D01*
X67004469Y-63325256D01*
X66912817Y-63400892D01*
X66900772Y-63408864D01*
X66862611Y-63434974D01*
X66833601Y-63457595D01*
X66819732Y-63472039D01*
X66819531Y-63472496D01*
X66822508Y-63488121D01*
X66834311Y-63523582D01*
X66853714Y-63575962D01*
X66879488Y-63642345D01*
X66910409Y-63719814D01*
X66945249Y-63805450D01*
X66982783Y-63896337D01*
X67021783Y-63989559D01*
X67061023Y-64082197D01*
X67099276Y-64171335D01*
X67135317Y-64254055D01*
X67167917Y-64327441D01*
X67195852Y-64388575D01*
X67217895Y-64434541D01*
X67232818Y-64462421D01*
X67238828Y-64469743D01*
X67257191Y-64464041D01*
X67291552Y-64448749D01*
X67335984Y-64426599D01*
X67360417Y-64413650D01*
X67464178Y-64357547D01*
X67587787Y-64441155D01*
X67650886Y-64483987D01*
X67719970Y-64531122D01*
X67784707Y-64575503D01*
X67817134Y-64597852D01*
X67862741Y-64628477D01*
X67901360Y-64652747D01*
X67927952Y-64667587D01*
X67936590Y-64670724D01*
X67949161Y-64662261D01*
X67976984Y-64638636D01*
X68017361Y-64602302D01*
X68067595Y-64555711D01*
X68124988Y-64501317D01*
X68161286Y-64466392D01*
X68224790Y-64403996D01*
X68279673Y-64348188D01*
X68323714Y-64301354D01*
X68354695Y-64265882D01*
X68370398Y-64244161D01*
X68371905Y-64239752D01*
X68364914Y-64222985D01*
X68345594Y-64189082D01*
X68316091Y-64141476D01*
X68278545Y-64083599D01*
X68235100Y-64018884D01*
X68222745Y-64000842D01*
X68177727Y-63935267D01*
X68137340Y-63876228D01*
X68103840Y-63827042D01*
X68079486Y-63791028D01*
X68066536Y-63771502D01*
X68065285Y-63769483D01*
X68067156Y-63753922D01*
X68077087Y-63719709D01*
X68093347Y-63671355D01*
X68114205Y-63613371D01*
X68137927Y-63550270D01*
X68162784Y-63486563D01*
X68187042Y-63426761D01*
X68208971Y-63375376D01*
X68226838Y-63336919D01*
X68238913Y-63315902D01*
X68239771Y-63314894D01*
X68247154Y-63308888D01*
X68259625Y-63302948D01*
X68279920Y-63296460D01*
X68310778Y-63288809D01*
X68354934Y-63279380D01*
X68415126Y-63267559D01*
X68494093Y-63252729D01*
X68594570Y-63234277D01*
X68616325Y-63230310D01*
X68680802Y-63217853D01*
X68737011Y-63205666D01*
X68779987Y-63194926D01*
X68804760Y-63186809D01*
X68808082Y-63184916D01*
X68813556Y-63168138D01*
X68818006Y-63130645D01*
X68821428Y-63076794D01*
X68823819Y-63010944D01*
X68825177Y-62937453D01*
X68825499Y-62860680D01*
X68824781Y-62784983D01*
X68823021Y-62714720D01*
X68820216Y-62654250D01*
X68816362Y-62607930D01*
X68811457Y-62580119D01*
X68808500Y-62574427D01*
X68792037Y-62568686D01*
X68754551Y-62559345D01*
X68699775Y-62547215D01*
X68631445Y-62533107D01*
X68553294Y-62517830D01*
X68510716Y-62509823D01*
X68429929Y-62494721D01*
X68357887Y-62481040D01*
X68298111Y-62469467D01*
X68254121Y-62460687D01*
X68229439Y-62455387D01*
X68225377Y-62454212D01*
X68218511Y-62440965D01*
X68203998Y-62409057D01*
X68183771Y-62363047D01*
X68159766Y-62307492D01*
X68133918Y-62246953D01*
X68108160Y-62185986D01*
X68084427Y-62129151D01*
X68064654Y-62081006D01*
X68050776Y-62046110D01*
X68044726Y-62029021D01*
X68044614Y-62028274D01*
X68051472Y-62014793D01*
X68070698Y-61983770D01*
X68100272Y-61938289D01*
X68138173Y-61881432D01*
X68182380Y-61816283D01*
X68208079Y-61778862D01*
X68254907Y-61710247D01*
X68296499Y-61647952D01*
X68330825Y-61595129D01*
X68355857Y-61554927D01*
X68369565Y-61530500D01*
X68371544Y-61525024D01*
X68363034Y-61512278D01*
X68339507Y-61485063D01*
X68303968Y-61446428D01*
X68259423Y-61399423D01*
X68208877Y-61347095D01*
X68155336Y-61292495D01*
X68101805Y-61238670D01*
X68051289Y-61188670D01*
X68006794Y-61145543D01*
X67971325Y-61112339D01*
X67947887Y-61092106D01*
X67940046Y-61087278D01*
X67927280Y-61094067D01*
X67896744Y-61113142D01*
X67851410Y-61142561D01*
X67794244Y-61180381D01*
X67728216Y-61224661D01*
X67678410Y-61258395D01*
X67426764Y-61429512D01*
X67217001Y-61343041D01*
X67007237Y-61256570D01*
X66950389Y-60955018D01*
X66893540Y-60653466D01*
X66265885Y-60653466D01*
X66209036Y-60955018D01*
X66209036Y-60955018D01*
G37*
X66209036Y-60955018D02*
X66152188Y-61256570D01*
X65732662Y-61429512D01*
X65481016Y-61258395D01*
X65410542Y-61210750D01*
X65346837Y-61168210D01*
X65292874Y-61132715D01*
X65251627Y-61106210D01*
X65226066Y-61090636D01*
X65219105Y-61087278D01*
X65206565Y-61095914D01*
X65179769Y-61119792D01*
X65141720Y-61155859D01*
X65095421Y-61201067D01*
X65043877Y-61252364D01*
X64990091Y-61306701D01*
X64937065Y-61361028D01*
X64887805Y-61412295D01*
X64845313Y-61457451D01*
X64812593Y-61493446D01*
X64792649Y-61517230D01*
X64787881Y-61525190D01*
X64794743Y-61539865D01*
X64813980Y-61572014D01*
X64843570Y-61618492D01*
X64881490Y-61676156D01*
X64925718Y-61741860D01*
X64951346Y-61779336D01*
X64998059Y-61847768D01*
X65039568Y-61909520D01*
X65073860Y-61961519D01*
X65098920Y-62000692D01*
X65112736Y-62023965D01*
X65114812Y-62028855D01*
X65110105Y-62042755D01*
X65097277Y-62075150D01*
X65078262Y-62121485D01*
X65054997Y-62177206D01*
X65029416Y-62237758D01*
X65003455Y-62298586D01*
X64979050Y-62355136D01*
X64958137Y-62402852D01*
X64942651Y-62437181D01*
X64934528Y-62453568D01*
X64934048Y-62454212D01*
X64921293Y-62457341D01*
X64887323Y-62464321D01*
X64835660Y-62474467D01*
X64769824Y-62487092D01*
X64693336Y-62501509D01*
X64648710Y-62509823D01*
X64566979Y-62525384D01*
X64493157Y-62540192D01*
X64430979Y-62553436D01*
X64384178Y-62564305D01*
X64356491Y-62571989D01*
X64350926Y-62574427D01*
X64345474Y-62590930D01*
X64341076Y-62628200D01*
X64337728Y-62681880D01*
X64335426Y-62747612D01*
X64334168Y-62821037D01*
X64333952Y-62897796D01*
X64334773Y-62973532D01*
X64336629Y-63043886D01*
X64339518Y-63104500D01*
X64343435Y-63151016D01*
X64348378Y-63179075D01*
X64351343Y-63184916D01*
X64369066Y-63191917D01*
X64406619Y-63201927D01*
X64459036Y-63213769D01*
X64521348Y-63226267D01*
X64543100Y-63230310D01*
X64647976Y-63249520D01*
X64730820Y-63264991D01*
X64794370Y-63277337D01*
X64841363Y-63287173D01*
X64874537Y-63295114D01*
X64896629Y-63301776D01*
X64910376Y-63307773D01*
X64918516Y-63313719D01*
X64919655Y-63314894D01*
X64931023Y-63333826D01*
X64948365Y-63370669D01*
X64969950Y-63420913D01*
X64994046Y-63480046D01*
X65018921Y-63543556D01*
X65042843Y-63606932D01*
X65064081Y-63665662D01*
X65080903Y-63715235D01*
X65091578Y-63751139D01*
X65094373Y-63768862D01*
X65094140Y-63769483D01*
X65084669Y-63783970D01*
X65063182Y-63815844D01*
X65031937Y-63861789D01*
X64993193Y-63918485D01*
X64949207Y-63982617D01*
X64936681Y-64000842D01*
X64892016Y-64066914D01*
X64852712Y-64127200D01*
X64820912Y-64178235D01*
X64798755Y-64216560D01*
X64788383Y-64238711D01*
X64787881Y-64241432D01*
X64796595Y-64255736D01*
X64820675Y-64284072D01*
X64857024Y-64323396D01*
X64902547Y-64370661D01*
X64954148Y-64422823D01*
X65008733Y-64476835D01*
X65063206Y-64529653D01*
X65114471Y-64578231D01*
X65159433Y-64619523D01*
X65194996Y-64650485D01*
X65218065Y-64668070D01*
X65224446Y-64670941D01*
X65239301Y-64664178D01*
X65269714Y-64645939D01*
X65310732Y-64619297D01*
X65342291Y-64597852D01*
X65399475Y-64558503D01*
X65467194Y-64512171D01*
X65535120Y-64465913D01*
X65571639Y-64441155D01*
X65695248Y-64357547D01*
X65799009Y-64413650D01*
X65846280Y-64438228D01*
X65886477Y-64457331D01*
X65913674Y-64468227D01*
X65920598Y-64469743D01*
X65928923Y-64458549D01*
X65945346Y-64426917D01*
X65968643Y-64377765D01*
X65997586Y-64314010D01*
X66030950Y-64238571D01*
X66067509Y-64154364D01*
X66106036Y-64064308D01*
X66145306Y-63971321D01*
X66184092Y-63878320D01*
X66221170Y-63788223D01*
X66255311Y-63703948D01*
X66285292Y-63628413D01*
X66309884Y-63564534D01*
X66327864Y-63515231D01*
X66338003Y-63483421D01*
X66339634Y-63472496D01*
X66326709Y-63458561D01*
X66298411Y-63435940D01*
X66260654Y-63409333D01*
X66257485Y-63407228D01*
X66159900Y-63329114D01*
X66081214Y-63237982D01*
X66022109Y-63136745D01*
X65983268Y-63028318D01*
X65965372Y-62915614D01*
X65969103Y-62801548D01*
X65995143Y-62689034D01*
X66044175Y-62580985D01*
X66058600Y-62557345D01*
X66133631Y-62461887D01*
X66222270Y-62385232D01*
X66321451Y-62327780D01*
X66428105Y-62289929D01*
X66539164Y-62272078D01*
X66651561Y-62274625D01*
X66762227Y-62297970D01*
X66868094Y-62342510D01*
X66966095Y-62408645D01*
X66996410Y-62435487D01*
X67073562Y-62519512D01*
X67129782Y-62607966D01*
X67168347Y-62707115D01*
X67189826Y-62805303D01*
X67195128Y-62915697D01*
X67177448Y-63026640D01*
X67138581Y-63134381D01*
X67080323Y-63235169D01*
X67004469Y-63325256D01*
X66912817Y-63400892D01*
X66900772Y-63408864D01*
X66862611Y-63434974D01*
X66833601Y-63457595D01*
X66819732Y-63472039D01*
X66819531Y-63472496D01*
X66822508Y-63488121D01*
X66834311Y-63523582D01*
X66853714Y-63575962D01*
X66879488Y-63642345D01*
X66910409Y-63719814D01*
X66945249Y-63805450D01*
X66982783Y-63896337D01*
X67021783Y-63989559D01*
X67061023Y-64082197D01*
X67099276Y-64171335D01*
X67135317Y-64254055D01*
X67167917Y-64327441D01*
X67195852Y-64388575D01*
X67217895Y-64434541D01*
X67232818Y-64462421D01*
X67238828Y-64469743D01*
X67257191Y-64464041D01*
X67291552Y-64448749D01*
X67335984Y-64426599D01*
X67360417Y-64413650D01*
X67464178Y-64357547D01*
X67587787Y-64441155D01*
X67650886Y-64483987D01*
X67719970Y-64531122D01*
X67784707Y-64575503D01*
X67817134Y-64597852D01*
X67862741Y-64628477D01*
X67901360Y-64652747D01*
X67927952Y-64667587D01*
X67936590Y-64670724D01*
X67949161Y-64662261D01*
X67976984Y-64638636D01*
X68017361Y-64602302D01*
X68067595Y-64555711D01*
X68124988Y-64501317D01*
X68161286Y-64466392D01*
X68224790Y-64403996D01*
X68279673Y-64348188D01*
X68323714Y-64301354D01*
X68354695Y-64265882D01*
X68370398Y-64244161D01*
X68371905Y-64239752D01*
X68364914Y-64222985D01*
X68345594Y-64189082D01*
X68316091Y-64141476D01*
X68278545Y-64083599D01*
X68235100Y-64018884D01*
X68222745Y-64000842D01*
X68177727Y-63935267D01*
X68137340Y-63876228D01*
X68103840Y-63827042D01*
X68079486Y-63791028D01*
X68066536Y-63771502D01*
X68065285Y-63769483D01*
X68067156Y-63753922D01*
X68077087Y-63719709D01*
X68093347Y-63671355D01*
X68114205Y-63613371D01*
X68137927Y-63550270D01*
X68162784Y-63486563D01*
X68187042Y-63426761D01*
X68208971Y-63375376D01*
X68226838Y-63336919D01*
X68238913Y-63315902D01*
X68239771Y-63314894D01*
X68247154Y-63308888D01*
X68259625Y-63302948D01*
X68279920Y-63296460D01*
X68310778Y-63288809D01*
X68354934Y-63279380D01*
X68415126Y-63267559D01*
X68494093Y-63252729D01*
X68594570Y-63234277D01*
X68616325Y-63230310D01*
X68680802Y-63217853D01*
X68737011Y-63205666D01*
X68779987Y-63194926D01*
X68804760Y-63186809D01*
X68808082Y-63184916D01*
X68813556Y-63168138D01*
X68818006Y-63130645D01*
X68821428Y-63076794D01*
X68823819Y-63010944D01*
X68825177Y-62937453D01*
X68825499Y-62860680D01*
X68824781Y-62784983D01*
X68823021Y-62714720D01*
X68820216Y-62654250D01*
X68816362Y-62607930D01*
X68811457Y-62580119D01*
X68808500Y-62574427D01*
X68792037Y-62568686D01*
X68754551Y-62559345D01*
X68699775Y-62547215D01*
X68631445Y-62533107D01*
X68553294Y-62517830D01*
X68510716Y-62509823D01*
X68429929Y-62494721D01*
X68357887Y-62481040D01*
X68298111Y-62469467D01*
X68254121Y-62460687D01*
X68229439Y-62455387D01*
X68225377Y-62454212D01*
X68218511Y-62440965D01*
X68203998Y-62409057D01*
X68183771Y-62363047D01*
X68159766Y-62307492D01*
X68133918Y-62246953D01*
X68108160Y-62185986D01*
X68084427Y-62129151D01*
X68064654Y-62081006D01*
X68050776Y-62046110D01*
X68044726Y-62029021D01*
X68044614Y-62028274D01*
X68051472Y-62014793D01*
X68070698Y-61983770D01*
X68100272Y-61938289D01*
X68138173Y-61881432D01*
X68182380Y-61816283D01*
X68208079Y-61778862D01*
X68254907Y-61710247D01*
X68296499Y-61647952D01*
X68330825Y-61595129D01*
X68355857Y-61554927D01*
X68369565Y-61530500D01*
X68371544Y-61525024D01*
X68363034Y-61512278D01*
X68339507Y-61485063D01*
X68303968Y-61446428D01*
X68259423Y-61399423D01*
X68208877Y-61347095D01*
X68155336Y-61292495D01*
X68101805Y-61238670D01*
X68051289Y-61188670D01*
X68006794Y-61145543D01*
X67971325Y-61112339D01*
X67947887Y-61092106D01*
X67940046Y-61087278D01*
X67927280Y-61094067D01*
X67896744Y-61113142D01*
X67851410Y-61142561D01*
X67794244Y-61180381D01*
X67728216Y-61224661D01*
X67678410Y-61258395D01*
X67426764Y-61429512D01*
X67217001Y-61343041D01*
X67007237Y-61256570D01*
X66950389Y-60955018D01*
X66893540Y-60653466D01*
X66265885Y-60653466D01*
X66209036Y-60955018D01*
M02*
