G04 #@! TF.FileFunction,Soldermask,Top*
%FSLAX46Y46*%
G04 Gerber Fmt 4.6, Leading zero omitted, Abs format (unit mm)*
G04 Created by KiCad (PCBNEW 4.0.2-stable) date 9/5/2017 9:47:42 PM*
%MOMM*%
G01*
G04 APERTURE LIST*
%ADD10C,0.100000*%
%ADD11R,1.000000X1.250000*%
%ADD12R,1.000000X1.600000*%
%ADD13R,1.250000X1.000000*%
%ADD14R,2.150000X5.500000*%
%ADD15R,1.700000X1.700000*%
%ADD16O,1.700000X1.700000*%
%ADD17R,1.300000X0.700000*%
%ADD18R,0.700000X1.300000*%
%ADD19R,1.500000X0.700000*%
%ADD20R,1.500000X1.000000*%
%ADD21R,0.800000X2.000000*%
%ADD22R,1.800000X2.500000*%
G04 APERTURE END LIST*
D10*
D11*
X51082600Y-51955600D03*
X53082600Y-51955600D03*
X68297200Y-52006400D03*
X66297200Y-52006400D03*
D12*
X61911000Y-60617000D03*
X64911000Y-60617000D03*
X52005000Y-60617000D03*
X55005000Y-60617000D03*
D13*
X51092000Y-65808000D03*
X51092000Y-63808000D03*
X61125000Y-65871500D03*
X61125000Y-63871500D03*
D14*
X51453000Y-56680000D03*
X55303000Y-56680000D03*
X61232000Y-56680000D03*
X65082000Y-56680000D03*
D15*
X55918000Y-51981000D03*
D16*
X58458000Y-51981000D03*
X60998000Y-51981000D03*
X63538000Y-51981000D03*
D15*
X52108000Y-71920000D03*
D16*
X54648000Y-71920000D03*
X57188000Y-71920000D03*
D15*
X67602000Y-71920000D03*
D16*
X65062000Y-71920000D03*
D17*
X58813600Y-62791200D03*
X58813600Y-64691200D03*
X68872000Y-62803900D03*
X68872000Y-64703900D03*
D18*
X52804000Y-68999000D03*
X50904000Y-68999000D03*
X56116200Y-68999000D03*
X54216200Y-68999000D03*
D10*
G36*
X55302000Y-63300000D02*
X56052000Y-63800000D01*
X56052000Y-64800000D01*
X55302000Y-65300000D01*
X55302000Y-63300000D01*
X55302000Y-63300000D01*
G37*
D19*
X56752000Y-62800000D03*
X56752000Y-65800000D03*
X53052000Y-62800000D03*
D20*
X53052000Y-64300000D03*
D19*
X53052000Y-65800000D03*
D20*
X56752000Y-64300000D03*
D10*
G36*
X54502000Y-65300000D02*
X53752000Y-64800000D01*
X53752000Y-63800000D01*
X54502000Y-63300000D01*
X54502000Y-65300000D01*
X54502000Y-65300000D01*
G37*
D21*
X54902000Y-64300000D03*
D10*
G36*
X65407000Y-63339500D02*
X66157000Y-63839500D01*
X66157000Y-64839500D01*
X65407000Y-65339500D01*
X65407000Y-63339500D01*
X65407000Y-63339500D01*
G37*
D19*
X66857000Y-62839500D03*
X66857000Y-65839500D03*
X63157000Y-62839500D03*
D20*
X63157000Y-64339500D03*
D19*
X63157000Y-65839500D03*
D20*
X66857000Y-64339500D03*
D10*
G36*
X64607000Y-65339500D02*
X63857000Y-64839500D01*
X63857000Y-63839500D01*
X64607000Y-63339500D01*
X64607000Y-65339500D01*
X64607000Y-65339500D01*
G37*
D21*
X65007000Y-64339500D03*
D22*
X58331000Y-59315000D03*
X58331000Y-55315000D03*
X68110000Y-59283000D03*
X68110000Y-55283000D03*
M02*
