M48
;DRILL file {KiCad 4.0.2-stable} date 9/5/2017 9:47:47 PM
;FORMAT={3:3/ absolute / metric / suppress leading zeros}
FMAT,2
METRIC,TZ
T1C0.400
T2C1.000
%
G90
G05
M71
T1
X51790Y-53430
X53403Y-67373
X54089Y-67373
X54775Y-67373
X55461Y-67373
X56147Y-67373
X56172Y-60642
X56629Y-61100
X58839Y-67678
X59322Y-68161
X59957Y-61252
X59957Y-61887
X63487Y-67437
X64173Y-67437
X64859Y-67437
X64884Y-53430
X65545Y-67437
X66154Y-60693
X66230Y-67437
X66611Y-61150
X68593Y-66738
X68593Y-67399
T2
X52108Y-71920
X54648Y-71920
X55918Y-51981
X57188Y-71920
X58458Y-51981
X60998Y-51981
X63538Y-51981
X65062Y-71920
X67602Y-71920
T0
M30
